M48
;GenerationSoftware,Autodesk,EAGLE,9.6.2*%
;CreationDate,2022-06-17T15:18:01Z*%
FMAT,2
ICI,OFF
METRIC,TZ,000.000
T5C0.350
T4C0.760
T3C1.000
T2C1.016
T1C3.200
%
G90
M71
T1
X66167Y35687
X66167Y7747
X96647Y2667
X15367Y50927
X90297Y50927
X14097Y2667
T2
X60960Y50800
X58420Y50800
X45720Y50800
X48260Y50800
X50800Y50800
X53340Y50800
X55880Y50800
X81280Y2540
X63500Y50800
X68580Y50800
X71120Y50800
X73660Y50800
X76200Y50800
X78740Y50800
X81280Y50800
X83820Y50800
X86360Y50800
X73660Y2540
X76200Y2540
X78740Y2540
X38532Y14391
X83820Y2540
X86360Y2540
X88900Y2540
X91440Y2540
X50800Y2540
X53340Y2540
X55880Y2540
X58420Y2540
X60960Y2540
X63500Y2540
X66040Y2540
X68580Y2540
X18796Y50800
X21336Y50800
X23876Y50800
X26416Y50800
X28956Y50800
X31496Y50800
X34036Y50800
X36576Y50800
X39116Y50800
X41656Y50800
X27940Y2540
X30480Y2540
X33020Y2540
X35560Y2540
X38100Y2540
X40640Y2540
X43180Y2540
X45720Y2540
X38532Y11793
X38532Y9195
T3
X18585Y21590
X94615Y13970
X92215Y11970
X88515Y13970
X86715Y11970
X18585Y12065
X6985Y12065
X9385Y14065
X13085Y12065
X14885Y14065
X83015Y13970
X6985Y21590
X9385Y23590
X13085Y21590
X14885Y23590
X6985Y31115
X9385Y33115
X13085Y31115
X14885Y33115
X18585Y31115
X6985Y40640
X9385Y42640
X13085Y40640
X14885Y42640
X18585Y40640
X94615Y42545
X92215Y40545
X88515Y42545
X86715Y40545
X83015Y42545
X94615Y33020
X92215Y31020
X88515Y33020
X86715Y31020
X83015Y33020
X94615Y23495
X92215Y21495
X88515Y23495
X86715Y21495
X83015Y23495
T4
X61856Y14038
X64396Y14038
X72016Y14038
X74556Y14038
X77096Y14038
T5
X55880Y27940
X86360Y43180
X90170Y40640
X90170Y30480
X83312Y29718
X89535Y11430
X47625Y25146
X45085Y17780
X42599Y30426
X46990Y26399
X53602Y19622
X46355Y24384
X52852Y19685
X45720Y28829
X42545Y24130
X20955Y45085
X45720Y21590
X42545Y25400
X44450Y21590
X20574Y26797
X50007Y20796
X45847Y26924
X59309Y25400
X45720Y30861
X61789Y7620
X60833Y5643
X93345Y5080
X99695Y7620
X97155Y7620
X60579Y11303
X49149Y6236
X54820Y11220
X57402Y7366
X51181Y6985
X66716Y5461
X52500Y4262
X61890Y4572
X51742Y3736
X35117Y20447
X36876Y20681
X39116Y32131
X37084Y32131
X34671Y14478
X36842Y23274
X43180Y36830
X34671Y19404
X38164Y29845
X34989Y29972
X36664Y25654
X47261Y23495
X32492Y12172
X44196Y32004
X41783Y32131
X57150Y14605
X49149Y14859
X47625Y34290
X42545Y36195
X49784Y13810
X45720Y40806
X48318Y41471
X42863Y40323
X55245Y34265
X57150Y22225
X50165Y34290
X57483Y33353
X20066Y46101
X9525Y49530
X20765Y35243
X20574Y30988
X20955Y19812
X27927Y19050
X33655Y16510
X35560Y16510
X36067Y20527
X42545Y21590
X44196Y23241
X42545Y27940
X40640Y34925
X37846Y32131
X34671Y12827
X32385Y9525
X29327Y8509
X22225Y14351
X73025Y13970
X73025Y12700
X56261Y12446
X47625Y11430
X41275Y15875
X2540Y49530
X86818Y33401
X92075Y17145
X62738Y32385
X50800Y29210
X43180Y10160
X64018Y27422
X58039Y16891
X36111Y22944
X37719Y23241
X38667Y23182
X40005Y32131
X41104Y31750
X36830Y28067
X34925Y27686
X39878Y27940
X36689Y30099
X39864Y29845
X34964Y25654
X41021Y27813
X42545Y34925
X68199Y24384
X61595Y38100
X35289Y35052
X45466Y38544
X52959Y38391
X40652Y37211
X59690Y37669
X53086Y42582
X59750Y41626
X61976Y42582
X64135Y42545
X57785Y37719
X57785Y41656
X48006Y42545
X39370Y41910
X77851Y27305
X77851Y31496
X78486Y37084
X78486Y43053
X2540Y31750
X2413Y19177
X29845Y13970
X46355Y16510
X32385Y34925
X12065Y38100
X11430Y22860
X15240Y19050
X20701Y22479
X11430Y14605
X9525Y11430
X13335Y26670
X15240Y30480
X10795Y31115
M30