G04 EAGLE Gerber RS-274X export*
G75*
%MOMM*%
%FSLAX34Y34*%
%LPD*%
%INCopper Layer 2*%
%IPPOS*%
%AMOC8*
5,1,8,0,0,1.08239X$1,22.5*%
G01*
%ADD10C,0.152400*%
%ADD11C,1.524000*%
%ADD12C,1.140000*%
%ADD13C,1.500000*%
%ADD14C,0.600000*%

G36*
X393790Y75454D02*
X393790Y75454D01*
X393881Y75461D01*
X393911Y75473D01*
X393943Y75479D01*
X394023Y75521D01*
X394107Y75557D01*
X394139Y75583D01*
X394160Y75594D01*
X394182Y75617D01*
X394238Y75662D01*
X406715Y88139D01*
X457200Y88139D01*
X457290Y88154D01*
X457381Y88161D01*
X457411Y88173D01*
X457443Y88179D01*
X457523Y88221D01*
X457607Y88257D01*
X457639Y88283D01*
X457660Y88294D01*
X457682Y88317D01*
X457738Y88362D01*
X476565Y107189D01*
X545008Y107189D01*
X545079Y107200D01*
X545151Y107202D01*
X545200Y107220D01*
X545251Y107229D01*
X545315Y107262D01*
X545382Y107287D01*
X545423Y107319D01*
X545469Y107344D01*
X545518Y107396D01*
X545574Y107440D01*
X545602Y107484D01*
X545638Y107522D01*
X545668Y107587D01*
X545707Y107647D01*
X545720Y107698D01*
X545742Y107745D01*
X545749Y107816D01*
X545767Y107886D01*
X545763Y107938D01*
X545769Y107989D01*
X545753Y108060D01*
X545748Y108131D01*
X545727Y108179D01*
X545716Y108230D01*
X545680Y108291D01*
X545652Y108357D01*
X545607Y108413D01*
X545590Y108441D01*
X545572Y108456D01*
X545547Y108488D01*
X543699Y110336D01*
X543699Y114065D01*
X546335Y116701D01*
X550064Y116701D01*
X552700Y114065D01*
X552700Y110336D01*
X550852Y108488D01*
X550810Y108430D01*
X550761Y108378D01*
X550739Y108331D01*
X550709Y108289D01*
X550688Y108220D01*
X550657Y108155D01*
X550652Y108103D01*
X550636Y108053D01*
X550638Y107982D01*
X550630Y107911D01*
X550641Y107860D01*
X550643Y107808D01*
X550667Y107740D01*
X550682Y107670D01*
X550709Y107626D01*
X550727Y107577D01*
X550772Y107521D01*
X550809Y107459D01*
X550848Y107425D01*
X550881Y107385D01*
X550941Y107346D01*
X550996Y107299D01*
X551044Y107280D01*
X551088Y107252D01*
X551157Y107234D01*
X551224Y107207D01*
X551295Y107199D01*
X551326Y107191D01*
X551350Y107193D01*
X551390Y107189D01*
X552450Y107189D01*
X552540Y107204D01*
X552631Y107211D01*
X552661Y107223D01*
X552693Y107229D01*
X552773Y107271D01*
X552857Y107307D01*
X552889Y107333D01*
X552910Y107344D01*
X552932Y107367D01*
X552988Y107412D01*
X563736Y118160D01*
X563778Y118218D01*
X563828Y118270D01*
X563850Y118317D01*
X563880Y118359D01*
X563901Y118428D01*
X563931Y118493D01*
X563937Y118545D01*
X563952Y118595D01*
X563950Y118666D01*
X563958Y118737D01*
X563947Y118788D01*
X563946Y118840D01*
X563921Y118908D01*
X563906Y118978D01*
X563879Y119022D01*
X563861Y119071D01*
X563817Y119127D01*
X563780Y119189D01*
X563740Y119223D01*
X563708Y119263D01*
X563647Y119302D01*
X563593Y119349D01*
X563545Y119368D01*
X563501Y119396D01*
X563484Y119401D01*
X563484Y123586D01*
X567674Y123586D01*
X567684Y123566D01*
X567709Y123499D01*
X567741Y123458D01*
X567766Y123412D01*
X567817Y123363D01*
X567862Y123307D01*
X567906Y123278D01*
X567944Y123242D01*
X568009Y123212D01*
X568069Y123174D01*
X568120Y123161D01*
X568167Y123139D01*
X568238Y123131D01*
X568308Y123113D01*
X568360Y123118D01*
X568411Y123112D01*
X568482Y123127D01*
X568553Y123133D01*
X568601Y123153D01*
X568652Y123164D01*
X568713Y123201D01*
X568779Y123229D01*
X568835Y123274D01*
X568863Y123290D01*
X568878Y123308D01*
X568910Y123334D01*
X578388Y132812D01*
X578441Y132886D01*
X578501Y132955D01*
X578513Y132985D01*
X578532Y133011D01*
X578559Y133098D01*
X578593Y133183D01*
X578597Y133224D01*
X578604Y133247D01*
X578603Y133279D01*
X578611Y133350D01*
X578611Y152085D01*
X597215Y170689D01*
X698185Y170689D01*
X710439Y158435D01*
X710439Y114300D01*
X710454Y114210D01*
X710461Y114119D01*
X710473Y114089D01*
X710479Y114057D01*
X710521Y113977D01*
X710557Y113893D01*
X710583Y113861D01*
X710594Y113840D01*
X710617Y113818D01*
X710662Y113762D01*
X717012Y107412D01*
X717086Y107359D01*
X717155Y107299D01*
X717185Y107287D01*
X717211Y107268D01*
X717298Y107241D01*
X717383Y107207D01*
X717424Y107203D01*
X717447Y107196D01*
X717479Y107197D01*
X717550Y107189D01*
X799785Y107189D01*
X805912Y101062D01*
X805986Y101009D01*
X806055Y100949D01*
X806085Y100937D01*
X806111Y100918D01*
X806198Y100891D01*
X806283Y100857D01*
X806324Y100853D01*
X806347Y100846D01*
X806379Y100847D01*
X806450Y100839D01*
X939800Y100839D01*
X939820Y100842D01*
X939839Y100840D01*
X939941Y100862D01*
X940043Y100879D01*
X940060Y100888D01*
X940080Y100892D01*
X940169Y100945D01*
X940260Y100994D01*
X940274Y101008D01*
X940291Y101018D01*
X940358Y101097D01*
X940430Y101172D01*
X940438Y101190D01*
X940451Y101205D01*
X940490Y101301D01*
X940533Y101395D01*
X940535Y101415D01*
X940543Y101433D01*
X940561Y101600D01*
X940561Y132244D01*
X940547Y132335D01*
X940539Y132425D01*
X940527Y132455D01*
X940522Y132487D01*
X940479Y132568D01*
X940443Y132652D01*
X940417Y132684D01*
X940406Y132705D01*
X940383Y132727D01*
X940338Y132783D01*
X938520Y134601D01*
X937149Y137910D01*
X937149Y141490D01*
X938520Y144799D01*
X940338Y146617D01*
X940391Y146691D01*
X940451Y146761D01*
X940463Y146791D01*
X940482Y146817D01*
X940509Y146904D01*
X940543Y146989D01*
X940547Y147030D01*
X940554Y147052D01*
X940553Y147084D01*
X940561Y147156D01*
X940561Y227494D01*
X940547Y227585D01*
X940539Y227675D01*
X940527Y227705D01*
X940522Y227737D01*
X940479Y227818D01*
X940443Y227902D01*
X940417Y227934D01*
X940406Y227955D01*
X940383Y227977D01*
X940338Y228033D01*
X938520Y229851D01*
X937149Y233160D01*
X937149Y236740D01*
X938520Y240049D01*
X940338Y241867D01*
X940391Y241941D01*
X940451Y242011D01*
X940463Y242041D01*
X940482Y242067D01*
X940509Y242154D01*
X940543Y242239D01*
X940547Y242280D01*
X940554Y242302D01*
X940553Y242334D01*
X940561Y242406D01*
X940561Y322744D01*
X940547Y322835D01*
X940539Y322925D01*
X940527Y322955D01*
X940522Y322987D01*
X940479Y323068D01*
X940443Y323152D01*
X940417Y323184D01*
X940406Y323205D01*
X940383Y323227D01*
X940338Y323283D01*
X938520Y325101D01*
X937149Y328410D01*
X937149Y331990D01*
X938520Y335299D01*
X940338Y337117D01*
X940391Y337191D01*
X940451Y337261D01*
X940463Y337291D01*
X940482Y337317D01*
X940509Y337404D01*
X940543Y337489D01*
X940547Y337530D01*
X940554Y337552D01*
X940553Y337584D01*
X940561Y337656D01*
X940561Y417994D01*
X940547Y418085D01*
X940539Y418175D01*
X940527Y418205D01*
X940522Y418237D01*
X940503Y418272D01*
X940501Y418281D01*
X940478Y418320D01*
X940443Y418402D01*
X940417Y418434D01*
X940406Y418455D01*
X940386Y418474D01*
X940375Y418492D01*
X940362Y418504D01*
X940338Y418533D01*
X938520Y420351D01*
X937149Y423660D01*
X937149Y427240D01*
X938520Y430549D01*
X939786Y431814D01*
X939797Y431831D01*
X939813Y431843D01*
X939869Y431930D01*
X939929Y432014D01*
X939935Y432033D01*
X939946Y432050D01*
X939971Y432150D01*
X940001Y432249D01*
X940001Y432269D01*
X940006Y432289D01*
X939998Y432392D01*
X939995Y432495D01*
X939988Y432514D01*
X939987Y432534D01*
X939946Y432629D01*
X939911Y432726D01*
X939898Y432742D01*
X939890Y432760D01*
X939786Y432891D01*
X921288Y451388D01*
X921214Y451441D01*
X921145Y451501D01*
X921115Y451513D01*
X921089Y451532D01*
X921002Y451559D01*
X920917Y451593D01*
X920876Y451597D01*
X920853Y451604D01*
X920821Y451603D01*
X920750Y451611D01*
X724215Y451611D01*
X705388Y470438D01*
X705314Y470491D01*
X705245Y470551D01*
X705215Y470563D01*
X705189Y470582D01*
X705102Y470609D01*
X705017Y470643D01*
X704976Y470647D01*
X704953Y470654D01*
X704921Y470653D01*
X704850Y470661D01*
X165415Y470661D01*
X127761Y508315D01*
X127761Y520700D01*
X127747Y520790D01*
X127739Y520881D01*
X127727Y520911D01*
X127722Y520943D01*
X127679Y521023D01*
X127643Y521107D01*
X127617Y521139D01*
X127606Y521160D01*
X127583Y521182D01*
X127538Y521238D01*
X121188Y527588D01*
X121114Y527641D01*
X121045Y527701D01*
X121015Y527713D01*
X120989Y527732D01*
X120902Y527759D01*
X120817Y527793D01*
X120776Y527797D01*
X120753Y527804D01*
X120721Y527803D01*
X120650Y527811D01*
X6451Y527811D01*
X6337Y527793D01*
X6220Y527775D01*
X6214Y527773D01*
X6208Y527772D01*
X6106Y527717D01*
X6001Y527664D01*
X5996Y527659D01*
X5991Y527656D01*
X5911Y527572D01*
X5829Y527488D01*
X5825Y527482D01*
X5822Y527478D01*
X5814Y527461D01*
X5748Y527341D01*
X5647Y527097D01*
X5632Y527034D01*
X5607Y526973D01*
X5598Y526890D01*
X5591Y526858D01*
X5592Y526839D01*
X5589Y526806D01*
X5589Y88900D01*
X5604Y88810D01*
X5611Y88719D01*
X5623Y88689D01*
X5629Y88657D01*
X5671Y88577D01*
X5707Y88493D01*
X5733Y88461D01*
X5744Y88440D01*
X5767Y88418D01*
X5812Y88362D01*
X18512Y75662D01*
X18586Y75609D01*
X18655Y75549D01*
X18685Y75537D01*
X18711Y75518D01*
X18798Y75491D01*
X18883Y75457D01*
X18924Y75453D01*
X18947Y75446D01*
X18979Y75447D01*
X19050Y75439D01*
X393700Y75439D01*
X393790Y75454D01*
G37*
G36*
X981892Y5044D02*
X981892Y5044D01*
X981943Y5044D01*
X983013Y5150D01*
X983048Y5159D01*
X983084Y5160D01*
X983226Y5203D01*
X984687Y5808D01*
X984750Y5847D01*
X984816Y5877D01*
X984874Y5924D01*
X984895Y5937D01*
X984905Y5950D01*
X984931Y5971D01*
X987169Y8209D01*
X987212Y8269D01*
X987262Y8322D01*
X987297Y8388D01*
X987311Y8408D01*
X987316Y8424D01*
X987332Y8453D01*
X987937Y9914D01*
X987945Y9950D01*
X987961Y9983D01*
X987990Y10127D01*
X988096Y11197D01*
X988094Y11219D01*
X988099Y11270D01*
X988099Y24017D01*
X988082Y24119D01*
X988071Y24222D01*
X988063Y24239D01*
X988060Y24258D01*
X988011Y24349D01*
X987966Y24443D01*
X987953Y24456D01*
X987945Y24473D01*
X987869Y24544D01*
X987797Y24618D01*
X987776Y24631D01*
X987767Y24640D01*
X987745Y24650D01*
X987670Y24694D01*
X987410Y24817D01*
X987408Y24818D01*
X987272Y24867D01*
X987221Y24879D01*
X987220Y24879D01*
X987219Y24879D01*
X987075Y24901D01*
X986797Y24914D01*
X986791Y24919D01*
X986714Y24980D01*
X986691Y24988D01*
X986671Y25002D01*
X986652Y25008D01*
X986516Y25236D01*
X986515Y25237D01*
X986428Y25354D01*
X986275Y25523D01*
X986203Y25579D01*
X986136Y25642D01*
X986108Y25655D01*
X986084Y25674D01*
X985998Y25705D01*
X985914Y25743D01*
X985883Y25746D01*
X985854Y25756D01*
X985763Y25758D01*
X985671Y25767D01*
X985641Y25760D01*
X985610Y25760D01*
X985523Y25732D01*
X985434Y25712D01*
X985407Y25695D01*
X985378Y25686D01*
X985304Y25631D01*
X985226Y25583D01*
X985207Y25559D01*
X985182Y25540D01*
X985130Y25465D01*
X985071Y25394D01*
X985061Y25365D01*
X985043Y25340D01*
X985018Y25252D01*
X984985Y25166D01*
X984981Y25124D01*
X984976Y25105D01*
X984977Y25081D01*
X984971Y25019D01*
X984971Y22990D01*
X982154Y16190D01*
X976950Y10986D01*
X970150Y8169D01*
X962790Y8169D01*
X955990Y10986D01*
X950786Y16190D01*
X947969Y22990D01*
X947969Y30350D01*
X950786Y37150D01*
X955990Y42354D01*
X962790Y45171D01*
X970150Y45171D01*
X976950Y42354D01*
X982154Y37150D01*
X984971Y30350D01*
X984971Y27180D01*
X984984Y27102D01*
X984988Y27022D01*
X985003Y26982D01*
X985010Y26940D01*
X985048Y26869D01*
X985077Y26795D01*
X985105Y26762D01*
X985125Y26724D01*
X985184Y26670D01*
X985235Y26609D01*
X985272Y26587D01*
X985303Y26558D01*
X985376Y26525D01*
X985444Y26484D01*
X985487Y26475D01*
X985526Y26457D01*
X985605Y26449D01*
X985683Y26432D01*
X985726Y26437D01*
X985769Y26433D01*
X985846Y26451D01*
X985925Y26460D01*
X985964Y26478D01*
X986006Y26488D01*
X986074Y26530D01*
X986146Y26564D01*
X986177Y26594D01*
X986214Y26617D01*
X986264Y26678D01*
X986321Y26734D01*
X986353Y26786D01*
X986368Y26805D01*
X986376Y26824D01*
X986397Y26860D01*
X986558Y27201D01*
X986559Y27202D01*
X986599Y27314D01*
X986603Y27324D01*
X986604Y27328D01*
X986608Y27339D01*
X986675Y27609D01*
X986681Y27615D01*
X986756Y27678D01*
X986768Y27699D01*
X986786Y27716D01*
X986796Y27733D01*
X987045Y27822D01*
X987046Y27823D01*
X987178Y27885D01*
X987417Y28029D01*
X987424Y28028D01*
X987522Y28020D01*
X987546Y28026D01*
X987570Y28026D01*
X987713Y28062D01*
X987892Y28126D01*
X987971Y28170D01*
X988054Y28208D01*
X988087Y28235D01*
X988105Y28244D01*
X988121Y28262D01*
X988169Y28301D01*
X990527Y30660D01*
X990528Y30660D01*
X1013280Y53412D01*
X1013337Y53492D01*
X1013399Y53567D01*
X1013407Y53590D01*
X1013422Y53611D01*
X1013450Y53704D01*
X1013485Y53795D01*
X1013488Y53828D01*
X1013493Y53844D01*
X1013492Y53869D01*
X1013499Y53942D01*
X1013499Y377858D01*
X1013483Y377954D01*
X1013474Y378051D01*
X1013464Y378074D01*
X1013460Y378099D01*
X1013414Y378185D01*
X1013373Y378273D01*
X1013352Y378299D01*
X1013345Y378314D01*
X1013326Y378331D01*
X1013280Y378388D01*
X990528Y401140D01*
X990527Y401140D01*
X988099Y403568D01*
X988099Y517558D01*
X988097Y517571D01*
X988098Y517576D01*
X988093Y517598D01*
X988083Y517654D01*
X988074Y517751D01*
X988064Y517774D01*
X988060Y517799D01*
X988014Y517885D01*
X987973Y517973D01*
X987952Y517999D01*
X987945Y518014D01*
X987926Y518031D01*
X987880Y518088D01*
X975288Y530680D01*
X975208Y530737D01*
X975133Y530799D01*
X975110Y530807D01*
X975089Y530822D01*
X974996Y530850D01*
X974905Y530885D01*
X974872Y530888D01*
X974856Y530893D01*
X974831Y530892D01*
X974758Y530899D01*
X199950Y530899D01*
X199854Y530883D01*
X199757Y530874D01*
X199734Y530864D01*
X199709Y530860D01*
X199623Y530814D01*
X199534Y530773D01*
X199509Y530752D01*
X199494Y530745D01*
X199477Y530726D01*
X199420Y530680D01*
X196320Y527580D01*
X196263Y527500D01*
X196202Y527425D01*
X196193Y527402D01*
X196178Y527381D01*
X196150Y527288D01*
X196115Y527197D01*
X196112Y527164D01*
X196107Y527148D01*
X196108Y527123D01*
X196101Y527050D01*
X196101Y512329D01*
X196113Y512257D01*
X196115Y512184D01*
X196136Y512113D01*
X196140Y512088D01*
X196148Y512074D01*
X196158Y512042D01*
X197081Y509814D01*
X197081Y507020D01*
X197084Y507003D01*
X197082Y506990D01*
X197094Y506939D01*
X197097Y506924D01*
X197106Y506827D01*
X197116Y506804D01*
X197120Y506779D01*
X197166Y506693D01*
X197207Y506604D01*
X197228Y506579D01*
X197235Y506564D01*
X197254Y506547D01*
X197300Y506490D01*
X215370Y488420D01*
X215450Y488363D01*
X215525Y488302D01*
X215548Y488293D01*
X215569Y488278D01*
X215662Y488250D01*
X215753Y488215D01*
X215786Y488212D01*
X215802Y488207D01*
X215827Y488208D01*
X215900Y488201D01*
X850590Y488201D01*
X869420Y469370D01*
X869500Y469313D01*
X869575Y469252D01*
X869598Y469243D01*
X869619Y469228D01*
X869712Y469200D01*
X869803Y469165D01*
X869836Y469162D01*
X869852Y469157D01*
X869877Y469158D01*
X869950Y469151D01*
X945840Y469151D01*
X970801Y444190D01*
X970801Y82860D01*
X970420Y82480D01*
X970377Y82420D01*
X970327Y82366D01*
X970307Y82322D01*
X970278Y82281D01*
X970257Y82211D01*
X970226Y82144D01*
X970221Y82095D01*
X970207Y82048D01*
X970210Y81975D01*
X970202Y81901D01*
X970213Y81853D01*
X970215Y81804D01*
X970241Y81735D01*
X970258Y81664D01*
X970284Y81622D01*
X970301Y81576D01*
X970347Y81519D01*
X970386Y81456D01*
X970424Y81425D01*
X970456Y81387D01*
X970518Y81348D01*
X970575Y81301D01*
X970621Y81284D01*
X970663Y81258D01*
X970676Y81255D01*
X970676Y77074D01*
X966492Y77074D01*
X966475Y77106D01*
X966449Y77174D01*
X966418Y77213D01*
X966395Y77256D01*
X966341Y77306D01*
X966294Y77363D01*
X966252Y77389D01*
X966217Y77423D01*
X966150Y77453D01*
X966087Y77492D01*
X966039Y77503D01*
X965994Y77524D01*
X965921Y77531D01*
X965850Y77548D01*
X965801Y77543D01*
X965751Y77548D01*
X965680Y77531D01*
X965607Y77524D01*
X965562Y77504D01*
X965514Y77492D01*
X965451Y77454D01*
X965384Y77423D01*
X965328Y77377D01*
X965306Y77364D01*
X965296Y77351D01*
X965270Y77330D01*
X964890Y76949D01*
X686110Y76949D01*
X681450Y81610D01*
X681390Y81653D01*
X681336Y81703D01*
X681292Y81723D01*
X681251Y81752D01*
X681181Y81773D01*
X681114Y81804D01*
X681065Y81809D01*
X681018Y81823D01*
X680945Y81820D01*
X680871Y81828D01*
X680823Y81817D01*
X680774Y81815D01*
X680705Y81789D01*
X680634Y81772D01*
X680592Y81746D01*
X680546Y81729D01*
X680489Y81683D01*
X680426Y81644D01*
X680395Y81606D01*
X680357Y81574D01*
X680318Y81512D01*
X680271Y81455D01*
X680254Y81409D01*
X680228Y81367D01*
X680211Y81296D01*
X680185Y81227D01*
X680178Y81154D01*
X680172Y81130D01*
X680174Y81113D01*
X680171Y81080D01*
X680171Y73790D01*
X677354Y66990D01*
X672150Y61786D01*
X669086Y60517D01*
X669044Y60491D01*
X668998Y60473D01*
X668941Y60427D01*
X668878Y60388D01*
X668847Y60350D01*
X668809Y60319D01*
X668770Y60256D01*
X668723Y60199D01*
X668706Y60153D01*
X668680Y60112D01*
X668663Y60040D01*
X668637Y59971D01*
X668636Y59922D01*
X668625Y59874D01*
X668632Y59801D01*
X668629Y59727D01*
X668644Y59680D01*
X668648Y59631D01*
X668679Y59564D01*
X668700Y59493D01*
X668729Y59453D01*
X668749Y59409D01*
X668842Y59295D01*
X671663Y56474D01*
X671663Y52746D01*
X669026Y50109D01*
X665298Y50109D01*
X662661Y52746D01*
X662661Y56474D01*
X663877Y57690D01*
X663920Y57750D01*
X663970Y57804D01*
X663991Y57848D01*
X664019Y57889D01*
X664041Y57959D01*
X664071Y58026D01*
X664076Y58075D01*
X664090Y58122D01*
X664088Y58195D01*
X664095Y58269D01*
X664084Y58317D01*
X664082Y58366D01*
X664057Y58435D01*
X664040Y58506D01*
X664014Y58548D01*
X663997Y58594D01*
X663950Y58651D01*
X663911Y58714D01*
X663873Y58745D01*
X663842Y58783D01*
X663779Y58822D01*
X663723Y58869D01*
X663677Y58886D01*
X663635Y58912D01*
X663563Y58929D01*
X663494Y58955D01*
X663421Y58962D01*
X663397Y58968D01*
X663381Y58966D01*
X663347Y58969D01*
X657990Y58969D01*
X651190Y61786D01*
X645986Y66990D01*
X643169Y73790D01*
X643169Y81150D01*
X645986Y87950D01*
X651190Y93154D01*
X657990Y95971D01*
X665350Y95971D01*
X672150Y93154D01*
X677354Y87950D01*
X678758Y84561D01*
X678809Y84478D01*
X678855Y84392D01*
X678874Y84375D01*
X678887Y84354D01*
X678962Y84292D01*
X679034Y84225D01*
X679056Y84215D01*
X679075Y84199D01*
X679167Y84165D01*
X679256Y84124D01*
X679280Y84122D01*
X679304Y84113D01*
X679401Y84110D01*
X679499Y84100D01*
X679523Y84106D01*
X679547Y84105D01*
X679641Y84133D01*
X679736Y84155D01*
X679757Y84169D01*
X679781Y84176D01*
X679860Y84233D01*
X679944Y84284D01*
X679959Y84303D01*
X679979Y84318D01*
X680036Y84397D01*
X680099Y84473D01*
X680107Y84496D01*
X680122Y84516D01*
X680150Y84610D01*
X680185Y84701D01*
X680188Y84733D01*
X680193Y84749D01*
X680192Y84774D01*
X680199Y84848D01*
X680199Y146050D01*
X680183Y146146D01*
X680174Y146243D01*
X680164Y146266D01*
X680160Y146291D01*
X680114Y146377D01*
X680073Y146466D01*
X680052Y146491D01*
X680045Y146506D01*
X680026Y146523D01*
X679980Y146580D01*
X677440Y149120D01*
X677360Y149177D01*
X677285Y149239D01*
X677262Y149247D01*
X677241Y149262D01*
X677148Y149290D01*
X677057Y149325D01*
X677024Y149328D01*
X677008Y149333D01*
X676983Y149332D01*
X676910Y149339D01*
X645995Y149339D01*
X645947Y149331D01*
X645898Y149333D01*
X645827Y149312D01*
X645755Y149300D01*
X645711Y149276D01*
X645664Y149262D01*
X645604Y149219D01*
X645539Y149185D01*
X645506Y149149D01*
X645466Y149120D01*
X645423Y149060D01*
X645372Y149007D01*
X645352Y148962D01*
X645323Y148922D01*
X645302Y148851D01*
X645272Y148784D01*
X645267Y148735D01*
X645252Y148688D01*
X645255Y148615D01*
X645248Y148541D01*
X645259Y148494D01*
X645260Y148444D01*
X645286Y148376D01*
X645303Y148304D01*
X645329Y148262D01*
X645346Y148216D01*
X645393Y148159D01*
X645432Y148096D01*
X645470Y148065D01*
X645501Y148027D01*
X645563Y147988D01*
X645620Y147942D01*
X645666Y147924D01*
X645708Y147898D01*
X645847Y147856D01*
X645848Y147855D01*
X645849Y147855D01*
X646210Y147783D01*
X647611Y147203D01*
X648872Y146360D01*
X649945Y145287D01*
X650788Y144026D01*
X651368Y142625D01*
X651517Y141878D01*
X644714Y141878D01*
X644690Y141874D01*
X644665Y141876D01*
X644570Y141854D01*
X644473Y141838D01*
X644451Y141827D01*
X644428Y141821D01*
X644344Y141769D01*
X644258Y141723D01*
X644241Y141705D01*
X644220Y141692D01*
X644158Y141617D01*
X644091Y141545D01*
X644081Y141523D01*
X644065Y141504D01*
X644031Y141412D01*
X643990Y141323D01*
X643988Y141298D01*
X643979Y141276D01*
X643965Y141129D01*
X643965Y140378D01*
X643963Y140378D01*
X643963Y141129D01*
X643959Y141153D01*
X643961Y141177D01*
X643939Y141273D01*
X643923Y141369D01*
X643911Y141391D01*
X643906Y141415D01*
X643854Y141498D01*
X643808Y141585D01*
X643790Y141601D01*
X643777Y141622D01*
X643701Y141684D01*
X643630Y141751D01*
X643608Y141761D01*
X643589Y141777D01*
X643497Y141812D01*
X643408Y141852D01*
X643383Y141855D01*
X643360Y141863D01*
X643213Y141878D01*
X636410Y141878D01*
X636559Y142625D01*
X637139Y144026D01*
X637982Y145287D01*
X639055Y146360D01*
X640316Y147203D01*
X641717Y147783D01*
X642078Y147855D01*
X642124Y147872D01*
X642173Y147880D01*
X642238Y147915D01*
X642307Y147941D01*
X642345Y147972D01*
X642388Y147995D01*
X642438Y148049D01*
X642495Y148096D01*
X642521Y148138D01*
X642555Y148174D01*
X642585Y148241D01*
X642624Y148303D01*
X642635Y148351D01*
X642656Y148396D01*
X642663Y148469D01*
X642680Y148541D01*
X642675Y148590D01*
X642680Y148639D01*
X642663Y148710D01*
X642656Y148783D01*
X642636Y148828D01*
X642624Y148876D01*
X642586Y148939D01*
X642555Y149006D01*
X642522Y149042D01*
X642496Y149084D01*
X642439Y149130D01*
X642389Y149184D01*
X642345Y149207D01*
X642307Y149239D01*
X642238Y149264D01*
X642174Y149299D01*
X642125Y149307D01*
X642079Y149325D01*
X641934Y149339D01*
X641933Y149339D01*
X641932Y149339D01*
X626110Y149339D01*
X626014Y149323D01*
X625917Y149314D01*
X625894Y149304D01*
X625869Y149300D01*
X625783Y149254D01*
X625694Y149213D01*
X625669Y149192D01*
X625654Y149185D01*
X625637Y149166D01*
X625580Y149120D01*
X624530Y148069D01*
X623570Y148069D01*
X623474Y148053D01*
X623377Y148044D01*
X623354Y148034D01*
X623329Y148030D01*
X623243Y147984D01*
X623154Y147943D01*
X623129Y147922D01*
X623114Y147915D01*
X623097Y147896D01*
X623040Y147850D01*
X622688Y147497D01*
X622673Y147477D01*
X622655Y147462D01*
X622603Y147379D01*
X622546Y147299D01*
X622539Y147276D01*
X622526Y147255D01*
X622503Y147159D01*
X622475Y147066D01*
X622476Y147041D01*
X622470Y147017D01*
X622479Y146920D01*
X622483Y146822D01*
X622491Y146799D01*
X622494Y146774D01*
X622534Y146685D01*
X622569Y146593D01*
X622584Y146574D01*
X622594Y146552D01*
X622688Y146438D01*
X624668Y144457D01*
X625764Y141811D01*
X625764Y138946D01*
X624668Y136300D01*
X622642Y134274D01*
X619996Y133178D01*
X617131Y133178D01*
X614485Y134274D01*
X612504Y136254D01*
X612485Y136269D01*
X612469Y136288D01*
X612386Y136340D01*
X612306Y136397D01*
X612283Y136404D01*
X612262Y136417D01*
X612166Y136439D01*
X612073Y136467D01*
X612048Y136467D01*
X612024Y136472D01*
X611927Y136463D01*
X611829Y136460D01*
X611806Y136451D01*
X611781Y136449D01*
X611692Y136408D01*
X611600Y136374D01*
X611581Y136358D01*
X611559Y136348D01*
X611445Y136254D01*
X577320Y102130D01*
X577263Y102050D01*
X577202Y101975D01*
X577193Y101952D01*
X577178Y101931D01*
X577150Y101838D01*
X577115Y101747D01*
X577112Y101714D01*
X577107Y101698D01*
X577108Y101673D01*
X577101Y101600D01*
X577101Y95560D01*
X564840Y83299D01*
X508000Y83299D01*
X507904Y83283D01*
X507807Y83274D01*
X507784Y83264D01*
X507759Y83260D01*
X507673Y83214D01*
X507584Y83173D01*
X507559Y83152D01*
X507544Y83145D01*
X507527Y83126D01*
X507470Y83080D01*
X501340Y76949D01*
X476250Y76949D01*
X476154Y76933D01*
X476057Y76924D01*
X476034Y76914D01*
X476009Y76910D01*
X475923Y76864D01*
X475834Y76823D01*
X475809Y76802D01*
X475794Y76795D01*
X475777Y76776D01*
X475720Y76730D01*
X469590Y70599D01*
X412750Y70599D01*
X412654Y70583D01*
X412557Y70574D01*
X412534Y70564D01*
X412509Y70560D01*
X412423Y70514D01*
X412334Y70473D01*
X412309Y70452D01*
X412294Y70445D01*
X412277Y70426D01*
X412220Y70380D01*
X399740Y57899D01*
X387350Y57899D01*
X387254Y57883D01*
X387157Y57874D01*
X387134Y57864D01*
X387109Y57860D01*
X387023Y57814D01*
X386934Y57773D01*
X386909Y57752D01*
X386894Y57745D01*
X386877Y57726D01*
X386820Y57680D01*
X367770Y38630D01*
X367713Y38550D01*
X367652Y38475D01*
X367643Y38452D01*
X367628Y38431D01*
X367600Y38338D01*
X367565Y38247D01*
X367562Y38214D01*
X367557Y38198D01*
X367558Y38173D01*
X367551Y38100D01*
X367551Y6350D01*
X367567Y6254D01*
X367576Y6157D01*
X367586Y6134D01*
X367590Y6109D01*
X367637Y6023D01*
X367677Y5934D01*
X367698Y5909D01*
X367705Y5894D01*
X367724Y5877D01*
X367770Y5820D01*
X368330Y5260D01*
X368410Y5203D01*
X368485Y5141D01*
X368508Y5133D01*
X368529Y5118D01*
X368622Y5090D01*
X368713Y5055D01*
X368746Y5052D01*
X368762Y5047D01*
X368787Y5048D01*
X368860Y5041D01*
X981870Y5041D01*
X981892Y5044D01*
G37*
%LPC*%
G36*
X899290Y490769D02*
X899290Y490769D01*
X892490Y493586D01*
X887286Y498790D01*
X884469Y505590D01*
X884469Y512950D01*
X887286Y519750D01*
X892490Y524954D01*
X899290Y527771D01*
X906650Y527771D01*
X913450Y524954D01*
X918654Y519750D01*
X921471Y512950D01*
X921471Y505590D01*
X918654Y498790D01*
X913450Y493586D01*
X906650Y490769D01*
X899290Y490769D01*
G37*
%LPD*%
%LPC*%
G36*
X657990Y338369D02*
X657990Y338369D01*
X651190Y341186D01*
X645986Y346390D01*
X643169Y353190D01*
X643169Y360550D01*
X645986Y367350D01*
X651190Y372554D01*
X657990Y375371D01*
X665350Y375371D01*
X672150Y372554D01*
X677354Y367350D01*
X680171Y360550D01*
X680171Y353190D01*
X677354Y346390D01*
X672150Y341186D01*
X665350Y338369D01*
X657990Y338369D01*
G37*
%LPD*%
%LPC*%
G36*
X506186Y16279D02*
X506186Y16279D01*
X502834Y17668D01*
X500268Y20234D01*
X498879Y23586D01*
X498879Y27214D01*
X500268Y30566D01*
X502834Y33132D01*
X506186Y34521D01*
X509814Y34521D01*
X513289Y33081D01*
X513385Y33059D01*
X513478Y33031D01*
X513503Y33031D01*
X513527Y33026D01*
X513624Y33035D01*
X513722Y33039D01*
X513745Y33047D01*
X513770Y33050D01*
X513859Y33090D01*
X513950Y33124D01*
X513970Y33140D01*
X513992Y33150D01*
X514063Y33217D01*
X514139Y33279D01*
X514152Y33300D01*
X514170Y33317D01*
X514216Y33403D01*
X514268Y33486D01*
X514274Y33510D01*
X514285Y33532D01*
X514301Y33629D01*
X514324Y33724D01*
X514321Y33748D01*
X514325Y33773D01*
X514309Y33869D01*
X514300Y33967D01*
X514290Y33989D01*
X514286Y34014D01*
X514240Y34100D01*
X514200Y34189D01*
X514179Y34214D01*
X514171Y34229D01*
X514153Y34246D01*
X514106Y34303D01*
X512916Y35493D01*
X512916Y39221D01*
X515553Y41858D01*
X519299Y41858D01*
X519339Y41821D01*
X519383Y41800D01*
X519423Y41772D01*
X519494Y41750D01*
X519561Y41720D01*
X519610Y41715D01*
X519657Y41701D01*
X519730Y41703D01*
X519804Y41696D01*
X519852Y41707D01*
X519901Y41709D01*
X519970Y41735D01*
X520041Y41751D01*
X520083Y41777D01*
X520129Y41795D01*
X520186Y41841D01*
X520249Y41880D01*
X520280Y41918D01*
X520318Y41949D01*
X520357Y42012D01*
X520404Y42068D01*
X520421Y42115D01*
X520447Y42156D01*
X520464Y42228D01*
X520490Y42297D01*
X520497Y42370D01*
X520503Y42394D01*
X520501Y42411D01*
X520504Y42444D01*
X520504Y44483D01*
X523141Y47120D01*
X526869Y47120D01*
X529506Y44483D01*
X529506Y40755D01*
X526869Y38118D01*
X523123Y38118D01*
X523084Y38155D01*
X523039Y38176D01*
X522999Y38204D01*
X522928Y38226D01*
X522861Y38256D01*
X522812Y38261D01*
X522765Y38275D01*
X522692Y38273D01*
X522619Y38280D01*
X522570Y38269D01*
X522521Y38267D01*
X522453Y38242D01*
X522381Y38225D01*
X522339Y38199D01*
X522293Y38182D01*
X522236Y38135D01*
X522174Y38096D01*
X522142Y38058D01*
X522104Y38027D01*
X522065Y37964D01*
X522019Y37908D01*
X522001Y37862D01*
X521975Y37820D01*
X521958Y37748D01*
X521932Y37679D01*
X521925Y37606D01*
X521919Y37582D01*
X521921Y37566D01*
X521918Y37532D01*
X521918Y35493D01*
X519281Y32856D01*
X515251Y32856D01*
X515179Y32844D01*
X515105Y32842D01*
X515059Y32825D01*
X515010Y32817D01*
X514946Y32782D01*
X514877Y32756D01*
X514839Y32725D01*
X514795Y32702D01*
X514745Y32648D01*
X514688Y32601D01*
X514662Y32560D01*
X514628Y32524D01*
X514598Y32457D01*
X514559Y32394D01*
X514548Y32346D01*
X514528Y32301D01*
X514520Y32228D01*
X514504Y32157D01*
X514508Y32108D01*
X514503Y32059D01*
X514520Y31987D01*
X514527Y31914D01*
X514548Y31869D01*
X514559Y31821D01*
X514597Y31758D01*
X514628Y31691D01*
X514674Y31635D01*
X514687Y31614D01*
X514700Y31603D01*
X514721Y31577D01*
X515732Y30566D01*
X517121Y27214D01*
X517121Y23586D01*
X515732Y20234D01*
X513166Y17668D01*
X509814Y16279D01*
X506186Y16279D01*
G37*
%LPD*%
%LPC*%
G36*
X383504Y108808D02*
X383504Y108808D01*
X380151Y110196D01*
X377586Y112762D01*
X376197Y116114D01*
X376197Y119743D01*
X377586Y123095D01*
X380151Y125661D01*
X383504Y127049D01*
X387132Y127049D01*
X390485Y125661D01*
X393050Y123095D01*
X394439Y119743D01*
X394439Y116114D01*
X393050Y112762D01*
X390485Y110196D01*
X387132Y108808D01*
X383504Y108808D01*
G37*
%LPD*%
%LPC*%
G36*
X383504Y134788D02*
X383504Y134788D01*
X380151Y136177D01*
X377586Y138742D01*
X376197Y142095D01*
X376197Y145723D01*
X377586Y149075D01*
X380151Y151641D01*
X383504Y153029D01*
X387132Y153029D01*
X390485Y151641D01*
X393050Y149075D01*
X394439Y145723D01*
X394439Y142095D01*
X393050Y138742D01*
X390485Y136177D01*
X387132Y134788D01*
X383504Y134788D01*
G37*
%LPD*%
%LPC*%
G36*
X633186Y498879D02*
X633186Y498879D01*
X629834Y500268D01*
X627268Y502834D01*
X625879Y506186D01*
X625879Y509814D01*
X627268Y513166D01*
X629834Y515732D01*
X633186Y517121D01*
X636814Y517121D01*
X640166Y515732D01*
X642732Y513166D01*
X644121Y509814D01*
X644121Y506186D01*
X642732Y502834D01*
X640166Y500268D01*
X636814Y498879D01*
X633186Y498879D01*
G37*
%LPD*%
%LPC*%
G36*
X861786Y498879D02*
X861786Y498879D01*
X858434Y500268D01*
X855868Y502834D01*
X854479Y506186D01*
X854479Y509814D01*
X855868Y513166D01*
X858434Y515732D01*
X861786Y517121D01*
X865414Y517121D01*
X868766Y515732D01*
X871332Y513166D01*
X872721Y509814D01*
X872721Y506186D01*
X871332Y502834D01*
X868766Y500268D01*
X865414Y498879D01*
X861786Y498879D01*
G37*
%LPD*%
%LPC*%
G36*
X709386Y498879D02*
X709386Y498879D01*
X706034Y500268D01*
X703468Y502834D01*
X702079Y506186D01*
X702079Y509814D01*
X703468Y513166D01*
X706034Y515732D01*
X709386Y517121D01*
X713014Y517121D01*
X716366Y515732D01*
X718932Y513166D01*
X720321Y509814D01*
X720321Y506186D01*
X718932Y502834D01*
X716366Y500268D01*
X713014Y498879D01*
X709386Y498879D01*
G37*
%LPD*%
%LPC*%
G36*
X734786Y498879D02*
X734786Y498879D01*
X731434Y500268D01*
X728868Y502834D01*
X727479Y506186D01*
X727479Y509814D01*
X728868Y513166D01*
X731434Y515732D01*
X734786Y517121D01*
X738414Y517121D01*
X741766Y515732D01*
X744332Y513166D01*
X745721Y509814D01*
X745721Y506186D01*
X744332Y502834D01*
X741766Y500268D01*
X738414Y498879D01*
X734786Y498879D01*
G37*
%LPD*%
%LPC*%
G36*
X506186Y498879D02*
X506186Y498879D01*
X502834Y500268D01*
X500268Y502834D01*
X498879Y506186D01*
X498879Y509814D01*
X500268Y513166D01*
X502834Y515732D01*
X506186Y517121D01*
X509814Y517121D01*
X513166Y515732D01*
X515732Y513166D01*
X517121Y509814D01*
X517121Y506186D01*
X515732Y502834D01*
X513166Y500268D01*
X509814Y498879D01*
X506186Y498879D01*
G37*
%LPD*%
%LPC*%
G36*
X683986Y498879D02*
X683986Y498879D01*
X680634Y500268D01*
X678068Y502834D01*
X676679Y506186D01*
X676679Y509814D01*
X678068Y513166D01*
X680634Y515732D01*
X683986Y517121D01*
X687614Y517121D01*
X690966Y515732D01*
X693532Y513166D01*
X694921Y509814D01*
X694921Y506186D01*
X693532Y502834D01*
X690966Y500268D01*
X687614Y498879D01*
X683986Y498879D01*
G37*
%LPD*%
%LPC*%
G36*
X236946Y498879D02*
X236946Y498879D01*
X233594Y500268D01*
X231028Y502834D01*
X229639Y506186D01*
X229639Y509814D01*
X231028Y513166D01*
X233594Y515732D01*
X236946Y517121D01*
X240574Y517121D01*
X243926Y515732D01*
X246492Y513166D01*
X247881Y509814D01*
X247881Y506186D01*
X246492Y502834D01*
X243926Y500268D01*
X240574Y498879D01*
X236946Y498879D01*
G37*
%LPD*%
%LPC*%
G36*
X211546Y498879D02*
X211546Y498879D01*
X208194Y500268D01*
X205628Y502834D01*
X204239Y506186D01*
X204239Y509814D01*
X205628Y513166D01*
X208194Y515732D01*
X211546Y517121D01*
X215174Y517121D01*
X218526Y515732D01*
X221092Y513166D01*
X222481Y509814D01*
X222481Y506186D01*
X221092Y502834D01*
X218526Y500268D01*
X215174Y498879D01*
X211546Y498879D01*
G37*
%LPD*%
%LPC*%
G36*
X810986Y498879D02*
X810986Y498879D01*
X807634Y500268D01*
X805068Y502834D01*
X803679Y506186D01*
X803679Y509814D01*
X805068Y513166D01*
X807634Y515732D01*
X810986Y517121D01*
X814614Y517121D01*
X817966Y515732D01*
X820532Y513166D01*
X821921Y509814D01*
X821921Y506186D01*
X820532Y502834D01*
X817966Y500268D01*
X814614Y498879D01*
X810986Y498879D01*
G37*
%LPD*%
%LPC*%
G36*
X363946Y498879D02*
X363946Y498879D01*
X360594Y500268D01*
X358028Y502834D01*
X356639Y506186D01*
X356639Y509814D01*
X358028Y513166D01*
X360594Y515732D01*
X363946Y517121D01*
X367574Y517121D01*
X370926Y515732D01*
X373492Y513166D01*
X374881Y509814D01*
X374881Y506186D01*
X373492Y502834D01*
X370926Y500268D01*
X367574Y498879D01*
X363946Y498879D01*
G37*
%LPD*%
%LPC*%
G36*
X262346Y498879D02*
X262346Y498879D01*
X258994Y500268D01*
X256428Y502834D01*
X255039Y506186D01*
X255039Y509814D01*
X256428Y513166D01*
X258994Y515732D01*
X262346Y517121D01*
X265974Y517121D01*
X269326Y515732D01*
X271892Y513166D01*
X273281Y509814D01*
X273281Y506186D01*
X271892Y502834D01*
X269326Y500268D01*
X265974Y498879D01*
X262346Y498879D01*
G37*
%LPD*%
%LPC*%
G36*
X287746Y498879D02*
X287746Y498879D01*
X284394Y500268D01*
X281828Y502834D01*
X280439Y506186D01*
X280439Y509814D01*
X281828Y513166D01*
X284394Y515732D01*
X287746Y517121D01*
X291374Y517121D01*
X294726Y515732D01*
X297292Y513166D01*
X298681Y509814D01*
X298681Y506186D01*
X297292Y502834D01*
X294726Y500268D01*
X291374Y498879D01*
X287746Y498879D01*
G37*
%LPD*%
%LPC*%
G36*
X760186Y498879D02*
X760186Y498879D01*
X756834Y500268D01*
X754268Y502834D01*
X752879Y506186D01*
X752879Y509814D01*
X754268Y513166D01*
X756834Y515732D01*
X760186Y517121D01*
X763814Y517121D01*
X767166Y515732D01*
X769732Y513166D01*
X771121Y509814D01*
X771121Y506186D01*
X769732Y502834D01*
X767166Y500268D01*
X763814Y498879D01*
X760186Y498879D01*
G37*
%LPD*%
%LPC*%
G36*
X313146Y498879D02*
X313146Y498879D01*
X309794Y500268D01*
X307228Y502834D01*
X305839Y506186D01*
X305839Y509814D01*
X307228Y513166D01*
X309794Y515732D01*
X313146Y517121D01*
X316774Y517121D01*
X320126Y515732D01*
X322692Y513166D01*
X324081Y509814D01*
X324081Y506186D01*
X322692Y502834D01*
X320126Y500268D01*
X316774Y498879D01*
X313146Y498879D01*
G37*
%LPD*%
%LPC*%
G36*
X338546Y498879D02*
X338546Y498879D01*
X335194Y500268D01*
X332628Y502834D01*
X331239Y506186D01*
X331239Y509814D01*
X332628Y513166D01*
X335194Y515732D01*
X338546Y517121D01*
X342174Y517121D01*
X345526Y515732D01*
X348092Y513166D01*
X349481Y509814D01*
X349481Y506186D01*
X348092Y502834D01*
X345526Y500268D01*
X342174Y498879D01*
X338546Y498879D01*
G37*
%LPD*%
%LPC*%
G36*
X785586Y498879D02*
X785586Y498879D01*
X782234Y500268D01*
X779668Y502834D01*
X778279Y506186D01*
X778279Y509814D01*
X779668Y513166D01*
X782234Y515732D01*
X785586Y517121D01*
X789214Y517121D01*
X792566Y515732D01*
X795132Y513166D01*
X796521Y509814D01*
X796521Y506186D01*
X795132Y502834D01*
X792566Y500268D01*
X789214Y498879D01*
X785586Y498879D01*
G37*
%LPD*%
%LPC*%
G36*
X836386Y498879D02*
X836386Y498879D01*
X833034Y500268D01*
X830468Y502834D01*
X829079Y506186D01*
X829079Y509814D01*
X830468Y513166D01*
X833034Y515732D01*
X836386Y517121D01*
X840014Y517121D01*
X843366Y515732D01*
X845932Y513166D01*
X847321Y509814D01*
X847321Y506186D01*
X845932Y502834D01*
X843366Y500268D01*
X840014Y498879D01*
X836386Y498879D01*
G37*
%LPD*%
%LPC*%
G36*
X531586Y498879D02*
X531586Y498879D01*
X528234Y500268D01*
X525668Y502834D01*
X524279Y506186D01*
X524279Y509814D01*
X525668Y513166D01*
X528234Y515732D01*
X531586Y517121D01*
X535214Y517121D01*
X538566Y515732D01*
X541132Y513166D01*
X542521Y509814D01*
X542521Y506186D01*
X541132Y502834D01*
X538566Y500268D01*
X535214Y498879D01*
X531586Y498879D01*
G37*
%LPD*%
%LPC*%
G36*
X389346Y498879D02*
X389346Y498879D01*
X385994Y500268D01*
X383428Y502834D01*
X382039Y506186D01*
X382039Y509814D01*
X383428Y513166D01*
X385994Y515732D01*
X389346Y517121D01*
X392974Y517121D01*
X396326Y515732D01*
X398892Y513166D01*
X400281Y509814D01*
X400281Y506186D01*
X398892Y502834D01*
X396326Y500268D01*
X392974Y498879D01*
X389346Y498879D01*
G37*
%LPD*%
%LPC*%
G36*
X414746Y498879D02*
X414746Y498879D01*
X411394Y500268D01*
X408828Y502834D01*
X407439Y506186D01*
X407439Y509814D01*
X408828Y513166D01*
X411394Y515732D01*
X414746Y517121D01*
X418374Y517121D01*
X421726Y515732D01*
X424292Y513166D01*
X425681Y509814D01*
X425681Y506186D01*
X424292Y502834D01*
X421726Y500268D01*
X418374Y498879D01*
X414746Y498879D01*
G37*
%LPD*%
%LPC*%
G36*
X455386Y498879D02*
X455386Y498879D01*
X452034Y500268D01*
X449468Y502834D01*
X448079Y506186D01*
X448079Y509814D01*
X449468Y513166D01*
X452034Y515732D01*
X455386Y517121D01*
X459014Y517121D01*
X462366Y515732D01*
X464932Y513166D01*
X466321Y509814D01*
X466321Y506186D01*
X464932Y502834D01*
X462366Y500268D01*
X459014Y498879D01*
X455386Y498879D01*
G37*
%LPD*%
%LPC*%
G36*
X480786Y498879D02*
X480786Y498879D01*
X477434Y500268D01*
X474868Y502834D01*
X473479Y506186D01*
X473479Y509814D01*
X474868Y513166D01*
X477434Y515732D01*
X480786Y517121D01*
X484414Y517121D01*
X487766Y515732D01*
X490332Y513166D01*
X491721Y509814D01*
X491721Y506186D01*
X490332Y502834D01*
X487766Y500268D01*
X484414Y498879D01*
X480786Y498879D01*
G37*
%LPD*%
%LPC*%
G36*
X556986Y498879D02*
X556986Y498879D01*
X553634Y500268D01*
X551068Y502834D01*
X549679Y506186D01*
X549679Y509814D01*
X551068Y513166D01*
X553634Y515732D01*
X556986Y517121D01*
X560614Y517121D01*
X563966Y515732D01*
X566532Y513166D01*
X567921Y509814D01*
X567921Y506186D01*
X566532Y502834D01*
X563966Y500268D01*
X560614Y498879D01*
X556986Y498879D01*
G37*
%LPD*%
%LPC*%
G36*
X582386Y498879D02*
X582386Y498879D01*
X579034Y500268D01*
X576468Y502834D01*
X575079Y506186D01*
X575079Y509814D01*
X576468Y513166D01*
X579034Y515732D01*
X582386Y517121D01*
X586014Y517121D01*
X589366Y515732D01*
X591932Y513166D01*
X593321Y509814D01*
X593321Y506186D01*
X591932Y502834D01*
X589366Y500268D01*
X586014Y498879D01*
X582386Y498879D01*
G37*
%LPD*%
%LPC*%
G36*
X607786Y498879D02*
X607786Y498879D01*
X604434Y500268D01*
X601868Y502834D01*
X600479Y506186D01*
X600479Y509814D01*
X601868Y513166D01*
X604434Y515732D01*
X607786Y517121D01*
X611414Y517121D01*
X614766Y515732D01*
X617332Y513166D01*
X618721Y509814D01*
X618721Y506186D01*
X617332Y502834D01*
X614766Y500268D01*
X611414Y498879D01*
X607786Y498879D01*
G37*
%LPD*%
%LPC*%
G36*
X607786Y16279D02*
X607786Y16279D01*
X604434Y17668D01*
X601868Y20234D01*
X600479Y23586D01*
X600479Y27214D01*
X601868Y30566D01*
X604434Y33132D01*
X607786Y34521D01*
X611414Y34521D01*
X614766Y33132D01*
X617332Y30566D01*
X618721Y27214D01*
X618721Y23586D01*
X617332Y20234D01*
X614766Y17668D01*
X611414Y16279D01*
X607786Y16279D01*
G37*
%LPD*%
%LPC*%
G36*
X633186Y16279D02*
X633186Y16279D01*
X629834Y17668D01*
X627268Y20234D01*
X625879Y23586D01*
X625879Y27214D01*
X627268Y30566D01*
X629834Y33132D01*
X633186Y34521D01*
X636814Y34521D01*
X640166Y33132D01*
X642732Y30566D01*
X644121Y27214D01*
X644121Y23586D01*
X642732Y20234D01*
X640166Y17668D01*
X636814Y16279D01*
X633186Y16279D01*
G37*
%LPD*%
%LPC*%
G36*
X658586Y16279D02*
X658586Y16279D01*
X655234Y17668D01*
X652668Y20234D01*
X651279Y23586D01*
X651279Y27214D01*
X652668Y30566D01*
X655234Y33132D01*
X658586Y34521D01*
X662214Y34521D01*
X665566Y33132D01*
X668132Y30566D01*
X669521Y27214D01*
X669521Y23586D01*
X668132Y20234D01*
X665566Y17668D01*
X662214Y16279D01*
X658586Y16279D01*
G37*
%LPD*%
%LPC*%
G36*
X683986Y16279D02*
X683986Y16279D01*
X680634Y17668D01*
X678068Y20234D01*
X676679Y23586D01*
X676679Y27214D01*
X678068Y30566D01*
X680634Y33132D01*
X683986Y34521D01*
X687614Y34521D01*
X690966Y33132D01*
X693532Y30566D01*
X694921Y27214D01*
X694921Y23586D01*
X693532Y20234D01*
X690966Y17668D01*
X687614Y16279D01*
X683986Y16279D01*
G37*
%LPD*%
%LPC*%
G36*
X734786Y16279D02*
X734786Y16279D01*
X731434Y17668D01*
X728868Y20234D01*
X727479Y23586D01*
X727479Y27214D01*
X728868Y30566D01*
X731434Y33132D01*
X734786Y34521D01*
X738414Y34521D01*
X741766Y33132D01*
X744332Y30566D01*
X745721Y27214D01*
X745721Y23586D01*
X744332Y20234D01*
X741766Y17668D01*
X738414Y16279D01*
X734786Y16279D01*
G37*
%LPD*%
%LPC*%
G36*
X760186Y16279D02*
X760186Y16279D01*
X756834Y17668D01*
X754268Y20234D01*
X752879Y23586D01*
X752879Y27214D01*
X754268Y30566D01*
X756834Y33132D01*
X760186Y34521D01*
X763814Y34521D01*
X767166Y33132D01*
X769732Y30566D01*
X771121Y27214D01*
X771121Y23586D01*
X769732Y20234D01*
X767166Y17668D01*
X763814Y16279D01*
X760186Y16279D01*
G37*
%LPD*%
%LPC*%
G36*
X785586Y16279D02*
X785586Y16279D01*
X782234Y17668D01*
X779668Y20234D01*
X778279Y23586D01*
X778279Y27214D01*
X779668Y30566D01*
X782234Y33132D01*
X785586Y34521D01*
X789214Y34521D01*
X792566Y33132D01*
X795132Y30566D01*
X796521Y27214D01*
X796521Y23586D01*
X795132Y20234D01*
X792566Y17668D01*
X789214Y16279D01*
X785586Y16279D01*
G37*
%LPD*%
%LPC*%
G36*
X887186Y16279D02*
X887186Y16279D01*
X883834Y17668D01*
X881268Y20234D01*
X879879Y23586D01*
X879879Y27214D01*
X881268Y30566D01*
X883834Y33132D01*
X887186Y34521D01*
X890814Y34521D01*
X894166Y33132D01*
X896732Y30566D01*
X898121Y27214D01*
X898121Y23586D01*
X896732Y20234D01*
X894166Y17668D01*
X890814Y16279D01*
X887186Y16279D01*
G37*
%LPD*%
%LPC*%
G36*
X912586Y16279D02*
X912586Y16279D01*
X909234Y17668D01*
X906668Y20234D01*
X905279Y23586D01*
X905279Y27214D01*
X906668Y30566D01*
X909234Y33132D01*
X912586Y34521D01*
X916214Y34521D01*
X919566Y33132D01*
X922132Y30566D01*
X923521Y27214D01*
X923521Y23586D01*
X922132Y20234D01*
X919566Y17668D01*
X916214Y16279D01*
X912586Y16279D01*
G37*
%LPD*%
%LPC*%
G36*
X810986Y16279D02*
X810986Y16279D01*
X807634Y17668D01*
X805068Y20234D01*
X803679Y23586D01*
X803679Y27214D01*
X805068Y30566D01*
X807634Y33132D01*
X810986Y34521D01*
X814614Y34521D01*
X817966Y33132D01*
X820532Y30566D01*
X821921Y27214D01*
X821921Y23586D01*
X820532Y20234D01*
X817966Y17668D01*
X814614Y16279D01*
X810986Y16279D01*
G37*
%LPD*%
%LPC*%
G36*
X861786Y16279D02*
X861786Y16279D01*
X858434Y17668D01*
X855868Y20234D01*
X854479Y23586D01*
X854479Y27214D01*
X855868Y30566D01*
X858434Y33132D01*
X861786Y34521D01*
X865414Y34521D01*
X868766Y33132D01*
X871332Y30566D01*
X872721Y27214D01*
X872721Y23586D01*
X871332Y20234D01*
X868766Y17668D01*
X865414Y16279D01*
X861786Y16279D01*
G37*
%LPD*%
%LPC*%
G36*
X379186Y16279D02*
X379186Y16279D01*
X375834Y17668D01*
X373268Y20234D01*
X371879Y23586D01*
X371879Y27214D01*
X373268Y30566D01*
X375834Y33132D01*
X379186Y34521D01*
X382814Y34521D01*
X386166Y33132D01*
X388732Y30566D01*
X390121Y27214D01*
X390121Y23586D01*
X388732Y20234D01*
X386166Y17668D01*
X382814Y16279D01*
X379186Y16279D01*
G37*
%LPD*%
%LPC*%
G36*
X836386Y16279D02*
X836386Y16279D01*
X833034Y17668D01*
X830468Y20234D01*
X829079Y23586D01*
X829079Y27214D01*
X830468Y30566D01*
X833034Y33132D01*
X836386Y34521D01*
X840014Y34521D01*
X843366Y33132D01*
X845932Y30566D01*
X847321Y27214D01*
X847321Y23586D01*
X845932Y20234D01*
X843366Y17668D01*
X840014Y16279D01*
X836386Y16279D01*
G37*
%LPD*%
%LPC*%
G36*
X455386Y16279D02*
X455386Y16279D01*
X452034Y17668D01*
X449468Y20234D01*
X448079Y23586D01*
X448079Y27214D01*
X449468Y30566D01*
X452034Y33132D01*
X455386Y34521D01*
X459014Y34521D01*
X462366Y33132D01*
X464932Y30566D01*
X466321Y27214D01*
X466321Y23586D01*
X464932Y20234D01*
X462366Y17668D01*
X459014Y16279D01*
X455386Y16279D01*
G37*
%LPD*%
%LPC*%
G36*
X531586Y16279D02*
X531586Y16279D01*
X528234Y17668D01*
X525668Y20234D01*
X524279Y23586D01*
X524279Y27214D01*
X525668Y30566D01*
X528234Y33132D01*
X531586Y34521D01*
X535214Y34521D01*
X538566Y33132D01*
X541132Y30566D01*
X542521Y27214D01*
X542521Y23586D01*
X541132Y20234D01*
X538566Y17668D01*
X535214Y16279D01*
X531586Y16279D01*
G37*
%LPD*%
%LPC*%
G36*
X556986Y16279D02*
X556986Y16279D01*
X553634Y17668D01*
X551068Y20234D01*
X549679Y23586D01*
X549679Y27214D01*
X551068Y30566D01*
X553634Y33132D01*
X556986Y34521D01*
X560614Y34521D01*
X563966Y33132D01*
X566532Y30566D01*
X567921Y27214D01*
X567921Y23586D01*
X566532Y20234D01*
X563966Y17668D01*
X560614Y16279D01*
X556986Y16279D01*
G37*
%LPD*%
%LPC*%
G36*
X582386Y16279D02*
X582386Y16279D01*
X579034Y17668D01*
X576468Y20234D01*
X575079Y23586D01*
X575079Y27214D01*
X576468Y30566D01*
X579034Y33132D01*
X582386Y34521D01*
X586014Y34521D01*
X589366Y33132D01*
X591932Y30566D01*
X593321Y27214D01*
X593321Y23586D01*
X591932Y20234D01*
X589366Y17668D01*
X586014Y16279D01*
X582386Y16279D01*
G37*
%LPD*%
%LPC*%
G36*
X129060Y111649D02*
X129060Y111649D01*
X125751Y113020D01*
X123220Y115551D01*
X121849Y118860D01*
X121849Y122440D01*
X123220Y125749D01*
X125751Y128280D01*
X129060Y129651D01*
X132640Y129651D01*
X135949Y128280D01*
X138480Y125749D01*
X139851Y122440D01*
X139851Y118860D01*
X138480Y115551D01*
X135949Y113020D01*
X132640Y111649D01*
X129060Y111649D01*
G37*
%LPD*%
%LPC*%
G36*
X68060Y111649D02*
X68060Y111649D01*
X64751Y113020D01*
X62220Y115551D01*
X60849Y118860D01*
X60849Y122440D01*
X62220Y125749D01*
X64751Y128280D01*
X68060Y129651D01*
X71640Y129651D01*
X74949Y128280D01*
X77480Y125749D01*
X78851Y122440D01*
X78851Y118860D01*
X77480Y115551D01*
X74949Y113020D01*
X71640Y111649D01*
X68060Y111649D01*
G37*
%LPD*%
%LPC*%
G36*
X68060Y206899D02*
X68060Y206899D01*
X64751Y208270D01*
X62220Y210801D01*
X60849Y214110D01*
X60849Y217690D01*
X62220Y220999D01*
X64751Y223530D01*
X68060Y224901D01*
X71640Y224901D01*
X74949Y223530D01*
X77480Y220999D01*
X78851Y217690D01*
X78851Y214110D01*
X77480Y210801D01*
X74949Y208270D01*
X71640Y206899D01*
X68060Y206899D01*
G37*
%LPD*%
%LPC*%
G36*
X920360Y205949D02*
X920360Y205949D01*
X917051Y207320D01*
X914520Y209851D01*
X913149Y213160D01*
X913149Y216740D01*
X914520Y220049D01*
X917051Y222580D01*
X920360Y223951D01*
X923940Y223951D01*
X927249Y222580D01*
X929780Y220049D01*
X931151Y216740D01*
X931151Y213160D01*
X929780Y209851D01*
X927249Y207320D01*
X923940Y205949D01*
X920360Y205949D01*
G37*
%LPD*%
%LPC*%
G36*
X828360Y321199D02*
X828360Y321199D01*
X825051Y322570D01*
X822520Y325101D01*
X821149Y328410D01*
X821149Y331990D01*
X822520Y335299D01*
X825051Y337830D01*
X828360Y339201D01*
X831940Y339201D01*
X835249Y337830D01*
X837780Y335299D01*
X839151Y331990D01*
X839151Y328410D01*
X837780Y325101D01*
X835249Y322570D01*
X831940Y321199D01*
X828360Y321199D01*
G37*
%LPD*%
%LPC*%
G36*
X828360Y130699D02*
X828360Y130699D01*
X825051Y132070D01*
X822520Y134601D01*
X821149Y137910D01*
X821149Y141490D01*
X822520Y144799D01*
X825051Y147330D01*
X828360Y148701D01*
X831940Y148701D01*
X835249Y147330D01*
X837780Y144799D01*
X839151Y141490D01*
X839151Y137910D01*
X837780Y134601D01*
X835249Y132070D01*
X831940Y130699D01*
X828360Y130699D01*
G37*
%LPD*%
%LPC*%
G36*
X828360Y416449D02*
X828360Y416449D01*
X825051Y417820D01*
X822520Y420351D01*
X821149Y423660D01*
X821149Y427240D01*
X822520Y430549D01*
X825051Y433080D01*
X828360Y434451D01*
X831940Y434451D01*
X835249Y433080D01*
X837780Y430549D01*
X839151Y427240D01*
X839151Y423660D01*
X837780Y420351D01*
X835249Y417820D01*
X831940Y416449D01*
X828360Y416449D01*
G37*
%LPD*%
%LPC*%
G36*
X865360Y205949D02*
X865360Y205949D01*
X862051Y207320D01*
X859520Y209851D01*
X858149Y213160D01*
X858149Y216740D01*
X859520Y220049D01*
X862051Y222580D01*
X865360Y223951D01*
X868940Y223951D01*
X872249Y222580D01*
X874780Y220049D01*
X876151Y216740D01*
X876151Y213160D01*
X874780Y209851D01*
X872249Y207320D01*
X868940Y205949D01*
X865360Y205949D01*
G37*
%LPD*%
%LPC*%
G36*
X865360Y110699D02*
X865360Y110699D01*
X862051Y112070D01*
X859520Y114601D01*
X858149Y117910D01*
X858149Y121490D01*
X859520Y124799D01*
X862051Y127330D01*
X865360Y128701D01*
X868940Y128701D01*
X872249Y127330D01*
X874780Y124799D01*
X876151Y121490D01*
X876151Y117910D01*
X874780Y114601D01*
X872249Y112070D01*
X868940Y110699D01*
X865360Y110699D01*
G37*
%LPD*%
%LPC*%
G36*
X883360Y130699D02*
X883360Y130699D01*
X880051Y132070D01*
X877520Y134601D01*
X876149Y137910D01*
X876149Y141490D01*
X877520Y144799D01*
X880051Y147330D01*
X883360Y148701D01*
X886940Y148701D01*
X890249Y147330D01*
X892780Y144799D01*
X894151Y141490D01*
X894151Y137910D01*
X892780Y134601D01*
X890249Y132070D01*
X886940Y130699D01*
X883360Y130699D01*
G37*
%LPD*%
%LPC*%
G36*
X920360Y110699D02*
X920360Y110699D01*
X917051Y112070D01*
X914520Y114601D01*
X913149Y117910D01*
X913149Y121490D01*
X914520Y124799D01*
X917051Y127330D01*
X920360Y128701D01*
X923940Y128701D01*
X927249Y127330D01*
X929780Y124799D01*
X931151Y121490D01*
X931151Y117910D01*
X929780Y114601D01*
X927249Y112070D01*
X923940Y110699D01*
X920360Y110699D01*
G37*
%LPD*%
%LPC*%
G36*
X92060Y226899D02*
X92060Y226899D01*
X88751Y228270D01*
X86220Y230801D01*
X84849Y234110D01*
X84849Y237690D01*
X86220Y240999D01*
X88751Y243530D01*
X92060Y244901D01*
X95640Y244901D01*
X98949Y243530D01*
X101480Y240999D01*
X102851Y237690D01*
X102851Y234110D01*
X101480Y230801D01*
X98949Y228270D01*
X95640Y226899D01*
X92060Y226899D01*
G37*
%LPD*%
%LPC*%
G36*
X883360Y225949D02*
X883360Y225949D01*
X880051Y227320D01*
X877520Y229851D01*
X876149Y233160D01*
X876149Y236740D01*
X877520Y240049D01*
X880051Y242580D01*
X883360Y243951D01*
X886940Y243951D01*
X890249Y242580D01*
X892780Y240049D01*
X894151Y236740D01*
X894151Y233160D01*
X892780Y229851D01*
X890249Y227320D01*
X886940Y225949D01*
X883360Y225949D01*
G37*
%LPD*%
%LPC*%
G36*
X147060Y417399D02*
X147060Y417399D01*
X143751Y418770D01*
X141220Y421301D01*
X139849Y424610D01*
X139849Y428190D01*
X141220Y431499D01*
X143751Y434030D01*
X147060Y435401D01*
X150640Y435401D01*
X153949Y434030D01*
X156480Y431499D01*
X157851Y428190D01*
X157851Y424610D01*
X156480Y421301D01*
X153949Y418770D01*
X150640Y417399D01*
X147060Y417399D01*
G37*
%LPD*%
%LPC*%
G36*
X92060Y417399D02*
X92060Y417399D01*
X88751Y418770D01*
X86220Y421301D01*
X84849Y424610D01*
X84849Y428190D01*
X86220Y431499D01*
X88751Y434030D01*
X92060Y435401D01*
X95640Y435401D01*
X98949Y434030D01*
X101480Y431499D01*
X102851Y428190D01*
X102851Y424610D01*
X101480Y421301D01*
X98949Y418770D01*
X95640Y417399D01*
X92060Y417399D01*
G37*
%LPD*%
%LPC*%
G36*
X883360Y416449D02*
X883360Y416449D01*
X880051Y417820D01*
X877520Y420351D01*
X876149Y423660D01*
X876149Y427240D01*
X877520Y430549D01*
X880051Y433080D01*
X883360Y434451D01*
X886940Y434451D01*
X890249Y433080D01*
X892780Y430549D01*
X894151Y427240D01*
X894151Y423660D01*
X892780Y420351D01*
X890249Y417820D01*
X886940Y416449D01*
X883360Y416449D01*
G37*
%LPD*%
%LPC*%
G36*
X184060Y302149D02*
X184060Y302149D01*
X180751Y303520D01*
X178220Y306051D01*
X176849Y309360D01*
X176849Y312940D01*
X178220Y316249D01*
X180751Y318780D01*
X184060Y320151D01*
X187640Y320151D01*
X190949Y318780D01*
X193480Y316249D01*
X194851Y312940D01*
X194851Y309360D01*
X193480Y306051D01*
X190949Y303520D01*
X187640Y302149D01*
X184060Y302149D01*
G37*
%LPD*%
%LPC*%
G36*
X92060Y131649D02*
X92060Y131649D01*
X88751Y133020D01*
X86220Y135551D01*
X84849Y138860D01*
X84849Y142440D01*
X86220Y145749D01*
X88751Y148280D01*
X92060Y149651D01*
X95640Y149651D01*
X98949Y148280D01*
X101480Y145749D01*
X102851Y142440D01*
X102851Y138860D01*
X101480Y135551D01*
X98949Y133020D01*
X95640Y131649D01*
X92060Y131649D01*
G37*
%LPD*%
%LPC*%
G36*
X184060Y206899D02*
X184060Y206899D01*
X180751Y208270D01*
X178220Y210801D01*
X176849Y214110D01*
X176849Y217690D01*
X178220Y220999D01*
X180751Y223530D01*
X184060Y224901D01*
X187640Y224901D01*
X190949Y223530D01*
X193480Y220999D01*
X194851Y217690D01*
X194851Y214110D01*
X193480Y210801D01*
X190949Y208270D01*
X187640Y206899D01*
X184060Y206899D01*
G37*
%LPD*%
%LPC*%
G36*
X184060Y111649D02*
X184060Y111649D01*
X180751Y113020D01*
X178220Y115551D01*
X176849Y118860D01*
X176849Y122440D01*
X178220Y125749D01*
X180751Y128280D01*
X184060Y129651D01*
X187640Y129651D01*
X190949Y128280D01*
X193480Y125749D01*
X194851Y122440D01*
X194851Y118860D01*
X193480Y115551D01*
X190949Y113020D01*
X187640Y111649D01*
X184060Y111649D01*
G37*
%LPD*%
%LPC*%
G36*
X147060Y131649D02*
X147060Y131649D01*
X143751Y133020D01*
X141220Y135551D01*
X139849Y138860D01*
X139849Y142440D01*
X141220Y145749D01*
X143751Y148280D01*
X147060Y149651D01*
X150640Y149651D01*
X153949Y148280D01*
X156480Y145749D01*
X157851Y142440D01*
X157851Y138860D01*
X156480Y135551D01*
X153949Y133020D01*
X150640Y131649D01*
X147060Y131649D01*
G37*
%LPD*%
%LPC*%
G36*
X129060Y302149D02*
X129060Y302149D01*
X125751Y303520D01*
X123220Y306051D01*
X121849Y309360D01*
X121849Y312940D01*
X123220Y316249D01*
X125751Y318780D01*
X129060Y320151D01*
X132640Y320151D01*
X135949Y318780D01*
X138480Y316249D01*
X139851Y312940D01*
X139851Y309360D01*
X138480Y306051D01*
X135949Y303520D01*
X132640Y302149D01*
X129060Y302149D01*
G37*
%LPD*%
%LPC*%
G36*
X920360Y301199D02*
X920360Y301199D01*
X917051Y302570D01*
X914520Y305101D01*
X913149Y308410D01*
X913149Y311990D01*
X914520Y315299D01*
X917051Y317830D01*
X920360Y319201D01*
X923940Y319201D01*
X927249Y317830D01*
X929780Y315299D01*
X931151Y311990D01*
X931151Y308410D01*
X929780Y305101D01*
X927249Y302570D01*
X923940Y301199D01*
X920360Y301199D01*
G37*
%LPD*%
%LPC*%
G36*
X68060Y397399D02*
X68060Y397399D01*
X64751Y398770D01*
X62220Y401301D01*
X60849Y404610D01*
X60849Y408190D01*
X62220Y411499D01*
X64751Y414030D01*
X68060Y415401D01*
X71640Y415401D01*
X74949Y414030D01*
X77480Y411499D01*
X78851Y408190D01*
X78851Y404610D01*
X77480Y401301D01*
X74949Y398770D01*
X71640Y397399D01*
X68060Y397399D01*
G37*
%LPD*%
%LPC*%
G36*
X865360Y301199D02*
X865360Y301199D01*
X862051Y302570D01*
X859520Y305101D01*
X858149Y308410D01*
X858149Y311990D01*
X859520Y315299D01*
X862051Y317830D01*
X865360Y319201D01*
X868940Y319201D01*
X872249Y317830D01*
X874780Y315299D01*
X876151Y311990D01*
X876151Y308410D01*
X874780Y305101D01*
X872249Y302570D01*
X868940Y301199D01*
X865360Y301199D01*
G37*
%LPD*%
%LPC*%
G36*
X883360Y321199D02*
X883360Y321199D01*
X880051Y322570D01*
X877520Y325101D01*
X876149Y328410D01*
X876149Y331990D01*
X877520Y335299D01*
X880051Y337830D01*
X883360Y339201D01*
X886940Y339201D01*
X890249Y337830D01*
X892780Y335299D01*
X894151Y331990D01*
X894151Y328410D01*
X892780Y325101D01*
X890249Y322570D01*
X886940Y321199D01*
X883360Y321199D01*
G37*
%LPD*%
%LPC*%
G36*
X129060Y397399D02*
X129060Y397399D01*
X125751Y398770D01*
X123220Y401301D01*
X121849Y404610D01*
X121849Y408190D01*
X123220Y411499D01*
X125751Y414030D01*
X129060Y415401D01*
X132640Y415401D01*
X135949Y414030D01*
X138480Y411499D01*
X139851Y408190D01*
X139851Y404610D01*
X138480Y401301D01*
X135949Y398770D01*
X132640Y397399D01*
X129060Y397399D01*
G37*
%LPD*%
%LPC*%
G36*
X184060Y397399D02*
X184060Y397399D01*
X180751Y398770D01*
X178220Y401301D01*
X176849Y404610D01*
X176849Y408190D01*
X178220Y411499D01*
X180751Y414030D01*
X184060Y415401D01*
X187640Y415401D01*
X190949Y414030D01*
X193480Y411499D01*
X194851Y408190D01*
X194851Y404610D01*
X193480Y401301D01*
X190949Y398770D01*
X187640Y397399D01*
X184060Y397399D01*
G37*
%LPD*%
%LPC*%
G36*
X828360Y225949D02*
X828360Y225949D01*
X825051Y227320D01*
X822520Y229851D01*
X821149Y233160D01*
X821149Y236740D01*
X822520Y240049D01*
X825051Y242580D01*
X828360Y243951D01*
X831940Y243951D01*
X835249Y242580D01*
X837780Y240049D01*
X839151Y236740D01*
X839151Y233160D01*
X837780Y229851D01*
X835249Y227320D01*
X831940Y225949D01*
X828360Y225949D01*
G37*
%LPD*%
%LPC*%
G36*
X129060Y206899D02*
X129060Y206899D01*
X125751Y208270D01*
X123220Y210801D01*
X121849Y214110D01*
X121849Y217690D01*
X123220Y220999D01*
X125751Y223530D01*
X129060Y224901D01*
X132640Y224901D01*
X135949Y223530D01*
X138480Y220999D01*
X139851Y217690D01*
X139851Y214110D01*
X138480Y210801D01*
X135949Y208270D01*
X132640Y206899D01*
X129060Y206899D01*
G37*
%LPD*%
%LPC*%
G36*
X865360Y396449D02*
X865360Y396449D01*
X862051Y397820D01*
X859520Y400351D01*
X858149Y403660D01*
X858149Y407240D01*
X859520Y410549D01*
X862051Y413080D01*
X865360Y414451D01*
X868940Y414451D01*
X872249Y413080D01*
X874780Y410549D01*
X876151Y407240D01*
X876151Y403660D01*
X874780Y400351D01*
X872249Y397820D01*
X868940Y396449D01*
X865360Y396449D01*
G37*
%LPD*%
%LPC*%
G36*
X920360Y396449D02*
X920360Y396449D01*
X917051Y397820D01*
X914520Y400351D01*
X913149Y403660D01*
X913149Y407240D01*
X914520Y410549D01*
X917051Y413080D01*
X920360Y414451D01*
X923940Y414451D01*
X927249Y413080D01*
X929780Y410549D01*
X931151Y407240D01*
X931151Y403660D01*
X929780Y400351D01*
X927249Y397820D01*
X923940Y396449D01*
X920360Y396449D01*
G37*
%LPD*%
%LPC*%
G36*
X92060Y322149D02*
X92060Y322149D01*
X88751Y323520D01*
X86220Y326051D01*
X84849Y329360D01*
X84849Y332940D01*
X86220Y336249D01*
X88751Y338780D01*
X92060Y340151D01*
X95640Y340151D01*
X98949Y338780D01*
X101480Y336249D01*
X102851Y332940D01*
X102851Y329360D01*
X101480Y326051D01*
X98949Y323520D01*
X95640Y322149D01*
X92060Y322149D01*
G37*
%LPD*%
%LPC*%
G36*
X68060Y302149D02*
X68060Y302149D01*
X64751Y303520D01*
X62220Y306051D01*
X60849Y309360D01*
X60849Y312940D01*
X62220Y316249D01*
X64751Y318780D01*
X68060Y320151D01*
X71640Y320151D01*
X74949Y318780D01*
X77480Y316249D01*
X78851Y312940D01*
X78851Y309360D01*
X77480Y306051D01*
X74949Y303520D01*
X71640Y302149D01*
X68060Y302149D01*
G37*
%LPD*%
%LPC*%
G36*
X147060Y226899D02*
X147060Y226899D01*
X143751Y228270D01*
X141220Y230801D01*
X139849Y234110D01*
X139849Y237690D01*
X141220Y240999D01*
X143751Y243530D01*
X147060Y244901D01*
X150640Y244901D01*
X153949Y243530D01*
X156480Y240999D01*
X157851Y237690D01*
X157851Y234110D01*
X156480Y230801D01*
X153949Y228270D01*
X150640Y226899D01*
X147060Y226899D01*
G37*
%LPD*%
%LPC*%
G36*
X147060Y322149D02*
X147060Y322149D01*
X143751Y323520D01*
X141220Y326051D01*
X139849Y329360D01*
X139849Y332940D01*
X141220Y336249D01*
X143751Y338780D01*
X147060Y340151D01*
X150640Y340151D01*
X153949Y338780D01*
X156480Y336249D01*
X157851Y332940D01*
X157851Y329360D01*
X156480Y326051D01*
X153949Y323520D01*
X150640Y322149D01*
X147060Y322149D01*
G37*
%LPD*%
%LPC*%
G36*
X769531Y133178D02*
X769531Y133178D01*
X766885Y134274D01*
X764859Y136300D01*
X763763Y138946D01*
X763763Y141811D01*
X764859Y144458D01*
X766885Y146483D01*
X769531Y147579D01*
X772396Y147579D01*
X775043Y146483D01*
X777068Y144458D01*
X778164Y141811D01*
X778164Y138946D01*
X777068Y136300D01*
X775043Y134274D01*
X772396Y133178D01*
X769531Y133178D01*
G37*
%LPD*%
%LPC*%
G36*
X744131Y133178D02*
X744131Y133178D01*
X741485Y134274D01*
X739459Y136300D01*
X738363Y138946D01*
X738363Y141811D01*
X739459Y144458D01*
X741485Y146483D01*
X744131Y147579D01*
X746996Y147579D01*
X749643Y146483D01*
X751668Y144458D01*
X752764Y141811D01*
X752764Y138946D01*
X751668Y136300D01*
X749643Y134274D01*
X746996Y133178D01*
X744131Y133178D01*
G37*
%LPD*%
%LPC*%
G36*
X423586Y357449D02*
X423586Y357449D01*
X420949Y360086D01*
X420949Y363814D01*
X423586Y366451D01*
X426538Y366451D01*
X426558Y366454D01*
X426577Y366452D01*
X426679Y366474D01*
X426781Y366490D01*
X426798Y366500D01*
X426818Y366504D01*
X426907Y366557D01*
X426998Y366606D01*
X427012Y366620D01*
X427029Y366630D01*
X427096Y366709D01*
X427168Y366784D01*
X427176Y366802D01*
X427189Y366817D01*
X427228Y366913D01*
X427271Y367007D01*
X427273Y367027D01*
X427281Y367045D01*
X427299Y367212D01*
X427299Y370164D01*
X429936Y372801D01*
X433664Y372801D01*
X436301Y370164D01*
X436301Y366436D01*
X433664Y363799D01*
X430712Y363799D01*
X430692Y363796D01*
X430673Y363798D01*
X430571Y363776D01*
X430469Y363760D01*
X430452Y363750D01*
X430432Y363746D01*
X430343Y363693D01*
X430252Y363644D01*
X430238Y363630D01*
X430221Y363620D01*
X430154Y363541D01*
X430082Y363466D01*
X430074Y363448D01*
X430061Y363433D01*
X430022Y363337D01*
X429979Y363243D01*
X429977Y363223D01*
X429969Y363205D01*
X429951Y363038D01*
X429951Y360086D01*
X427314Y357449D01*
X423586Y357449D01*
G37*
%LPD*%
%LPC*%
G36*
X534159Y191714D02*
X534159Y191714D01*
X532494Y193379D01*
X532477Y193391D01*
X532465Y193406D01*
X532378Y193462D01*
X532294Y193523D01*
X532275Y193529D01*
X532258Y193539D01*
X532158Y193565D01*
X532059Y193595D01*
X532039Y193595D01*
X532020Y193599D01*
X531917Y193591D01*
X531813Y193589D01*
X531794Y193582D01*
X531774Y193580D01*
X531679Y193540D01*
X531582Y193504D01*
X531566Y193492D01*
X531548Y193484D01*
X531417Y193379D01*
X530387Y192349D01*
X526659Y192349D01*
X524022Y194986D01*
X524022Y198714D01*
X526659Y201351D01*
X530387Y201351D01*
X532052Y199686D01*
X532068Y199674D01*
X532081Y199659D01*
X532168Y199602D01*
X532252Y199542D01*
X532271Y199536D01*
X532288Y199526D01*
X532388Y199500D01*
X532487Y199470D01*
X532507Y199470D01*
X532526Y199466D01*
X532629Y199474D01*
X532733Y199476D01*
X532752Y199483D01*
X532771Y199485D01*
X532866Y199525D01*
X532964Y199561D01*
X532979Y199573D01*
X532998Y199581D01*
X533129Y199686D01*
X534159Y200716D01*
X537887Y200716D01*
X540524Y198079D01*
X540524Y194351D01*
X537887Y191714D01*
X534159Y191714D01*
G37*
%LPD*%
%LPC*%
G36*
X361988Y229323D02*
X361988Y229323D01*
X361985Y229343D01*
X361987Y229362D01*
X361974Y229422D01*
X361988Y229549D01*
X361988Y234379D01*
X362961Y234118D01*
X363080Y234107D01*
X363197Y234093D01*
X363202Y234094D01*
X363206Y234094D01*
X363321Y234120D01*
X363438Y234146D01*
X363441Y234148D01*
X363446Y234149D01*
X363547Y234211D01*
X363649Y234272D01*
X363652Y234275D01*
X363655Y234277D01*
X363732Y234369D01*
X363809Y234459D01*
X363810Y234463D01*
X363813Y234466D01*
X363832Y234513D01*
X366556Y237237D01*
X370284Y237237D01*
X372077Y235445D01*
X372093Y235434D01*
X372105Y235418D01*
X372192Y235362D01*
X372276Y235302D01*
X372295Y235296D01*
X372312Y235285D01*
X372412Y235260D01*
X372511Y235229D01*
X372531Y235230D01*
X372551Y235225D01*
X372654Y235233D01*
X372757Y235236D01*
X372776Y235243D01*
X372796Y235244D01*
X372891Y235284D01*
X372988Y235320D01*
X373004Y235333D01*
X373022Y235340D01*
X373153Y235445D01*
X374119Y236412D01*
X375260Y237070D01*
X376316Y237353D01*
X376316Y232523D01*
X376319Y232504D01*
X376317Y232484D01*
X376330Y232424D01*
X376316Y232297D01*
X376316Y227467D01*
X375260Y227750D01*
X374119Y228408D01*
X373188Y229339D01*
X373025Y229622D01*
X372980Y229677D01*
X372965Y229702D01*
X372947Y229718D01*
X372876Y229807D01*
X372872Y229809D01*
X372870Y229812D01*
X372770Y229875D01*
X372669Y229940D01*
X372665Y229941D01*
X372661Y229943D01*
X372546Y229971D01*
X372430Y230000D01*
X372426Y229999D01*
X372422Y230000D01*
X372303Y229990D01*
X372185Y229981D01*
X372181Y229979D01*
X372177Y229979D01*
X372068Y229931D01*
X371959Y229884D01*
X371955Y229881D01*
X371952Y229880D01*
X371942Y229871D01*
X371828Y229780D01*
X370284Y228236D01*
X366553Y228236D01*
X366510Y228229D01*
X366466Y228231D01*
X366389Y228209D01*
X366311Y228196D01*
X366272Y228176D01*
X366230Y228164D01*
X366164Y228118D01*
X366093Y228081D01*
X366063Y228049D01*
X366027Y228025D01*
X365979Y227961D01*
X365924Y227903D01*
X365905Y227863D01*
X365879Y227828D01*
X365826Y227692D01*
X365820Y227680D01*
X365820Y227676D01*
X365818Y227672D01*
X365774Y227506D01*
X365115Y226366D01*
X364184Y225435D01*
X363044Y224776D01*
X361988Y224493D01*
X361988Y229323D01*
G37*
%LPD*%
%LPC*%
G36*
X349303Y199969D02*
X349303Y199969D01*
X346667Y202606D01*
X346667Y206334D01*
X349303Y208971D01*
X353032Y208971D01*
X354866Y207137D01*
X354962Y207068D01*
X355058Y206997D01*
X355062Y206996D01*
X355066Y206993D01*
X355178Y206959D01*
X355293Y206922D01*
X355297Y206922D01*
X355301Y206921D01*
X355419Y206924D01*
X355539Y206926D01*
X355543Y206927D01*
X355547Y206927D01*
X355659Y206968D01*
X355771Y207008D01*
X355774Y207010D01*
X355778Y207012D01*
X355871Y207086D01*
X355964Y207159D01*
X355967Y207163D01*
X355970Y207165D01*
X355977Y207177D01*
X356064Y207294D01*
X356666Y208338D01*
X357597Y209269D01*
X358737Y209927D01*
X359793Y210210D01*
X359793Y205381D01*
X359797Y205361D01*
X359794Y205341D01*
X359807Y205281D01*
X359793Y205154D01*
X359793Y200325D01*
X358737Y200607D01*
X357597Y201266D01*
X356666Y202197D01*
X356647Y202229D01*
X356601Y202286D01*
X356594Y202297D01*
X356586Y202304D01*
X356571Y202322D01*
X356498Y202414D01*
X356494Y202416D01*
X356492Y202420D01*
X356392Y202482D01*
X356291Y202547D01*
X356287Y202548D01*
X356283Y202550D01*
X356167Y202578D01*
X356052Y202607D01*
X356048Y202607D01*
X356044Y202608D01*
X355925Y202597D01*
X355807Y202588D01*
X355803Y202587D01*
X355799Y202586D01*
X355689Y202538D01*
X355581Y202492D01*
X355577Y202489D01*
X355574Y202488D01*
X355564Y202478D01*
X355450Y202387D01*
X353032Y199969D01*
X349303Y199969D01*
G37*
%LPD*%
%LPC*%
G36*
X398120Y316650D02*
X398120Y316650D01*
X396979Y317308D01*
X396048Y318239D01*
X395961Y318391D01*
X395886Y318482D01*
X395811Y318576D01*
X395808Y318578D01*
X395805Y318581D01*
X395705Y318644D01*
X395605Y318709D01*
X395600Y318710D01*
X395597Y318712D01*
X395481Y318740D01*
X395366Y318769D01*
X395362Y318768D01*
X395358Y318769D01*
X395239Y318759D01*
X395121Y318750D01*
X395117Y318748D01*
X395113Y318748D01*
X395003Y318699D01*
X394894Y318653D01*
X394891Y318650D01*
X394887Y318649D01*
X394877Y318640D01*
X394763Y318548D01*
X393024Y316809D01*
X389296Y316809D01*
X386659Y319446D01*
X386659Y323174D01*
X389296Y325811D01*
X393024Y325811D01*
X394764Y324072D01*
X394858Y324004D01*
X394956Y323932D01*
X394960Y323930D01*
X394963Y323928D01*
X395075Y323894D01*
X395190Y323857D01*
X395194Y323857D01*
X395198Y323856D01*
X395317Y323859D01*
X395436Y323860D01*
X395440Y323862D01*
X395444Y323862D01*
X395556Y323903D01*
X395668Y323942D01*
X395671Y323945D01*
X395675Y323946D01*
X395768Y324021D01*
X395862Y324094D01*
X395865Y324098D01*
X395867Y324100D01*
X395875Y324112D01*
X395961Y324229D01*
X396048Y324381D01*
X396979Y325312D01*
X398120Y325970D01*
X399176Y326253D01*
X399176Y321423D01*
X399179Y321404D01*
X399177Y321384D01*
X399190Y321324D01*
X399176Y321197D01*
X399176Y316367D01*
X398120Y316650D01*
G37*
%LPD*%
%LPC*%
G36*
X361542Y205154D02*
X361542Y205154D01*
X361539Y205174D01*
X361541Y205194D01*
X361528Y205254D01*
X361542Y205381D01*
X361542Y210210D01*
X362598Y209927D01*
X363738Y209269D01*
X363756Y209252D01*
X363772Y209240D01*
X363784Y209224D01*
X363871Y209168D01*
X363955Y209108D01*
X363974Y209102D01*
X363991Y209091D01*
X364092Y209066D01*
X364190Y209036D01*
X364210Y209036D01*
X364230Y209031D01*
X364333Y209039D01*
X364436Y209042D01*
X364455Y209049D01*
X364475Y209050D01*
X364570Y209091D01*
X364667Y209126D01*
X364683Y209139D01*
X364701Y209147D01*
X364832Y209252D01*
X366892Y211311D01*
X370621Y211311D01*
X373257Y208675D01*
X373257Y204946D01*
X370621Y202310D01*
X366892Y202310D01*
X366226Y202976D01*
X366129Y203046D01*
X366033Y203116D01*
X366029Y203117D01*
X366026Y203120D01*
X365913Y203155D01*
X365799Y203191D01*
X365795Y203191D01*
X365791Y203192D01*
X365672Y203189D01*
X365553Y203187D01*
X365549Y203186D01*
X365545Y203186D01*
X365433Y203145D01*
X365321Y203105D01*
X365318Y203103D01*
X365314Y203101D01*
X365220Y203026D01*
X365128Y202954D01*
X365125Y202950D01*
X365122Y202948D01*
X365114Y202936D01*
X365028Y202819D01*
X364669Y202197D01*
X363738Y201266D01*
X362598Y200607D01*
X361542Y200325D01*
X361542Y205154D01*
G37*
%LPD*%
%LPC*%
G36*
X411910Y317384D02*
X411910Y317384D01*
X411907Y317404D01*
X411909Y317424D01*
X411896Y317484D01*
X411910Y317611D01*
X411910Y322440D01*
X412371Y322317D01*
X412490Y322305D01*
X412607Y322292D01*
X412612Y322293D01*
X412616Y322292D01*
X412731Y322319D01*
X412848Y322344D01*
X412851Y322346D01*
X412856Y322347D01*
X412957Y322409D01*
X413059Y322470D01*
X413062Y322473D01*
X413065Y322476D01*
X413142Y322567D01*
X413219Y322657D01*
X413220Y322661D01*
X413223Y322664D01*
X413266Y322774D01*
X413311Y322885D01*
X413311Y322890D01*
X413313Y322893D01*
X413313Y322907D01*
X413329Y323052D01*
X413329Y323174D01*
X415966Y325811D01*
X419694Y325811D01*
X422331Y323174D01*
X422331Y319446D01*
X419694Y316809D01*
X416613Y316809D01*
X416570Y316802D01*
X416526Y316804D01*
X416449Y316782D01*
X416370Y316770D01*
X416331Y316749D01*
X416289Y316737D01*
X416223Y316692D01*
X416153Y316654D01*
X416123Y316623D01*
X416086Y316598D01*
X416038Y316534D01*
X415983Y316476D01*
X415965Y316436D01*
X415939Y316401D01*
X415886Y316266D01*
X415880Y316253D01*
X415879Y316250D01*
X415878Y316245D01*
X415696Y315567D01*
X415038Y314427D01*
X414107Y313496D01*
X412966Y312837D01*
X411910Y312554D01*
X411910Y317384D01*
G37*
%LPD*%
%LPC*%
G36*
X376530Y316650D02*
X376530Y316650D01*
X375390Y317308D01*
X374835Y317863D01*
X374819Y317875D01*
X374806Y317890D01*
X374719Y317946D01*
X374635Y318007D01*
X374616Y318013D01*
X374599Y318023D01*
X374499Y318049D01*
X374400Y318079D01*
X374380Y318079D01*
X374361Y318083D01*
X374258Y318075D01*
X374154Y318073D01*
X374135Y318066D01*
X374115Y318064D01*
X374020Y318024D01*
X373923Y317988D01*
X373907Y317976D01*
X373889Y317968D01*
X373758Y317863D01*
X372704Y316809D01*
X368976Y316809D01*
X366339Y319446D01*
X366339Y323174D01*
X368976Y325811D01*
X372704Y325811D01*
X373758Y324757D01*
X373774Y324745D01*
X373787Y324730D01*
X373874Y324674D01*
X373958Y324613D01*
X373977Y324607D01*
X373994Y324597D01*
X374094Y324571D01*
X374193Y324541D01*
X374213Y324541D01*
X374232Y324537D01*
X374335Y324545D01*
X374439Y324547D01*
X374458Y324554D01*
X374477Y324556D01*
X374573Y324596D01*
X374670Y324632D01*
X374685Y324644D01*
X374704Y324652D01*
X374835Y324757D01*
X375390Y325312D01*
X376530Y325970D01*
X377586Y326253D01*
X377586Y321423D01*
X377589Y321404D01*
X377587Y321384D01*
X377600Y321324D01*
X377586Y321197D01*
X377586Y316367D01*
X376530Y316650D01*
G37*
%LPD*%
%LPC*%
G36*
X481316Y410209D02*
X481316Y410209D01*
X478679Y412846D01*
X478679Y416574D01*
X481255Y419150D01*
X481297Y419208D01*
X481346Y419260D01*
X481368Y419307D01*
X481398Y419349D01*
X481408Y419381D01*
X481443Y419347D01*
X481465Y419337D01*
X481483Y419321D01*
X481576Y419284D01*
X481665Y419241D01*
X481689Y419238D01*
X481712Y419229D01*
X481878Y419211D01*
X485044Y419211D01*
X487681Y416574D01*
X487681Y412846D01*
X485044Y410209D01*
X481316Y410209D01*
G37*
%LPD*%
%LPC*%
G36*
X572964Y329028D02*
X572964Y329028D01*
X570328Y331664D01*
X570328Y335393D01*
X572964Y338029D01*
X576693Y338029D01*
X579329Y335393D01*
X579329Y331664D01*
X576693Y329028D01*
X572964Y329028D01*
G37*
%LPD*%
%LPC*%
G36*
X470746Y230449D02*
X470746Y230449D01*
X468109Y233086D01*
X468109Y236814D01*
X470746Y239451D01*
X474474Y239451D01*
X477111Y236814D01*
X477111Y233086D01*
X474474Y230449D01*
X470746Y230449D01*
G37*
%LPD*%
%LPC*%
G36*
X440096Y315539D02*
X440096Y315539D01*
X437459Y318176D01*
X437459Y321904D01*
X440096Y324541D01*
X443824Y324541D01*
X446461Y321904D01*
X446461Y318176D01*
X443824Y315539D01*
X440096Y315539D01*
G37*
%LPD*%
%LPC*%
G36*
X489626Y144089D02*
X489626Y144089D01*
X486989Y146726D01*
X486989Y150454D01*
X489626Y153091D01*
X493354Y153091D01*
X495991Y150454D01*
X495991Y146726D01*
X493354Y144089D01*
X489626Y144089D01*
G37*
%LPD*%
%LPC*%
G36*
X448986Y173299D02*
X448986Y173299D01*
X446349Y175936D01*
X446349Y179664D01*
X448986Y182301D01*
X452714Y182301D01*
X455351Y179664D01*
X455351Y175936D01*
X452714Y173299D01*
X448986Y173299D01*
G37*
%LPD*%
%LPC*%
G36*
X198796Y456509D02*
X198796Y456509D01*
X196159Y459146D01*
X196159Y462874D01*
X198796Y465511D01*
X202524Y465511D01*
X205161Y462874D01*
X205161Y459146D01*
X202524Y456509D01*
X198796Y456509D01*
G37*
%LPD*%
%LPC*%
G36*
X207686Y446349D02*
X207686Y446349D01*
X205049Y448986D01*
X205049Y452714D01*
X207686Y455351D01*
X211414Y455351D01*
X214051Y452714D01*
X214051Y448986D01*
X211414Y446349D01*
X207686Y446349D01*
G37*
%LPD*%
%LPC*%
G36*
X569636Y141549D02*
X569636Y141549D01*
X566999Y144186D01*
X566999Y147914D01*
X569636Y150551D01*
X573364Y150551D01*
X576001Y147914D01*
X576001Y144186D01*
X573364Y141549D01*
X569636Y141549D01*
G37*
%LPD*%
%LPC*%
G36*
X423586Y249499D02*
X423586Y249499D01*
X420949Y252136D01*
X420949Y255864D01*
X423586Y258501D01*
X427314Y258501D01*
X429951Y255864D01*
X429951Y252136D01*
X427314Y249499D01*
X423586Y249499D01*
G37*
%LPD*%
%LPC*%
G36*
X344846Y140279D02*
X344846Y140279D01*
X342209Y142916D01*
X342209Y146644D01*
X344846Y149281D01*
X348574Y149281D01*
X351211Y146644D01*
X351211Y142916D01*
X348574Y140279D01*
X344846Y140279D01*
G37*
%LPD*%
%LPC*%
G36*
X495976Y133601D02*
X495976Y133601D01*
X493339Y136238D01*
X493339Y139966D01*
X495976Y142603D01*
X499704Y142603D01*
X502341Y139966D01*
X502341Y136238D01*
X499704Y133601D01*
X495976Y133601D01*
G37*
%LPD*%
%LPC*%
G36*
X323061Y117224D02*
X323061Y117224D01*
X320424Y119861D01*
X320424Y123589D01*
X323061Y126226D01*
X326789Y126226D01*
X329426Y123589D01*
X329426Y119861D01*
X326789Y117224D01*
X323061Y117224D01*
G37*
%LPD*%
%LPC*%
G36*
X456606Y264739D02*
X456606Y264739D01*
X453969Y267376D01*
X453969Y271104D01*
X456606Y273741D01*
X460334Y273741D01*
X462971Y271104D01*
X462971Y267376D01*
X460334Y264739D01*
X456606Y264739D01*
G37*
%LPD*%
%LPC*%
G36*
X344846Y189540D02*
X344846Y189540D01*
X342209Y192176D01*
X342209Y195905D01*
X344846Y198541D01*
X348574Y198541D01*
X351211Y195905D01*
X351211Y192176D01*
X348574Y189540D01*
X344846Y189540D01*
G37*
%LPD*%
%LPC*%
G36*
X591226Y249499D02*
X591226Y249499D01*
X588589Y252136D01*
X588589Y255864D01*
X591226Y258501D01*
X594954Y258501D01*
X597591Y255864D01*
X597591Y252136D01*
X594954Y249499D01*
X591226Y249499D01*
G37*
%LPD*%
%LPC*%
G36*
X455336Y283789D02*
X455336Y283789D01*
X452699Y286426D01*
X452699Y290154D01*
X455336Y292791D01*
X459064Y292791D01*
X461701Y290154D01*
X461701Y286426D01*
X459064Y283789D01*
X455336Y283789D01*
G37*
%LPD*%
%LPC*%
G36*
X498210Y203462D02*
X498210Y203462D01*
X495573Y206099D01*
X495573Y209827D01*
X498210Y212464D01*
X501938Y212464D01*
X504575Y209827D01*
X504575Y206099D01*
X501938Y203462D01*
X498210Y203462D01*
G37*
%LPD*%
%LPC*%
G36*
X455336Y403559D02*
X455336Y403559D01*
X452699Y406196D01*
X452699Y409924D01*
X455336Y412561D01*
X459064Y412561D01*
X461701Y409924D01*
X461701Y406196D01*
X459064Y403559D01*
X455336Y403559D01*
G37*
%LPD*%
%LPC*%
G36*
X426761Y398724D02*
X426761Y398724D01*
X424124Y401361D01*
X424124Y405089D01*
X426761Y407726D01*
X430489Y407726D01*
X433126Y405089D01*
X433126Y401361D01*
X430489Y398724D01*
X426761Y398724D01*
G37*
%LPD*%
%LPC*%
G36*
X442636Y211399D02*
X442636Y211399D01*
X439999Y214036D01*
X439999Y217764D01*
X442636Y220401D01*
X446364Y220401D01*
X449001Y217764D01*
X449001Y214036D01*
X446364Y211399D01*
X442636Y211399D01*
G37*
%LPD*%
%LPC*%
G36*
X364776Y252039D02*
X364776Y252039D01*
X362139Y254676D01*
X362139Y258404D01*
X364776Y261041D01*
X368504Y261041D01*
X371141Y258404D01*
X371141Y254676D01*
X368504Y252039D01*
X364776Y252039D01*
G37*
%LPD*%
%LPC*%
G36*
X455336Y211399D02*
X455336Y211399D01*
X452699Y214036D01*
X452699Y217764D01*
X455336Y220401D01*
X459064Y220401D01*
X461701Y217764D01*
X461701Y214036D01*
X459064Y211399D01*
X455336Y211399D01*
G37*
%LPD*%
%LPC*%
G36*
X455336Y304109D02*
X455336Y304109D01*
X452699Y306746D01*
X452699Y310474D01*
X455336Y313111D01*
X459064Y313111D01*
X461701Y310474D01*
X461701Y306746D01*
X459064Y304109D01*
X455336Y304109D01*
G37*
%LPD*%
%LPC*%
G36*
X423586Y236799D02*
X423586Y236799D01*
X420949Y239436D01*
X420949Y243164D01*
X423586Y245801D01*
X427314Y245801D01*
X429951Y243164D01*
X429951Y239436D01*
X427314Y236799D01*
X423586Y236799D01*
G37*
%LPD*%
%LPC*%
G36*
X424123Y299762D02*
X424123Y299762D01*
X421487Y302398D01*
X421487Y306127D01*
X424123Y308763D01*
X427852Y308763D01*
X430488Y306127D01*
X430488Y302398D01*
X427852Y299762D01*
X424123Y299762D01*
G37*
%LPD*%
%LPC*%
G36*
X569636Y217749D02*
X569636Y217749D01*
X566999Y220386D01*
X566999Y224114D01*
X569636Y226751D01*
X573364Y226751D01*
X576001Y224114D01*
X576001Y220386D01*
X573364Y217749D01*
X569636Y217749D01*
G37*
%LPD*%
%LPC*%
G36*
X468036Y259489D02*
X468036Y259489D01*
X465399Y262126D01*
X465399Y265854D01*
X468036Y268491D01*
X471764Y268491D01*
X474401Y265854D01*
X474401Y262126D01*
X471764Y259489D01*
X468036Y259489D01*
G37*
%LPD*%
%LPC*%
G36*
X348030Y295219D02*
X348030Y295219D01*
X345393Y297856D01*
X345393Y301584D01*
X348030Y304221D01*
X351758Y304221D01*
X354395Y301584D01*
X354395Y297856D01*
X351758Y295219D01*
X348030Y295219D01*
G37*
%LPD*%
%LPC*%
G36*
X461686Y239339D02*
X461686Y239339D01*
X459049Y241976D01*
X459049Y245704D01*
X461686Y248341D01*
X465414Y248341D01*
X468051Y245704D01*
X468051Y241976D01*
X465414Y239339D01*
X461686Y239339D01*
G37*
%LPD*%
%LPC*%
G36*
X379780Y293949D02*
X379780Y293949D01*
X377143Y296586D01*
X377143Y300314D01*
X379780Y302951D01*
X383508Y302951D01*
X386145Y300314D01*
X386145Y296586D01*
X383508Y293949D01*
X379780Y293949D01*
G37*
%LPD*%
%LPC*%
G36*
X499786Y338399D02*
X499786Y338399D01*
X497149Y341036D01*
X497149Y344764D01*
X499786Y347401D01*
X503514Y347401D01*
X506151Y344764D01*
X506151Y341036D01*
X503514Y338399D01*
X499786Y338399D01*
G37*
%LPD*%
%LPC*%
G36*
X474386Y338399D02*
X474386Y338399D01*
X471749Y341036D01*
X471749Y344764D01*
X474386Y347401D01*
X478114Y347401D01*
X480751Y344764D01*
X480751Y341036D01*
X478114Y338399D01*
X474386Y338399D01*
G37*
%LPD*%
%LPC*%
G36*
X550586Y338145D02*
X550586Y338145D01*
X547949Y340782D01*
X547949Y344510D01*
X550586Y347147D01*
X554314Y347147D01*
X556951Y344510D01*
X556951Y340782D01*
X554314Y338145D01*
X550586Y338145D01*
G37*
%LPD*%
%LPC*%
G36*
X572157Y69159D02*
X572157Y69159D01*
X569520Y71796D01*
X569520Y75524D01*
X572157Y78161D01*
X575885Y78161D01*
X578522Y75524D01*
X578522Y71796D01*
X575885Y69159D01*
X572157Y69159D01*
G37*
%LPD*%
%LPC*%
G36*
X509946Y65349D02*
X509946Y65349D01*
X507309Y67986D01*
X507309Y71714D01*
X509946Y74351D01*
X513674Y74351D01*
X516311Y71714D01*
X516311Y67986D01*
X513674Y65349D01*
X509946Y65349D01*
G37*
%LPD*%
%LPC*%
G36*
X489626Y57860D02*
X489626Y57860D01*
X486989Y60496D01*
X486989Y64225D01*
X489626Y66861D01*
X493354Y66861D01*
X495991Y64225D01*
X495991Y60496D01*
X493354Y57860D01*
X489626Y57860D01*
G37*
%LPD*%
%LPC*%
G36*
X617038Y41219D02*
X617038Y41219D01*
X614401Y43856D01*
X614401Y47584D01*
X617038Y50221D01*
X620766Y50221D01*
X623403Y47584D01*
X623403Y43856D01*
X620766Y41219D01*
X617038Y41219D01*
G37*
%LPD*%
%LPC*%
G36*
X384740Y227160D02*
X384740Y227160D01*
X383600Y227818D01*
X382669Y228749D01*
X382408Y229201D01*
X382333Y229292D01*
X382258Y229386D01*
X382255Y229388D01*
X382252Y229391D01*
X382151Y229454D01*
X382052Y229519D01*
X382048Y229520D01*
X382044Y229522D01*
X381928Y229550D01*
X381813Y229579D01*
X381809Y229578D01*
X381805Y229579D01*
X381686Y229569D01*
X381568Y229560D01*
X381564Y229558D01*
X381560Y229558D01*
X381449Y229509D01*
X381342Y229463D01*
X381338Y229460D01*
X381335Y229459D01*
X381324Y229449D01*
X381211Y229358D01*
X380261Y228408D01*
X379120Y227750D01*
X378064Y227467D01*
X378064Y232297D01*
X378061Y232316D01*
X378063Y232336D01*
X378050Y232396D01*
X378064Y232523D01*
X378064Y237353D01*
X379120Y237070D01*
X380261Y236412D01*
X381192Y235481D01*
X381452Y235029D01*
X381528Y234936D01*
X381602Y234844D01*
X381606Y234842D01*
X381608Y234838D01*
X381709Y234775D01*
X381809Y234711D01*
X381813Y234710D01*
X381817Y234708D01*
X381933Y234680D01*
X382047Y234651D01*
X382052Y234651D01*
X382056Y234650D01*
X382175Y234661D01*
X382293Y234670D01*
X382297Y234672D01*
X382301Y234672D01*
X382411Y234720D01*
X382519Y234766D01*
X382523Y234769D01*
X382526Y234771D01*
X382536Y234780D01*
X382650Y234871D01*
X383600Y235821D01*
X384740Y236479D01*
X385796Y236762D01*
X385796Y231933D01*
X385799Y231913D01*
X385797Y231893D01*
X385810Y231833D01*
X385796Y231706D01*
X385796Y226877D01*
X384740Y227160D01*
G37*
%LPD*%
%LPC*%
G36*
X433299Y26899D02*
X433299Y26899D01*
X433299Y34903D01*
X434053Y34784D01*
X435493Y34316D01*
X436842Y33628D01*
X438067Y32738D01*
X439138Y31667D01*
X440028Y30442D01*
X440716Y29093D01*
X441184Y27653D01*
X441303Y26899D01*
X433299Y26899D01*
G37*
%LPD*%
%LPC*%
G36*
X407899Y26899D02*
X407899Y26899D01*
X407899Y34903D01*
X408653Y34784D01*
X410093Y34316D01*
X411442Y33628D01*
X412667Y32738D01*
X413738Y31667D01*
X414628Y30442D01*
X415316Y29093D01*
X415784Y27653D01*
X415903Y26899D01*
X407899Y26899D01*
G37*
%LPD*%
%LPC*%
G36*
X407899Y23901D02*
X407899Y23901D01*
X415903Y23901D01*
X415784Y23147D01*
X415316Y21707D01*
X414628Y20358D01*
X413738Y19133D01*
X412667Y18062D01*
X411442Y17172D01*
X410093Y16484D01*
X408653Y16016D01*
X407899Y15897D01*
X407899Y23901D01*
G37*
%LPD*%
%LPC*%
G36*
X396897Y26899D02*
X396897Y26899D01*
X397016Y27653D01*
X397484Y29093D01*
X398172Y30442D01*
X399062Y31667D01*
X400133Y32738D01*
X401358Y33628D01*
X402707Y34316D01*
X404147Y34784D01*
X404901Y34903D01*
X404901Y26899D01*
X396897Y26899D01*
G37*
%LPD*%
%LPC*%
G36*
X422297Y26899D02*
X422297Y26899D01*
X422416Y27653D01*
X422884Y29093D01*
X423572Y30442D01*
X424462Y31667D01*
X425533Y32738D01*
X426758Y33628D01*
X428107Y34316D01*
X429547Y34784D01*
X430301Y34903D01*
X430301Y26899D01*
X422297Y26899D01*
G37*
%LPD*%
%LPC*%
G36*
X433299Y23901D02*
X433299Y23901D01*
X441303Y23901D01*
X441184Y23147D01*
X440716Y21707D01*
X440028Y20358D01*
X439138Y19133D01*
X438067Y18062D01*
X436842Y17172D01*
X435493Y16484D01*
X434053Y16016D01*
X433299Y15897D01*
X433299Y23901D01*
G37*
%LPD*%
%LPC*%
G36*
X404147Y16016D02*
X404147Y16016D01*
X402707Y16484D01*
X401358Y17172D01*
X400133Y18062D01*
X399062Y19133D01*
X398172Y20358D01*
X397484Y21707D01*
X397016Y23147D01*
X396897Y23901D01*
X404901Y23901D01*
X404901Y15897D01*
X404147Y16016D01*
G37*
%LPD*%
%LPC*%
G36*
X429547Y16016D02*
X429547Y16016D01*
X428107Y16484D01*
X426758Y17172D01*
X425533Y18062D01*
X424462Y19133D01*
X423572Y20358D01*
X422884Y21707D01*
X422416Y23147D01*
X422297Y23901D01*
X430301Y23901D01*
X430301Y15897D01*
X429547Y16016D01*
G37*
%LPD*%
%LPC*%
G36*
X386841Y93471D02*
X386841Y93471D01*
X386841Y101447D01*
X387571Y101332D01*
X389011Y100864D01*
X390360Y100176D01*
X391586Y99286D01*
X392656Y98216D01*
X393546Y96990D01*
X394234Y95641D01*
X394702Y94201D01*
X394817Y93471D01*
X386841Y93471D01*
G37*
%LPD*%
%LPC*%
G36*
X375819Y93471D02*
X375819Y93471D01*
X375934Y94201D01*
X376402Y95641D01*
X377090Y96990D01*
X377980Y98216D01*
X379050Y99286D01*
X380276Y100176D01*
X381625Y100864D01*
X383065Y101332D01*
X383795Y101447D01*
X383795Y93471D01*
X375819Y93471D01*
G37*
%LPD*%
%LPC*%
G36*
X386841Y90425D02*
X386841Y90425D01*
X394817Y90425D01*
X394702Y89695D01*
X394234Y88255D01*
X393546Y86906D01*
X392656Y85680D01*
X391586Y84610D01*
X390360Y83720D01*
X389011Y83032D01*
X387571Y82564D01*
X386841Y82449D01*
X386841Y90425D01*
G37*
%LPD*%
%LPC*%
G36*
X383065Y82564D02*
X383065Y82564D01*
X381625Y83032D01*
X380276Y83720D01*
X379050Y84610D01*
X377980Y85680D01*
X377090Y86906D01*
X376402Y88255D01*
X375934Y89695D01*
X375819Y90425D01*
X383795Y90425D01*
X383795Y82449D01*
X383065Y82564D01*
G37*
%LPD*%
%LPC*%
G36*
X725307Y140574D02*
X725307Y140574D01*
X725406Y140944D01*
X725418Y141062D01*
X725431Y141180D01*
X725430Y141184D01*
X725431Y141188D01*
X725404Y141302D01*
X725379Y141420D01*
X725377Y141424D01*
X725376Y141428D01*
X725314Y141528D01*
X725253Y141631D01*
X725249Y141634D01*
X725247Y141638D01*
X725157Y141713D01*
X725066Y141791D01*
X725062Y141793D01*
X725059Y141796D01*
X724950Y141838D01*
X724837Y141883D01*
X724832Y141884D01*
X724829Y141885D01*
X724816Y141886D01*
X724671Y141902D01*
X721687Y141902D01*
X721687Y147927D01*
X722410Y147783D01*
X723811Y147203D01*
X725073Y146360D01*
X726145Y145288D01*
X726802Y144305D01*
X726883Y144218D01*
X726961Y144132D01*
X726966Y144129D01*
X726970Y144125D01*
X727074Y144069D01*
X727176Y144012D01*
X727181Y144011D01*
X727186Y144008D01*
X727302Y143988D01*
X727418Y143967D01*
X727423Y143968D01*
X727428Y143967D01*
X727545Y143985D01*
X727662Y144001D01*
X727667Y144004D01*
X727671Y144004D01*
X727686Y144012D01*
X727815Y144069D01*
X728320Y144360D01*
X729376Y144643D01*
X729376Y140574D01*
X725307Y140574D01*
G37*
%LPD*%
%LPC*%
G36*
X721687Y138855D02*
X721687Y138855D01*
X728417Y138855D01*
X728421Y138854D01*
X728440Y138852D01*
X728459Y138844D01*
X728626Y138826D01*
X729376Y138826D01*
X729376Y134757D01*
X728320Y135040D01*
X727161Y135709D01*
X727050Y135751D01*
X726941Y135794D01*
X726936Y135794D01*
X726931Y135796D01*
X726812Y135801D01*
X726695Y135806D01*
X726690Y135805D01*
X726685Y135805D01*
X726572Y135772D01*
X726458Y135740D01*
X726454Y135737D01*
X726449Y135735D01*
X726353Y135668D01*
X726255Y135601D01*
X726251Y135596D01*
X726248Y135594D01*
X726238Y135581D01*
X726147Y135473D01*
X726145Y135470D01*
X725073Y134397D01*
X723811Y133554D01*
X722410Y132974D01*
X721687Y132830D01*
X721687Y138855D01*
G37*
%LPD*%
%LPC*%
G36*
X645463Y138879D02*
X645463Y138879D01*
X651517Y138879D01*
X651368Y138132D01*
X650788Y136731D01*
X650684Y136576D01*
X650184Y135827D01*
X649945Y135470D01*
X648872Y134397D01*
X647611Y133554D01*
X646210Y132974D01*
X645463Y132825D01*
X645463Y138879D01*
G37*
%LPD*%
%LPC*%
G36*
X641717Y132974D02*
X641717Y132974D01*
X640316Y133554D01*
X639055Y134397D01*
X637982Y135470D01*
X637139Y136731D01*
X636559Y138132D01*
X636410Y138879D01*
X642464Y138879D01*
X642464Y132825D01*
X641717Y132974D01*
G37*
%LPD*%
%LPC*%
G36*
X712615Y141902D02*
X712615Y141902D01*
X712759Y142625D01*
X713339Y144026D01*
X714182Y145288D01*
X715255Y146360D01*
X716516Y147203D01*
X717917Y147783D01*
X718640Y147927D01*
X718640Y141902D01*
X712615Y141902D01*
G37*
%LPD*%
%LPC*%
G36*
X717917Y132974D02*
X717917Y132974D01*
X716516Y133554D01*
X715255Y134397D01*
X714182Y135470D01*
X713339Y136731D01*
X712759Y138132D01*
X712615Y138855D01*
X718640Y138855D01*
X718640Y132830D01*
X717917Y132974D01*
G37*
%LPD*%
%LPC*%
G36*
X481166Y420292D02*
X481166Y420292D01*
X481111Y420339D01*
X481063Y420358D01*
X481019Y420386D01*
X480950Y420404D01*
X480934Y420410D01*
X480934Y424576D01*
X485003Y424576D01*
X484720Y423520D01*
X484062Y422379D01*
X483131Y421448D01*
X481990Y420790D01*
X481681Y420707D01*
X481659Y420697D01*
X481636Y420693D01*
X481548Y420647D01*
X481457Y420606D01*
X481439Y420590D01*
X481418Y420578D01*
X481350Y420507D01*
X481277Y420439D01*
X481265Y420418D01*
X481249Y420400D01*
X481207Y420310D01*
X481189Y420277D01*
X481166Y420292D01*
G37*
%LPD*%
%LPC*%
G36*
X207884Y225664D02*
X207884Y225664D01*
X207884Y229733D01*
X208940Y229450D01*
X210081Y228792D01*
X211012Y227861D01*
X211670Y226720D01*
X211953Y225664D01*
X207884Y225664D01*
G37*
%LPD*%
%LPC*%
G36*
X407274Y350124D02*
X407274Y350124D01*
X407274Y354193D01*
X408330Y353910D01*
X409471Y353252D01*
X410402Y352321D01*
X411060Y351180D01*
X411343Y350124D01*
X407274Y350124D01*
G37*
%LPD*%
%LPC*%
G36*
X559674Y280274D02*
X559674Y280274D01*
X559674Y284343D01*
X560730Y284060D01*
X561871Y283402D01*
X562802Y282471D01*
X563460Y281330D01*
X563743Y280274D01*
X559674Y280274D01*
G37*
%LPD*%
%LPC*%
G36*
X426324Y280274D02*
X426324Y280274D01*
X426324Y284343D01*
X427380Y284060D01*
X428521Y283402D01*
X429452Y282471D01*
X430110Y281330D01*
X430393Y280274D01*
X426324Y280274D01*
G37*
%LPD*%
%LPC*%
G36*
X399654Y280274D02*
X399654Y280274D01*
X399654Y284343D01*
X400710Y284060D01*
X401851Y283402D01*
X402782Y282471D01*
X403440Y281330D01*
X403723Y280274D01*
X399654Y280274D01*
G37*
%LPD*%
%LPC*%
G36*
X455534Y386310D02*
X455534Y386310D01*
X455534Y390379D01*
X456590Y390096D01*
X457731Y389438D01*
X458662Y388507D01*
X459320Y387366D01*
X459603Y386310D01*
X455534Y386310D01*
G37*
%LPD*%
%LPC*%
G36*
X869056Y334884D02*
X869056Y334884D01*
X869056Y338953D01*
X870112Y338670D01*
X871253Y338012D01*
X872184Y337081D01*
X872842Y335940D01*
X873125Y334884D01*
X869056Y334884D01*
G37*
%LPD*%
%LPC*%
G36*
X324724Y350124D02*
X324724Y350124D01*
X324724Y354193D01*
X325780Y353910D01*
X326921Y353252D01*
X327852Y352321D01*
X328510Y351180D01*
X328793Y350124D01*
X324724Y350124D01*
G37*
%LPD*%
%LPC*%
G36*
X426324Y350124D02*
X426324Y350124D01*
X426324Y354193D01*
X427380Y353910D01*
X428521Y353252D01*
X429452Y352321D01*
X430110Y351180D01*
X430393Y350124D01*
X426324Y350124D01*
G37*
%LPD*%
%LPC*%
G36*
X477124Y252334D02*
X477124Y252334D01*
X477124Y256403D01*
X478180Y256120D01*
X479321Y255462D01*
X480252Y254531D01*
X480910Y253390D01*
X481193Y252334D01*
X477124Y252334D01*
G37*
%LPD*%
%LPC*%
G36*
X628254Y324724D02*
X628254Y324724D01*
X628254Y328793D01*
X629310Y328510D01*
X630451Y327852D01*
X631382Y326921D01*
X632040Y325780D01*
X632323Y324724D01*
X628254Y324724D01*
G37*
%LPD*%
%LPC*%
G36*
X350124Y277734D02*
X350124Y277734D01*
X350124Y281803D01*
X351180Y281520D01*
X352321Y280862D01*
X353252Y279931D01*
X353910Y278790D01*
X354193Y277734D01*
X350124Y277734D01*
G37*
%LPD*%
%LPC*%
G36*
X379334Y322184D02*
X379334Y322184D01*
X379334Y326253D01*
X380390Y325970D01*
X381531Y325312D01*
X382462Y324381D01*
X383120Y323240D01*
X383403Y322184D01*
X379334Y322184D01*
G37*
%LPD*%
%LPC*%
G36*
X400924Y322184D02*
X400924Y322184D01*
X400924Y326253D01*
X401980Y325970D01*
X403121Y325312D01*
X404052Y324381D01*
X404710Y323240D01*
X404993Y322184D01*
X400924Y322184D01*
G37*
%LPD*%
%LPC*%
G36*
X581264Y169784D02*
X581264Y169784D01*
X581264Y173853D01*
X582320Y173570D01*
X583461Y172912D01*
X584392Y171981D01*
X585050Y170840D01*
X585333Y169784D01*
X581264Y169784D01*
G37*
%LPD*%
%LPC*%
G36*
X464424Y165974D02*
X464424Y165974D01*
X464424Y170043D01*
X465480Y169760D01*
X466621Y169102D01*
X467552Y168171D01*
X468210Y167030D01*
X468493Y165974D01*
X464424Y165974D01*
G37*
%LPD*%
%LPC*%
G36*
X356474Y165974D02*
X356474Y165974D01*
X356474Y170043D01*
X357530Y169760D01*
X358671Y169102D01*
X359602Y168171D01*
X360260Y167030D01*
X360543Y165974D01*
X356474Y165974D01*
G37*
%LPD*%
%LPC*%
G36*
X337424Y165974D02*
X337424Y165974D01*
X337424Y170043D01*
X338480Y169760D01*
X339621Y169102D01*
X340552Y168171D01*
X341210Y167030D01*
X341493Y165974D01*
X337424Y165974D01*
G37*
%LPD*%
%LPC*%
G36*
X413624Y159624D02*
X413624Y159624D01*
X413624Y163693D01*
X414680Y163410D01*
X415821Y162752D01*
X416752Y161821D01*
X417410Y160680D01*
X417693Y159624D01*
X413624Y159624D01*
G37*
%LPD*%
%LPC*%
G36*
X779384Y273924D02*
X779384Y273924D01*
X779384Y277993D01*
X780440Y277710D01*
X781581Y277052D01*
X782512Y276121D01*
X783170Y274980D01*
X783453Y273924D01*
X779384Y273924D01*
G37*
%LPD*%
%LPC*%
G36*
X407392Y372984D02*
X407392Y372984D01*
X407392Y377053D01*
X408448Y376770D01*
X409589Y376112D01*
X410520Y375181D01*
X411178Y374040D01*
X411461Y372984D01*
X407392Y372984D01*
G37*
%LPD*%
%LPC*%
G36*
X115174Y146924D02*
X115174Y146924D01*
X115174Y150993D01*
X116230Y150710D01*
X117371Y150052D01*
X118302Y149121D01*
X118960Y147980D01*
X119243Y146924D01*
X115174Y146924D01*
G37*
%LPD*%
%LPC*%
G36*
X208519Y353299D02*
X208519Y353299D01*
X208519Y357368D01*
X209575Y357085D01*
X210716Y356427D01*
X211647Y355496D01*
X212305Y354355D01*
X212588Y353299D01*
X208519Y353299D01*
G37*
%LPD*%
%LPC*%
G36*
X902574Y305674D02*
X902574Y305674D01*
X902574Y309743D01*
X903630Y309460D01*
X904771Y308802D01*
X905702Y307871D01*
X906360Y306730D01*
X906643Y305674D01*
X902574Y305674D01*
G37*
%LPD*%
%LPC*%
G36*
X153274Y305674D02*
X153274Y305674D01*
X153274Y309743D01*
X154330Y309460D01*
X155471Y308802D01*
X156402Y307871D01*
X157060Y306730D01*
X157343Y305674D01*
X153274Y305674D01*
G37*
%LPD*%
%LPC*%
G36*
X597774Y377569D02*
X597774Y377569D01*
X597774Y381638D01*
X598830Y381355D01*
X599971Y380696D01*
X600902Y379765D01*
X601560Y378625D01*
X601843Y377569D01*
X597774Y377569D01*
G37*
%LPD*%
%LPC*%
G36*
X206614Y268844D02*
X206614Y268844D01*
X206614Y272913D01*
X207670Y272630D01*
X208811Y271972D01*
X209742Y271041D01*
X210400Y269900D01*
X210683Y268844D01*
X206614Y268844D01*
G37*
%LPD*%
%LPC*%
G36*
X223124Y144384D02*
X223124Y144384D01*
X223124Y148453D01*
X224180Y148170D01*
X225321Y147512D01*
X226252Y146581D01*
X226910Y145440D01*
X227193Y144384D01*
X223124Y144384D01*
G37*
%LPD*%
%LPC*%
G36*
X578724Y378064D02*
X578724Y378064D01*
X578724Y382133D01*
X579780Y381850D01*
X580921Y381192D01*
X581852Y380261D01*
X582510Y379120D01*
X582793Y378064D01*
X578724Y378064D01*
G37*
%LPD*%
%LPC*%
G36*
X426324Y216774D02*
X426324Y216774D01*
X426324Y220843D01*
X427380Y220560D01*
X428521Y219902D01*
X429452Y218971D01*
X430110Y217830D01*
X430393Y216774D01*
X426324Y216774D01*
G37*
%LPD*%
%LPC*%
G36*
X731124Y140574D02*
X731124Y140574D01*
X731124Y144643D01*
X732180Y144360D01*
X733321Y143702D01*
X734252Y142771D01*
X734910Y141630D01*
X735193Y140574D01*
X731124Y140574D01*
G37*
%LPD*%
%LPC*%
G36*
X682864Y244714D02*
X682864Y244714D01*
X682864Y248783D01*
X683920Y248500D01*
X685061Y247842D01*
X685992Y246911D01*
X686650Y245770D01*
X686933Y244714D01*
X682864Y244714D01*
G37*
%LPD*%
%LPC*%
G36*
X833994Y298054D02*
X833994Y298054D01*
X833994Y302123D01*
X835050Y301840D01*
X836191Y301182D01*
X837122Y300251D01*
X837780Y299110D01*
X838063Y298054D01*
X833994Y298054D01*
G37*
%LPD*%
%LPC*%
G36*
X347584Y129144D02*
X347584Y129144D01*
X347584Y133213D01*
X348640Y132930D01*
X349781Y132272D01*
X350712Y131341D01*
X351370Y130200D01*
X351653Y129144D01*
X347584Y129144D01*
G37*
%LPD*%
%LPC*%
G36*
X731124Y127874D02*
X731124Y127874D01*
X731124Y131943D01*
X732180Y131660D01*
X733321Y131002D01*
X734252Y130071D01*
X734910Y128930D01*
X735193Y127874D01*
X731124Y127874D01*
G37*
%LPD*%
%LPC*%
G36*
X369174Y281544D02*
X369174Y281544D01*
X369174Y285613D01*
X370230Y285330D01*
X371371Y284672D01*
X372302Y283741D01*
X372960Y282600D01*
X373243Y281544D01*
X369174Y281544D01*
G37*
%LPD*%
%LPC*%
G36*
X641051Y275098D02*
X641051Y275098D01*
X641051Y279166D01*
X642107Y278883D01*
X643247Y278225D01*
X644178Y277294D01*
X644836Y276154D01*
X645119Y275098D01*
X641051Y275098D01*
G37*
%LPD*%
%LPC*%
G36*
X121524Y381874D02*
X121524Y381874D01*
X121524Y385943D01*
X122580Y385660D01*
X123721Y385002D01*
X124652Y384071D01*
X125310Y382930D01*
X125593Y381874D01*
X121524Y381874D01*
G37*
%LPD*%
%LPC*%
G36*
X563484Y125334D02*
X563484Y125334D01*
X563484Y129403D01*
X564540Y129120D01*
X565681Y128462D01*
X566612Y127531D01*
X567270Y126390D01*
X567553Y125334D01*
X563484Y125334D01*
G37*
%LPD*%
%LPC*%
G36*
X616824Y381874D02*
X616824Y381874D01*
X616824Y385943D01*
X617880Y385660D01*
X619021Y385002D01*
X619952Y384071D01*
X620610Y382930D01*
X620893Y381874D01*
X616824Y381874D01*
G37*
%LPD*%
%LPC*%
G36*
X206614Y310754D02*
X206614Y310754D01*
X206614Y314823D01*
X207670Y314540D01*
X208811Y313882D01*
X209742Y312951D01*
X210400Y311810D01*
X210683Y310754D01*
X206614Y310754D01*
G37*
%LPD*%
%LPC*%
G36*
X530464Y384786D02*
X530464Y384786D01*
X530464Y388855D01*
X531520Y388572D01*
X532661Y387914D01*
X533592Y386983D01*
X534250Y385842D01*
X534533Y384786D01*
X530464Y384786D01*
G37*
%LPD*%
%LPC*%
G36*
X115174Y229474D02*
X115174Y229474D01*
X115174Y233543D01*
X116230Y233260D01*
X117371Y232602D01*
X118302Y231671D01*
X118960Y230530D01*
X119243Y229474D01*
X115174Y229474D01*
G37*
%LPD*%
%LPC*%
G36*
X96124Y115174D02*
X96124Y115174D01*
X96124Y119243D01*
X97180Y118960D01*
X98321Y118302D01*
X99252Y117371D01*
X99910Y116230D01*
X100193Y115174D01*
X96124Y115174D01*
G37*
%LPD*%
%LPC*%
G36*
X896224Y115174D02*
X896224Y115174D01*
X896224Y119243D01*
X897280Y118960D01*
X898421Y118302D01*
X899352Y117371D01*
X900010Y116230D01*
X900293Y115174D01*
X896224Y115174D01*
G37*
%LPD*%
%LPC*%
G36*
X477124Y115174D02*
X477124Y115174D01*
X477124Y119243D01*
X478180Y118960D01*
X479321Y118302D01*
X480252Y117371D01*
X480910Y116230D01*
X481193Y115174D01*
X477124Y115174D01*
G37*
%LPD*%
%LPC*%
G36*
X432674Y102474D02*
X432674Y102474D01*
X432674Y106543D01*
X433730Y106260D01*
X434871Y105602D01*
X435802Y104671D01*
X436460Y103530D01*
X436743Y102474D01*
X432674Y102474D01*
G37*
%LPD*%
%LPC*%
G36*
X26274Y496174D02*
X26274Y496174D01*
X26274Y500243D01*
X27330Y499960D01*
X28471Y499302D01*
X29402Y498371D01*
X30060Y497230D01*
X30343Y496174D01*
X26274Y496174D01*
G37*
%LPD*%
%LPC*%
G36*
X96124Y496174D02*
X96124Y496174D01*
X96124Y500243D01*
X97180Y499960D01*
X98321Y499302D01*
X99252Y498371D01*
X99910Y497230D01*
X100193Y496174D01*
X96124Y496174D01*
G37*
%LPD*%
%LPC*%
G36*
X921624Y172324D02*
X921624Y172324D01*
X921624Y176393D01*
X922680Y176110D01*
X923821Y175452D01*
X924752Y174521D01*
X925410Y173380D01*
X925693Y172324D01*
X921624Y172324D01*
G37*
%LPD*%
%LPC*%
G36*
X864474Y432674D02*
X864474Y432674D01*
X864474Y436743D01*
X865530Y436460D01*
X866671Y435802D01*
X867602Y434871D01*
X868260Y433730D01*
X868543Y432674D01*
X864474Y432674D01*
G37*
%LPD*%
%LPC*%
G36*
X294142Y85964D02*
X294142Y85964D01*
X294142Y90033D01*
X295198Y89750D01*
X296339Y89092D01*
X297270Y88161D01*
X297928Y87020D01*
X298211Y85964D01*
X294142Y85964D01*
G37*
%LPD*%
%LPC*%
G36*
X785734Y431404D02*
X785734Y431404D01*
X785734Y435473D01*
X786790Y435190D01*
X787931Y434532D01*
X788862Y433601D01*
X789520Y432460D01*
X789803Y431404D01*
X785734Y431404D01*
G37*
%LPD*%
%LPC*%
G36*
X26274Y318374D02*
X26274Y318374D01*
X26274Y322443D01*
X27330Y322160D01*
X28471Y321502D01*
X29402Y320571D01*
X30060Y319430D01*
X30343Y318374D01*
X26274Y318374D01*
G37*
%LPD*%
%LPC*%
G36*
X280141Y191374D02*
X280141Y191374D01*
X280141Y195443D01*
X281197Y195160D01*
X282338Y194502D01*
X283269Y193571D01*
X283927Y192430D01*
X284210Y191374D01*
X280141Y191374D01*
G37*
%LPD*%
%LPC*%
G36*
X399518Y299324D02*
X399518Y299324D01*
X399518Y303393D01*
X400574Y303110D01*
X401715Y302452D01*
X402646Y301521D01*
X403304Y300380D01*
X403587Y299324D01*
X399518Y299324D01*
G37*
%LPD*%
%LPC*%
G36*
X108824Y312024D02*
X108824Y312024D01*
X108824Y316093D01*
X109880Y315810D01*
X111021Y315152D01*
X111952Y314221D01*
X112610Y313080D01*
X112893Y312024D01*
X108824Y312024D01*
G37*
%LPD*%
%LPC*%
G36*
X387545Y232694D02*
X387545Y232694D01*
X387545Y236762D01*
X388601Y236479D01*
X389741Y235821D01*
X390672Y234890D01*
X391330Y233750D01*
X391613Y232694D01*
X387545Y232694D01*
G37*
%LPD*%
%LPC*%
G36*
X785734Y371714D02*
X785734Y371714D01*
X785734Y375783D01*
X786790Y375500D01*
X787931Y374842D01*
X788862Y373911D01*
X789520Y372770D01*
X789803Y371714D01*
X785734Y371714D01*
G37*
%LPD*%
%LPC*%
G36*
X411084Y279004D02*
X411084Y279004D01*
X411084Y283073D01*
X412140Y282790D01*
X413281Y282132D01*
X414212Y281201D01*
X414870Y280060D01*
X415153Y279004D01*
X411084Y279004D01*
G37*
%LPD*%
%LPC*%
G36*
X367768Y301864D02*
X367768Y301864D01*
X367768Y305933D01*
X368824Y305650D01*
X369965Y304992D01*
X370896Y304061D01*
X371554Y302920D01*
X371837Y301864D01*
X367768Y301864D01*
G37*
%LPD*%
%LPC*%
G36*
X902574Y407274D02*
X902574Y407274D01*
X902574Y411343D01*
X903630Y411060D01*
X904771Y410402D01*
X905702Y409471D01*
X906360Y408330D01*
X906643Y407274D01*
X902574Y407274D01*
G37*
%LPD*%
%LPC*%
G36*
X598370Y417132D02*
X598370Y417132D01*
X598370Y421201D01*
X599426Y420918D01*
X600566Y420259D01*
X601497Y419328D01*
X602156Y418188D01*
X602439Y417132D01*
X598370Y417132D01*
G37*
%LPD*%
%LPC*%
G36*
X578724Y417434D02*
X578724Y417434D01*
X578724Y421503D01*
X579780Y421220D01*
X580921Y420562D01*
X581852Y419631D01*
X582510Y418490D01*
X582793Y417434D01*
X578724Y417434D01*
G37*
%LPD*%
%LPC*%
G36*
X779384Y315834D02*
X779384Y315834D01*
X779384Y319903D01*
X780440Y319620D01*
X781581Y318962D01*
X782512Y318031D01*
X783170Y316890D01*
X783453Y315834D01*
X779384Y315834D01*
G37*
%LPD*%
%LPC*%
G36*
X394574Y419974D02*
X394574Y419974D01*
X394574Y424043D01*
X395630Y423760D01*
X396771Y423102D01*
X397702Y422171D01*
X398360Y421030D01*
X398643Y419974D01*
X394574Y419974D01*
G37*
%LPD*%
%LPC*%
G36*
X134224Y267574D02*
X134224Y267574D01*
X134224Y271643D01*
X135280Y271360D01*
X136421Y270702D01*
X137352Y269771D01*
X138010Y268630D01*
X138293Y267574D01*
X134224Y267574D01*
G37*
%LPD*%
%LPC*%
G36*
X210424Y198994D02*
X210424Y198994D01*
X210424Y203063D01*
X211480Y202780D01*
X212621Y202122D01*
X213552Y201191D01*
X214210Y200050D01*
X214493Y198994D01*
X210424Y198994D01*
G37*
%LPD*%
%LPC*%
G36*
X324724Y96124D02*
X324724Y96124D01*
X324724Y100193D01*
X325780Y99910D01*
X326921Y99252D01*
X327852Y98321D01*
X328510Y97180D01*
X328793Y96124D01*
X324724Y96124D01*
G37*
%LPD*%
%LPC*%
G36*
X25004Y192644D02*
X25004Y192644D01*
X25004Y196713D01*
X26060Y196430D01*
X27201Y195772D01*
X28132Y194841D01*
X28790Y193700D01*
X29073Y192644D01*
X25004Y192644D01*
G37*
%LPD*%
%LPC*%
G36*
X153274Y191374D02*
X153274Y191374D01*
X153274Y195443D01*
X154330Y195160D01*
X155471Y194502D01*
X156402Y193571D01*
X157060Y192430D01*
X157343Y191374D01*
X153274Y191374D01*
G37*
%LPD*%
%LPC*%
G36*
X350514Y257414D02*
X350514Y257414D01*
X350514Y261483D01*
X351570Y261200D01*
X352711Y260542D01*
X353642Y259611D01*
X354300Y258470D01*
X354583Y257414D01*
X350514Y257414D01*
G37*
%LPD*%
%LPC*%
G36*
X480934Y426324D02*
X480934Y426324D01*
X480934Y430393D01*
X481990Y430110D01*
X483131Y429452D01*
X484062Y428521D01*
X484720Y427380D01*
X485003Y426324D01*
X480934Y426324D01*
G37*
%LPD*%
%LPC*%
G36*
X642224Y426324D02*
X642224Y426324D01*
X642224Y430393D01*
X643280Y430110D01*
X644421Y429452D01*
X645352Y428521D01*
X646010Y427380D01*
X646293Y426324D01*
X642224Y426324D01*
G37*
%LPD*%
%LPC*%
G36*
X508874Y292974D02*
X508874Y292974D01*
X508874Y297043D01*
X509930Y296760D01*
X511071Y296102D01*
X512002Y295171D01*
X512660Y294030D01*
X512943Y292974D01*
X508874Y292974D01*
G37*
%LPD*%
%LPC*%
G36*
X531734Y426696D02*
X531734Y426696D01*
X531734Y430765D01*
X532790Y430482D01*
X533931Y429824D01*
X534862Y428893D01*
X535520Y427752D01*
X535803Y426696D01*
X531734Y426696D01*
G37*
%LPD*%
%LPC*%
G36*
X620634Y426696D02*
X620634Y426696D01*
X620634Y430765D01*
X621690Y430482D01*
X622831Y429824D01*
X623762Y428893D01*
X624420Y427752D01*
X624703Y426696D01*
X620634Y426696D01*
G37*
%LPD*%
%LPC*%
G36*
X442834Y233284D02*
X442834Y233284D01*
X442834Y237353D01*
X443890Y237070D01*
X445031Y236412D01*
X445962Y235481D01*
X446620Y234340D01*
X446903Y233284D01*
X442834Y233284D01*
G37*
%LPD*%
%LPC*%
G36*
X353764Y351394D02*
X353764Y351394D01*
X353764Y355463D01*
X354820Y355180D01*
X355961Y354522D01*
X356892Y353591D01*
X357550Y352450D01*
X357833Y351394D01*
X353764Y351394D01*
G37*
%LPD*%
%LPC*%
G36*
X299324Y140574D02*
X299324Y140574D01*
X299324Y144643D01*
X300380Y144360D01*
X301521Y143702D01*
X302452Y142771D01*
X303110Y141630D01*
X303393Y140574D01*
X299324Y140574D01*
G37*
%LPD*%
%LPC*%
G36*
X399654Y278526D02*
X399654Y278526D01*
X403728Y278526D01*
X403713Y278488D01*
X403440Y277470D01*
X402782Y276329D01*
X401851Y275398D01*
X400710Y274740D01*
X399654Y274457D01*
X399654Y278526D01*
G37*
%LPD*%
%LPC*%
G36*
X405262Y279004D02*
X405262Y279004D01*
X405277Y279042D01*
X405550Y280060D01*
X406208Y281201D01*
X407139Y282132D01*
X408280Y282790D01*
X409336Y283073D01*
X409336Y279004D01*
X405262Y279004D01*
G37*
%LPD*%
%LPC*%
G36*
X972424Y77074D02*
X972424Y77074D01*
X972424Y81143D01*
X973480Y80860D01*
X974620Y80202D01*
X975552Y79270D01*
X976210Y78130D01*
X976493Y77074D01*
X972424Y77074D01*
G37*
%LPD*%
%LPC*%
G36*
X609204Y57304D02*
X609204Y57304D01*
X609204Y61373D01*
X610260Y61090D01*
X611400Y60431D01*
X612332Y59500D01*
X612990Y58360D01*
X613273Y57304D01*
X609204Y57304D01*
G37*
%LPD*%
%LPC*%
G36*
X934324Y51674D02*
X934324Y51674D01*
X934324Y55743D01*
X935380Y55460D01*
X936520Y54802D01*
X937452Y53870D01*
X938110Y52730D01*
X938393Y51674D01*
X934324Y51674D01*
G37*
%LPD*%
%LPC*%
G36*
X618759Y77074D02*
X618759Y77074D01*
X618759Y81143D01*
X619815Y80860D01*
X620956Y80202D01*
X621887Y79270D01*
X622545Y78130D01*
X622828Y77074D01*
X618759Y77074D01*
G37*
%LPD*%
%LPC*%
G36*
X997824Y77074D02*
X997824Y77074D01*
X997824Y81143D01*
X998880Y80860D01*
X1000020Y80202D01*
X1000952Y79270D01*
X1001610Y78130D01*
X1001893Y77074D01*
X997824Y77074D01*
G37*
%LPD*%
%LPC*%
G36*
X606664Y113904D02*
X606664Y113904D01*
X606664Y117973D01*
X607720Y117690D01*
X608860Y117032D01*
X609792Y116100D01*
X610450Y114960D01*
X610733Y113904D01*
X606664Y113904D01*
G37*
%LPD*%
%LPC*%
G36*
X635234Y275098D02*
X635234Y275098D01*
X635517Y276154D01*
X636175Y277294D01*
X637106Y278225D01*
X638246Y278883D01*
X639302Y279166D01*
X639302Y275098D01*
X635234Y275098D01*
G37*
%LPD*%
%LPC*%
G36*
X426324Y278526D02*
X426324Y278526D01*
X430393Y278526D01*
X430110Y277470D01*
X429452Y276329D01*
X428521Y275398D01*
X427380Y274740D01*
X426324Y274457D01*
X426324Y278526D01*
G37*
%LPD*%
%LPC*%
G36*
X559674Y278526D02*
X559674Y278526D01*
X563743Y278526D01*
X563460Y277470D01*
X562802Y276329D01*
X561871Y275398D01*
X560730Y274740D01*
X559674Y274457D01*
X559674Y278526D01*
G37*
%LPD*%
%LPC*%
G36*
X773567Y273924D02*
X773567Y273924D01*
X773850Y274980D01*
X774508Y276121D01*
X775439Y277052D01*
X776580Y277710D01*
X777636Y277993D01*
X777636Y273924D01*
X773567Y273924D01*
G37*
%LPD*%
%LPC*%
G36*
X411084Y277256D02*
X411084Y277256D01*
X415153Y277256D01*
X414870Y276200D01*
X414212Y275059D01*
X413281Y274128D01*
X412140Y273470D01*
X411084Y273187D01*
X411084Y277256D01*
G37*
%LPD*%
%LPC*%
G36*
X350124Y275986D02*
X350124Y275986D01*
X354193Y275986D01*
X353910Y274930D01*
X353252Y273789D01*
X352321Y272858D01*
X351180Y272200D01*
X350124Y271917D01*
X350124Y275986D01*
G37*
%LPD*%
%LPC*%
G36*
X531734Y424948D02*
X531734Y424948D01*
X535803Y424948D01*
X535520Y423892D01*
X534862Y422751D01*
X533931Y421820D01*
X532790Y421162D01*
X531734Y420879D01*
X531734Y424948D01*
G37*
%LPD*%
%LPC*%
G36*
X641051Y273349D02*
X641051Y273349D01*
X645119Y273349D01*
X644836Y272293D01*
X644178Y271153D01*
X643247Y270222D01*
X642107Y269564D01*
X641051Y269281D01*
X641051Y273349D01*
G37*
%LPD*%
%LPC*%
G36*
X200797Y268844D02*
X200797Y268844D01*
X201080Y269900D01*
X201738Y271041D01*
X202669Y271972D01*
X203810Y272630D01*
X204866Y272913D01*
X204866Y268844D01*
X200797Y268844D01*
G37*
%LPD*%
%LPC*%
G36*
X779384Y272176D02*
X779384Y272176D01*
X783453Y272176D01*
X783170Y271120D01*
X782512Y269979D01*
X781581Y269048D01*
X780440Y268390D01*
X779384Y268107D01*
X779384Y272176D01*
G37*
%LPD*%
%LPC*%
G36*
X128407Y267574D02*
X128407Y267574D01*
X128690Y268630D01*
X129348Y269771D01*
X130279Y270702D01*
X131420Y271360D01*
X132476Y271643D01*
X132476Y267574D01*
X128407Y267574D01*
G37*
%LPD*%
%LPC*%
G36*
X206614Y267096D02*
X206614Y267096D01*
X210683Y267096D01*
X210400Y266040D01*
X209742Y264899D01*
X208811Y263968D01*
X207670Y263310D01*
X206614Y263027D01*
X206614Y267096D01*
G37*
%LPD*%
%LPC*%
G36*
X134224Y265826D02*
X134224Y265826D01*
X138293Y265826D01*
X138010Y264770D01*
X137352Y263629D01*
X136421Y262698D01*
X135280Y262040D01*
X134224Y261757D01*
X134224Y265826D01*
G37*
%LPD*%
%LPC*%
G36*
X344697Y257414D02*
X344697Y257414D01*
X344980Y258470D01*
X345638Y259611D01*
X346569Y260542D01*
X347710Y261200D01*
X348766Y261483D01*
X348766Y257414D01*
X344697Y257414D01*
G37*
%LPD*%
%LPC*%
G36*
X471307Y252334D02*
X471307Y252334D01*
X471590Y253390D01*
X472248Y254531D01*
X473179Y255462D01*
X474320Y256120D01*
X475376Y256403D01*
X475376Y252334D01*
X471307Y252334D01*
G37*
%LPD*%
%LPC*%
G36*
X350514Y255666D02*
X350514Y255666D01*
X354583Y255666D01*
X354300Y254610D01*
X353642Y253469D01*
X352711Y252538D01*
X351570Y251880D01*
X350514Y251597D01*
X350514Y255666D01*
G37*
%LPD*%
%LPC*%
G36*
X477124Y250586D02*
X477124Y250586D01*
X481193Y250586D01*
X480910Y249530D01*
X480252Y248389D01*
X479321Y247458D01*
X478180Y246800D01*
X477124Y246517D01*
X477124Y250586D01*
G37*
%LPD*%
%LPC*%
G36*
X677047Y244714D02*
X677047Y244714D01*
X677330Y245770D01*
X677988Y246911D01*
X678919Y247842D01*
X680060Y248500D01*
X681116Y248783D01*
X681116Y244714D01*
X677047Y244714D01*
G37*
%LPD*%
%LPC*%
G36*
X682864Y242966D02*
X682864Y242966D01*
X686933Y242966D01*
X686650Y241910D01*
X685992Y240769D01*
X685061Y239838D01*
X683920Y239180D01*
X682864Y238897D01*
X682864Y242966D01*
G37*
%LPD*%
%LPC*%
G36*
X437017Y233284D02*
X437017Y233284D01*
X437300Y234340D01*
X437958Y235481D01*
X438889Y236412D01*
X440030Y237070D01*
X441086Y237353D01*
X441086Y233284D01*
X437017Y233284D01*
G37*
%LPD*%
%LPC*%
G36*
X356171Y230310D02*
X356171Y230310D01*
X356454Y231366D01*
X357112Y232507D01*
X358043Y233438D01*
X359184Y234096D01*
X360239Y234379D01*
X360239Y230310D01*
X356171Y230310D01*
G37*
%LPD*%
%LPC*%
G36*
X109357Y229474D02*
X109357Y229474D01*
X109640Y230530D01*
X110298Y231671D01*
X111229Y232602D01*
X112370Y233260D01*
X113426Y233543D01*
X113426Y229474D01*
X109357Y229474D01*
G37*
%LPD*%
%LPC*%
G36*
X442834Y231536D02*
X442834Y231536D01*
X446903Y231536D01*
X446620Y230480D01*
X445962Y229339D01*
X445031Y228408D01*
X443890Y227750D01*
X442834Y227467D01*
X442834Y231536D01*
G37*
%LPD*%
%LPC*%
G36*
X387545Y230945D02*
X387545Y230945D01*
X391613Y230945D01*
X391330Y229889D01*
X390672Y228749D01*
X389741Y227818D01*
X388601Y227160D01*
X387545Y226877D01*
X387545Y230945D01*
G37*
%LPD*%
%LPC*%
G36*
X202067Y225664D02*
X202067Y225664D01*
X202350Y226720D01*
X203008Y227861D01*
X203939Y228792D01*
X205080Y229450D01*
X206136Y229733D01*
X206136Y225664D01*
X202067Y225664D01*
G37*
%LPD*%
%LPC*%
G36*
X115174Y227726D02*
X115174Y227726D01*
X119243Y227726D01*
X118960Y226670D01*
X118302Y225529D01*
X117371Y224598D01*
X116230Y223940D01*
X115174Y223657D01*
X115174Y227726D01*
G37*
%LPD*%
%LPC*%
G36*
X207884Y223916D02*
X207884Y223916D01*
X211953Y223916D01*
X211670Y222860D01*
X211012Y221719D01*
X210081Y220788D01*
X208940Y220130D01*
X207884Y219847D01*
X207884Y223916D01*
G37*
%LPD*%
%LPC*%
G36*
X420507Y216774D02*
X420507Y216774D01*
X420790Y217830D01*
X421448Y218971D01*
X422379Y219902D01*
X423520Y220560D01*
X424576Y220843D01*
X424576Y216774D01*
X420507Y216774D01*
G37*
%LPD*%
%LPC*%
G36*
X426324Y215026D02*
X426324Y215026D01*
X430393Y215026D01*
X430110Y213970D01*
X429452Y212829D01*
X428521Y211898D01*
X427380Y211240D01*
X426324Y210957D01*
X426324Y215026D01*
G37*
%LPD*%
%LPC*%
G36*
X204607Y198994D02*
X204607Y198994D01*
X204890Y200050D01*
X205548Y201191D01*
X206479Y202122D01*
X207620Y202780D01*
X208676Y203063D01*
X208676Y198994D01*
X204607Y198994D01*
G37*
%LPD*%
%LPC*%
G36*
X210424Y197246D02*
X210424Y197246D01*
X214493Y197246D01*
X214210Y196190D01*
X213552Y195049D01*
X212621Y194118D01*
X211480Y193460D01*
X210424Y193177D01*
X210424Y197246D01*
G37*
%LPD*%
%LPC*%
G36*
X19187Y192644D02*
X19187Y192644D01*
X19470Y193700D01*
X20128Y194841D01*
X21059Y195772D01*
X22200Y196430D01*
X23256Y196713D01*
X23256Y192644D01*
X19187Y192644D01*
G37*
%LPD*%
%LPC*%
G36*
X147457Y191374D02*
X147457Y191374D01*
X147740Y192430D01*
X148398Y193571D01*
X149329Y194502D01*
X150470Y195160D01*
X151526Y195443D01*
X151526Y191374D01*
X147457Y191374D01*
G37*
%LPD*%
%LPC*%
G36*
X274324Y191374D02*
X274324Y191374D01*
X274607Y192430D01*
X275265Y193571D01*
X276196Y194502D01*
X277337Y195160D01*
X278393Y195443D01*
X278393Y191374D01*
X274324Y191374D01*
G37*
%LPD*%
%LPC*%
G36*
X25004Y190896D02*
X25004Y190896D01*
X29073Y190896D01*
X28790Y189840D01*
X28132Y188699D01*
X27201Y187768D01*
X26060Y187110D01*
X25004Y186827D01*
X25004Y190896D01*
G37*
%LPD*%
%LPC*%
G36*
X280141Y189626D02*
X280141Y189626D01*
X284210Y189626D01*
X283927Y188570D01*
X283269Y187429D01*
X282338Y186498D01*
X281197Y185840D01*
X280141Y185557D01*
X280141Y189626D01*
G37*
%LPD*%
%LPC*%
G36*
X153274Y189626D02*
X153274Y189626D01*
X157343Y189626D01*
X157060Y188570D01*
X156402Y187429D01*
X155471Y186498D01*
X154330Y185840D01*
X153274Y185557D01*
X153274Y189626D01*
G37*
%LPD*%
%LPC*%
G36*
X915807Y172324D02*
X915807Y172324D01*
X916090Y173380D01*
X916748Y174521D01*
X917679Y175452D01*
X918820Y176110D01*
X919876Y176393D01*
X919876Y172324D01*
X915807Y172324D01*
G37*
%LPD*%
%LPC*%
G36*
X20457Y496174D02*
X20457Y496174D01*
X20740Y497230D01*
X21398Y498371D01*
X22329Y499302D01*
X23470Y499960D01*
X24526Y500243D01*
X24526Y496174D01*
X20457Y496174D01*
G37*
%LPD*%
%LPC*%
G36*
X575447Y169784D02*
X575447Y169784D01*
X575730Y170840D01*
X576388Y171981D01*
X577319Y172912D01*
X578460Y173570D01*
X579516Y173853D01*
X579516Y169784D01*
X575447Y169784D01*
G37*
%LPD*%
%LPC*%
G36*
X921624Y170576D02*
X921624Y170576D01*
X925693Y170576D01*
X925410Y169520D01*
X924752Y168379D01*
X923821Y167448D01*
X922680Y166790D01*
X921624Y166507D01*
X921624Y170576D01*
G37*
%LPD*%
%LPC*%
G36*
X90307Y496174D02*
X90307Y496174D01*
X90590Y497230D01*
X91248Y498371D01*
X92179Y499302D01*
X93320Y499960D01*
X94376Y500243D01*
X94376Y496174D01*
X90307Y496174D01*
G37*
%LPD*%
%LPC*%
G36*
X96124Y494426D02*
X96124Y494426D01*
X100193Y494426D01*
X99910Y493370D01*
X99252Y492229D01*
X98321Y491298D01*
X97180Y490640D01*
X96124Y490357D01*
X96124Y494426D01*
G37*
%LPD*%
%LPC*%
G36*
X26274Y494426D02*
X26274Y494426D01*
X30343Y494426D01*
X30060Y493370D01*
X29402Y492229D01*
X28471Y491298D01*
X27330Y490640D01*
X26274Y490357D01*
X26274Y494426D01*
G37*
%LPD*%
%LPC*%
G36*
X458607Y165974D02*
X458607Y165974D01*
X458890Y167030D01*
X459548Y168171D01*
X460479Y169102D01*
X461620Y169760D01*
X462676Y170043D01*
X462676Y165974D01*
X458607Y165974D01*
G37*
%LPD*%
%LPC*%
G36*
X350657Y165974D02*
X350657Y165974D01*
X350940Y167030D01*
X351598Y168171D01*
X352529Y169102D01*
X353670Y169760D01*
X354726Y170043D01*
X354726Y165974D01*
X350657Y165974D01*
G37*
%LPD*%
%LPC*%
G36*
X331607Y165974D02*
X331607Y165974D01*
X331890Y167030D01*
X332548Y168171D01*
X333479Y169102D01*
X334620Y169760D01*
X335676Y170043D01*
X335676Y165974D01*
X331607Y165974D01*
G37*
%LPD*%
%LPC*%
G36*
X581264Y168036D02*
X581264Y168036D01*
X585333Y168036D01*
X585050Y166980D01*
X584392Y165839D01*
X583461Y164908D01*
X582320Y164250D01*
X581264Y163967D01*
X581264Y168036D01*
G37*
%LPD*%
%LPC*%
G36*
X337424Y164226D02*
X337424Y164226D01*
X341493Y164226D01*
X341210Y163170D01*
X340552Y162029D01*
X339621Y161098D01*
X338480Y160440D01*
X337424Y160157D01*
X337424Y164226D01*
G37*
%LPD*%
%LPC*%
G36*
X356474Y164226D02*
X356474Y164226D01*
X360543Y164226D01*
X360260Y163170D01*
X359602Y162029D01*
X358671Y161098D01*
X357530Y160440D01*
X356474Y160157D01*
X356474Y164226D01*
G37*
%LPD*%
%LPC*%
G36*
X464424Y164226D02*
X464424Y164226D01*
X468493Y164226D01*
X468210Y163170D01*
X467552Y162029D01*
X466621Y161098D01*
X465480Y160440D01*
X464424Y160157D01*
X464424Y164226D01*
G37*
%LPD*%
%LPC*%
G36*
X858657Y432674D02*
X858657Y432674D01*
X858940Y433730D01*
X859598Y434871D01*
X860529Y435802D01*
X861670Y436460D01*
X862726Y436743D01*
X862726Y432674D01*
X858657Y432674D01*
G37*
%LPD*%
%LPC*%
G36*
X407807Y159624D02*
X407807Y159624D01*
X408090Y160680D01*
X408748Y161821D01*
X409679Y162752D01*
X410820Y163410D01*
X411876Y163693D01*
X411876Y159624D01*
X407807Y159624D01*
G37*
%LPD*%
%LPC*%
G36*
X413624Y157876D02*
X413624Y157876D01*
X417693Y157876D01*
X417410Y156820D01*
X416752Y155679D01*
X415821Y154748D01*
X414680Y154090D01*
X413624Y153807D01*
X413624Y157876D01*
G37*
%LPD*%
%LPC*%
G36*
X779917Y431404D02*
X779917Y431404D01*
X780200Y432460D01*
X780858Y433601D01*
X781789Y434532D01*
X782930Y435190D01*
X783986Y435473D01*
X783986Y431404D01*
X779917Y431404D01*
G37*
%LPD*%
%LPC*%
G36*
X864474Y430926D02*
X864474Y430926D01*
X868543Y430926D01*
X868260Y429870D01*
X867602Y428729D01*
X866671Y427798D01*
X865530Y427140D01*
X864474Y426857D01*
X864474Y430926D01*
G37*
%LPD*%
%LPC*%
G36*
X525917Y426696D02*
X525917Y426696D01*
X526200Y427752D01*
X526858Y428893D01*
X527789Y429824D01*
X528930Y430482D01*
X529986Y430765D01*
X529986Y426696D01*
X525917Y426696D01*
G37*
%LPD*%
%LPC*%
G36*
X109357Y146924D02*
X109357Y146924D01*
X109640Y147980D01*
X110298Y149121D01*
X111229Y150052D01*
X112370Y150710D01*
X113426Y150993D01*
X113426Y146924D01*
X109357Y146924D01*
G37*
%LPD*%
%LPC*%
G36*
X614817Y426696D02*
X614817Y426696D01*
X615100Y427752D01*
X615758Y428893D01*
X616689Y429824D01*
X617830Y430482D01*
X618886Y430765D01*
X618886Y426696D01*
X614817Y426696D01*
G37*
%LPD*%
%LPC*%
G36*
X475117Y426324D02*
X475117Y426324D01*
X475400Y427380D01*
X476058Y428521D01*
X476989Y429452D01*
X478130Y430110D01*
X479186Y430393D01*
X479186Y426324D01*
X475117Y426324D01*
G37*
%LPD*%
%LPC*%
G36*
X636407Y426324D02*
X636407Y426324D01*
X636690Y427380D01*
X637348Y428521D01*
X638279Y429452D01*
X639420Y430110D01*
X640476Y430393D01*
X640476Y426324D01*
X636407Y426324D01*
G37*
%LPD*%
%LPC*%
G36*
X785734Y429656D02*
X785734Y429656D01*
X789803Y429656D01*
X789520Y428600D01*
X788862Y427459D01*
X787931Y426528D01*
X786790Y425870D01*
X785734Y425587D01*
X785734Y429656D01*
G37*
%LPD*%
%LPC*%
G36*
X620634Y424948D02*
X620634Y424948D01*
X624703Y424948D01*
X624420Y423892D01*
X623762Y422751D01*
X622831Y421820D01*
X621690Y421162D01*
X620634Y420879D01*
X620634Y424948D01*
G37*
%LPD*%
%LPC*%
G36*
X642224Y424576D02*
X642224Y424576D01*
X646293Y424576D01*
X646010Y423520D01*
X645352Y422379D01*
X644421Y421448D01*
X643280Y420790D01*
X642224Y420507D01*
X642224Y424576D01*
G37*
%LPD*%
%LPC*%
G36*
X388757Y419974D02*
X388757Y419974D01*
X389040Y421030D01*
X389698Y422171D01*
X390629Y423102D01*
X391770Y423760D01*
X392826Y424043D01*
X392826Y419974D01*
X388757Y419974D01*
G37*
%LPD*%
%LPC*%
G36*
X572907Y417434D02*
X572907Y417434D01*
X573190Y418490D01*
X573848Y419631D01*
X574779Y420562D01*
X575920Y421220D01*
X576976Y421503D01*
X576976Y417434D01*
X572907Y417434D01*
G37*
%LPD*%
%LPC*%
G36*
X592553Y417132D02*
X592553Y417132D01*
X592836Y418188D01*
X593494Y419328D01*
X594425Y420259D01*
X595565Y420918D01*
X596621Y421201D01*
X596621Y417132D01*
X592553Y417132D01*
G37*
%LPD*%
%LPC*%
G36*
X394574Y418226D02*
X394574Y418226D01*
X398643Y418226D01*
X398360Y417170D01*
X397702Y416029D01*
X396771Y415098D01*
X395630Y414440D01*
X394574Y414157D01*
X394574Y418226D01*
G37*
%LPD*%
%LPC*%
G36*
X578724Y415686D02*
X578724Y415686D01*
X582793Y415686D01*
X582510Y414630D01*
X581852Y413489D01*
X580921Y412558D01*
X579780Y411900D01*
X578724Y411617D01*
X578724Y415686D01*
G37*
%LPD*%
%LPC*%
G36*
X598370Y415383D02*
X598370Y415383D01*
X602439Y415383D01*
X602156Y414327D01*
X601497Y413187D01*
X600566Y412256D01*
X599426Y411598D01*
X598370Y411315D01*
X598370Y415383D01*
G37*
%LPD*%
%LPC*%
G36*
X115174Y145176D02*
X115174Y145176D01*
X119243Y145176D01*
X118960Y144120D01*
X118302Y142979D01*
X117371Y142048D01*
X116230Y141390D01*
X115174Y141107D01*
X115174Y145176D01*
G37*
%LPD*%
%LPC*%
G36*
X896757Y407274D02*
X896757Y407274D01*
X897040Y408330D01*
X897698Y409471D01*
X898629Y410402D01*
X899770Y411060D01*
X900826Y411343D01*
X900826Y407274D01*
X896757Y407274D01*
G37*
%LPD*%
%LPC*%
G36*
X902574Y405526D02*
X902574Y405526D01*
X906643Y405526D01*
X906360Y404470D01*
X905702Y403329D01*
X904771Y402398D01*
X903630Y401740D01*
X902574Y401457D01*
X902574Y405526D01*
G37*
%LPD*%
%LPC*%
G36*
X293507Y140574D02*
X293507Y140574D01*
X293790Y141630D01*
X294448Y142771D01*
X295379Y143702D01*
X296520Y144360D01*
X297576Y144643D01*
X297576Y140574D01*
X293507Y140574D01*
G37*
%LPD*%
%LPC*%
G36*
X223124Y142636D02*
X223124Y142636D01*
X227193Y142636D01*
X226910Y141580D01*
X226252Y140439D01*
X225321Y139508D01*
X224180Y138850D01*
X223124Y138567D01*
X223124Y142636D01*
G37*
%LPD*%
%LPC*%
G36*
X449717Y386310D02*
X449717Y386310D01*
X450000Y387366D01*
X450658Y388507D01*
X451589Y389438D01*
X452730Y390096D01*
X453786Y390379D01*
X453786Y386310D01*
X449717Y386310D01*
G37*
%LPD*%
%LPC*%
G36*
X524647Y384786D02*
X524647Y384786D01*
X524930Y385842D01*
X525588Y386983D01*
X526519Y387914D01*
X527660Y388572D01*
X528716Y388855D01*
X528716Y384786D01*
X524647Y384786D01*
G37*
%LPD*%
%LPC*%
G36*
X611007Y381874D02*
X611007Y381874D01*
X611290Y382930D01*
X611948Y384071D01*
X612879Y385002D01*
X614020Y385660D01*
X615076Y385943D01*
X615076Y381874D01*
X611007Y381874D01*
G37*
%LPD*%
%LPC*%
G36*
X115707Y381874D02*
X115707Y381874D01*
X115990Y382930D01*
X116648Y384071D01*
X117579Y385002D01*
X118720Y385660D01*
X119776Y385943D01*
X119776Y381874D01*
X115707Y381874D01*
G37*
%LPD*%
%LPC*%
G36*
X455534Y384562D02*
X455534Y384562D01*
X459603Y384562D01*
X459320Y383506D01*
X458662Y382365D01*
X457731Y381434D01*
X456590Y380776D01*
X455534Y380493D01*
X455534Y384562D01*
G37*
%LPD*%
%LPC*%
G36*
X299324Y138826D02*
X299324Y138826D01*
X303393Y138826D01*
X303110Y137770D01*
X302452Y136629D01*
X301521Y135698D01*
X300380Y135040D01*
X299324Y134757D01*
X299324Y138826D01*
G37*
%LPD*%
%LPC*%
G36*
X731124Y138826D02*
X731124Y138826D01*
X735193Y138826D01*
X734910Y137770D01*
X734252Y136629D01*
X733321Y135698D01*
X732180Y135040D01*
X731124Y134757D01*
X731124Y138826D01*
G37*
%LPD*%
%LPC*%
G36*
X530464Y383038D02*
X530464Y383038D01*
X534533Y383038D01*
X534250Y381982D01*
X533592Y380841D01*
X532661Y379910D01*
X531520Y379252D01*
X530464Y378969D01*
X530464Y383038D01*
G37*
%LPD*%
%LPC*%
G36*
X341767Y129144D02*
X341767Y129144D01*
X342050Y130200D01*
X342708Y131341D01*
X343639Y132272D01*
X344780Y132930D01*
X345836Y133213D01*
X345836Y129144D01*
X341767Y129144D01*
G37*
%LPD*%
%LPC*%
G36*
X572907Y378064D02*
X572907Y378064D01*
X573190Y379120D01*
X573848Y380261D01*
X574779Y381192D01*
X575920Y381850D01*
X576976Y382133D01*
X576976Y378064D01*
X572907Y378064D01*
G37*
%LPD*%
%LPC*%
G36*
X725307Y127874D02*
X725307Y127874D01*
X725590Y128930D01*
X726248Y130071D01*
X727179Y131002D01*
X728320Y131660D01*
X729376Y131943D01*
X729376Y127874D01*
X725307Y127874D01*
G37*
%LPD*%
%LPC*%
G36*
X591957Y377569D02*
X591957Y377569D01*
X592240Y378625D01*
X592898Y379765D01*
X593829Y380696D01*
X594970Y381355D01*
X596026Y381638D01*
X596026Y377569D01*
X591957Y377569D01*
G37*
%LPD*%
%LPC*%
G36*
X121524Y380126D02*
X121524Y380126D01*
X125593Y380126D01*
X125310Y379070D01*
X124652Y377929D01*
X123721Y376998D01*
X122580Y376340D01*
X121524Y376057D01*
X121524Y380126D01*
G37*
%LPD*%
%LPC*%
G36*
X616824Y380126D02*
X616824Y380126D01*
X620893Y380126D01*
X620610Y379070D01*
X619952Y377929D01*
X619021Y376998D01*
X617880Y376340D01*
X616824Y376057D01*
X616824Y380126D01*
G37*
%LPD*%
%LPC*%
G36*
X401575Y372984D02*
X401575Y372984D01*
X401858Y374040D01*
X402516Y375181D01*
X403447Y376112D01*
X404588Y376770D01*
X405644Y377053D01*
X405644Y372984D01*
X401575Y372984D01*
G37*
%LPD*%
%LPC*%
G36*
X557667Y125334D02*
X557667Y125334D01*
X557950Y126390D01*
X558608Y127531D01*
X559539Y128462D01*
X560680Y129120D01*
X561736Y129403D01*
X561736Y125334D01*
X557667Y125334D01*
G37*
%LPD*%
%LPC*%
G36*
X578724Y376316D02*
X578724Y376316D01*
X582793Y376316D01*
X582510Y375260D01*
X581852Y374119D01*
X580921Y373188D01*
X579780Y372530D01*
X578724Y372247D01*
X578724Y376316D01*
G37*
%LPD*%
%LPC*%
G36*
X597774Y375820D02*
X597774Y375820D01*
X601843Y375820D01*
X601560Y374764D01*
X600902Y373624D01*
X599971Y372693D01*
X598830Y372035D01*
X597774Y371752D01*
X597774Y375820D01*
G37*
%LPD*%
%LPC*%
G36*
X347584Y127396D02*
X347584Y127396D01*
X351653Y127396D01*
X351370Y126340D01*
X350712Y125199D01*
X349781Y124268D01*
X348640Y123610D01*
X347584Y123327D01*
X347584Y127396D01*
G37*
%LPD*%
%LPC*%
G36*
X779917Y371714D02*
X779917Y371714D01*
X780200Y372770D01*
X780858Y373911D01*
X781789Y374842D01*
X782930Y375500D01*
X783986Y375783D01*
X783986Y371714D01*
X779917Y371714D01*
G37*
%LPD*%
%LPC*%
G36*
X407392Y371236D02*
X407392Y371236D01*
X411461Y371236D01*
X411178Y370180D01*
X410520Y369039D01*
X409589Y368108D01*
X408448Y367450D01*
X407392Y367167D01*
X407392Y371236D01*
G37*
%LPD*%
%LPC*%
G36*
X731124Y126126D02*
X731124Y126126D01*
X735193Y126126D01*
X734910Y125070D01*
X734252Y123929D01*
X733321Y122998D01*
X732180Y122340D01*
X731124Y122057D01*
X731124Y126126D01*
G37*
%LPD*%
%LPC*%
G36*
X785734Y369966D02*
X785734Y369966D01*
X789803Y369966D01*
X789520Y368910D01*
X788862Y367769D01*
X787931Y366838D01*
X786790Y366180D01*
X785734Y365897D01*
X785734Y369966D01*
G37*
%LPD*%
%LPC*%
G36*
X202702Y353299D02*
X202702Y353299D01*
X202985Y354355D01*
X203643Y355496D01*
X204574Y356427D01*
X205715Y357085D01*
X206771Y357368D01*
X206771Y353299D01*
X202702Y353299D01*
G37*
%LPD*%
%LPC*%
G36*
X347947Y351394D02*
X347947Y351394D01*
X348230Y352450D01*
X348888Y353591D01*
X349819Y354522D01*
X350960Y355180D01*
X352016Y355463D01*
X352016Y351394D01*
X347947Y351394D01*
G37*
%LPD*%
%LPC*%
G36*
X890407Y115174D02*
X890407Y115174D01*
X890690Y116230D01*
X891348Y117371D01*
X892279Y118302D01*
X893420Y118960D01*
X894476Y119243D01*
X894476Y115174D01*
X890407Y115174D01*
G37*
%LPD*%
%LPC*%
G36*
X471307Y115174D02*
X471307Y115174D01*
X471590Y116230D01*
X472248Y117371D01*
X473179Y118302D01*
X474320Y118960D01*
X475376Y119243D01*
X475376Y115174D01*
X471307Y115174D01*
G37*
%LPD*%
%LPC*%
G36*
X90307Y115174D02*
X90307Y115174D01*
X90590Y116230D01*
X91248Y117371D01*
X92179Y118302D01*
X93320Y118960D01*
X94376Y119243D01*
X94376Y115174D01*
X90307Y115174D01*
G37*
%LPD*%
%LPC*%
G36*
X318907Y350124D02*
X318907Y350124D01*
X319190Y351180D01*
X319848Y352321D01*
X320779Y353252D01*
X321920Y353910D01*
X322976Y354193D01*
X322976Y350124D01*
X318907Y350124D01*
G37*
%LPD*%
%LPC*%
G36*
X96124Y113426D02*
X96124Y113426D01*
X100193Y113426D01*
X99910Y112370D01*
X99252Y111229D01*
X98321Y110298D01*
X97180Y109640D01*
X96124Y109357D01*
X96124Y113426D01*
G37*
%LPD*%
%LPC*%
G36*
X896224Y113426D02*
X896224Y113426D01*
X900293Y113426D01*
X900010Y112370D01*
X899352Y111229D01*
X898421Y110298D01*
X897280Y109640D01*
X896224Y109357D01*
X896224Y113426D01*
G37*
%LPD*%
%LPC*%
G36*
X477124Y113426D02*
X477124Y113426D01*
X481193Y113426D01*
X480910Y112370D01*
X480252Y111229D01*
X479321Y110298D01*
X478180Y109640D01*
X477124Y109357D01*
X477124Y113426D01*
G37*
%LPD*%
%LPC*%
G36*
X401457Y350124D02*
X401457Y350124D01*
X401740Y351180D01*
X402398Y352321D01*
X403329Y353252D01*
X404470Y353910D01*
X405526Y354193D01*
X405526Y350124D01*
X401457Y350124D01*
G37*
%LPD*%
%LPC*%
G36*
X426857Y102474D02*
X426857Y102474D01*
X427140Y103530D01*
X427798Y104671D01*
X428729Y105602D01*
X429870Y106260D01*
X430926Y106543D01*
X430926Y102474D01*
X426857Y102474D01*
G37*
%LPD*%
%LPC*%
G36*
X420507Y350124D02*
X420507Y350124D01*
X420790Y351180D01*
X421448Y352321D01*
X422379Y353252D01*
X423520Y353910D01*
X424576Y354193D01*
X424576Y350124D01*
X420507Y350124D01*
G37*
%LPD*%
%LPC*%
G36*
X208519Y351551D02*
X208519Y351551D01*
X212588Y351551D01*
X212305Y350495D01*
X211647Y349354D01*
X210716Y348423D01*
X209575Y347765D01*
X208519Y347482D01*
X208519Y351551D01*
G37*
%LPD*%
%LPC*%
G36*
X432674Y100726D02*
X432674Y100726D01*
X436743Y100726D01*
X436460Y99670D01*
X435802Y98529D01*
X434871Y97598D01*
X433730Y96940D01*
X432674Y96657D01*
X432674Y100726D01*
G37*
%LPD*%
%LPC*%
G36*
X318907Y96124D02*
X318907Y96124D01*
X319190Y97180D01*
X319848Y98321D01*
X320779Y99252D01*
X321920Y99910D01*
X322976Y100193D01*
X322976Y96124D01*
X318907Y96124D01*
G37*
%LPD*%
%LPC*%
G36*
X324724Y94376D02*
X324724Y94376D01*
X328793Y94376D01*
X328510Y93320D01*
X327852Y92179D01*
X326921Y91248D01*
X325780Y90590D01*
X324724Y90307D01*
X324724Y94376D01*
G37*
%LPD*%
%LPC*%
G36*
X353764Y349646D02*
X353764Y349646D01*
X357833Y349646D01*
X357550Y348590D01*
X356892Y347449D01*
X355961Y346518D01*
X354820Y345860D01*
X353764Y345577D01*
X353764Y349646D01*
G37*
%LPD*%
%LPC*%
G36*
X324724Y348376D02*
X324724Y348376D01*
X328793Y348376D01*
X328510Y347320D01*
X327852Y346179D01*
X326921Y345248D01*
X325780Y344590D01*
X324724Y344307D01*
X324724Y348376D01*
G37*
%LPD*%
%LPC*%
G36*
X426324Y348376D02*
X426324Y348376D01*
X430393Y348376D01*
X430110Y347320D01*
X429452Y346179D01*
X428521Y345248D01*
X427380Y344590D01*
X426324Y344307D01*
X426324Y348376D01*
G37*
%LPD*%
%LPC*%
G36*
X288325Y85964D02*
X288325Y85964D01*
X288608Y87020D01*
X289266Y88161D01*
X290197Y89092D01*
X291338Y89750D01*
X292394Y90033D01*
X292394Y85964D01*
X288325Y85964D01*
G37*
%LPD*%
%LPC*%
G36*
X294142Y84216D02*
X294142Y84216D01*
X298211Y84216D01*
X297928Y83160D01*
X297270Y82019D01*
X296339Y81088D01*
X295198Y80430D01*
X294142Y80147D01*
X294142Y84216D01*
G37*
%LPD*%
%LPC*%
G36*
X407274Y348376D02*
X407274Y348376D01*
X411343Y348376D01*
X411060Y347320D01*
X410402Y346179D01*
X409471Y345248D01*
X408330Y344590D01*
X407274Y344307D01*
X407274Y348376D01*
G37*
%LPD*%
%LPC*%
G36*
X863239Y334884D02*
X863239Y334884D01*
X863522Y335940D01*
X864180Y337081D01*
X865111Y338012D01*
X866252Y338670D01*
X867308Y338953D01*
X867308Y334884D01*
X863239Y334884D01*
G37*
%LPD*%
%LPC*%
G36*
X869056Y333136D02*
X869056Y333136D01*
X873125Y333136D01*
X872842Y332080D01*
X872184Y330939D01*
X871253Y330008D01*
X870112Y329350D01*
X869056Y329067D01*
X869056Y333136D01*
G37*
%LPD*%
%LPC*%
G36*
X622437Y324724D02*
X622437Y324724D01*
X622720Y325780D01*
X623378Y326921D01*
X624309Y327852D01*
X625450Y328510D01*
X626506Y328793D01*
X626506Y324724D01*
X622437Y324724D01*
G37*
%LPD*%
%LPC*%
G36*
X628254Y322976D02*
X628254Y322976D01*
X632323Y322976D01*
X632040Y321920D01*
X631382Y320779D01*
X630451Y319848D01*
X629310Y319190D01*
X628254Y318907D01*
X628254Y322976D01*
G37*
%LPD*%
%LPC*%
G36*
X20457Y318374D02*
X20457Y318374D01*
X20740Y319430D01*
X21398Y320571D01*
X22329Y321502D01*
X23470Y322160D01*
X24526Y322443D01*
X24526Y318374D01*
X20457Y318374D01*
G37*
%LPD*%
%LPC*%
G36*
X406093Y318372D02*
X406093Y318372D01*
X406376Y319428D01*
X407034Y320568D01*
X407965Y321499D01*
X409106Y322157D01*
X410162Y322440D01*
X410162Y318372D01*
X406093Y318372D01*
G37*
%LPD*%
%LPC*%
G36*
X379334Y320436D02*
X379334Y320436D01*
X383403Y320436D01*
X383120Y319380D01*
X382462Y318239D01*
X381531Y317308D01*
X380390Y316650D01*
X379334Y316367D01*
X379334Y320436D01*
G37*
%LPD*%
%LPC*%
G36*
X400924Y320436D02*
X400924Y320436D01*
X404993Y320436D01*
X404710Y319380D01*
X404052Y318239D01*
X403121Y317308D01*
X401980Y316650D01*
X400924Y316367D01*
X400924Y320436D01*
G37*
%LPD*%
%LPC*%
G36*
X773567Y315834D02*
X773567Y315834D01*
X773850Y316890D01*
X774508Y318031D01*
X775439Y318962D01*
X776580Y319620D01*
X777636Y319903D01*
X777636Y315834D01*
X773567Y315834D01*
G37*
%LPD*%
%LPC*%
G36*
X26274Y316626D02*
X26274Y316626D01*
X30343Y316626D01*
X30060Y315570D01*
X29402Y314429D01*
X28471Y313498D01*
X27330Y312840D01*
X26274Y312557D01*
X26274Y316626D01*
G37*
%LPD*%
%LPC*%
G36*
X103007Y312024D02*
X103007Y312024D01*
X103290Y313080D01*
X103948Y314221D01*
X104879Y315152D01*
X106020Y315810D01*
X107076Y316093D01*
X107076Y312024D01*
X103007Y312024D01*
G37*
%LPD*%
%LPC*%
G36*
X200797Y310754D02*
X200797Y310754D01*
X201080Y311810D01*
X201738Y312951D01*
X202669Y313882D01*
X203810Y314540D01*
X204866Y314823D01*
X204866Y310754D01*
X200797Y310754D01*
G37*
%LPD*%
%LPC*%
G36*
X779384Y314086D02*
X779384Y314086D01*
X783453Y314086D01*
X783170Y313030D01*
X782512Y311889D01*
X781581Y310958D01*
X780440Y310300D01*
X779384Y310017D01*
X779384Y314086D01*
G37*
%LPD*%
%LPC*%
G36*
X108824Y310276D02*
X108824Y310276D01*
X112893Y310276D01*
X112610Y309220D01*
X111952Y308079D01*
X111021Y307148D01*
X109880Y306490D01*
X108824Y306207D01*
X108824Y310276D01*
G37*
%LPD*%
%LPC*%
G36*
X896757Y305674D02*
X896757Y305674D01*
X897040Y306730D01*
X897698Y307871D01*
X898629Y308802D01*
X899770Y309460D01*
X900826Y309743D01*
X900826Y305674D01*
X896757Y305674D01*
G37*
%LPD*%
%LPC*%
G36*
X147457Y305674D02*
X147457Y305674D01*
X147740Y306730D01*
X148398Y307871D01*
X149329Y308802D01*
X150470Y309460D01*
X151526Y309743D01*
X151526Y305674D01*
X147457Y305674D01*
G37*
%LPD*%
%LPC*%
G36*
X206614Y309006D02*
X206614Y309006D01*
X210683Y309006D01*
X210400Y307950D01*
X209742Y306809D01*
X208811Y305878D01*
X207670Y305220D01*
X206614Y304937D01*
X206614Y309006D01*
G37*
%LPD*%
%LPC*%
G36*
X361951Y301864D02*
X361951Y301864D01*
X362234Y302920D01*
X362892Y304061D01*
X363823Y304992D01*
X364964Y305650D01*
X366020Y305933D01*
X366020Y301864D01*
X361951Y301864D01*
G37*
%LPD*%
%LPC*%
G36*
X153274Y303926D02*
X153274Y303926D01*
X157343Y303926D01*
X157060Y302870D01*
X156402Y301729D01*
X155471Y300798D01*
X154330Y300140D01*
X153274Y299857D01*
X153274Y303926D01*
G37*
%LPD*%
%LPC*%
G36*
X902574Y303926D02*
X902574Y303926D01*
X906643Y303926D01*
X906360Y302870D01*
X905702Y301729D01*
X904771Y300798D01*
X903630Y300140D01*
X902574Y299857D01*
X902574Y303926D01*
G37*
%LPD*%
%LPC*%
G36*
X393701Y299324D02*
X393701Y299324D01*
X393984Y300380D01*
X394642Y301521D01*
X395573Y302452D01*
X396714Y303110D01*
X397770Y303393D01*
X397770Y299324D01*
X393701Y299324D01*
G37*
%LPD*%
%LPC*%
G36*
X828177Y298054D02*
X828177Y298054D01*
X828460Y299110D01*
X829118Y300251D01*
X830049Y301182D01*
X831190Y301840D01*
X832246Y302123D01*
X832246Y298054D01*
X828177Y298054D01*
G37*
%LPD*%
%LPC*%
G36*
X367768Y300116D02*
X367768Y300116D01*
X371837Y300116D01*
X371554Y299060D01*
X370896Y297919D01*
X369965Y296988D01*
X368824Y296330D01*
X367768Y296047D01*
X367768Y300116D01*
G37*
%LPD*%
%LPC*%
G36*
X399518Y297576D02*
X399518Y297576D01*
X403587Y297576D01*
X403304Y296520D01*
X402646Y295379D01*
X401715Y294448D01*
X400574Y293790D01*
X399518Y293507D01*
X399518Y297576D01*
G37*
%LPD*%
%LPC*%
G36*
X503057Y292974D02*
X503057Y292974D01*
X503340Y294030D01*
X503998Y295171D01*
X504929Y296102D01*
X506070Y296760D01*
X507126Y297043D01*
X507126Y292974D01*
X503057Y292974D01*
G37*
%LPD*%
%LPC*%
G36*
X833994Y296306D02*
X833994Y296306D01*
X838063Y296306D01*
X837780Y295250D01*
X837122Y294109D01*
X836191Y293178D01*
X835050Y292520D01*
X833994Y292237D01*
X833994Y296306D01*
G37*
%LPD*%
%LPC*%
G36*
X508874Y291226D02*
X508874Y291226D01*
X512943Y291226D01*
X512660Y290170D01*
X512002Y289029D01*
X511071Y288098D01*
X509930Y287440D01*
X508874Y287157D01*
X508874Y291226D01*
G37*
%LPD*%
%LPC*%
G36*
X363357Y281544D02*
X363357Y281544D01*
X363640Y282600D01*
X364298Y283741D01*
X365229Y284672D01*
X366370Y285330D01*
X367426Y285613D01*
X367426Y281544D01*
X363357Y281544D01*
G37*
%LPD*%
%LPC*%
G36*
X553857Y280274D02*
X553857Y280274D01*
X554140Y281330D01*
X554798Y282471D01*
X555729Y283402D01*
X556870Y284060D01*
X557926Y284343D01*
X557926Y280274D01*
X553857Y280274D01*
G37*
%LPD*%
%LPC*%
G36*
X420507Y280274D02*
X420507Y280274D01*
X420790Y281330D01*
X421448Y282471D01*
X422379Y283402D01*
X423520Y284060D01*
X424576Y284343D01*
X424576Y280274D01*
X420507Y280274D01*
G37*
%LPD*%
%LPC*%
G36*
X393837Y280274D02*
X393837Y280274D01*
X394120Y281330D01*
X394778Y282471D01*
X395709Y283402D01*
X396850Y284060D01*
X397906Y284343D01*
X397906Y280274D01*
X393837Y280274D01*
G37*
%LPD*%
%LPC*%
G36*
X344307Y277734D02*
X344307Y277734D01*
X344590Y278790D01*
X345248Y279931D01*
X346179Y280862D01*
X347320Y281520D01*
X348376Y281803D01*
X348376Y277734D01*
X344307Y277734D01*
G37*
%LPD*%
%LPC*%
G36*
X369174Y279796D02*
X369174Y279796D01*
X373243Y279796D01*
X372960Y278740D01*
X372302Y277599D01*
X371371Y276668D01*
X370230Y276010D01*
X369174Y275727D01*
X369174Y279796D01*
G37*
%LPD*%
%LPC*%
G36*
X217307Y144384D02*
X217307Y144384D01*
X217590Y145440D01*
X218248Y146581D01*
X219179Y147512D01*
X220320Y148170D01*
X221376Y148453D01*
X221376Y144384D01*
X217307Y144384D01*
G37*
%LPD*%
%LPC*%
G36*
X618759Y75326D02*
X618759Y75326D01*
X622828Y75326D01*
X622718Y74915D01*
X622545Y74270D01*
X621887Y73130D01*
X620956Y72198D01*
X619815Y71540D01*
X618759Y71257D01*
X618759Y75326D01*
G37*
%LPD*%
%LPC*%
G36*
X997824Y75326D02*
X997824Y75326D01*
X1001893Y75326D01*
X1001783Y74915D01*
X1001610Y74270D01*
X1000952Y73130D01*
X1000020Y72198D01*
X998880Y71540D01*
X997824Y71257D01*
X997824Y75326D01*
G37*
%LPD*%
%LPC*%
G36*
X972424Y75326D02*
X972424Y75326D01*
X976493Y75326D01*
X976383Y74915D01*
X976210Y74270D01*
X975552Y73130D01*
X974620Y72198D01*
X973480Y71540D01*
X972424Y71257D01*
X972424Y75326D01*
G37*
%LPD*%
%LPC*%
G36*
X603387Y57304D02*
X603387Y57304D01*
X603585Y58043D01*
X603670Y58360D01*
X604328Y59500D01*
X605260Y60431D01*
X606400Y61090D01*
X607456Y61373D01*
X607456Y57304D01*
X603387Y57304D01*
G37*
%LPD*%
%LPC*%
G36*
X600847Y113904D02*
X600847Y113904D01*
X600936Y114237D01*
X601130Y114960D01*
X601788Y116100D01*
X602720Y117032D01*
X603860Y117690D01*
X604916Y117973D01*
X604916Y113904D01*
X600847Y113904D01*
G37*
%LPD*%
%LPC*%
G36*
X934324Y49926D02*
X934324Y49926D01*
X938393Y49926D01*
X938263Y49441D01*
X938110Y48870D01*
X937452Y47730D01*
X936520Y46798D01*
X935380Y46140D01*
X934324Y45857D01*
X934324Y49926D01*
G37*
%LPD*%
%LPC*%
G36*
X612942Y77074D02*
X612942Y77074D01*
X613225Y78130D01*
X613883Y79270D01*
X614815Y80202D01*
X615955Y80860D01*
X617011Y81143D01*
X617011Y77074D01*
X612942Y77074D01*
G37*
%LPD*%
%LPC*%
G36*
X992007Y77074D02*
X992007Y77074D01*
X992290Y78130D01*
X992948Y79270D01*
X993880Y80202D01*
X995020Y80860D01*
X996076Y81143D01*
X996076Y77074D01*
X992007Y77074D01*
G37*
%LPD*%
%LPC*%
G36*
X928507Y51674D02*
X928507Y51674D01*
X928790Y52730D01*
X929448Y53870D01*
X930380Y54802D01*
X931520Y55460D01*
X932576Y55743D01*
X932576Y51674D01*
X928507Y51674D01*
G37*
%LPD*%
%LPC*%
G36*
X606664Y112156D02*
X606664Y112156D01*
X610733Y112156D01*
X610592Y111629D01*
X610592Y111628D01*
X610450Y111100D01*
X609792Y109960D01*
X608860Y109028D01*
X607720Y108370D01*
X606664Y108087D01*
X606664Y112156D01*
G37*
%LPD*%
%LPC*%
G36*
X609204Y55555D02*
X609204Y55555D01*
X613273Y55555D01*
X613241Y55435D01*
X613040Y54686D01*
X613040Y54685D01*
X612990Y54499D01*
X612332Y53359D01*
X611400Y52428D01*
X610260Y51770D01*
X609204Y51487D01*
X609204Y55555D01*
G37*
%LPD*%
%LPC*%
G36*
X277337Y185840D02*
X277337Y185840D01*
X276196Y186498D01*
X275265Y187429D01*
X274607Y188570D01*
X274324Y189626D01*
X278393Y189626D01*
X278393Y185557D01*
X277337Y185840D01*
G37*
%LPD*%
%LPC*%
G36*
X106020Y306490D02*
X106020Y306490D01*
X104879Y307148D01*
X103948Y308079D01*
X103290Y309220D01*
X103007Y310276D01*
X107076Y310276D01*
X107076Y306207D01*
X106020Y306490D01*
G37*
%LPD*%
%LPC*%
G36*
X344780Y123610D02*
X344780Y123610D01*
X343639Y124268D01*
X342708Y125199D01*
X342050Y126340D01*
X341767Y127396D01*
X345836Y127396D01*
X345836Y123327D01*
X344780Y123610D01*
G37*
%LPD*%
%LPC*%
G36*
X150470Y185840D02*
X150470Y185840D01*
X149329Y186498D01*
X148398Y187429D01*
X147740Y188570D01*
X147457Y189626D01*
X151526Y189626D01*
X151526Y185557D01*
X150470Y185840D01*
G37*
%LPD*%
%LPC*%
G36*
X23470Y490640D02*
X23470Y490640D01*
X22329Y491298D01*
X21398Y492229D01*
X20740Y493370D01*
X20457Y494426D01*
X24526Y494426D01*
X24526Y490357D01*
X23470Y490640D01*
G37*
%LPD*%
%LPC*%
G36*
X93320Y490640D02*
X93320Y490640D01*
X92179Y491298D01*
X91248Y492229D01*
X90590Y493370D01*
X90307Y494426D01*
X94376Y494426D01*
X94376Y490357D01*
X93320Y490640D01*
G37*
%LPD*%
%LPC*%
G36*
X728320Y122340D02*
X728320Y122340D01*
X727179Y122998D01*
X726248Y123929D01*
X725590Y125070D01*
X725307Y126126D01*
X729376Y126126D01*
X729376Y122057D01*
X728320Y122340D01*
G37*
%LPD*%
%LPC*%
G36*
X409106Y312837D02*
X409106Y312837D01*
X407965Y313496D01*
X407034Y314427D01*
X406376Y315567D01*
X406093Y316623D01*
X410162Y316623D01*
X410162Y312555D01*
X409106Y312837D01*
G37*
%LPD*%
%LPC*%
G36*
X560680Y119800D02*
X560680Y119800D01*
X559539Y120458D01*
X558608Y121389D01*
X557950Y122530D01*
X557667Y123586D01*
X561736Y123586D01*
X561736Y119517D01*
X560680Y119800D01*
G37*
%LPD*%
%LPC*%
G36*
X23470Y312840D02*
X23470Y312840D01*
X22329Y313498D01*
X21398Y314429D01*
X20740Y315570D01*
X20457Y316626D01*
X24526Y316626D01*
X24526Y312557D01*
X23470Y312840D01*
G37*
%LPD*%
%LPC*%
G36*
X625450Y319190D02*
X625450Y319190D01*
X624309Y319848D01*
X623378Y320779D01*
X622720Y321920D01*
X622437Y322976D01*
X626506Y322976D01*
X626506Y318907D01*
X625450Y319190D01*
G37*
%LPD*%
%LPC*%
G36*
X680060Y239180D02*
X680060Y239180D01*
X678919Y239838D01*
X677988Y240769D01*
X677330Y241910D01*
X677047Y242966D01*
X681116Y242966D01*
X681116Y238897D01*
X680060Y239180D01*
G37*
%LPD*%
%LPC*%
G36*
X918820Y166790D02*
X918820Y166790D01*
X917679Y167448D01*
X916748Y168379D01*
X916090Y169520D01*
X915807Y170576D01*
X919876Y170576D01*
X919876Y166507D01*
X918820Y166790D01*
G37*
%LPD*%
%LPC*%
G36*
X638246Y269564D02*
X638246Y269564D01*
X637106Y270222D01*
X636175Y271153D01*
X635517Y272293D01*
X635234Y273349D01*
X639302Y273349D01*
X639302Y269281D01*
X638246Y269564D01*
G37*
%LPD*%
%LPC*%
G36*
X866252Y329350D02*
X866252Y329350D01*
X865111Y330008D01*
X864180Y330939D01*
X863522Y332080D01*
X863239Y333136D01*
X867308Y333136D01*
X867308Y329067D01*
X866252Y329350D01*
G37*
%LPD*%
%LPC*%
G36*
X423520Y344590D02*
X423520Y344590D01*
X422379Y345248D01*
X421448Y346179D01*
X420790Y347320D01*
X420507Y348376D01*
X424576Y348376D01*
X424576Y344307D01*
X423520Y344590D01*
G37*
%LPD*%
%LPC*%
G36*
X93320Y109640D02*
X93320Y109640D01*
X92179Y110298D01*
X91248Y111229D01*
X90590Y112370D01*
X90307Y113426D01*
X94376Y113426D01*
X94376Y109357D01*
X93320Y109640D01*
G37*
%LPD*%
%LPC*%
G36*
X321920Y344590D02*
X321920Y344590D01*
X320779Y345248D01*
X319848Y346179D01*
X319190Y347320D01*
X318907Y348376D01*
X322976Y348376D01*
X322976Y344307D01*
X321920Y344590D01*
G37*
%LPD*%
%LPC*%
G36*
X893420Y109640D02*
X893420Y109640D01*
X892279Y110298D01*
X891348Y111229D01*
X890690Y112370D01*
X890407Y113426D01*
X894476Y113426D01*
X894476Y109357D01*
X893420Y109640D01*
G37*
%LPD*%
%LPC*%
G36*
X474320Y109640D02*
X474320Y109640D01*
X473179Y110298D01*
X472248Y111229D01*
X471590Y112370D01*
X471307Y113426D01*
X475376Y113426D01*
X475376Y109357D01*
X474320Y109640D01*
G37*
%LPD*%
%LPC*%
G36*
X404470Y344590D02*
X404470Y344590D01*
X403329Y345248D01*
X402398Y346179D01*
X401740Y347320D01*
X401457Y348376D01*
X405526Y348376D01*
X405526Y344307D01*
X404470Y344590D01*
G37*
%LPD*%
%LPC*%
G36*
X776580Y268390D02*
X776580Y268390D01*
X775439Y269048D01*
X774508Y269979D01*
X773850Y271120D01*
X773567Y272176D01*
X777636Y272176D01*
X777636Y268107D01*
X776580Y268390D01*
G37*
%LPD*%
%LPC*%
G36*
X578460Y164250D02*
X578460Y164250D01*
X577319Y164908D01*
X576388Y165839D01*
X575730Y166980D01*
X575447Y168036D01*
X579516Y168036D01*
X579516Y163967D01*
X578460Y164250D01*
G37*
%LPD*%
%LPC*%
G36*
X350960Y345860D02*
X350960Y345860D01*
X349819Y346518D01*
X348888Y347449D01*
X348230Y348590D01*
X347947Y349646D01*
X352016Y349646D01*
X352016Y345577D01*
X350960Y345860D01*
G37*
%LPD*%
%LPC*%
G36*
X334620Y160440D02*
X334620Y160440D01*
X333479Y161098D01*
X332548Y162029D01*
X331890Y163170D01*
X331607Y164226D01*
X335676Y164226D01*
X335676Y160157D01*
X334620Y160440D01*
G37*
%LPD*%
%LPC*%
G36*
X131420Y262040D02*
X131420Y262040D01*
X130279Y262698D01*
X129348Y263629D01*
X128690Y264770D01*
X128407Y265826D01*
X132476Y265826D01*
X132476Y261757D01*
X131420Y262040D01*
G37*
%LPD*%
%LPC*%
G36*
X353670Y160440D02*
X353670Y160440D01*
X352529Y161098D01*
X351598Y162029D01*
X350940Y163170D01*
X350657Y164226D01*
X354726Y164226D01*
X354726Y160157D01*
X353670Y160440D01*
G37*
%LPD*%
%LPC*%
G36*
X429870Y96940D02*
X429870Y96940D01*
X428729Y97598D01*
X427798Y98529D01*
X427140Y99670D01*
X426857Y100726D01*
X430926Y100726D01*
X430926Y96657D01*
X429870Y96940D01*
G37*
%LPD*%
%LPC*%
G36*
X776580Y310300D02*
X776580Y310300D01*
X775439Y310958D01*
X774508Y311889D01*
X773850Y313030D01*
X773567Y314086D01*
X777636Y314086D01*
X777636Y310017D01*
X776580Y310300D01*
G37*
%LPD*%
%LPC*%
G36*
X205715Y347765D02*
X205715Y347765D01*
X204574Y348423D01*
X203643Y349354D01*
X202985Y350495D01*
X202702Y351551D01*
X206771Y351551D01*
X206771Y347482D01*
X205715Y347765D01*
G37*
%LPD*%
%LPC*%
G36*
X461620Y160440D02*
X461620Y160440D01*
X460479Y161098D01*
X459548Y162029D01*
X458890Y163170D01*
X458607Y164226D01*
X462676Y164226D01*
X462676Y160157D01*
X461620Y160440D01*
G37*
%LPD*%
%LPC*%
G36*
X321920Y90590D02*
X321920Y90590D01*
X320779Y91248D01*
X319848Y92179D01*
X319190Y93320D01*
X318907Y94376D01*
X322976Y94376D01*
X322976Y90307D01*
X321920Y90590D01*
G37*
%LPD*%
%LPC*%
G36*
X366370Y276010D02*
X366370Y276010D01*
X365229Y276668D01*
X364298Y277599D01*
X363640Y278740D01*
X363357Y279796D01*
X367426Y279796D01*
X367426Y275727D01*
X366370Y276010D01*
G37*
%LPD*%
%LPC*%
G36*
X440030Y227750D02*
X440030Y227750D01*
X438889Y228408D01*
X437958Y229339D01*
X437300Y230480D01*
X437017Y231536D01*
X441086Y231536D01*
X441086Y227467D01*
X440030Y227750D01*
G37*
%LPD*%
%LPC*%
G36*
X408280Y273470D02*
X408280Y273470D01*
X407139Y274128D01*
X406208Y275059D01*
X405550Y276200D01*
X405267Y277256D01*
X409336Y277256D01*
X409336Y273187D01*
X408280Y273470D01*
G37*
%LPD*%
%LPC*%
G36*
X506070Y287440D02*
X506070Y287440D01*
X504929Y288098D01*
X503998Y289029D01*
X503340Y290170D01*
X503057Y291226D01*
X507126Y291226D01*
X507126Y287157D01*
X506070Y287440D01*
G37*
%LPD*%
%LPC*%
G36*
X410820Y154090D02*
X410820Y154090D01*
X409679Y154748D01*
X408748Y155679D01*
X408090Y156820D01*
X407807Y157876D01*
X411876Y157876D01*
X411876Y153807D01*
X410820Y154090D01*
G37*
%LPD*%
%LPC*%
G36*
X291338Y80430D02*
X291338Y80430D01*
X290197Y81088D01*
X289266Y82019D01*
X288608Y83160D01*
X288325Y84216D01*
X292394Y84216D01*
X292394Y80147D01*
X291338Y80430D01*
G37*
%LPD*%
%LPC*%
G36*
X782930Y366180D02*
X782930Y366180D01*
X781789Y366838D01*
X780858Y367769D01*
X780200Y368910D01*
X779917Y369966D01*
X783986Y369966D01*
X783986Y365897D01*
X782930Y366180D01*
G37*
%LPD*%
%LPC*%
G36*
X831190Y292520D02*
X831190Y292520D01*
X830049Y293178D01*
X829118Y294109D01*
X828460Y295250D01*
X828177Y296306D01*
X832246Y296306D01*
X832246Y292237D01*
X831190Y292520D01*
G37*
%LPD*%
%LPC*%
G36*
X359184Y224776D02*
X359184Y224776D01*
X358043Y225435D01*
X357112Y226366D01*
X356454Y227506D01*
X356171Y228562D01*
X360239Y228562D01*
X360239Y224493D01*
X359184Y224776D01*
G37*
%LPD*%
%LPC*%
G36*
X396714Y293790D02*
X396714Y293790D01*
X395573Y294448D01*
X394642Y295379D01*
X393984Y296520D01*
X393701Y297576D01*
X397770Y297576D01*
X397770Y293507D01*
X396714Y293790D01*
G37*
%LPD*%
%LPC*%
G36*
X861670Y427140D02*
X861670Y427140D01*
X860529Y427798D01*
X859598Y428729D01*
X858940Y429870D01*
X858657Y430926D01*
X862726Y430926D01*
X862726Y426857D01*
X861670Y427140D01*
G37*
%LPD*%
%LPC*%
G36*
X899770Y300140D02*
X899770Y300140D01*
X898629Y300798D01*
X897698Y301729D01*
X897040Y302870D01*
X896757Y303926D01*
X900826Y303926D01*
X900826Y299857D01*
X899770Y300140D01*
G37*
%LPD*%
%LPC*%
G36*
X112370Y223940D02*
X112370Y223940D01*
X111229Y224598D01*
X110298Y225529D01*
X109640Y226670D01*
X109357Y227726D01*
X113426Y227726D01*
X113426Y223657D01*
X112370Y223940D01*
G37*
%LPD*%
%LPC*%
G36*
X404588Y367450D02*
X404588Y367450D01*
X403447Y368108D01*
X402516Y369039D01*
X401858Y370180D01*
X401575Y371236D01*
X405644Y371236D01*
X405644Y367167D01*
X404588Y367450D01*
G37*
%LPD*%
%LPC*%
G36*
X203810Y263310D02*
X203810Y263310D01*
X202669Y263968D01*
X201738Y264899D01*
X201080Y266040D01*
X200797Y267096D01*
X204866Y267096D01*
X204866Y263027D01*
X203810Y263310D01*
G37*
%LPD*%
%LPC*%
G36*
X594970Y372035D02*
X594970Y372035D01*
X593829Y372693D01*
X592898Y373624D01*
X592240Y374764D01*
X591957Y375820D01*
X596026Y375820D01*
X596026Y371752D01*
X594970Y372035D01*
G37*
%LPD*%
%LPC*%
G36*
X575920Y372530D02*
X575920Y372530D01*
X574779Y373188D01*
X573848Y374119D01*
X573190Y375260D01*
X572907Y376316D01*
X576976Y376316D01*
X576976Y372247D01*
X575920Y372530D01*
G37*
%LPD*%
%LPC*%
G36*
X150470Y300140D02*
X150470Y300140D01*
X149329Y300798D01*
X148398Y301729D01*
X147740Y302870D01*
X147457Y303926D01*
X151526Y303926D01*
X151526Y299857D01*
X150470Y300140D01*
G37*
%LPD*%
%LPC*%
G36*
X22200Y187110D02*
X22200Y187110D01*
X21059Y187768D01*
X20128Y188699D01*
X19470Y189840D01*
X19187Y190896D01*
X23256Y190896D01*
X23256Y186827D01*
X22200Y187110D01*
G37*
%LPD*%
%LPC*%
G36*
X614020Y376340D02*
X614020Y376340D01*
X612879Y376998D01*
X611948Y377929D01*
X611290Y379070D01*
X611007Y380126D01*
X615076Y380126D01*
X615076Y376057D01*
X614020Y376340D01*
G37*
%LPD*%
%LPC*%
G36*
X203810Y305220D02*
X203810Y305220D01*
X202669Y305878D01*
X201738Y306809D01*
X201080Y307950D01*
X200797Y309006D01*
X204866Y309006D01*
X204866Y304937D01*
X203810Y305220D01*
G37*
%LPD*%
%LPC*%
G36*
X118720Y376340D02*
X118720Y376340D01*
X117579Y376998D01*
X116648Y377929D01*
X115990Y379070D01*
X115707Y380126D01*
X119776Y380126D01*
X119776Y376057D01*
X118720Y376340D01*
G37*
%LPD*%
%LPC*%
G36*
X527660Y379252D02*
X527660Y379252D01*
X526519Y379910D01*
X525588Y380841D01*
X524930Y381982D01*
X524647Y383038D01*
X528716Y383038D01*
X528716Y378969D01*
X527660Y379252D01*
G37*
%LPD*%
%LPC*%
G36*
X364964Y296330D02*
X364964Y296330D01*
X363823Y296988D01*
X362892Y297919D01*
X362234Y299060D01*
X361951Y300116D01*
X366020Y300116D01*
X366020Y296047D01*
X364964Y296330D01*
G37*
%LPD*%
%LPC*%
G36*
X205080Y220130D02*
X205080Y220130D01*
X203939Y220788D01*
X203008Y221719D01*
X202350Y222860D01*
X202067Y223916D01*
X206136Y223916D01*
X206136Y219847D01*
X205080Y220130D01*
G37*
%LPD*%
%LPC*%
G36*
X347320Y272200D02*
X347320Y272200D01*
X346179Y272858D01*
X345248Y273789D01*
X344590Y274930D01*
X344307Y275986D01*
X348376Y275986D01*
X348376Y271917D01*
X347320Y272200D01*
G37*
%LPD*%
%LPC*%
G36*
X396850Y274740D02*
X396850Y274740D01*
X395709Y275398D01*
X394778Y276329D01*
X394120Y277470D01*
X393837Y278526D01*
X397906Y278526D01*
X397906Y274457D01*
X396850Y274740D01*
G37*
%LPD*%
%LPC*%
G36*
X452730Y380776D02*
X452730Y380776D01*
X451589Y381434D01*
X450658Y382365D01*
X450000Y383506D01*
X449717Y384562D01*
X453786Y384562D01*
X453786Y380493D01*
X452730Y380776D01*
G37*
%LPD*%
%LPC*%
G36*
X112370Y141390D02*
X112370Y141390D01*
X111229Y142048D01*
X110298Y142979D01*
X109640Y144120D01*
X109357Y145176D01*
X113426Y145176D01*
X113426Y141107D01*
X112370Y141390D01*
G37*
%LPD*%
%LPC*%
G36*
X899770Y401740D02*
X899770Y401740D01*
X898629Y402398D01*
X897698Y403329D01*
X897040Y404470D01*
X896757Y405526D01*
X900826Y405526D01*
X900826Y401457D01*
X899770Y401740D01*
G37*
%LPD*%
%LPC*%
G36*
X556870Y274740D02*
X556870Y274740D01*
X555729Y275398D01*
X554798Y276329D01*
X554140Y277470D01*
X553857Y278526D01*
X557926Y278526D01*
X557926Y274457D01*
X556870Y274740D01*
G37*
%LPD*%
%LPC*%
G36*
X423520Y211240D02*
X423520Y211240D01*
X422379Y211898D01*
X421448Y212829D01*
X420790Y213970D01*
X420507Y215026D01*
X424576Y215026D01*
X424576Y210957D01*
X423520Y211240D01*
G37*
%LPD*%
%LPC*%
G36*
X595565Y411598D02*
X595565Y411598D01*
X594425Y412256D01*
X593494Y413187D01*
X592836Y414327D01*
X592553Y415383D01*
X596621Y415383D01*
X596621Y411315D01*
X595565Y411598D01*
G37*
%LPD*%
%LPC*%
G36*
X575920Y411900D02*
X575920Y411900D01*
X574779Y412558D01*
X573848Y413489D01*
X573190Y414630D01*
X572907Y415686D01*
X576976Y415686D01*
X576976Y411617D01*
X575920Y411900D01*
G37*
%LPD*%
%LPC*%
G36*
X220320Y138850D02*
X220320Y138850D01*
X219179Y139508D01*
X218248Y140439D01*
X217590Y141580D01*
X217307Y142636D01*
X221376Y142636D01*
X221376Y138567D01*
X220320Y138850D01*
G37*
%LPD*%
%LPC*%
G36*
X391770Y414440D02*
X391770Y414440D01*
X390629Y415098D01*
X389698Y416029D01*
X389040Y417170D01*
X388757Y418226D01*
X392826Y418226D01*
X392826Y414157D01*
X391770Y414440D01*
G37*
%LPD*%
%LPC*%
G36*
X782930Y425870D02*
X782930Y425870D01*
X781789Y426528D01*
X780858Y427459D01*
X780200Y428600D01*
X779917Y429656D01*
X783986Y429656D01*
X783986Y425587D01*
X782930Y425870D01*
G37*
%LPD*%
%LPC*%
G36*
X478130Y420790D02*
X478130Y420790D01*
X476989Y421448D01*
X476058Y422379D01*
X475400Y423520D01*
X475117Y424576D01*
X479186Y424576D01*
X479186Y420507D01*
X478130Y420790D01*
G37*
%LPD*%
%LPC*%
G36*
X347710Y251880D02*
X347710Y251880D01*
X346569Y252538D01*
X345638Y253469D01*
X344980Y254610D01*
X344697Y255666D01*
X348766Y255666D01*
X348766Y251597D01*
X347710Y251880D01*
G37*
%LPD*%
%LPC*%
G36*
X639420Y420790D02*
X639420Y420790D01*
X638279Y421448D01*
X637348Y422379D01*
X636690Y423520D01*
X636407Y424576D01*
X640476Y424576D01*
X640476Y420507D01*
X639420Y420790D01*
G37*
%LPD*%
%LPC*%
G36*
X528930Y421162D02*
X528930Y421162D01*
X527789Y421820D01*
X526858Y422751D01*
X526200Y423892D01*
X525917Y424948D01*
X529986Y424948D01*
X529986Y420879D01*
X528930Y421162D01*
G37*
%LPD*%
%LPC*%
G36*
X296520Y135040D02*
X296520Y135040D01*
X295379Y135698D01*
X294448Y136629D01*
X293790Y137770D01*
X293507Y138826D01*
X297576Y138826D01*
X297576Y134757D01*
X296520Y135040D01*
G37*
%LPD*%
%LPC*%
G36*
X474320Y246800D02*
X474320Y246800D01*
X473179Y247458D01*
X472248Y248389D01*
X471590Y249530D01*
X471307Y250586D01*
X475376Y250586D01*
X475376Y246517D01*
X474320Y246800D01*
G37*
%LPD*%
%LPC*%
G36*
X207620Y193460D02*
X207620Y193460D01*
X206479Y194118D01*
X205548Y195049D01*
X204890Y196190D01*
X204607Y197246D01*
X208676Y197246D01*
X208676Y193177D01*
X207620Y193460D01*
G37*
%LPD*%
%LPC*%
G36*
X617830Y421162D02*
X617830Y421162D01*
X616689Y421820D01*
X615758Y422751D01*
X615100Y423892D01*
X614817Y424948D01*
X618886Y424948D01*
X618886Y420879D01*
X617830Y421162D01*
G37*
%LPD*%
%LPC*%
G36*
X423520Y274740D02*
X423520Y274740D01*
X422379Y275398D01*
X421448Y276329D01*
X420790Y277470D01*
X420507Y278526D01*
X424576Y278526D01*
X424576Y274457D01*
X423520Y274740D01*
G37*
%LPD*%
%LPC*%
G36*
X995020Y71540D02*
X995020Y71540D01*
X993880Y72198D01*
X992948Y73130D01*
X992290Y74270D01*
X992007Y75326D01*
X996076Y75326D01*
X996076Y71257D01*
X995020Y71540D01*
G37*
%LPD*%
%LPC*%
G36*
X931520Y46140D02*
X931520Y46140D01*
X930380Y46798D01*
X929448Y47730D01*
X928790Y48870D01*
X928507Y49926D01*
X932576Y49926D01*
X932576Y45857D01*
X931520Y46140D01*
G37*
%LPD*%
%LPC*%
G36*
X969620Y71540D02*
X969620Y71540D01*
X968480Y72198D01*
X967548Y73130D01*
X966890Y74270D01*
X966607Y75326D01*
X970676Y75326D01*
X970676Y71257D01*
X969620Y71540D01*
G37*
%LPD*%
%LPC*%
G36*
X603860Y108370D02*
X603860Y108370D01*
X602720Y109028D01*
X601788Y109960D01*
X601130Y111100D01*
X600847Y112156D01*
X604916Y112156D01*
X604916Y108087D01*
X603860Y108370D01*
G37*
%LPD*%
%LPC*%
G36*
X615955Y71540D02*
X615955Y71540D01*
X614815Y72198D01*
X613883Y73130D01*
X613225Y74270D01*
X612942Y75326D01*
X617011Y75326D01*
X617011Y71257D01*
X615955Y71540D01*
G37*
%LPD*%
%LPC*%
G36*
X606400Y51770D02*
X606400Y51770D01*
X605260Y52428D01*
X604328Y53359D01*
X603670Y54499D01*
X603387Y55555D01*
X607456Y55555D01*
X607456Y51487D01*
X606400Y51770D01*
G37*
%LPD*%
%LPC*%
G36*
X385317Y91947D02*
X385317Y91947D01*
X385317Y91949D01*
X385319Y91949D01*
X385319Y91947D01*
X385317Y91947D01*
G37*
%LPD*%
%LPC*%
G36*
X431799Y25399D02*
X431799Y25399D01*
X431799Y25401D01*
X431801Y25401D01*
X431801Y25399D01*
X431799Y25399D01*
G37*
%LPD*%
%LPC*%
G36*
X406399Y25399D02*
X406399Y25399D01*
X406399Y25401D01*
X406401Y25401D01*
X406401Y25399D01*
X406399Y25399D01*
G37*
%LPD*%
%LPC*%
G36*
X720163Y140378D02*
X720163Y140378D01*
X720163Y140379D01*
X720165Y140379D01*
X720165Y140378D01*
X720163Y140378D01*
G37*
%LPD*%
D10*
X16002Y33535D02*
X16002Y24892D01*
X21764Y24892D01*
X26798Y30654D02*
X29679Y30654D01*
X31119Y29214D01*
X31119Y24892D01*
X26798Y24892D01*
X25357Y26333D01*
X26798Y27773D01*
X31119Y27773D01*
X34712Y26333D02*
X34712Y30654D01*
X34712Y26333D02*
X36153Y24892D01*
X40475Y24892D01*
X40475Y23451D02*
X40475Y30654D01*
X40475Y23451D02*
X39034Y22011D01*
X37594Y22011D01*
X45508Y24892D02*
X48389Y24892D01*
X45508Y24892D02*
X44068Y26333D01*
X44068Y29214D01*
X45508Y30654D01*
X48389Y30654D01*
X49830Y29214D01*
X49830Y27773D01*
X44068Y27773D01*
X53423Y24892D02*
X53423Y30654D01*
X53423Y27773D02*
X56304Y30654D01*
X57744Y30654D01*
X70574Y24892D02*
X76336Y24892D01*
X70574Y24892D02*
X76336Y30654D01*
X76336Y32095D01*
X74896Y33535D01*
X72014Y33535D01*
X70574Y32095D01*
X21764Y16855D02*
X20324Y18295D01*
X17443Y18295D01*
X16002Y16855D01*
X16002Y11093D01*
X17443Y9652D01*
X20324Y9652D01*
X21764Y11093D01*
X21764Y13974D01*
X18883Y13974D01*
X25357Y18295D02*
X25357Y9652D01*
X31119Y9652D02*
X25357Y18295D01*
X31119Y18295D02*
X31119Y9652D01*
X34712Y9652D02*
X34712Y18295D01*
X34712Y9652D02*
X39034Y9652D01*
X40475Y11093D01*
X40475Y16855D01*
X39034Y18295D01*
X34712Y18295D01*
X62778Y12533D02*
X65659Y9652D01*
X62778Y12533D02*
X62778Y15414D01*
X65659Y18295D01*
X69015Y13974D02*
X74777Y13974D01*
X78370Y9652D02*
X81251Y12533D01*
X81251Y15414D01*
X78370Y18295D01*
D11*
X457200Y508000D03*
X482600Y508000D03*
X508000Y508000D03*
X533400Y508000D03*
X558800Y508000D03*
X584200Y508000D03*
X609600Y508000D03*
X635000Y508000D03*
X685800Y508000D03*
X711200Y508000D03*
X736600Y508000D03*
X762000Y508000D03*
X787400Y508000D03*
X812800Y508000D03*
X838200Y508000D03*
X863600Y508000D03*
X736600Y25400D03*
X762000Y25400D03*
X787400Y25400D03*
X812800Y25400D03*
X838200Y25400D03*
X863600Y25400D03*
X889000Y25400D03*
X914400Y25400D03*
X508000Y25400D03*
X533400Y25400D03*
X558800Y25400D03*
X584200Y25400D03*
X609600Y25400D03*
X635000Y25400D03*
X660400Y25400D03*
X685800Y25400D03*
X187960Y508000D03*
X213360Y508000D03*
X238760Y508000D03*
X264160Y508000D03*
X289560Y508000D03*
X314960Y508000D03*
X340360Y508000D03*
X365760Y508000D03*
X391160Y508000D03*
X416560Y508000D03*
X279400Y25400D03*
X304800Y25400D03*
X330200Y25400D03*
X355600Y25400D03*
X381000Y25400D03*
X406400Y25400D03*
X431800Y25400D03*
X457200Y25400D03*
X385318Y117928D03*
X385318Y91948D03*
X385318Y143909D03*
D12*
X618564Y140379D03*
X643964Y140379D03*
X720164Y140379D03*
X745564Y140379D03*
X770964Y140379D03*
D13*
X69850Y120650D03*
X93850Y140650D03*
X130850Y120650D03*
X148850Y140650D03*
X185850Y120650D03*
X69850Y215900D03*
X93850Y235900D03*
X130850Y215900D03*
X148850Y235900D03*
X185850Y215900D03*
X69850Y311150D03*
X93850Y331150D03*
X130850Y311150D03*
X148850Y331150D03*
X185850Y311150D03*
X69850Y406400D03*
X93850Y426400D03*
X130850Y406400D03*
X148850Y426400D03*
X185850Y406400D03*
X946150Y425450D03*
X922150Y405450D03*
X885150Y425450D03*
X867150Y405450D03*
X830150Y425450D03*
X946150Y330200D03*
X922150Y310200D03*
X885150Y330200D03*
X867150Y310200D03*
X830150Y330200D03*
X946150Y234950D03*
X922150Y214950D03*
X885150Y234950D03*
X867150Y214950D03*
X830150Y234950D03*
X946150Y139700D03*
X922150Y119700D03*
X885150Y139700D03*
X867150Y119700D03*
X830150Y139700D03*
D14*
X351168Y204470D03*
X368756Y206811D03*
X391160Y321310D03*
X370840Y321310D03*
X346710Y144780D03*
X368420Y232737D03*
X431800Y368300D03*
X346710Y194041D03*
X381644Y298450D03*
X349894Y299720D03*
X366640Y256540D03*
X324925Y121725D03*
X441960Y320040D03*
X417830Y321310D03*
X571500Y146050D03*
X491490Y148590D03*
X476250Y342900D03*
X425450Y361950D03*
X497840Y138102D03*
X457200Y408060D03*
X483180Y414710D03*
X428625Y403225D03*
X552450Y342646D03*
X571500Y222250D03*
X501650Y342900D03*
X574829Y333529D03*
X200660Y461010D03*
X95250Y495300D03*
X207645Y352425D03*
X205740Y309880D03*
X205740Y267970D03*
X209550Y198120D03*
X279267Y190500D03*
X336550Y165100D03*
X355600Y165100D03*
X360668Y205267D03*
X425450Y215900D03*
X441960Y232410D03*
X425450Y279400D03*
X406400Y349250D03*
X378460Y321310D03*
X346710Y128270D03*
X323850Y95250D03*
X293268Y85090D03*
X222250Y143510D03*
X730250Y139700D03*
X730250Y127000D03*
X562610Y124460D03*
X476250Y114300D03*
X412750Y158750D03*
X25400Y495300D03*
X868182Y334010D03*
X920750Y171450D03*
X627380Y323850D03*
X508000Y292100D03*
X431800Y101600D03*
X640177Y274224D03*
X580390Y168910D03*
X361114Y229436D03*
X377190Y232410D03*
X386671Y231819D03*
X400050Y321310D03*
X411036Y317497D03*
X368300Y280670D03*
X349250Y276860D03*
X398780Y279400D03*
X366894Y300990D03*
X398644Y298450D03*
X349640Y256540D03*
X410210Y278130D03*
X425450Y349250D03*
X681990Y243840D03*
X615950Y381000D03*
X454660Y385436D03*
X529590Y383912D03*
X406518Y372110D03*
X596900Y376695D03*
X530860Y425822D03*
X597496Y416258D03*
X619760Y425822D03*
X641350Y425450D03*
X577850Y377190D03*
X577850Y416560D03*
X480060Y425450D03*
X393700Y419100D03*
X778510Y273050D03*
X778510Y314960D03*
X784860Y370840D03*
X784860Y430530D03*
X25400Y317500D03*
X24130Y191770D03*
X298450Y139700D03*
X463550Y165100D03*
X352890Y350520D03*
X323850Y349250D03*
X120650Y381000D03*
X114300Y228600D03*
X152400Y190500D03*
X207010Y224790D03*
X114300Y146050D03*
X95250Y114300D03*
X133350Y266700D03*
X152400Y304800D03*
X107950Y311150D03*
X558800Y279400D03*
X863600Y431800D03*
X901700Y406400D03*
X901700Y304800D03*
X833120Y297180D03*
X895350Y114300D03*
X476250Y251460D03*
X450850Y177800D03*
X425987Y304263D03*
X469900Y263990D03*
X536023Y196215D03*
X463550Y243840D03*
X528523Y196850D03*
X457200Y288290D03*
X425450Y241300D03*
X209550Y450850D03*
X457200Y215900D03*
X425450Y254000D03*
X444500Y215900D03*
X472610Y234950D03*
X500074Y207963D03*
X458470Y269240D03*
X593090Y254000D03*
X457200Y308610D03*
X617885Y76200D03*
X608330Y56430D03*
X933450Y50800D03*
X996950Y76200D03*
X971550Y76200D03*
X605790Y113030D03*
X491490Y62361D03*
X548199Y112201D03*
X574021Y73660D03*
X511810Y69850D03*
X667162Y54610D03*
X525005Y42619D03*
X618902Y45720D03*
X517417Y37357D03*
M02*
