G04 EAGLE Gerber RS-274X export*
G75*
%MOMM*%
%FSLAX34Y34*%
%LPD*%
%INSilkscreen Top*%
%IPPOS*%
%AMOC8*
5,1,8,0,0,1.08239X$1,22.5*%
G01*
%ADD10C,0.101600*%
%ADD11C,0.076200*%
%ADD12C,0.152400*%
%ADD13C,0.050800*%
%ADD14C,0.177800*%
%ADD15C,0.558800*%
%ADD16C,0.203200*%
%ADD17C,0.200000*%
%ADD18C,0.250000*%
%ADD19R,0.457200X0.762000*%
%ADD20R,0.762000X0.457200*%
%ADD21C,0.400000*%
%ADD22C,0.127000*%
%ADD23C,0.060000*%
%ADD24C,0.350000*%

G36*
X317035Y401708D02*
X317035Y401708D01*
X317143Y401718D01*
X317156Y401724D01*
X317170Y401726D01*
X317267Y401774D01*
X317366Y401819D01*
X317379Y401830D01*
X317388Y401834D01*
X317403Y401850D01*
X317480Y401912D01*
X323512Y407944D01*
X323562Y408015D01*
X323567Y408020D01*
X323569Y408023D01*
X323575Y408032D01*
X323641Y408118D01*
X323646Y408131D01*
X323654Y408143D01*
X323685Y408246D01*
X323721Y408349D01*
X323721Y408363D01*
X323725Y408376D01*
X323721Y408484D01*
X323722Y408593D01*
X323717Y408606D01*
X323717Y408620D01*
X323679Y408722D01*
X323644Y408824D01*
X323635Y408839D01*
X323631Y408848D01*
X323617Y408865D01*
X323563Y408947D01*
X316709Y417353D01*
X317747Y419239D01*
X317755Y419261D01*
X317783Y419313D01*
X318800Y421769D01*
X318806Y421792D01*
X318828Y421847D01*
X319427Y423915D01*
X330217Y425012D01*
X330321Y425040D01*
X330427Y425065D01*
X330439Y425072D01*
X330452Y425075D01*
X330542Y425136D01*
X330635Y425193D01*
X330643Y425204D01*
X330655Y425212D01*
X330721Y425298D01*
X330790Y425382D01*
X330794Y425395D01*
X330803Y425406D01*
X330837Y425509D01*
X330876Y425610D01*
X330877Y425628D01*
X330881Y425637D01*
X330881Y425659D01*
X330890Y425757D01*
X330890Y434287D01*
X330873Y434394D01*
X330859Y434502D01*
X330853Y434514D01*
X330851Y434528D01*
X330799Y434624D01*
X330752Y434721D01*
X330742Y434731D01*
X330736Y434743D01*
X330656Y434817D01*
X330580Y434894D01*
X330568Y434900D01*
X330558Y434910D01*
X330459Y434955D01*
X330362Y435003D01*
X330344Y435007D01*
X330335Y435011D01*
X330314Y435013D01*
X330217Y435032D01*
X319427Y436129D01*
X318828Y438197D01*
X318817Y438218D01*
X318800Y438275D01*
X318007Y440191D01*
X317783Y440731D01*
X317770Y440751D01*
X317747Y440805D01*
X316709Y442691D01*
X323563Y451097D01*
X323617Y451191D01*
X323674Y451283D01*
X323677Y451296D01*
X323684Y451308D01*
X323705Y451415D01*
X323730Y451520D01*
X323728Y451534D01*
X323731Y451548D01*
X323716Y451655D01*
X323706Y451763D01*
X323700Y451776D01*
X323698Y451790D01*
X323650Y451887D01*
X323605Y451986D01*
X323594Y451999D01*
X323590Y452008D01*
X323574Y452023D01*
X323512Y452100D01*
X317480Y458132D01*
X317392Y458195D01*
X317306Y458261D01*
X317293Y458266D01*
X317281Y458274D01*
X317178Y458305D01*
X317075Y458341D01*
X317061Y458341D01*
X317048Y458345D01*
X316940Y458341D01*
X316831Y458342D01*
X316818Y458337D01*
X316804Y458337D01*
X316702Y458299D01*
X316600Y458264D01*
X316585Y458255D01*
X316576Y458251D01*
X316559Y458237D01*
X316477Y458183D01*
X308071Y451329D01*
X306185Y452367D01*
X306163Y452375D01*
X306111Y452403D01*
X303655Y453420D01*
X303632Y453426D01*
X303577Y453448D01*
X301509Y454047D01*
X300412Y464837D01*
X300384Y464941D01*
X300359Y465047D01*
X300352Y465059D01*
X300349Y465072D01*
X300288Y465162D01*
X300231Y465255D01*
X300220Y465263D01*
X300212Y465275D01*
X300126Y465341D01*
X300042Y465410D01*
X300029Y465414D01*
X300018Y465423D01*
X299915Y465457D01*
X299814Y465496D01*
X299796Y465497D01*
X299787Y465501D01*
X299765Y465501D01*
X299667Y465510D01*
X291137Y465510D01*
X291030Y465493D01*
X290922Y465479D01*
X290910Y465473D01*
X290896Y465471D01*
X290800Y465419D01*
X290703Y465372D01*
X290693Y465362D01*
X290681Y465356D01*
X290607Y465276D01*
X290530Y465200D01*
X290524Y465188D01*
X290514Y465178D01*
X290469Y465079D01*
X290421Y464982D01*
X290417Y464964D01*
X290413Y464955D01*
X290411Y464934D01*
X290392Y464837D01*
X289295Y454047D01*
X287227Y453448D01*
X287206Y453437D01*
X287149Y453420D01*
X284693Y452403D01*
X284673Y452390D01*
X284619Y452367D01*
X282733Y451329D01*
X274327Y458183D01*
X274233Y458237D01*
X274141Y458294D01*
X274128Y458297D01*
X274116Y458304D01*
X274009Y458325D01*
X273904Y458350D01*
X273890Y458348D01*
X273876Y458351D01*
X273769Y458336D01*
X273661Y458326D01*
X273648Y458320D01*
X273635Y458318D01*
X273537Y458270D01*
X273438Y458225D01*
X273425Y458214D01*
X273416Y458210D01*
X273401Y458194D01*
X273324Y458132D01*
X267292Y452100D01*
X267229Y452012D01*
X267163Y451926D01*
X267158Y451913D01*
X267150Y451901D01*
X267119Y451798D01*
X267083Y451695D01*
X267083Y451681D01*
X267079Y451668D01*
X267083Y451560D01*
X267082Y451451D01*
X267087Y451438D01*
X267087Y451424D01*
X267125Y451322D01*
X267160Y451220D01*
X267169Y451205D01*
X267173Y451196D01*
X267187Y451179D01*
X267241Y451097D01*
X274095Y442691D01*
X273057Y440805D01*
X273049Y440783D01*
X273021Y440731D01*
X272004Y438275D01*
X271998Y438252D01*
X271976Y438197D01*
X271377Y436129D01*
X260587Y435032D01*
X260483Y435004D01*
X260377Y434979D01*
X260365Y434972D01*
X260352Y434969D01*
X260262Y434908D01*
X260169Y434851D01*
X260161Y434840D01*
X260149Y434832D01*
X260083Y434746D01*
X260015Y434662D01*
X260010Y434649D01*
X260001Y434638D01*
X259967Y434535D01*
X259928Y434434D01*
X259927Y434416D01*
X259923Y434407D01*
X259924Y434385D01*
X259914Y434287D01*
X259914Y425757D01*
X259931Y425650D01*
X259945Y425542D01*
X259951Y425530D01*
X259953Y425516D01*
X260005Y425420D01*
X260052Y425323D01*
X260062Y425313D01*
X260068Y425301D01*
X260148Y425227D01*
X260224Y425150D01*
X260236Y425144D01*
X260247Y425134D01*
X260345Y425089D01*
X260442Y425041D01*
X260460Y425037D01*
X260469Y425033D01*
X260490Y425031D01*
X260587Y425012D01*
X271377Y423915D01*
X271976Y421847D01*
X271987Y421826D01*
X272004Y421769D01*
X272059Y421636D01*
X272990Y419389D01*
X272990Y419388D01*
X273021Y419313D01*
X273034Y419293D01*
X273057Y419239D01*
X274095Y417353D01*
X267241Y408947D01*
X267187Y408853D01*
X267130Y408761D01*
X267127Y408748D01*
X267120Y408736D01*
X267099Y408629D01*
X267074Y408524D01*
X267076Y408510D01*
X267073Y408496D01*
X267088Y408389D01*
X267098Y408281D01*
X267104Y408268D01*
X267106Y408255D01*
X267154Y408157D01*
X267199Y408058D01*
X267210Y408045D01*
X267214Y408036D01*
X267230Y408021D01*
X267292Y407944D01*
X273324Y401912D01*
X273412Y401849D01*
X273498Y401783D01*
X273511Y401778D01*
X273523Y401770D01*
X273626Y401739D01*
X273729Y401703D01*
X273743Y401703D01*
X273756Y401699D01*
X273864Y401703D01*
X273973Y401702D01*
X273986Y401707D01*
X274000Y401707D01*
X274102Y401745D01*
X274204Y401780D01*
X274219Y401789D01*
X274228Y401793D01*
X274245Y401807D01*
X274327Y401861D01*
X282727Y408710D01*
X284014Y407978D01*
X284033Y407971D01*
X284069Y407950D01*
X285878Y407111D01*
X285916Y407101D01*
X285952Y407082D01*
X286033Y407068D01*
X286113Y407046D01*
X286153Y407048D01*
X286192Y407042D01*
X286274Y407055D01*
X286357Y407060D01*
X286394Y407075D01*
X286433Y407081D01*
X286506Y407120D01*
X286583Y407151D01*
X286613Y407177D01*
X286649Y407196D01*
X286705Y407256D01*
X286768Y407310D01*
X286788Y407345D01*
X286816Y407374D01*
X286885Y407504D01*
X291908Y419630D01*
X291934Y419742D01*
X291963Y419854D01*
X291962Y419861D01*
X291964Y419868D01*
X291952Y419982D01*
X291943Y420097D01*
X291941Y420103D01*
X291940Y420111D01*
X291892Y420215D01*
X291847Y420321D01*
X291842Y420326D01*
X291839Y420333D01*
X291761Y420417D01*
X291684Y420502D01*
X291676Y420507D01*
X291672Y420511D01*
X291659Y420518D01*
X291560Y420583D01*
X289982Y421398D01*
X288614Y422427D01*
X287438Y423671D01*
X286487Y425095D01*
X285787Y426658D01*
X285360Y428316D01*
X285216Y430018D01*
X285396Y431924D01*
X285927Y433759D01*
X286791Y435462D01*
X287958Y436974D01*
X289387Y438241D01*
X291027Y439220D01*
X292822Y439875D01*
X294707Y440183D01*
X296616Y440135D01*
X298483Y439730D01*
X300241Y438984D01*
X301829Y437923D01*
X303192Y436584D01*
X304280Y435014D01*
X305056Y433269D01*
X305492Y431409D01*
X305574Y429501D01*
X305298Y427611D01*
X304673Y425806D01*
X303723Y424149D01*
X302480Y422698D01*
X300988Y421506D01*
X299238Y420579D01*
X299149Y420512D01*
X299059Y420447D01*
X299052Y420438D01*
X299043Y420432D01*
X298981Y420339D01*
X298916Y420249D01*
X298913Y420238D01*
X298907Y420229D01*
X298878Y420122D01*
X298845Y420016D01*
X298846Y420005D01*
X298843Y419994D01*
X298849Y419882D01*
X298853Y419772D01*
X298857Y419758D01*
X298858Y419750D01*
X298865Y419732D01*
X298896Y419630D01*
X299306Y418639D01*
X300237Y416392D01*
X300237Y416391D01*
X301168Y414144D01*
X301169Y414144D01*
X302100Y411896D01*
X303031Y409648D01*
X303919Y407504D01*
X303940Y407470D01*
X303953Y407433D01*
X304004Y407367D01*
X304048Y407297D01*
X304079Y407272D01*
X304103Y407240D01*
X304172Y407195D01*
X304236Y407142D01*
X304274Y407128D01*
X304307Y407106D01*
X304387Y407085D01*
X304465Y407056D01*
X304505Y407055D01*
X304543Y407045D01*
X304626Y407051D01*
X304708Y407048D01*
X304747Y407060D01*
X304787Y407063D01*
X304926Y407111D01*
X306735Y407950D01*
X306751Y407961D01*
X306790Y407978D01*
X308077Y408710D01*
X316477Y401861D01*
X316571Y401807D01*
X316663Y401750D01*
X316676Y401747D01*
X316688Y401740D01*
X316795Y401719D01*
X316900Y401694D01*
X316914Y401696D01*
X316928Y401693D01*
X317035Y401708D01*
G37*
D10*
X307340Y43180D02*
X307340Y45383D01*
X307340Y44282D02*
X300730Y44282D01*
X300730Y45383D02*
X300730Y43180D01*
X300730Y48959D02*
X300730Y51162D01*
X300730Y48959D02*
X301832Y47858D01*
X306238Y47858D01*
X307340Y48959D01*
X307340Y51162D01*
X306238Y52264D01*
X301832Y52264D01*
X300730Y51162D01*
X300730Y54874D02*
X307340Y54874D01*
X300730Y54874D02*
X300730Y58179D01*
X301832Y59280D01*
X304035Y59280D01*
X305137Y58179D01*
X305137Y54874D01*
X305137Y57077D02*
X307340Y59280D01*
X300730Y61890D02*
X300730Y66297D01*
X300730Y61890D02*
X307340Y61890D01*
X307340Y66297D01*
X304035Y64094D02*
X304035Y61890D01*
X307340Y68907D02*
X300730Y68907D01*
X300730Y73313D01*
X304035Y71110D02*
X304035Y68907D01*
X327146Y42164D02*
X333756Y42164D01*
X327146Y42164D02*
X327146Y45469D01*
X328248Y46570D01*
X330451Y46570D01*
X331553Y45469D01*
X331553Y42164D01*
X331553Y44367D02*
X333756Y46570D01*
X327146Y49180D02*
X327146Y53587D01*
X327146Y49180D02*
X333756Y49180D01*
X333756Y53587D01*
X330451Y51384D02*
X330451Y49180D01*
X327146Y59502D02*
X328248Y60603D01*
X327146Y59502D02*
X327146Y57298D01*
X328248Y56197D01*
X329350Y56197D01*
X330451Y57298D01*
X330451Y59502D01*
X331553Y60603D01*
X332654Y60603D01*
X333756Y59502D01*
X333756Y57298D01*
X332654Y56197D01*
X327146Y63213D02*
X327146Y67620D01*
X327146Y63213D02*
X333756Y63213D01*
X333756Y67620D01*
X330451Y65416D02*
X330451Y63213D01*
X333756Y72433D02*
X327146Y72433D01*
X327146Y70230D02*
X327146Y74636D01*
X353054Y42758D02*
X354156Y41656D01*
X353054Y42758D02*
X353054Y44961D01*
X354156Y46062D01*
X355258Y46062D01*
X356359Y44961D01*
X356359Y43859D01*
X356359Y44961D02*
X357461Y46062D01*
X358562Y46062D01*
X359664Y44961D01*
X359664Y42758D01*
X358562Y41656D01*
X357461Y48672D02*
X353054Y48672D01*
X357461Y48672D02*
X359664Y50876D01*
X357461Y53079D01*
X353054Y53079D01*
X354156Y55689D02*
X353054Y56790D01*
X353054Y58994D01*
X354156Y60095D01*
X355258Y60095D01*
X356359Y58994D01*
X356359Y57892D01*
X356359Y58994D02*
X357461Y60095D01*
X358562Y60095D01*
X359664Y58994D01*
X359664Y56790D01*
X358562Y55689D01*
X375349Y48266D02*
X379756Y48266D01*
X375349Y48266D02*
X375349Y44961D01*
X377552Y46062D01*
X378654Y46062D01*
X379756Y44961D01*
X379756Y42758D01*
X378654Y41656D01*
X376451Y41656D01*
X375349Y42758D01*
X382366Y43859D02*
X382366Y48266D01*
X382366Y43859D02*
X384569Y41656D01*
X386772Y43859D01*
X386772Y48266D01*
X400594Y9404D02*
X401695Y8302D01*
X400594Y9404D02*
X398390Y9404D01*
X397289Y8302D01*
X397289Y3896D01*
X398390Y2794D01*
X400594Y2794D01*
X401695Y3896D01*
X401695Y6099D01*
X399492Y6099D01*
X404305Y2794D02*
X404305Y9404D01*
X408712Y2794D01*
X408712Y9404D01*
X411322Y9404D02*
X411322Y2794D01*
X414626Y2794D01*
X415728Y3896D01*
X415728Y8302D01*
X414626Y9404D01*
X411322Y9404D01*
X450428Y44367D02*
X450428Y48774D01*
X450428Y44367D02*
X452631Y42164D01*
X454834Y44367D01*
X454834Y48774D01*
X457444Y42164D02*
X459647Y42164D01*
X458546Y42164D02*
X458546Y48774D01*
X459647Y48774D02*
X457444Y48774D01*
X462122Y48774D02*
X462122Y42164D01*
X466528Y42164D02*
X462122Y48774D01*
X466528Y48774D02*
X466528Y42164D01*
X504864Y41656D02*
X509270Y41656D01*
X504864Y41656D02*
X502660Y43859D01*
X504864Y46062D01*
X509270Y46062D01*
X505965Y46062D02*
X505965Y41656D01*
X508168Y48672D02*
X503762Y48672D01*
X502660Y49774D01*
X502660Y51977D01*
X503762Y53079D01*
X508168Y53079D01*
X509270Y51977D01*
X509270Y49774D01*
X508168Y48672D01*
X503762Y53079D01*
X530772Y41910D02*
X535178Y41910D01*
X530772Y41910D02*
X528568Y44113D01*
X530772Y46316D01*
X535178Y46316D01*
X531873Y46316D02*
X531873Y41910D01*
X530772Y48926D02*
X528568Y51130D01*
X535178Y51130D01*
X535178Y53333D02*
X535178Y48926D01*
X556426Y41656D02*
X560832Y41656D01*
X556426Y41656D02*
X554222Y43859D01*
X556426Y46062D01*
X560832Y46062D01*
X557527Y46062D02*
X557527Y41656D01*
X560832Y48672D02*
X560832Y53079D01*
X556426Y53079D02*
X560832Y48672D01*
X556426Y53079D02*
X555324Y53079D01*
X554222Y51977D01*
X554222Y49774D01*
X555324Y48672D01*
X581826Y41402D02*
X586232Y41402D01*
X581826Y41402D02*
X579622Y43605D01*
X581826Y45808D01*
X586232Y45808D01*
X582927Y45808D02*
X582927Y41402D01*
X580724Y48418D02*
X579622Y49520D01*
X579622Y51723D01*
X580724Y52825D01*
X581826Y52825D01*
X582927Y51723D01*
X582927Y50622D01*
X582927Y51723D02*
X584029Y52825D01*
X585130Y52825D01*
X586232Y51723D01*
X586232Y49520D01*
X585130Y48418D01*
X606718Y41402D02*
X611124Y41402D01*
X606718Y41402D02*
X604514Y43605D01*
X606718Y45808D01*
X611124Y45808D01*
X607819Y45808D02*
X607819Y41402D01*
X611124Y51723D02*
X604514Y51723D01*
X607819Y48418D01*
X607819Y52825D01*
X632372Y41656D02*
X636778Y41656D01*
X632372Y41656D02*
X630168Y43859D01*
X632372Y46062D01*
X636778Y46062D01*
X633473Y46062D02*
X633473Y41656D01*
X630168Y48672D02*
X630168Y53079D01*
X630168Y48672D02*
X633473Y48672D01*
X632372Y50876D01*
X632372Y51977D01*
X633473Y53079D01*
X635676Y53079D01*
X636778Y51977D01*
X636778Y49774D01*
X635676Y48672D01*
X657772Y41656D02*
X662178Y41656D01*
X657772Y41656D02*
X655568Y43859D01*
X657772Y46062D01*
X662178Y46062D01*
X658873Y46062D02*
X658873Y41656D01*
X656670Y50876D02*
X655568Y53079D01*
X656670Y50876D02*
X658873Y48672D01*
X661076Y48672D01*
X662178Y49774D01*
X662178Y51977D01*
X661076Y53079D01*
X659975Y53079D01*
X658873Y51977D01*
X658873Y48672D01*
X683426Y41910D02*
X687832Y41910D01*
X683426Y41910D02*
X681222Y44113D01*
X683426Y46316D01*
X687832Y46316D01*
X684527Y46316D02*
X684527Y41910D01*
X681222Y48926D02*
X681222Y53333D01*
X682324Y53333D01*
X686730Y48926D01*
X687832Y48926D01*
X733972Y42164D02*
X738378Y42164D01*
X733972Y42164D02*
X731768Y44367D01*
X733972Y46570D01*
X738378Y46570D01*
X735073Y46570D02*
X735073Y42164D01*
X732870Y49180D02*
X731768Y50282D01*
X731768Y52485D01*
X732870Y53587D01*
X733972Y53587D01*
X735073Y52485D01*
X736175Y53587D01*
X737276Y53587D01*
X738378Y52485D01*
X738378Y50282D01*
X737276Y49180D01*
X736175Y49180D01*
X735073Y50282D01*
X733972Y49180D01*
X732870Y49180D01*
X735073Y50282D02*
X735073Y52485D01*
X759880Y41910D02*
X764286Y41910D01*
X759880Y41910D02*
X757676Y44113D01*
X759880Y46316D01*
X764286Y46316D01*
X760981Y46316D02*
X760981Y41910D01*
X763184Y48926D02*
X764286Y50028D01*
X764286Y52231D01*
X763184Y53333D01*
X758778Y53333D01*
X757676Y52231D01*
X757676Y50028D01*
X758778Y48926D01*
X759880Y48926D01*
X760981Y50028D01*
X760981Y53333D01*
X785280Y41910D02*
X789686Y41910D01*
X785280Y41910D02*
X783076Y44113D01*
X785280Y46316D01*
X789686Y46316D01*
X786381Y46316D02*
X786381Y41910D01*
X785280Y48926D02*
X783076Y51130D01*
X789686Y51130D01*
X789686Y53333D02*
X789686Y48926D01*
X788584Y55943D02*
X784178Y55943D01*
X783076Y57044D01*
X783076Y59248D01*
X784178Y60349D01*
X788584Y60349D01*
X789686Y59248D01*
X789686Y57044D01*
X788584Y55943D01*
X784178Y60349D01*
X810680Y42164D02*
X815086Y42164D01*
X810680Y42164D02*
X808476Y44367D01*
X810680Y46570D01*
X815086Y46570D01*
X811781Y46570D02*
X811781Y42164D01*
X810680Y49180D02*
X808476Y51384D01*
X815086Y51384D01*
X815086Y53587D02*
X815086Y49180D01*
X810680Y56197D02*
X808476Y58400D01*
X815086Y58400D01*
X815086Y56197D02*
X815086Y60603D01*
D11*
X830448Y42037D02*
X836803Y42037D01*
X836803Y45215D01*
X835744Y46274D01*
X831507Y46274D01*
X830448Y45215D01*
X830448Y42037D01*
X832566Y48586D02*
X836803Y48586D01*
X832566Y48586D02*
X830448Y50704D01*
X832566Y52823D01*
X836803Y52823D01*
X833625Y52823D02*
X833625Y48586D01*
X830448Y58312D02*
X831507Y59371D01*
X830448Y58312D02*
X830448Y56193D01*
X831507Y55134D01*
X835744Y55134D01*
X836803Y56193D01*
X836803Y58312D01*
X835744Y59371D01*
X842175Y42037D02*
X846412Y42037D01*
X842175Y42037D02*
X841116Y43096D01*
X841116Y45215D01*
X842175Y46274D01*
X846412Y46274D01*
X847471Y45215D01*
X847471Y43096D01*
X846412Y42037D01*
X842175Y46274D01*
X856610Y41529D02*
X862965Y41529D01*
X862965Y44707D01*
X861906Y45766D01*
X857669Y45766D01*
X856610Y44707D01*
X856610Y41529D01*
X858728Y48078D02*
X862965Y48078D01*
X858728Y48078D02*
X856610Y50196D01*
X858728Y52315D01*
X862965Y52315D01*
X859787Y52315D02*
X859787Y48078D01*
X856610Y57804D02*
X857669Y58863D01*
X856610Y57804D02*
X856610Y55685D01*
X857669Y54626D01*
X861906Y54626D01*
X862965Y55685D01*
X862965Y57804D01*
X861906Y58863D01*
X867278Y43647D02*
X869396Y41529D01*
X867278Y43647D02*
X873633Y43647D01*
X873633Y41529D02*
X873633Y45766D01*
X880994Y44453D02*
X882053Y45512D01*
X880994Y44453D02*
X880994Y42334D01*
X882053Y41275D01*
X886290Y41275D01*
X887349Y42334D01*
X887349Y44453D01*
X886290Y45512D01*
X887349Y47824D02*
X883112Y47824D01*
X880994Y49942D01*
X883112Y52061D01*
X887349Y52061D01*
X884171Y52061D02*
X884171Y47824D01*
X887349Y54372D02*
X880994Y54372D01*
X887349Y58609D01*
X880994Y58609D01*
X891662Y41275D02*
X898017Y41275D01*
X891662Y41275D02*
X891662Y44453D01*
X892721Y45512D01*
X894839Y45512D01*
X895899Y44453D01*
X895899Y41275D01*
X895899Y43393D02*
X898017Y45512D01*
X898017Y52061D02*
X891662Y47824D01*
X891662Y52061D02*
X898017Y47824D01*
X905378Y44707D02*
X906437Y45766D01*
X905378Y44707D02*
X905378Y42588D01*
X906437Y41529D01*
X910674Y41529D01*
X911733Y42588D01*
X911733Y44707D01*
X910674Y45766D01*
X911733Y48078D02*
X907496Y48078D01*
X905378Y50196D01*
X907496Y52315D01*
X911733Y52315D01*
X908555Y52315D02*
X908555Y48078D01*
X911733Y54626D02*
X905378Y54626D01*
X911733Y58863D01*
X905378Y58863D01*
X916046Y43647D02*
X922401Y43647D01*
X916046Y41529D02*
X916046Y45766D01*
X916046Y48078D02*
X922401Y52315D01*
X922401Y48078D02*
X916046Y52315D01*
D10*
X186008Y469609D02*
X184906Y468507D01*
X184906Y466304D01*
X186008Y465202D01*
X187110Y465202D01*
X188211Y466304D01*
X188211Y468507D01*
X189313Y469609D01*
X190414Y469609D01*
X191516Y468507D01*
X191516Y466304D01*
X190414Y465202D01*
X184906Y475524D02*
X186008Y476625D01*
X184906Y475524D02*
X184906Y473320D01*
X186008Y472219D01*
X190414Y472219D01*
X191516Y473320D01*
X191516Y475524D01*
X190414Y476625D01*
X191516Y479235D02*
X184906Y479235D01*
X191516Y479235D02*
X191516Y483642D01*
X187110Y486252D02*
X184906Y488455D01*
X191516Y488455D01*
X191516Y486252D02*
X191516Y490658D01*
X212170Y470117D02*
X211068Y469015D01*
X211068Y466812D01*
X212170Y465710D01*
X213272Y465710D01*
X214373Y466812D01*
X214373Y469015D01*
X215475Y470117D01*
X216576Y470117D01*
X217678Y469015D01*
X217678Y466812D01*
X216576Y465710D01*
X217678Y472727D02*
X211068Y472727D01*
X217678Y472727D02*
X217678Y476032D01*
X216576Y477133D01*
X212170Y477133D01*
X211068Y476032D01*
X211068Y472727D01*
X213272Y479743D02*
X217678Y479743D01*
X213272Y479743D02*
X211068Y481946D01*
X213272Y484150D01*
X217678Y484150D01*
X214373Y484150D02*
X214373Y479743D01*
X213272Y486760D02*
X211068Y488963D01*
X217678Y488963D01*
X217678Y486760D02*
X217678Y491166D01*
X238164Y465202D02*
X242570Y465202D01*
X238164Y465202D02*
X235960Y467406D01*
X238164Y469609D01*
X242570Y469609D01*
X239265Y469609D02*
X239265Y465202D01*
X242570Y472219D02*
X235960Y472219D01*
X235960Y475524D01*
X237062Y476625D01*
X239265Y476625D01*
X240367Y475524D01*
X240367Y472219D01*
X240367Y474422D02*
X242570Y476625D01*
X235960Y479235D02*
X235960Y483642D01*
X235960Y479235D02*
X242570Y479235D01*
X242570Y483642D01*
X239265Y481438D02*
X239265Y479235D01*
X242570Y486252D02*
X235960Y486252D01*
X235960Y490658D01*
X239265Y488455D02*
X239265Y486252D01*
X262122Y475270D02*
X263224Y476371D01*
X262122Y475270D02*
X262122Y473066D01*
X263224Y471965D01*
X267630Y471965D01*
X268732Y473066D01*
X268732Y475270D01*
X267630Y476371D01*
X265427Y476371D01*
X265427Y474168D01*
X268732Y478981D02*
X262122Y478981D01*
X268732Y483388D01*
X262122Y483388D01*
X262122Y485998D02*
X268732Y485998D01*
X268732Y489302D01*
X267630Y490404D01*
X263224Y490404D01*
X262122Y489302D01*
X262122Y485998D01*
X287522Y481692D02*
X289726Y479489D01*
X287522Y481692D02*
X294132Y481692D01*
X294132Y479489D02*
X294132Y483896D01*
X288624Y486506D02*
X287522Y487607D01*
X287522Y489810D01*
X288624Y490912D01*
X289726Y490912D01*
X290827Y489810D01*
X290827Y488709D01*
X290827Y489810D02*
X291929Y490912D01*
X293030Y490912D01*
X294132Y489810D01*
X294132Y487607D01*
X293030Y486506D01*
X311906Y481692D02*
X314110Y479489D01*
X311906Y481692D02*
X318516Y481692D01*
X318516Y479489D02*
X318516Y483896D01*
X318516Y486506D02*
X318516Y490912D01*
X318516Y486506D02*
X314110Y490912D01*
X313008Y490912D01*
X311906Y489810D01*
X311906Y487607D01*
X313008Y486506D01*
X337306Y481438D02*
X339510Y479235D01*
X337306Y481438D02*
X343916Y481438D01*
X343916Y479235D02*
X343916Y483642D01*
X339510Y486252D02*
X337306Y488455D01*
X343916Y488455D01*
X343916Y486252D02*
X343916Y490658D01*
X364484Y481438D02*
X366688Y479235D01*
X364484Y481438D02*
X371094Y481438D01*
X371094Y479235D02*
X371094Y483642D01*
X369992Y486252D02*
X365586Y486252D01*
X364484Y487353D01*
X364484Y489556D01*
X365586Y490658D01*
X369992Y490658D01*
X371094Y489556D01*
X371094Y487353D01*
X369992Y486252D01*
X365586Y490658D01*
X393614Y486252D02*
X394716Y487353D01*
X394716Y489556D01*
X393614Y490658D01*
X389208Y490658D01*
X388106Y489556D01*
X388106Y487353D01*
X389208Y486252D01*
X390310Y486252D01*
X391411Y487353D01*
X391411Y490658D01*
X414522Y487099D02*
X415624Y485998D01*
X414522Y487099D02*
X414522Y489302D01*
X415624Y490404D01*
X416726Y490404D01*
X417827Y489302D01*
X418929Y490404D01*
X420030Y490404D01*
X421132Y489302D01*
X421132Y487099D01*
X420030Y485998D01*
X418929Y485998D01*
X417827Y487099D01*
X416726Y485998D01*
X415624Y485998D01*
X417827Y487099D02*
X417827Y489302D01*
X454146Y490658D02*
X454146Y486252D01*
X454146Y490658D02*
X455248Y490658D01*
X459654Y486252D01*
X460756Y486252D01*
X480308Y490658D02*
X481410Y488455D01*
X483613Y486252D01*
X485816Y486252D01*
X486918Y487353D01*
X486918Y489556D01*
X485816Y490658D01*
X484715Y490658D01*
X483613Y489556D01*
X483613Y486252D01*
X505708Y486506D02*
X505708Y490912D01*
X505708Y486506D02*
X509013Y486506D01*
X507912Y488709D01*
X507912Y489810D01*
X509013Y490912D01*
X511216Y490912D01*
X512318Y489810D01*
X512318Y487607D01*
X511216Y486506D01*
X531362Y489302D02*
X537972Y489302D01*
X534667Y485998D02*
X531362Y489302D01*
X534667Y490404D02*
X534667Y485998D01*
X557524Y487607D02*
X558626Y486506D01*
X557524Y487607D02*
X557524Y489810D01*
X558626Y490912D01*
X559728Y490912D01*
X560829Y489810D01*
X560829Y488709D01*
X560829Y489810D02*
X561931Y490912D01*
X563032Y490912D01*
X564134Y489810D01*
X564134Y487607D01*
X563032Y486506D01*
X588518Y486506D02*
X588518Y490912D01*
X588518Y486506D02*
X584112Y490912D01*
X583010Y490912D01*
X581908Y489810D01*
X581908Y487607D01*
X583010Y486506D01*
X608324Y488709D02*
X610528Y486506D01*
X608324Y488709D02*
X614934Y488709D01*
X614934Y486506D02*
X614934Y490912D01*
X683508Y481438D02*
X685712Y479235D01*
X683508Y481438D02*
X690118Y481438D01*
X690118Y479235D02*
X690118Y483642D01*
X690118Y489556D02*
X683508Y489556D01*
X686813Y486252D01*
X686813Y490658D01*
X708908Y481438D02*
X711112Y479235D01*
X708908Y481438D02*
X715518Y481438D01*
X715518Y479235D02*
X715518Y483642D01*
X708908Y486252D02*
X708908Y490658D01*
X708908Y486252D02*
X712213Y486252D01*
X711112Y488455D01*
X711112Y489556D01*
X712213Y490658D01*
X714416Y490658D01*
X715518Y489556D01*
X715518Y487353D01*
X714416Y486252D01*
X734308Y481438D02*
X736512Y479235D01*
X734308Y481438D02*
X740918Y481438D01*
X740918Y479235D02*
X740918Y483642D01*
X735410Y488455D02*
X734308Y490658D01*
X735410Y488455D02*
X737613Y486252D01*
X739816Y486252D01*
X740918Y487353D01*
X740918Y489556D01*
X739816Y490658D01*
X738715Y490658D01*
X737613Y489556D01*
X737613Y486252D01*
X759708Y481438D02*
X761912Y479235D01*
X759708Y481438D02*
X766318Y481438D01*
X766318Y479235D02*
X766318Y483642D01*
X759708Y486252D02*
X759708Y490658D01*
X760810Y490658D01*
X765216Y486252D01*
X766318Y486252D01*
X785108Y481438D02*
X787312Y479235D01*
X785108Y481438D02*
X791718Y481438D01*
X791718Y479235D02*
X791718Y483642D01*
X786210Y486252D02*
X785108Y487353D01*
X785108Y489556D01*
X786210Y490658D01*
X787312Y490658D01*
X788413Y489556D01*
X789515Y490658D01*
X790616Y490658D01*
X791718Y489556D01*
X791718Y487353D01*
X790616Y486252D01*
X789515Y486252D01*
X788413Y487353D01*
X787312Y486252D01*
X786210Y486252D01*
X788413Y487353D02*
X788413Y489556D01*
X809492Y482454D02*
X811696Y480251D01*
X809492Y482454D02*
X816102Y482454D01*
X816102Y480251D02*
X816102Y484658D01*
X815000Y487268D02*
X816102Y488369D01*
X816102Y490572D01*
X815000Y491674D01*
X810594Y491674D01*
X809492Y490572D01*
X809492Y488369D01*
X810594Y487268D01*
X811696Y487268D01*
X812797Y488369D01*
X812797Y491674D01*
X841502Y483642D02*
X841502Y479235D01*
X837096Y483642D01*
X835994Y483642D01*
X834892Y482540D01*
X834892Y480337D01*
X835994Y479235D01*
X835994Y486252D02*
X840400Y486252D01*
X835994Y486252D02*
X834892Y487353D01*
X834892Y489556D01*
X835994Y490658D01*
X840400Y490658D01*
X841502Y489556D01*
X841502Y487353D01*
X840400Y486252D01*
X835994Y490658D01*
X867918Y483642D02*
X867918Y479235D01*
X863512Y483642D01*
X862410Y483642D01*
X861308Y482540D01*
X861308Y480337D01*
X862410Y479235D01*
X863512Y486252D02*
X861308Y488455D01*
X867918Y488455D01*
X867918Y486252D02*
X867918Y490658D01*
X426756Y9912D02*
X427857Y8810D01*
X426756Y9912D02*
X424552Y9912D01*
X423451Y8810D01*
X423451Y4404D01*
X424552Y3302D01*
X426756Y3302D01*
X427857Y4404D01*
X427857Y6607D01*
X425654Y6607D01*
X430467Y3302D02*
X430467Y9912D01*
X434874Y3302D01*
X434874Y9912D01*
X437484Y9912D02*
X437484Y3302D01*
X440788Y3302D01*
X441890Y4404D01*
X441890Y8810D01*
X440788Y9912D01*
X437484Y9912D01*
X262393Y50359D02*
X262393Y54766D01*
X262393Y50359D02*
X264596Y48156D01*
X266799Y50359D01*
X266799Y54766D01*
X269409Y54766D02*
X269409Y48156D01*
X269409Y54766D02*
X272714Y54766D01*
X273815Y53664D01*
X273815Y51461D01*
X272714Y50359D01*
X269409Y50359D01*
X271612Y50359D02*
X273815Y48156D01*
X276425Y54766D02*
X280832Y54766D01*
X276425Y54766D02*
X276425Y48156D01*
X280832Y48156D01*
X278629Y51461D02*
X276425Y51461D01*
X283442Y48156D02*
X283442Y54766D01*
X287848Y54766D01*
X285645Y51461D02*
X283442Y51461D01*
X290458Y48156D02*
X290458Y54766D01*
X293763Y54766D01*
X294865Y53664D01*
X294865Y51461D01*
X293763Y50359D01*
X290458Y50359D01*
D11*
X545211Y10293D02*
X545211Y2921D01*
X547668Y7836D02*
X545211Y10293D01*
X547668Y7836D02*
X550126Y10293D01*
X550126Y2921D01*
X553924Y10293D02*
X556381Y10293D01*
X553924Y10293D02*
X552695Y9065D01*
X552695Y4150D01*
X553924Y2921D01*
X556381Y2921D01*
X557610Y4150D01*
X557610Y9065D01*
X556381Y10293D01*
X563865Y10293D02*
X565094Y9065D01*
X563865Y10293D02*
X561408Y10293D01*
X560179Y9065D01*
X560179Y7836D01*
X561408Y6607D01*
X563865Y6607D01*
X565094Y5378D01*
X565094Y4150D01*
X563865Y2921D01*
X561408Y2921D01*
X560179Y4150D01*
X567663Y2921D02*
X570121Y2921D01*
X568892Y2921D02*
X568892Y10293D01*
X567663Y10293D02*
X570121Y10293D01*
X596011Y10293D02*
X596011Y2921D01*
X598468Y7836D02*
X596011Y10293D01*
X598468Y7836D02*
X600926Y10293D01*
X600926Y2921D01*
X603495Y2921D02*
X605953Y2921D01*
X604724Y2921D02*
X604724Y10293D01*
X603495Y10293D02*
X605953Y10293D01*
X612171Y10293D02*
X613399Y9065D01*
X612171Y10293D02*
X609713Y10293D01*
X608485Y9065D01*
X608485Y7836D01*
X609713Y6607D01*
X612171Y6607D01*
X613399Y5378D01*
X613399Y4150D01*
X612171Y2921D01*
X609713Y2921D01*
X608485Y4150D01*
X617197Y10293D02*
X619655Y10293D01*
X617197Y10293D02*
X615969Y9065D01*
X615969Y4150D01*
X617197Y2921D01*
X619655Y2921D01*
X620884Y4150D01*
X620884Y9065D01*
X619655Y10293D01*
X716661Y10293D02*
X716661Y2921D01*
X720347Y2921D01*
X721576Y4150D01*
X721576Y9065D01*
X720347Y10293D01*
X716661Y10293D01*
X724145Y10293D02*
X724145Y2921D01*
X724145Y10293D02*
X727831Y10293D01*
X729060Y9065D01*
X729060Y6607D01*
X727831Y5378D01*
X724145Y5378D01*
X726603Y5378D02*
X729060Y2921D01*
X731629Y2921D02*
X731629Y10293D01*
X731629Y2921D02*
X735315Y2921D01*
X736544Y4150D01*
X736544Y9065D01*
X735315Y10293D01*
X731629Y10293D01*
X739113Y10293D02*
X739113Y9065D01*
X741571Y6607D01*
X744028Y9065D01*
X744028Y10293D01*
X741571Y6607D02*
X741571Y2921D01*
X753367Y10293D02*
X754596Y9065D01*
X753367Y10293D02*
X750910Y10293D01*
X749681Y9065D01*
X749681Y7836D01*
X750910Y6607D01*
X753367Y6607D01*
X754596Y5378D01*
X754596Y4150D01*
X753367Y2921D01*
X750910Y2921D01*
X749681Y4150D01*
X759623Y2921D02*
X759623Y10293D01*
X762080Y10293D02*
X757165Y10293D01*
X764649Y7836D02*
X764649Y2921D01*
X764649Y7836D02*
X767107Y10293D01*
X769564Y7836D01*
X769564Y2921D01*
X769564Y6607D02*
X764649Y6607D01*
X772133Y2921D02*
X772133Y10293D01*
X775820Y10293D01*
X777048Y9065D01*
X777048Y6607D01*
X775820Y5378D01*
X772133Y5378D01*
X774591Y5378D02*
X777048Y2921D01*
X782075Y2921D02*
X782075Y10293D01*
X779618Y10293D02*
X784532Y10293D01*
X367411Y10293D02*
X367411Y5378D01*
X369868Y2921D01*
X372326Y5378D01*
X372326Y10293D01*
X374895Y1692D02*
X379810Y1692D01*
X382379Y2921D02*
X384837Y2921D01*
X383608Y2921D02*
X383608Y10293D01*
X382379Y10293D02*
X384837Y10293D01*
X387369Y10293D02*
X387369Y2921D01*
X392284Y2921D02*
X387369Y10293D01*
X392284Y10293D02*
X392284Y2921D01*
X829526Y529765D02*
X828297Y530993D01*
X825840Y530993D01*
X824611Y529765D01*
X824611Y528536D01*
X825840Y527307D01*
X828297Y527307D01*
X829526Y526078D01*
X829526Y524850D01*
X828297Y523621D01*
X825840Y523621D01*
X824611Y524850D01*
X835781Y530993D02*
X837010Y529765D01*
X835781Y530993D02*
X833324Y530993D01*
X832095Y529765D01*
X832095Y524850D01*
X833324Y523621D01*
X835781Y523621D01*
X837010Y524850D01*
X839579Y523621D02*
X839579Y530993D01*
X839579Y526078D02*
X844494Y530993D01*
X840808Y527307D02*
X844494Y523621D01*
X213576Y529765D02*
X212347Y530993D01*
X209890Y530993D01*
X208661Y529765D01*
X208661Y524850D01*
X209890Y523621D01*
X212347Y523621D01*
X213576Y524850D01*
X219831Y530993D02*
X221060Y529765D01*
X219831Y530993D02*
X217374Y530993D01*
X216145Y529765D01*
X216145Y528536D01*
X217374Y527307D01*
X219831Y527307D01*
X221060Y526078D01*
X221060Y524850D01*
X219831Y523621D01*
X217374Y523621D01*
X216145Y524850D01*
D12*
X518922Y104662D02*
X518922Y88392D01*
X524345Y99239D02*
X518922Y104662D01*
X524345Y99239D02*
X529769Y104662D01*
X529769Y88392D01*
X543429Y104662D02*
X546140Y101950D01*
X543429Y104662D02*
X538005Y104662D01*
X535294Y101950D01*
X535294Y91104D01*
X538005Y88392D01*
X543429Y88392D01*
X546140Y91104D01*
X551665Y91104D02*
X551665Y104662D01*
X551665Y91104D02*
X554377Y88392D01*
X559800Y88392D01*
X562512Y91104D01*
X562512Y104662D01*
X521328Y154432D02*
X515904Y154432D01*
X518616Y154432D02*
X518616Y170702D01*
X515904Y170702D02*
X521328Y170702D01*
X534954Y170702D02*
X537665Y167990D01*
X534954Y170702D02*
X529530Y170702D01*
X526819Y167990D01*
X526819Y165279D01*
X529530Y162567D01*
X534954Y162567D01*
X537665Y159855D01*
X537665Y157144D01*
X534954Y154432D01*
X529530Y154432D01*
X526819Y157144D01*
X545902Y170702D02*
X551325Y170702D01*
X545902Y170702D02*
X543190Y167990D01*
X543190Y157144D01*
X545902Y154432D01*
X551325Y154432D01*
X554037Y157144D01*
X554037Y167990D01*
X551325Y170702D01*
D10*
X410641Y83914D02*
X408438Y86117D01*
X404031Y86117D01*
X401828Y83914D01*
X401828Y75101D01*
X404031Y72898D01*
X408438Y72898D01*
X410641Y75101D01*
X410641Y79508D01*
X406234Y79508D01*
X414925Y86117D02*
X414925Y72898D01*
X414925Y86117D02*
X421535Y86117D01*
X423738Y83914D01*
X423738Y79508D01*
X421535Y77304D01*
X414925Y77304D01*
X428023Y72898D02*
X432429Y72898D01*
X430226Y72898D02*
X430226Y86117D01*
X428023Y86117D02*
X432429Y86117D01*
X438957Y86117D02*
X443364Y86117D01*
X438957Y86117D02*
X436754Y83914D01*
X436754Y75101D01*
X438957Y72898D01*
X443364Y72898D01*
X445567Y75101D01*
X445567Y83914D01*
X443364Y86117D01*
X456461Y86117D02*
X456461Y72898D01*
X449851Y79508D02*
X456461Y86117D01*
X458664Y79508D02*
X449851Y79508D01*
D13*
X349912Y131912D02*
X349912Y135641D01*
X349912Y131912D02*
X351776Y130048D01*
X353640Y131912D01*
X353640Y135641D01*
X355525Y135641D02*
X355525Y130048D01*
X355525Y135641D02*
X358321Y135641D01*
X359253Y134709D01*
X359253Y132844D01*
X358321Y131912D01*
X355525Y131912D01*
X357389Y131912D02*
X359253Y130048D01*
X361138Y135641D02*
X364866Y135641D01*
X361138Y135641D02*
X361138Y130048D01*
X364866Y130048D01*
X363002Y132844D02*
X361138Y132844D01*
X366751Y130048D02*
X366751Y135641D01*
X370479Y135641D01*
X368615Y132844D02*
X366751Y132844D01*
X349912Y108377D02*
X349912Y104648D01*
X349912Y108377D02*
X351776Y110241D01*
X353640Y108377D01*
X353640Y104648D01*
X353640Y107444D02*
X349912Y107444D01*
X355525Y106512D02*
X355525Y110241D01*
X355525Y106512D02*
X357389Y104648D01*
X359253Y106512D01*
X359253Y110241D01*
X361138Y110241D02*
X361138Y104648D01*
X363934Y104648D01*
X364866Y105580D01*
X364866Y109309D01*
X363934Y110241D01*
X361138Y110241D01*
X366751Y110241D02*
X366751Y104648D01*
X369547Y104648D01*
X370479Y105580D01*
X370479Y109309D01*
X369547Y110241D01*
X366751Y110241D01*
X349912Y82977D02*
X349912Y79248D01*
X349912Y82977D02*
X351776Y84841D01*
X353640Y82977D01*
X353640Y79248D01*
X353640Y82044D02*
X349912Y82044D01*
X358321Y84841D02*
X359253Y83909D01*
X358321Y84841D02*
X356457Y84841D01*
X355525Y83909D01*
X355525Y80180D01*
X356457Y79248D01*
X358321Y79248D01*
X359253Y80180D01*
X359253Y82044D01*
X357389Y82044D01*
X361138Y79248D02*
X361138Y84841D01*
X364866Y79248D01*
X364866Y84841D01*
X366751Y84841D02*
X366751Y79248D01*
X369547Y79248D01*
X370479Y80180D01*
X370479Y83909D01*
X369547Y84841D01*
X366751Y84841D01*
D11*
X641731Y375031D02*
X641731Y379946D01*
X644188Y382403D01*
X646646Y379946D01*
X646646Y375031D01*
X646646Y378717D02*
X641731Y378717D01*
X649215Y377488D02*
X649215Y382403D01*
X649215Y377488D02*
X651673Y375031D01*
X654130Y377488D01*
X654130Y382403D01*
X656699Y382403D02*
X656699Y375031D01*
X660385Y375031D01*
X661614Y376260D01*
X661614Y381175D01*
X660385Y382403D01*
X656699Y382403D01*
X664183Y382403D02*
X664183Y375031D01*
X667870Y375031D01*
X669098Y376260D01*
X669098Y381175D01*
X667870Y382403D01*
X664183Y382403D01*
X679152Y381175D02*
X680380Y382403D01*
X682838Y382403D01*
X684067Y381175D01*
X684067Y379946D01*
X682838Y378717D01*
X681609Y378717D01*
X682838Y378717D02*
X684067Y377488D01*
X684067Y376260D01*
X682838Y375031D01*
X680380Y375031D01*
X679152Y376260D01*
X686636Y377488D02*
X686636Y382403D01*
X686636Y377488D02*
X689093Y375031D01*
X691551Y377488D01*
X691551Y382403D01*
X694120Y381175D02*
X695349Y382403D01*
X697806Y382403D01*
X699035Y381175D01*
X699035Y379946D01*
X697806Y378717D01*
X696578Y378717D01*
X697806Y378717D02*
X699035Y377488D01*
X699035Y376260D01*
X697806Y375031D01*
X695349Y375031D01*
X694120Y376260D01*
X372491Y433451D02*
X372491Y440823D01*
X372491Y433451D02*
X376177Y433451D01*
X377406Y434680D01*
X377406Y439595D01*
X376177Y440823D01*
X372491Y440823D01*
X379975Y440823D02*
X379975Y435908D01*
X382433Y433451D01*
X384890Y435908D01*
X384890Y440823D01*
X387459Y440823D02*
X387459Y433451D01*
X391145Y433451D01*
X392374Y434680D01*
X392374Y439595D01*
X391145Y440823D01*
X387459Y440823D01*
X394943Y440823D02*
X394943Y433451D01*
X398630Y433451D01*
X399858Y434680D01*
X399858Y439595D01*
X398630Y440823D01*
X394943Y440823D01*
X409912Y439595D02*
X411140Y440823D01*
X413598Y440823D01*
X414827Y439595D01*
X414827Y438366D01*
X413598Y437137D01*
X412369Y437137D01*
X413598Y437137D02*
X414827Y435908D01*
X414827Y434680D01*
X413598Y433451D01*
X411140Y433451D01*
X409912Y434680D01*
X417396Y435908D02*
X417396Y440823D01*
X417396Y435908D02*
X419853Y433451D01*
X422311Y435908D01*
X422311Y440823D01*
X424880Y439595D02*
X426109Y440823D01*
X428566Y440823D01*
X429795Y439595D01*
X429795Y438366D01*
X428566Y437137D01*
X427338Y437137D01*
X428566Y437137D02*
X429795Y435908D01*
X429795Y434680D01*
X428566Y433451D01*
X426109Y433451D01*
X424880Y434680D01*
X568071Y357003D02*
X568071Y350860D01*
X569300Y349631D01*
X571757Y349631D01*
X572986Y350860D01*
X572986Y357003D01*
X579241Y357003D02*
X579241Y349631D01*
X575555Y353317D02*
X579241Y357003D01*
X580470Y353317D02*
X575555Y353317D01*
X566801Y435950D02*
X566801Y442093D01*
X566801Y435950D02*
X568030Y434721D01*
X570487Y434721D01*
X571716Y435950D01*
X571716Y442093D01*
X574285Y440865D02*
X575514Y442093D01*
X577971Y442093D01*
X579200Y440865D01*
X579200Y439636D01*
X577971Y438407D01*
X576743Y438407D01*
X577971Y438407D02*
X579200Y437178D01*
X579200Y435950D01*
X577971Y434721D01*
X575514Y434721D01*
X574285Y435950D01*
X10541Y91573D02*
X10541Y84201D01*
X10541Y91573D02*
X14227Y91573D01*
X15456Y90345D01*
X15456Y87887D01*
X14227Y86658D01*
X10541Y86658D01*
X21711Y91573D02*
X22940Y90345D01*
X21711Y91573D02*
X19254Y91573D01*
X18025Y90345D01*
X18025Y85430D01*
X19254Y84201D01*
X21711Y84201D01*
X22940Y85430D01*
X22940Y87887D01*
X20483Y87887D01*
X25509Y84201D02*
X25509Y91573D01*
X30424Y84201D01*
X30424Y91573D01*
X32993Y91573D02*
X32993Y84201D01*
X36680Y84201D01*
X37908Y85430D01*
X37908Y90345D01*
X36680Y91573D01*
X32993Y91573D01*
X21806Y103045D02*
X20577Y104273D01*
X18120Y104273D01*
X16891Y103045D01*
X16891Y98130D01*
X18120Y96901D01*
X20577Y96901D01*
X21806Y98130D01*
X24375Y96901D02*
X24375Y104273D01*
X24375Y100587D02*
X29290Y100587D01*
X29290Y104273D02*
X29290Y96901D01*
X31859Y101816D02*
X34317Y104273D01*
X34317Y96901D01*
X36774Y96901D02*
X31859Y96901D01*
X21806Y204645D02*
X20577Y205873D01*
X18120Y205873D01*
X16891Y204645D01*
X16891Y199730D01*
X18120Y198501D01*
X20577Y198501D01*
X21806Y199730D01*
X24375Y198501D02*
X24375Y205873D01*
X24375Y202187D02*
X29290Y202187D01*
X29290Y205873D02*
X29290Y198501D01*
X31859Y198501D02*
X36774Y198501D01*
X31859Y198501D02*
X36774Y203416D01*
X36774Y204645D01*
X35545Y205873D01*
X33088Y205873D01*
X31859Y204645D01*
X21806Y299895D02*
X20577Y301123D01*
X18120Y301123D01*
X16891Y299895D01*
X16891Y294980D01*
X18120Y293751D01*
X20577Y293751D01*
X21806Y294980D01*
X24375Y293751D02*
X24375Y301123D01*
X24375Y297437D02*
X29290Y297437D01*
X29290Y301123D02*
X29290Y293751D01*
X31859Y299895D02*
X33088Y301123D01*
X35545Y301123D01*
X36774Y299895D01*
X36774Y298666D01*
X35545Y297437D01*
X34317Y297437D01*
X35545Y297437D02*
X36774Y296208D01*
X36774Y294980D01*
X35545Y293751D01*
X33088Y293751D01*
X31859Y294980D01*
X21806Y395145D02*
X20577Y396373D01*
X18120Y396373D01*
X16891Y395145D01*
X16891Y390230D01*
X18120Y389001D01*
X20577Y389001D01*
X21806Y390230D01*
X24375Y389001D02*
X24375Y396373D01*
X24375Y392687D02*
X29290Y392687D01*
X29290Y396373D02*
X29290Y389001D01*
X35545Y389001D02*
X35545Y396373D01*
X31859Y392687D01*
X36774Y392687D01*
X979037Y446027D02*
X980265Y447256D01*
X979037Y446027D02*
X979037Y443570D01*
X980265Y442341D01*
X985180Y442341D01*
X986409Y443570D01*
X986409Y446027D01*
X985180Y447256D01*
X986409Y449825D02*
X979037Y449825D01*
X982723Y449825D02*
X982723Y454740D01*
X979037Y454740D02*
X986409Y454740D01*
X979037Y457309D02*
X979037Y462224D01*
X979037Y457309D02*
X982723Y457309D01*
X981494Y459767D01*
X981494Y460995D01*
X982723Y462224D01*
X985180Y462224D01*
X986409Y460995D01*
X986409Y458538D01*
X985180Y457309D01*
X980265Y349466D02*
X979037Y348237D01*
X979037Y345780D01*
X980265Y344551D01*
X985180Y344551D01*
X986409Y345780D01*
X986409Y348237D01*
X985180Y349466D01*
X986409Y352035D02*
X979037Y352035D01*
X982723Y352035D02*
X982723Y356950D01*
X979037Y356950D02*
X986409Y356950D01*
X980265Y361977D02*
X979037Y364434D01*
X980265Y361977D02*
X982723Y359519D01*
X985180Y359519D01*
X986409Y360748D01*
X986409Y363205D01*
X985180Y364434D01*
X983952Y364434D01*
X982723Y363205D01*
X982723Y359519D01*
X980265Y252946D02*
X979037Y251717D01*
X979037Y249260D01*
X980265Y248031D01*
X985180Y248031D01*
X986409Y249260D01*
X986409Y251717D01*
X985180Y252946D01*
X986409Y255515D02*
X979037Y255515D01*
X982723Y255515D02*
X982723Y260430D01*
X979037Y260430D02*
X986409Y260430D01*
X979037Y262999D02*
X979037Y267914D01*
X980265Y267914D01*
X985180Y262999D01*
X986409Y262999D01*
X980265Y156426D02*
X979037Y155197D01*
X979037Y152740D01*
X980265Y151511D01*
X985180Y151511D01*
X986409Y152740D01*
X986409Y155197D01*
X985180Y156426D01*
X986409Y158995D02*
X979037Y158995D01*
X982723Y158995D02*
X982723Y163910D01*
X979037Y163910D02*
X986409Y163910D01*
X980265Y166479D02*
X979037Y167708D01*
X979037Y170165D01*
X980265Y171394D01*
X981494Y171394D01*
X982723Y170165D01*
X983952Y171394D01*
X985180Y171394D01*
X986409Y170165D01*
X986409Y167708D01*
X985180Y166479D01*
X983952Y166479D01*
X982723Y167708D01*
X981494Y166479D01*
X980265Y166479D01*
X982723Y167708D02*
X982723Y170165D01*
X11811Y59319D02*
X11811Y47371D01*
X11811Y59319D02*
X17785Y59319D01*
X19776Y57328D01*
X19776Y55336D01*
X17785Y53345D01*
X19776Y51354D01*
X19776Y49362D01*
X17785Y47371D01*
X11811Y47371D01*
X11811Y53345D02*
X17785Y53345D01*
X23505Y55336D02*
X25496Y55336D01*
X25496Y47371D01*
X23505Y47371D02*
X27488Y47371D01*
X25496Y59319D02*
X25496Y61311D01*
X33292Y47371D02*
X37275Y47371D01*
X39266Y49362D01*
X39266Y53345D01*
X37275Y55336D01*
X33292Y55336D01*
X31301Y53345D01*
X31301Y49362D01*
X33292Y47371D01*
X42995Y47371D02*
X42995Y59319D01*
X48969Y59319D01*
X50960Y57328D01*
X50960Y53345D01*
X48969Y51354D01*
X42995Y51354D01*
X46978Y51354D02*
X50960Y47371D01*
X56680Y47371D02*
X60663Y47371D01*
X62654Y49362D01*
X62654Y53345D01*
X60663Y55336D01*
X56680Y55336D01*
X54689Y53345D01*
X54689Y49362D01*
X56680Y47371D01*
X66383Y47371D02*
X66383Y59319D01*
X66383Y47371D02*
X72357Y47371D01*
X74348Y49362D01*
X74348Y53345D01*
X72357Y55336D01*
X66383Y55336D01*
X80068Y47371D02*
X84051Y47371D01*
X86042Y49362D01*
X86042Y53345D01*
X84051Y55336D01*
X80068Y55336D01*
X78077Y53345D01*
X78077Y49362D01*
X80068Y47371D01*
X91762Y49362D02*
X91762Y57328D01*
X91762Y49362D02*
X93754Y47371D01*
X93754Y55336D02*
X89771Y55336D01*
X97567Y55336D02*
X99558Y55336D01*
X99558Y47371D01*
X97567Y47371D02*
X101549Y47371D01*
X99558Y59319D02*
X99558Y61311D01*
X107354Y55336D02*
X113328Y55336D01*
X107354Y55336D02*
X105363Y53345D01*
X105363Y49362D01*
X107354Y47371D01*
X113328Y47371D01*
X117057Y47371D02*
X123031Y47371D01*
X125022Y49362D01*
X123031Y51354D01*
X119048Y51354D01*
X117057Y53345D01*
X119048Y55336D01*
X125022Y55336D01*
X140445Y59319D02*
X148410Y59319D01*
X140445Y59319D02*
X140445Y47371D01*
X148410Y47371D01*
X144427Y53345D02*
X140445Y53345D01*
X152139Y47371D02*
X152139Y59319D01*
X156121Y55336D01*
X160104Y59319D01*
X160104Y47371D01*
X171798Y57328D02*
X169807Y59319D01*
X165824Y59319D01*
X163833Y57328D01*
X163833Y49362D01*
X165824Y47371D01*
X169807Y47371D01*
X171798Y49362D01*
X171798Y53345D01*
X167815Y53345D01*
X193195Y59319D02*
X195186Y57328D01*
X193195Y59319D02*
X189212Y59319D01*
X187221Y57328D01*
X187221Y55336D01*
X189212Y53345D01*
X193195Y53345D01*
X195186Y51354D01*
X195186Y49362D01*
X193195Y47371D01*
X189212Y47371D01*
X187221Y49362D01*
X198914Y47371D02*
X198914Y59319D01*
X200906Y55336D02*
X198914Y53345D01*
X200906Y55336D02*
X204889Y55336D01*
X206880Y53345D01*
X206880Y47371D01*
X210608Y55336D02*
X212600Y55336D01*
X212600Y47371D01*
X214591Y47371D02*
X210608Y47371D01*
X212600Y59319D02*
X212600Y61311D01*
X220396Y47371D02*
X224379Y47371D01*
X220396Y47371D02*
X218404Y49362D01*
X218404Y53345D01*
X220396Y55336D01*
X224379Y55336D01*
X226370Y53345D01*
X226370Y51354D01*
X218404Y51354D01*
X230098Y59319D02*
X232090Y59319D01*
X232090Y47371D01*
X234081Y47371D02*
X230098Y47371D01*
X245860Y47371D02*
X245860Y59319D01*
X245860Y47371D02*
X239886Y47371D01*
X237894Y49362D01*
X237894Y53345D01*
X239886Y55336D01*
X245860Y55336D01*
D13*
X515869Y225912D02*
X516801Y226844D01*
X515869Y225912D02*
X515869Y224047D01*
X516801Y223115D01*
X517734Y223115D01*
X518666Y224047D01*
X518666Y225912D01*
X519598Y226844D01*
X520530Y226844D01*
X521462Y225912D01*
X521462Y224047D01*
X520530Y223115D01*
X521462Y228728D02*
X515869Y228728D01*
X515869Y231525D01*
X516801Y232457D01*
X518666Y232457D01*
X519598Y231525D01*
X519598Y228728D01*
X519598Y230593D02*
X521462Y232457D01*
X521462Y234342D02*
X515869Y234342D01*
X515869Y237138D01*
X516801Y238070D01*
X517734Y238070D01*
X518666Y237138D01*
X519598Y238070D01*
X520530Y238070D01*
X521462Y237138D01*
X521462Y234342D01*
X518666Y234342D02*
X518666Y237138D01*
X521462Y239955D02*
X521462Y243683D01*
X521462Y239955D02*
X517734Y243683D01*
X516801Y243683D01*
X515869Y242751D01*
X515869Y240887D01*
X516801Y239955D01*
X528366Y223115D02*
X533959Y223115D01*
X533959Y225912D01*
X533027Y226844D01*
X529298Y226844D01*
X528366Y225912D01*
X528366Y223115D01*
X528366Y228728D02*
X533959Y228728D01*
X528366Y228728D02*
X528366Y231525D01*
X529298Y232457D01*
X531162Y232457D01*
X532095Y231525D01*
X532095Y228728D01*
X532095Y230593D02*
X533959Y232457D01*
X533959Y234342D02*
X528366Y234342D01*
X533959Y234342D02*
X533959Y237138D01*
X533027Y238070D01*
X529298Y238070D01*
X528366Y237138D01*
X528366Y234342D01*
X528366Y239955D02*
X529298Y239955D01*
X531162Y241819D01*
X529298Y243683D01*
X528366Y243683D01*
X531162Y241819D02*
X533959Y241819D01*
X541795Y226844D02*
X540863Y225912D01*
X540863Y224047D01*
X541795Y223115D01*
X542727Y223115D01*
X543659Y224047D01*
X543659Y225912D01*
X544591Y226844D01*
X545523Y226844D01*
X546456Y225912D01*
X546456Y224047D01*
X545523Y223115D01*
X547388Y228728D02*
X547388Y232457D01*
X540863Y235274D02*
X540863Y237138D01*
X540863Y235274D02*
X541795Y234342D01*
X545523Y234342D01*
X546456Y235274D01*
X546456Y237138D01*
X545523Y238070D01*
X541795Y238070D01*
X540863Y237138D01*
X540863Y239955D02*
X545523Y239955D01*
X546456Y240887D01*
X546456Y242751D01*
X545523Y243683D01*
X540863Y243683D01*
X540863Y247432D02*
X546456Y247432D01*
X540863Y245568D02*
X540863Y249296D01*
X554292Y226844D02*
X553360Y225912D01*
X553360Y224047D01*
X554292Y223115D01*
X555224Y223115D01*
X556156Y224047D01*
X556156Y225912D01*
X557088Y226844D01*
X558020Y226844D01*
X558952Y225912D01*
X558952Y224047D01*
X558020Y223115D01*
X558952Y230593D02*
X553360Y230593D01*
X553360Y232457D02*
X553360Y228728D01*
X555224Y234342D02*
X558952Y234342D01*
X555224Y234342D02*
X553360Y236206D01*
X555224Y238070D01*
X558952Y238070D01*
X556156Y238070D02*
X556156Y234342D01*
X558952Y239955D02*
X553360Y239955D01*
X553360Y242751D01*
X554292Y243683D01*
X556156Y243683D01*
X557088Y242751D01*
X557088Y239955D01*
X557088Y241819D02*
X558952Y243683D01*
X558952Y247432D02*
X553360Y247432D01*
X553360Y245568D02*
X553360Y249296D01*
X566789Y226844D02*
X565856Y225912D01*
X565856Y224047D01*
X566789Y223115D01*
X567721Y223115D01*
X568653Y224047D01*
X568653Y225912D01*
X569585Y226844D01*
X570517Y226844D01*
X571449Y225912D01*
X571449Y224047D01*
X570517Y223115D01*
X572381Y228728D02*
X572381Y232457D01*
X571449Y234342D02*
X571449Y236206D01*
X571449Y235274D02*
X565856Y235274D01*
X565856Y234342D02*
X565856Y236206D01*
X565856Y238084D02*
X571449Y238084D01*
X571449Y241812D02*
X565856Y238084D01*
X565856Y241812D02*
X571449Y241812D01*
X579285Y226844D02*
X578353Y225912D01*
X578353Y224047D01*
X579285Y223115D01*
X580217Y223115D01*
X581150Y224047D01*
X581150Y225912D01*
X582082Y226844D01*
X583014Y226844D01*
X583946Y225912D01*
X583946Y224047D01*
X583014Y223115D01*
X584878Y228728D02*
X584878Y232457D01*
X579285Y238070D02*
X578353Y237138D01*
X578353Y235274D01*
X579285Y234342D01*
X583014Y234342D01*
X583946Y235274D01*
X583946Y237138D01*
X583014Y238070D01*
X583946Y239955D02*
X578353Y239955D01*
X583946Y239955D02*
X583946Y243683D01*
X583946Y245568D02*
X578353Y245568D01*
X578353Y249296D02*
X582082Y245568D01*
X581150Y246500D02*
X583946Y249296D01*
X591782Y226844D02*
X590850Y225912D01*
X590850Y224047D01*
X591782Y223115D01*
X592714Y223115D01*
X593646Y224047D01*
X593646Y225912D01*
X594578Y226844D01*
X595511Y226844D01*
X596443Y225912D01*
X596443Y224047D01*
X595511Y223115D01*
X597375Y228728D02*
X597375Y232457D01*
X591782Y238070D02*
X590850Y237138D01*
X590850Y235274D01*
X591782Y234342D01*
X595511Y234342D01*
X596443Y235274D01*
X596443Y237138D01*
X595511Y238070D01*
X590850Y242751D02*
X591782Y243683D01*
X590850Y242751D02*
X590850Y240887D01*
X591782Y239955D01*
X592714Y239955D01*
X593646Y240887D01*
X593646Y242751D01*
X594578Y243683D01*
X595511Y243683D01*
X596443Y242751D01*
X596443Y240887D01*
X595511Y239955D01*
X604279Y226844D02*
X603347Y225912D01*
X603347Y224047D01*
X604279Y223115D01*
X608007Y223115D01*
X608939Y224047D01*
X608939Y225912D01*
X608007Y226844D01*
X608939Y228728D02*
X603347Y228728D01*
X608939Y228728D02*
X608939Y232457D01*
X608939Y234342D02*
X603347Y234342D01*
X607075Y234342D02*
X603347Y238070D01*
X606143Y235274D02*
X608939Y238070D01*
X615844Y238070D02*
X615844Y234342D01*
X618640Y234342D01*
X617708Y236206D01*
X617708Y237138D01*
X618640Y238070D01*
X620504Y238070D01*
X621436Y237138D01*
X621436Y235274D01*
X620504Y234342D01*
X619572Y239955D02*
X615844Y239955D01*
X619572Y239955D02*
X621436Y241819D01*
X619572Y243683D01*
X615844Y243683D01*
X630205Y234342D02*
X633933Y234342D01*
X630205Y234342D02*
X628340Y236206D01*
X630205Y238070D01*
X633933Y238070D01*
X631137Y238070D02*
X631137Y234342D01*
X628340Y242751D02*
X629272Y243683D01*
X628340Y242751D02*
X628340Y240887D01*
X629272Y239955D01*
X633001Y239955D01*
X633933Y240887D01*
X633933Y242751D01*
X633001Y243683D01*
X631137Y243683D01*
X631137Y241819D01*
X633933Y245568D02*
X628340Y245568D01*
X633933Y249296D01*
X628340Y249296D01*
X628340Y251181D02*
X633933Y251181D01*
X633933Y253977D01*
X633001Y254909D01*
X629272Y254909D01*
X628340Y253977D01*
X628340Y251181D01*
X59944Y198887D02*
X59944Y193294D01*
X59944Y198887D02*
X62740Y198887D01*
X63673Y197955D01*
X63673Y196090D01*
X62740Y195158D01*
X59944Y195158D01*
X68353Y198887D02*
X69286Y197955D01*
X68353Y198887D02*
X66489Y198887D01*
X65557Y197955D01*
X65557Y194226D01*
X66489Y193294D01*
X68353Y193294D01*
X69286Y194226D01*
X69286Y196090D01*
X67421Y196090D01*
X71170Y193294D02*
X71170Y198887D01*
X74899Y193294D01*
X74899Y198887D01*
X76783Y198887D02*
X76783Y193294D01*
X79580Y193294D01*
X80512Y194226D01*
X80512Y197955D01*
X79580Y198887D01*
X76783Y198887D01*
X81534Y207264D02*
X81534Y212857D01*
X84330Y212857D01*
X85263Y211925D01*
X85263Y210060D01*
X84330Y209128D01*
X81534Y209128D01*
X83398Y209128D02*
X85263Y207264D01*
X87147Y212857D02*
X90876Y212857D01*
X87147Y212857D02*
X87147Y207264D01*
X90876Y207264D01*
X89011Y210060D02*
X87147Y210060D01*
X92760Y207264D02*
X92760Y212857D01*
X96489Y212857D01*
X94624Y210060D02*
X92760Y210060D01*
X98373Y206332D02*
X102102Y206332D01*
X103986Y212857D02*
X107715Y212857D01*
X103986Y212857D02*
X103986Y207264D01*
X107715Y207264D01*
X105851Y210060D02*
X103986Y210060D01*
X109599Y207264D02*
X109599Y212857D01*
X109599Y207264D02*
X113328Y207264D01*
X115213Y212857D02*
X118941Y212857D01*
X115213Y212857D02*
X115213Y207264D01*
X118941Y207264D01*
X117077Y210060D02*
X115213Y210060D01*
X123622Y212857D02*
X124554Y211925D01*
X123622Y212857D02*
X121758Y212857D01*
X120826Y211925D01*
X120826Y208196D01*
X121758Y207264D01*
X123622Y207264D01*
X124554Y208196D01*
X61808Y245364D02*
X59944Y245364D01*
X60876Y245364D02*
X60876Y250957D01*
X59944Y250957D02*
X61808Y250957D01*
X63686Y250957D02*
X63686Y245364D01*
X67415Y245364D02*
X63686Y250957D01*
X67415Y250957D02*
X67415Y245364D01*
X69299Y245364D02*
X73028Y245364D01*
X69299Y245364D02*
X73028Y249093D01*
X73028Y250025D01*
X72096Y250957D01*
X70231Y250957D01*
X69299Y250025D01*
X74912Y250957D02*
X74912Y245364D01*
X74912Y250957D02*
X77709Y250957D01*
X78641Y250025D01*
X78641Y248160D01*
X77709Y247228D01*
X74912Y247228D01*
X61808Y258064D02*
X59944Y258064D01*
X60876Y258064D02*
X60876Y263657D01*
X59944Y263657D02*
X61808Y263657D01*
X63686Y263657D02*
X63686Y258064D01*
X67415Y258064D02*
X63686Y263657D01*
X67415Y263657D02*
X67415Y258064D01*
X69299Y258064D02*
X73028Y258064D01*
X69299Y258064D02*
X73028Y261793D01*
X73028Y262725D01*
X72096Y263657D01*
X70231Y263657D01*
X69299Y262725D01*
X74912Y263657D02*
X74912Y258064D01*
X78641Y258064D02*
X74912Y263657D01*
X78641Y263657D02*
X78641Y258064D01*
X61808Y270764D02*
X59944Y270764D01*
X60876Y270764D02*
X60876Y276357D01*
X59944Y276357D02*
X61808Y276357D01*
X63686Y276357D02*
X63686Y270764D01*
X67415Y270764D02*
X63686Y276357D01*
X67415Y276357D02*
X67415Y270764D01*
X69299Y275425D02*
X70231Y276357D01*
X72096Y276357D01*
X73028Y275425D01*
X73028Y274493D01*
X72096Y273560D01*
X71163Y273560D01*
X72096Y273560D02*
X73028Y272628D01*
X73028Y271696D01*
X72096Y270764D01*
X70231Y270764D01*
X69299Y271696D01*
X74912Y270764D02*
X74912Y276357D01*
X77709Y276357D01*
X78641Y275425D01*
X78641Y273560D01*
X77709Y272628D01*
X74912Y272628D01*
X61808Y283464D02*
X59944Y283464D01*
X60876Y283464D02*
X60876Y289057D01*
X59944Y289057D02*
X61808Y289057D01*
X63686Y289057D02*
X63686Y283464D01*
X67415Y283464D02*
X63686Y289057D01*
X67415Y289057D02*
X67415Y283464D01*
X69299Y288125D02*
X70231Y289057D01*
X72096Y289057D01*
X73028Y288125D01*
X73028Y287193D01*
X72096Y286260D01*
X71163Y286260D01*
X72096Y286260D02*
X73028Y285328D01*
X73028Y284396D01*
X72096Y283464D01*
X70231Y283464D01*
X69299Y284396D01*
X74912Y283464D02*
X74912Y289057D01*
X78641Y283464D01*
X78641Y289057D01*
X18034Y193807D02*
X18034Y188214D01*
X18034Y193807D02*
X20830Y193807D01*
X21763Y192875D01*
X21763Y191010D01*
X20830Y190078D01*
X18034Y190078D01*
X19898Y190078D02*
X21763Y188214D01*
X23647Y193807D02*
X27376Y193807D01*
X23647Y193807D02*
X23647Y188214D01*
X27376Y188214D01*
X25511Y191010D02*
X23647Y191010D01*
X29260Y188214D02*
X29260Y193807D01*
X32989Y193807D01*
X31124Y191010D02*
X29260Y191010D01*
X923544Y525674D02*
X923544Y530170D01*
X923544Y525674D02*
X925792Y525674D01*
X926541Y526423D01*
X926541Y529421D01*
X925792Y530170D01*
X923544Y530170D01*
X928897Y525674D02*
X930396Y525674D01*
X928897Y525674D02*
X928148Y526423D01*
X928148Y527922D01*
X928897Y528671D01*
X930396Y528671D01*
X931145Y527922D01*
X931145Y527173D01*
X928148Y527173D01*
X932752Y525674D02*
X935000Y525674D01*
X935749Y526423D01*
X935000Y527173D01*
X933501Y527173D01*
X932752Y527922D01*
X933501Y528671D01*
X935749Y528671D01*
X937356Y528671D02*
X938105Y528671D01*
X938105Y525674D01*
X937356Y525674D02*
X938854Y525674D01*
X938105Y530170D02*
X938105Y530919D01*
X941924Y524175D02*
X942673Y524175D01*
X943422Y524925D01*
X943422Y528671D01*
X941174Y528671D01*
X940425Y527922D01*
X940425Y526423D01*
X941174Y525674D01*
X943422Y525674D01*
X945029Y525674D02*
X945029Y528671D01*
X947277Y528671D01*
X948026Y527922D01*
X948026Y525674D01*
X949633Y528671D02*
X950382Y528671D01*
X950382Y527922D01*
X949633Y527922D01*
X949633Y528671D01*
X949633Y526423D02*
X950382Y526423D01*
X950382Y525674D01*
X949633Y525674D01*
X949633Y526423D01*
X923544Y522670D02*
X923544Y518174D01*
X923544Y522670D02*
X926541Y522670D01*
X925043Y520422D02*
X923544Y520422D01*
X928148Y521171D02*
X928148Y518174D01*
X928148Y519673D02*
X929647Y521171D01*
X930396Y521171D01*
X932734Y518174D02*
X934232Y518174D01*
X934982Y518923D01*
X934982Y520422D01*
X934232Y521171D01*
X932734Y521171D01*
X931985Y520422D01*
X931985Y518923D01*
X932734Y518174D01*
X939586Y518174D02*
X939586Y522670D01*
X939586Y518174D02*
X937338Y518174D01*
X936588Y518923D01*
X936588Y520422D01*
X937338Y521171D01*
X939586Y521171D01*
X941942Y518174D02*
X943440Y518174D01*
X944190Y518923D01*
X944190Y520422D01*
X943440Y521171D01*
X941942Y521171D01*
X941192Y520422D01*
X941192Y518923D01*
X941942Y518174D01*
X950400Y518174D02*
X950400Y522670D01*
X951899Y521171D01*
X953397Y522670D01*
X953397Y518174D01*
X955004Y518923D02*
X955004Y521171D01*
X955004Y518923D02*
X955753Y518174D01*
X958001Y518174D01*
X958001Y521171D01*
X959608Y521171D02*
X960357Y521171D01*
X960357Y518174D01*
X959608Y518174D02*
X961107Y518174D01*
X960357Y522670D02*
X960357Y523419D01*
X962677Y516675D02*
X963427Y516675D01*
X964176Y517425D01*
X964176Y521171D01*
X964176Y522670D02*
X964176Y523419D01*
X965747Y521171D02*
X968744Y521171D01*
X965747Y518174D01*
X968744Y518174D01*
X971100Y518174D02*
X972598Y518174D01*
X971100Y518174D02*
X970350Y518923D01*
X970350Y520422D01*
X971100Y521171D01*
X972598Y521171D01*
X973348Y520422D01*
X973348Y519673D01*
X970350Y519673D01*
X974954Y518174D02*
X974954Y521171D01*
X974954Y519673D02*
X976453Y521171D01*
X977202Y521171D01*
X923544Y515170D02*
X923544Y510674D01*
X923544Y515170D02*
X925792Y515170D01*
X926541Y514421D01*
X926541Y512922D01*
X925792Y512173D01*
X923544Y512173D01*
X925043Y512173D02*
X926541Y510674D01*
X928897Y510674D02*
X930396Y510674D01*
X928897Y510674D02*
X928148Y511423D01*
X928148Y512922D01*
X928897Y513671D01*
X930396Y513671D01*
X931145Y512922D01*
X931145Y512173D01*
X928148Y512173D01*
X932752Y513671D02*
X934250Y510674D01*
X935749Y513671D01*
X937356Y513671D02*
X938105Y513671D01*
X938105Y510674D01*
X937356Y510674D02*
X938854Y510674D01*
X938105Y515170D02*
X938105Y515919D01*
X941174Y510674D02*
X942673Y510674D01*
X941174Y510674D02*
X940425Y511423D01*
X940425Y512922D01*
X941174Y513671D01*
X942673Y513671D01*
X943422Y512922D01*
X943422Y512173D01*
X940425Y512173D01*
X945029Y511423D02*
X945029Y513671D01*
X945029Y511423D02*
X945778Y510674D01*
X946528Y511423D01*
X947277Y510674D01*
X948026Y511423D01*
X948026Y513671D01*
X949633Y513671D02*
X950382Y513671D01*
X950382Y512922D01*
X949633Y512922D01*
X949633Y513671D01*
X949633Y511423D02*
X950382Y511423D01*
X950382Y510674D01*
X949633Y510674D01*
X949633Y511423D01*
X923544Y507670D02*
X923544Y503174D01*
X925043Y506171D02*
X923544Y507670D01*
X925043Y506171D02*
X926541Y507670D01*
X926541Y503174D01*
X928897Y506171D02*
X930396Y506171D01*
X931145Y505422D01*
X931145Y503174D01*
X928897Y503174D01*
X928148Y503923D01*
X928897Y504673D01*
X931145Y504673D01*
X932752Y506171D02*
X932752Y503174D01*
X932752Y504673D02*
X934250Y506171D01*
X935000Y506171D01*
X937338Y506921D02*
X937338Y503923D01*
X938087Y503174D01*
X938087Y506171D02*
X936588Y506171D01*
X939658Y506171D02*
X940407Y506171D01*
X940407Y503174D01*
X939658Y503174D02*
X941156Y503174D01*
X940407Y507670D02*
X940407Y508419D01*
X942727Y501675D02*
X943476Y501675D01*
X944226Y502425D01*
X944226Y506171D01*
X944226Y507670D02*
X944226Y508419D01*
X945796Y506171D02*
X945796Y503174D01*
X945796Y506171D02*
X948044Y506171D01*
X948793Y505422D01*
X948793Y503174D01*
X957252Y507670D02*
X958001Y506921D01*
X957252Y507670D02*
X955753Y507670D01*
X955004Y506921D01*
X955004Y506171D01*
X955753Y505422D01*
X957252Y505422D01*
X958001Y504673D01*
X958001Y503923D01*
X957252Y503174D01*
X955753Y503174D01*
X955004Y503923D01*
X960357Y506171D02*
X962605Y506171D01*
X960357Y506171D02*
X959608Y505422D01*
X959608Y503923D01*
X960357Y503174D01*
X962605Y503174D01*
X964212Y503174D02*
X964212Y507670D01*
X964961Y506171D02*
X964212Y505422D01*
X964961Y506171D02*
X966460Y506171D01*
X967209Y505422D01*
X967209Y503174D01*
X969565Y503174D02*
X971064Y503174D01*
X971813Y503923D01*
X971813Y505422D01*
X971064Y506171D01*
X969565Y506171D01*
X968816Y505422D01*
X968816Y503923D01*
X969565Y503174D01*
X973420Y503923D02*
X973420Y506171D01*
X973420Y503923D02*
X974169Y503174D01*
X976417Y503174D01*
X976417Y506171D01*
X978773Y506921D02*
X978773Y503923D01*
X979522Y503174D01*
X979522Y506171D02*
X978024Y506171D01*
X981842Y503174D02*
X983341Y503174D01*
X981842Y503174D02*
X981093Y503923D01*
X981093Y505422D01*
X981842Y506171D01*
X983341Y506171D01*
X984090Y505422D01*
X984090Y504673D01*
X981093Y504673D01*
X985697Y503174D02*
X985697Y506171D01*
X987945Y506171D01*
X988694Y505422D01*
X988694Y503174D01*
X938784Y59240D02*
X938784Y56243D01*
X940283Y54744D01*
X941781Y56243D01*
X941781Y59240D01*
X944137Y54744D02*
X945636Y54744D01*
X944137Y54744D02*
X943388Y55493D01*
X943388Y56992D01*
X944137Y57741D01*
X945636Y57741D01*
X946385Y56992D01*
X946385Y56243D01*
X943388Y56243D01*
X947992Y54744D02*
X947992Y57741D01*
X947992Y56243D02*
X949490Y57741D01*
X950240Y57741D01*
X951828Y54744D02*
X954076Y54744D01*
X954826Y55493D01*
X954076Y56243D01*
X952578Y56243D01*
X951828Y56992D01*
X952578Y57741D01*
X954826Y57741D01*
X956432Y57741D02*
X957182Y57741D01*
X957182Y54744D01*
X957931Y54744D02*
X956432Y54744D01*
X957182Y59240D02*
X957182Y59989D01*
X960251Y54744D02*
X961750Y54744D01*
X962499Y55493D01*
X962499Y56992D01*
X961750Y57741D01*
X960251Y57741D01*
X959502Y56992D01*
X959502Y55493D01*
X960251Y54744D01*
X964106Y54744D02*
X964106Y57741D01*
X966353Y57741D01*
X967103Y56992D01*
X967103Y54744D01*
X941781Y47244D02*
X938784Y47244D01*
X941781Y50241D01*
X941781Y50991D01*
X941032Y51740D01*
X939533Y51740D01*
X938784Y50991D01*
X943388Y50991D02*
X943388Y47993D01*
X943388Y50991D02*
X944137Y51740D01*
X945636Y51740D01*
X946385Y50991D01*
X946385Y47993D01*
X945636Y47244D01*
X944137Y47244D01*
X943388Y47993D01*
X946385Y50991D01*
X947992Y47244D02*
X950989Y47244D01*
X947992Y47244D02*
X950989Y50241D01*
X950989Y50991D01*
X950240Y51740D01*
X948741Y51740D01*
X947992Y50991D01*
X952596Y47244D02*
X955593Y47244D01*
X952596Y47244D02*
X955593Y50241D01*
X955593Y50991D01*
X954844Y51740D01*
X953345Y51740D01*
X952596Y50991D01*
X957200Y50991D02*
X957200Y47993D01*
X957200Y50991D02*
X957949Y51740D01*
X959448Y51740D01*
X960197Y50991D01*
X960197Y47993D01*
X959448Y47244D01*
X957949Y47244D01*
X957200Y47993D01*
X960197Y50991D01*
X963302Y50991D02*
X964801Y51740D01*
X963302Y50991D02*
X961804Y49492D01*
X961804Y47993D01*
X962553Y47244D01*
X964051Y47244D01*
X964801Y47993D01*
X964801Y48743D01*
X964051Y49492D01*
X961804Y49492D01*
X966407Y47993D02*
X966407Y50991D01*
X967157Y51740D01*
X968655Y51740D01*
X969405Y50991D01*
X969405Y47993D01*
X968655Y47244D01*
X967157Y47244D01*
X966407Y47993D01*
X969405Y50991D01*
X971011Y50241D02*
X972510Y51740D01*
X972510Y47244D01*
X971011Y47244D02*
X974009Y47244D01*
X975615Y51740D02*
X978612Y51740D01*
X978612Y50991D01*
X975615Y47993D01*
X975615Y47244D01*
X980219Y46495D02*
X983216Y46495D01*
X984823Y50241D02*
X986322Y51740D01*
X986322Y47244D01*
X987820Y47244D02*
X984823Y47244D01*
X990926Y50991D02*
X992424Y51740D01*
X990926Y50991D02*
X989427Y49492D01*
X989427Y47993D01*
X990176Y47244D01*
X991675Y47244D01*
X992424Y47993D01*
X992424Y48743D01*
X991675Y49492D01*
X989427Y49492D01*
X994031Y50241D02*
X994780Y50241D01*
X994780Y49492D01*
X994031Y49492D01*
X994031Y50241D01*
X994031Y47993D02*
X994780Y47993D01*
X994780Y47244D01*
X994031Y47244D01*
X994031Y47993D01*
X996333Y51740D02*
X999330Y51740D01*
X996333Y51740D02*
X996333Y49492D01*
X997831Y50241D01*
X998581Y50241D01*
X999330Y49492D01*
X999330Y47993D01*
X998581Y47244D01*
X997082Y47244D01*
X996333Y47993D01*
X1000937Y47993D02*
X1001686Y47244D01*
X1003185Y47244D01*
X1003934Y47993D01*
X1003934Y50991D01*
X1003185Y51740D01*
X1001686Y51740D01*
X1000937Y50991D01*
X1000937Y50241D01*
X1001686Y49492D01*
X1003934Y49492D01*
X164084Y28640D02*
X164084Y24144D01*
X164084Y28640D02*
X166332Y28640D01*
X167081Y27891D01*
X167081Y27141D01*
X166332Y26392D01*
X167081Y25643D01*
X167081Y24893D01*
X166332Y24144D01*
X164084Y24144D01*
X164084Y26392D02*
X166332Y26392D01*
X169437Y27141D02*
X170936Y27141D01*
X171685Y26392D01*
X171685Y24144D01*
X169437Y24144D01*
X168688Y24893D01*
X169437Y25643D01*
X171685Y25643D01*
X173292Y24144D02*
X175540Y24144D01*
X176289Y24893D01*
X175540Y25643D01*
X174041Y25643D01*
X173292Y26392D01*
X174041Y27141D01*
X176289Y27141D01*
X178645Y24144D02*
X180144Y24144D01*
X178645Y24144D02*
X177896Y24893D01*
X177896Y26392D01*
X178645Y27141D01*
X180144Y27141D01*
X180893Y26392D01*
X180893Y25643D01*
X177896Y25643D01*
X185497Y24144D02*
X185497Y28640D01*
X185497Y24144D02*
X183249Y24144D01*
X182500Y24893D01*
X182500Y26392D01*
X183249Y27141D01*
X185497Y27141D01*
X191707Y27141D02*
X191707Y24893D01*
X192457Y24144D01*
X194705Y24144D01*
X194705Y27141D01*
X196311Y27141D02*
X196311Y22645D01*
X196311Y27141D02*
X198559Y27141D01*
X199309Y26392D01*
X199309Y24893D01*
X198559Y24144D01*
X196311Y24144D01*
X201665Y24144D02*
X203163Y24144D01*
X203912Y24893D01*
X203912Y26392D01*
X203163Y27141D01*
X201665Y27141D01*
X200915Y26392D01*
X200915Y24893D01*
X201665Y24144D01*
X205519Y24144D02*
X205519Y27141D01*
X207767Y27141D01*
X208516Y26392D01*
X208516Y24144D01*
X164084Y21140D02*
X164084Y16644D01*
X164084Y18892D02*
X164833Y19641D01*
X166332Y19641D01*
X167081Y18892D01*
X167081Y16644D01*
X169437Y19641D02*
X170936Y19641D01*
X171685Y18892D01*
X171685Y16644D01*
X169437Y16644D01*
X168688Y17393D01*
X169437Y18143D01*
X171685Y18143D01*
X174041Y19641D02*
X176289Y19641D01*
X174041Y19641D02*
X173292Y18892D01*
X173292Y17393D01*
X174041Y16644D01*
X176289Y16644D01*
X177896Y16644D02*
X177896Y21140D01*
X177896Y18143D02*
X180144Y16644D01*
X177896Y18143D02*
X180144Y19641D01*
X182482Y16644D02*
X183980Y16644D01*
X182482Y16644D02*
X181732Y17393D01*
X181732Y18892D01*
X182482Y19641D01*
X183980Y19641D01*
X184730Y18892D01*
X184730Y18143D01*
X181732Y18143D01*
X187086Y16644D02*
X188584Y16644D01*
X187086Y16644D02*
X186336Y17393D01*
X186336Y18892D01*
X187086Y19641D01*
X188584Y19641D01*
X189333Y18892D01*
X189333Y18143D01*
X186336Y18143D01*
X192439Y15145D02*
X193188Y15145D01*
X193937Y15895D01*
X193937Y19641D01*
X191689Y19641D01*
X190940Y18892D01*
X190940Y17393D01*
X191689Y16644D01*
X193937Y16644D01*
X195544Y18892D02*
X198541Y18892D01*
X200148Y16644D02*
X202396Y16644D01*
X203145Y17393D01*
X202396Y18143D01*
X200897Y18143D01*
X200148Y18892D01*
X200897Y19641D01*
X203145Y19641D01*
X204752Y21140D02*
X204752Y16644D01*
X204752Y18892D02*
X205501Y19641D01*
X207000Y19641D01*
X207749Y18892D01*
X207749Y16644D01*
X209356Y19641D02*
X210105Y19641D01*
X210105Y16644D01*
X209356Y16644D02*
X210854Y16644D01*
X210105Y21140D02*
X210105Y21889D01*
X213174Y16644D02*
X214673Y16644D01*
X213174Y16644D02*
X212425Y17393D01*
X212425Y18892D01*
X213174Y19641D01*
X214673Y19641D01*
X215422Y18892D01*
X215422Y18143D01*
X212425Y18143D01*
X217029Y21140D02*
X217778Y21140D01*
X217778Y16644D01*
X217029Y16644D02*
X218528Y16644D01*
X223095Y16644D02*
X223095Y21140D01*
X223095Y16644D02*
X220848Y16644D01*
X220098Y17393D01*
X220098Y18892D01*
X220848Y19641D01*
X223095Y19641D01*
X229306Y19641D02*
X229306Y16644D01*
X229306Y18143D02*
X230805Y19641D01*
X231554Y19641D01*
X233892Y16644D02*
X235391Y16644D01*
X233892Y16644D02*
X233143Y17393D01*
X233143Y18892D01*
X233892Y19641D01*
X235391Y19641D01*
X236140Y18892D01*
X236140Y18143D01*
X233143Y18143D01*
X237747Y19641D02*
X239245Y16644D01*
X240744Y19641D01*
X246954Y19641D02*
X248453Y21140D01*
X248453Y16644D01*
X246954Y16644D02*
X249952Y16644D01*
X251558Y16644D02*
X251558Y17393D01*
X252308Y17393D01*
X252308Y16644D01*
X251558Y16644D01*
X253860Y21140D02*
X256857Y21140D01*
X253860Y21140D02*
X253860Y18892D01*
X255359Y19641D01*
X256108Y19641D01*
X256857Y18892D01*
X256857Y17393D01*
X256108Y16644D01*
X254609Y16644D01*
X253860Y17393D01*
X258464Y17393D02*
X258464Y16644D01*
X258464Y17393D02*
X259213Y17393D01*
X259213Y16644D01*
X258464Y16644D01*
X260766Y17393D02*
X260766Y20391D01*
X261515Y21140D01*
X263014Y21140D01*
X263763Y20391D01*
X263763Y17393D01*
X263014Y16644D01*
X261515Y16644D01*
X260766Y17393D01*
X263763Y20391D01*
X164084Y13640D02*
X164084Y9144D01*
X166332Y9144D01*
X167081Y9893D01*
X167081Y11392D01*
X166332Y12141D01*
X164084Y12141D01*
X168688Y12141D02*
X168688Y9893D01*
X169437Y9144D01*
X171685Y9144D01*
X171685Y8395D02*
X171685Y12141D01*
X171685Y8395D02*
X170936Y7645D01*
X170187Y7645D01*
X177896Y9144D02*
X177896Y12141D01*
X179394Y13640D01*
X180893Y12141D01*
X180893Y9144D01*
X180893Y11392D02*
X177896Y11392D01*
X185497Y13640D02*
X185497Y9144D01*
X183249Y9144D01*
X182500Y9893D01*
X182500Y11392D01*
X183249Y12141D01*
X185497Y12141D01*
X187853Y12141D02*
X189351Y12141D01*
X190101Y11392D01*
X190101Y9144D01*
X187853Y9144D01*
X187104Y9893D01*
X187853Y10643D01*
X190101Y10643D01*
X191707Y9144D02*
X191707Y12141D01*
X192457Y12141D01*
X193206Y11392D01*
X193206Y9144D01*
X193206Y11392D02*
X193955Y12141D01*
X194705Y11392D01*
X194705Y9144D01*
X200915Y9144D02*
X200915Y13640D01*
X203912Y13640D01*
X202414Y11392D02*
X200915Y11392D01*
X206268Y9144D02*
X207767Y9144D01*
X206268Y9144D02*
X205519Y9893D01*
X205519Y11392D01*
X206268Y12141D01*
X207767Y12141D01*
X208516Y11392D01*
X208516Y10643D01*
X205519Y10643D01*
X210123Y9893D02*
X210123Y12141D01*
X210123Y9893D02*
X210872Y9144D01*
X213120Y9144D01*
X213120Y12141D01*
X215476Y9144D02*
X216975Y9144D01*
X215476Y9144D02*
X214727Y9893D01*
X214727Y11392D01*
X215476Y12141D01*
X216975Y12141D01*
X217724Y11392D01*
X217724Y10643D01*
X214727Y10643D01*
X219331Y9144D02*
X219331Y12141D01*
X219331Y10643D02*
X220829Y12141D01*
X221579Y12141D01*
D14*
X342519Y451276D02*
X342519Y468012D01*
X342519Y451276D02*
X345866Y447929D01*
X352561Y447929D01*
X355908Y451276D01*
X355908Y468012D01*
X362633Y468012D02*
X362633Y447929D01*
X376021Y447929D02*
X362633Y468012D01*
X376021Y468012D02*
X376021Y447929D01*
X382746Y447929D02*
X389441Y447929D01*
X386094Y447929D02*
X386094Y468012D01*
X389441Y468012D02*
X382746Y468012D01*
X396155Y468012D02*
X396155Y454623D01*
X402850Y447929D01*
X409544Y454623D01*
X409544Y468012D01*
X416269Y468012D02*
X429658Y468012D01*
X416269Y468012D02*
X416269Y447929D01*
X429658Y447929D01*
X422963Y457971D02*
X416269Y457971D01*
X436383Y468012D02*
X436383Y447929D01*
X436383Y468012D02*
X446424Y468012D01*
X449771Y464665D01*
X449771Y457971D01*
X446424Y454623D01*
X436383Y454623D01*
X443077Y454623D02*
X449771Y447929D01*
X466538Y468012D02*
X469885Y464665D01*
X466538Y468012D02*
X459844Y468012D01*
X456496Y464665D01*
X456496Y461318D01*
X459844Y457971D01*
X466538Y457971D01*
X469885Y454623D01*
X469885Y451276D01*
X466538Y447929D01*
X459844Y447929D01*
X456496Y451276D01*
X476610Y447929D02*
X483304Y447929D01*
X479957Y447929D02*
X479957Y468012D01*
X476610Y468012D02*
X483304Y468012D01*
X496714Y468012D02*
X496714Y447929D01*
X490019Y468012D02*
X503408Y468012D01*
X510133Y468012D02*
X510133Y464665D01*
X516827Y457971D01*
X523522Y464665D01*
X523522Y468012D01*
X516827Y457971D02*
X516827Y447929D01*
X553707Y468012D02*
X560402Y468012D01*
X553707Y468012D02*
X550360Y464665D01*
X550360Y451276D01*
X553707Y447929D01*
X560402Y447929D01*
X563749Y451276D01*
X563749Y464665D01*
X560402Y468012D01*
X570474Y468012D02*
X570474Y447929D01*
X570474Y468012D02*
X583863Y468012D01*
X577168Y457971D02*
X570474Y457971D01*
X617395Y447929D02*
X617395Y468012D01*
X610701Y468012D02*
X624090Y468012D01*
X630815Y468012D02*
X630815Y447929D01*
X637509Y454623D01*
X644203Y447929D01*
X644203Y468012D01*
X650928Y468012D02*
X664317Y468012D01*
X650928Y468012D02*
X650928Y447929D01*
X664317Y447929D01*
X657623Y457971D02*
X650928Y457971D01*
X671042Y468012D02*
X671042Y447929D01*
X684431Y447929D02*
X671042Y468012D01*
X684431Y468012D02*
X684431Y447929D01*
X697850Y447929D02*
X697850Y468012D01*
X691156Y468012D02*
X704544Y468012D01*
X711269Y468012D02*
X724658Y468012D01*
X711269Y468012D02*
X711269Y447929D01*
X724658Y447929D01*
X717964Y457971D02*
X711269Y457971D01*
X731383Y451276D02*
X731383Y447929D01*
X731383Y451276D02*
X734730Y451276D01*
X734730Y447929D01*
X731383Y447929D01*
D11*
X30861Y523621D02*
X30861Y530993D01*
X34547Y530993D01*
X35776Y529765D01*
X35776Y527307D01*
X34547Y526078D01*
X30861Y526078D01*
X38345Y523621D02*
X38345Y530993D01*
X40803Y526078D02*
X38345Y523621D01*
X40803Y526078D02*
X43260Y523621D01*
X43260Y530993D01*
X45829Y530993D02*
X45829Y523621D01*
X49515Y523621D01*
X50744Y524850D01*
X50744Y529765D01*
X49515Y530993D01*
X45829Y530993D01*
X53313Y530993D02*
X53313Y523621D01*
X58228Y523621D02*
X53313Y530993D01*
X58228Y530993D02*
X58228Y523621D01*
X305854Y241681D02*
X310769Y241681D01*
X305854Y241681D02*
X303397Y244138D01*
X305854Y246596D01*
X310769Y246596D01*
X307083Y246596D02*
X307083Y241681D01*
X303397Y249165D02*
X310769Y249165D01*
X310769Y252851D01*
X309540Y254080D01*
X304625Y254080D01*
X303397Y252851D01*
X303397Y249165D01*
X303397Y260335D02*
X304625Y261564D01*
X303397Y260335D02*
X303397Y257878D01*
X304625Y256649D01*
X305854Y256649D01*
X307083Y257878D01*
X307083Y260335D01*
X308312Y261564D01*
X309540Y261564D01*
X310769Y260335D01*
X310769Y257878D01*
X309540Y256649D01*
X305854Y264133D02*
X303397Y266591D01*
X310769Y266591D01*
X310769Y269048D02*
X310769Y264133D01*
X310769Y271618D02*
X310769Y276532D01*
X310769Y271618D02*
X305854Y276532D01*
X304625Y276532D01*
X303397Y275304D01*
X303397Y272846D01*
X304625Y271618D01*
X309540Y279102D02*
X310769Y280330D01*
X310769Y282788D01*
X309540Y284017D01*
X304625Y284017D01*
X303397Y282788D01*
X303397Y280330D01*
X304625Y279102D01*
X305854Y279102D01*
X307083Y280330D01*
X307083Y284017D01*
X309540Y286586D02*
X310769Y287815D01*
X310769Y290272D01*
X309540Y291501D01*
X304625Y291501D01*
X303397Y290272D01*
X303397Y287815D01*
X304625Y286586D01*
X305854Y286586D01*
X307083Y287815D01*
X307083Y291501D01*
X310769Y294070D02*
X310769Y296528D01*
X310769Y295299D02*
X303397Y295299D01*
X303397Y294070D02*
X303397Y296528D01*
X303397Y299060D02*
X310769Y299060D01*
X303397Y299060D02*
X303397Y302746D01*
X304625Y303974D01*
X307083Y303974D01*
X308312Y302746D01*
X308312Y299060D01*
X310769Y306544D02*
X305854Y306544D01*
X303397Y309001D01*
X305854Y311459D01*
X310769Y311459D01*
X307083Y311459D02*
X307083Y306544D01*
X303397Y317714D02*
X304625Y318943D01*
X303397Y317714D02*
X303397Y315257D01*
X304625Y314028D01*
X309540Y314028D01*
X310769Y315257D01*
X310769Y317714D01*
X309540Y318943D01*
X307083Y318943D01*
X307083Y316485D01*
X647850Y105118D02*
X647850Y100203D01*
X647850Y105118D02*
X650308Y107575D01*
X652765Y105118D01*
X652765Y100203D01*
X652765Y103889D02*
X647850Y103889D01*
X655335Y100203D02*
X655335Y107575D01*
X657792Y105118D01*
X660249Y107575D01*
X660249Y100203D01*
X662819Y105118D02*
X665276Y107575D01*
X665276Y100203D01*
X662819Y100203D02*
X667734Y100203D01*
X670303Y100203D02*
X670303Y107575D01*
X670303Y100203D02*
X673989Y100203D01*
X675218Y101432D01*
X675218Y106347D01*
X673989Y107575D01*
X670303Y107575D01*
X677787Y107575D02*
X677787Y100203D01*
X680244Y105118D02*
X677787Y107575D01*
X680244Y105118D02*
X682702Y107575D01*
X682702Y100203D01*
X685271Y103889D02*
X690186Y103889D01*
X692755Y101432D02*
X692755Y106347D01*
X693984Y107575D01*
X696441Y107575D01*
X697670Y106347D01*
X697670Y101432D01*
X696441Y100203D01*
X693984Y100203D01*
X692755Y101432D01*
X697670Y106347D01*
X700239Y107575D02*
X705154Y107575D01*
X700239Y107575D02*
X700239Y103889D01*
X702697Y105118D01*
X703926Y105118D01*
X705154Y103889D01*
X705154Y101432D01*
X703926Y100203D01*
X701468Y100203D01*
X700239Y101432D01*
X707724Y101432D02*
X707724Y106347D01*
X708952Y107575D01*
X711410Y107575D01*
X712638Y106347D01*
X712638Y101432D01*
X711410Y100203D01*
X708952Y100203D01*
X707724Y101432D01*
X712638Y106347D01*
X715208Y107575D02*
X720123Y107575D01*
X715208Y107575D02*
X715208Y103889D01*
X717665Y105118D01*
X718894Y105118D01*
X720123Y103889D01*
X720123Y101432D01*
X718894Y100203D01*
X716436Y100203D01*
X715208Y101432D01*
X726378Y107575D02*
X727607Y106347D01*
X726378Y107575D02*
X723921Y107575D01*
X722692Y106347D01*
X722692Y105118D01*
X723921Y103889D01*
X726378Y103889D01*
X727607Y102660D01*
X727607Y101432D01*
X726378Y100203D01*
X723921Y100203D01*
X722692Y101432D01*
X730176Y100203D02*
X730176Y107575D01*
X730176Y103889D02*
X735091Y103889D01*
X735091Y107575D02*
X735091Y100203D01*
X740118Y106347D02*
X742575Y107575D01*
X740118Y106347D02*
X737660Y103889D01*
X737660Y101432D01*
X738889Y100203D01*
X741346Y100203D01*
X742575Y101432D01*
X742575Y102660D01*
X741346Y103889D01*
X737660Y103889D01*
X745144Y101432D02*
X745144Y106347D01*
X746373Y107575D01*
X748831Y107575D01*
X750059Y106347D01*
X750059Y101432D01*
X748831Y100203D01*
X746373Y100203D01*
X745144Y101432D01*
X750059Y106347D01*
X752629Y103889D02*
X757543Y103889D01*
X760113Y100203D02*
X760113Y107575D01*
X765028Y100203D01*
X765028Y107575D01*
X767597Y107575D02*
X772512Y107575D01*
X772512Y106347D01*
X767597Y101432D01*
X767597Y100203D01*
X772512Y100203D01*
X613578Y202583D02*
X607435Y202583D01*
X613578Y202583D02*
X614807Y203811D01*
X614807Y206269D01*
X613578Y207498D01*
X607435Y207498D01*
X609892Y210067D02*
X607435Y212524D01*
X614807Y212524D01*
X614807Y210067D02*
X614807Y214982D01*
X627421Y171075D02*
X629879Y171075D01*
X627421Y171075D02*
X626192Y169847D01*
X626192Y164932D01*
X627421Y163703D01*
X629879Y163703D01*
X631107Y164932D01*
X631107Y169847D01*
X629879Y171075D01*
X633677Y168618D02*
X633677Y163703D01*
X633677Y168618D02*
X637363Y168618D01*
X638591Y167389D01*
X638591Y163703D01*
X641161Y171075D02*
X642389Y171075D01*
X642389Y163703D01*
X641161Y163703D02*
X643618Y163703D01*
X646150Y164932D02*
X646150Y168618D01*
X646150Y164932D02*
X647379Y163703D01*
X651065Y163703D01*
X651065Y162474D02*
X651065Y168618D01*
X651065Y162474D02*
X649836Y161246D01*
X648608Y161246D01*
X662347Y163703D02*
X664805Y163703D01*
X666033Y164932D01*
X666033Y167389D01*
X664805Y168618D01*
X662347Y168618D01*
X661119Y167389D01*
X661119Y164932D01*
X662347Y163703D01*
X668603Y163703D02*
X668603Y168618D01*
X672289Y168618D01*
X673518Y167389D01*
X673518Y163703D01*
X677316Y163703D02*
X679773Y163703D01*
X677316Y163703D02*
X676087Y164932D01*
X676087Y167389D01*
X677316Y168618D01*
X679773Y168618D01*
X681002Y167389D01*
X681002Y166160D01*
X676087Y166160D01*
X691055Y168618D02*
X692284Y168618D01*
X692284Y163703D01*
X691055Y163703D02*
X693513Y163703D01*
X692284Y171075D02*
X692284Y172304D01*
X696045Y163703D02*
X699731Y163703D01*
X700959Y164932D01*
X699731Y166160D01*
X697273Y166160D01*
X696045Y167389D01*
X697273Y168618D01*
X700959Y168618D01*
X704757Y163703D02*
X707215Y163703D01*
X708444Y164932D01*
X708444Y167389D01*
X707215Y168618D01*
X704757Y168618D01*
X703529Y167389D01*
X703529Y164932D01*
X704757Y163703D01*
X711013Y171075D02*
X712242Y171075D01*
X712242Y163703D01*
X713470Y163703D02*
X711013Y163703D01*
X717231Y168618D02*
X719688Y168618D01*
X720917Y167389D01*
X720917Y163703D01*
X717231Y163703D01*
X716002Y164932D01*
X717231Y166160D01*
X720917Y166160D01*
X724715Y164932D02*
X724715Y169847D01*
X724715Y164932D02*
X725944Y163703D01*
X725944Y168618D02*
X723486Y168618D01*
X729705Y163703D02*
X732162Y163703D01*
X733391Y164932D01*
X733391Y167389D01*
X732162Y168618D01*
X729705Y168618D01*
X728476Y167389D01*
X728476Y164932D01*
X729705Y163703D01*
X735960Y163703D02*
X735960Y168618D01*
X738417Y168618D02*
X735960Y166160D01*
X738417Y168618D02*
X739646Y168618D01*
X627421Y156426D02*
X626192Y156426D01*
X627421Y156426D02*
X627421Y151511D01*
X626192Y151511D02*
X628650Y151511D01*
X627421Y158883D02*
X627421Y160112D01*
X631182Y151511D02*
X634868Y151511D01*
X636097Y152740D01*
X634868Y153968D01*
X632411Y153968D01*
X631182Y155197D01*
X632411Y156426D01*
X636097Y156426D01*
X646150Y156426D02*
X646150Y151511D01*
X646150Y153968D02*
X648608Y156426D01*
X649836Y156426D01*
X653616Y151511D02*
X656073Y151511D01*
X653616Y151511D02*
X652387Y152740D01*
X652387Y155197D01*
X653616Y156426D01*
X656073Y156426D01*
X657302Y155197D01*
X657302Y153968D01*
X652387Y153968D01*
X664786Y156426D02*
X664786Y149054D01*
X664786Y156426D02*
X661100Y156426D01*
X659871Y155197D01*
X659871Y152740D01*
X661100Y151511D01*
X664786Y151511D01*
X667355Y152740D02*
X667355Y156426D01*
X667355Y152740D02*
X668584Y151511D01*
X672270Y151511D01*
X672270Y156426D01*
X674839Y156426D02*
X676068Y156426D01*
X676068Y151511D01*
X674839Y151511D02*
X677297Y151511D01*
X676068Y158883D02*
X676068Y160112D01*
X679829Y156426D02*
X679829Y151511D01*
X679829Y153968D02*
X682286Y156426D01*
X683515Y156426D01*
X687294Y151511D02*
X689752Y151511D01*
X687294Y151511D02*
X686066Y152740D01*
X686066Y155197D01*
X687294Y156426D01*
X689752Y156426D01*
X690981Y155197D01*
X690981Y153968D01*
X686066Y153968D01*
X698465Y151511D02*
X698465Y158883D01*
X698465Y151511D02*
X694779Y151511D01*
X693550Y152740D01*
X693550Y155197D01*
X694779Y156426D01*
X698465Y156426D01*
X701034Y152740D02*
X701034Y151511D01*
X701034Y155197D02*
X701034Y160112D01*
X88636Y103807D02*
X87407Y105035D01*
X84950Y105035D01*
X83721Y103807D01*
X83721Y98892D01*
X84950Y97663D01*
X87407Y97663D01*
X88636Y98892D01*
X88636Y101349D01*
X86179Y101349D01*
X91205Y102578D02*
X91205Y97663D01*
X91205Y100120D02*
X93663Y102578D01*
X94892Y102578D01*
X98671Y97663D02*
X101128Y97663D01*
X98671Y97663D02*
X97442Y98892D01*
X97442Y101349D01*
X98671Y102578D01*
X101128Y102578D01*
X102357Y101349D01*
X102357Y100120D01*
X97442Y100120D01*
X106155Y97663D02*
X108613Y97663D01*
X106155Y97663D02*
X104926Y98892D01*
X104926Y101349D01*
X106155Y102578D01*
X108613Y102578D01*
X109841Y101349D01*
X109841Y100120D01*
X104926Y100120D01*
X112411Y97663D02*
X112411Y102578D01*
X116097Y102578D01*
X117325Y101349D01*
X117325Y97663D01*
X131065Y105035D02*
X132294Y103807D01*
X131065Y105035D02*
X128608Y105035D01*
X127379Y103807D01*
X127379Y98892D01*
X128608Y97663D01*
X131065Y97663D01*
X132294Y98892D01*
X136092Y102578D02*
X138549Y102578D01*
X139778Y101349D01*
X139778Y97663D01*
X136092Y97663D01*
X134863Y98892D01*
X136092Y100120D01*
X139778Y100120D01*
X142347Y97663D02*
X146033Y97663D01*
X147262Y98892D01*
X146033Y100120D01*
X143576Y100120D01*
X142347Y101349D01*
X143576Y102578D01*
X147262Y102578D01*
X149831Y102578D02*
X151060Y102578D01*
X151060Y97663D01*
X149831Y97663D02*
X152289Y97663D01*
X151060Y105035D02*
X151060Y106264D01*
X154821Y102578D02*
X154821Y97663D01*
X154821Y102578D02*
X158507Y102578D01*
X159736Y101349D01*
X159736Y97663D01*
X164762Y95206D02*
X165991Y95206D01*
X167220Y96434D01*
X167220Y102578D01*
X163534Y102578D01*
X162305Y101349D01*
X162305Y98892D01*
X163534Y97663D01*
X167220Y97663D01*
X178502Y98892D02*
X178502Y103807D01*
X178502Y98892D02*
X179731Y97663D01*
X179731Y102578D02*
X177273Y102578D01*
X183491Y97663D02*
X185949Y97663D01*
X187178Y98892D01*
X187178Y101349D01*
X185949Y102578D01*
X183491Y102578D01*
X182263Y101349D01*
X182263Y98892D01*
X183491Y97663D01*
X84950Y90386D02*
X83721Y90386D01*
X84950Y90386D02*
X84950Y85471D01*
X83721Y85471D02*
X86179Y85471D01*
X84950Y92843D02*
X84950Y94072D01*
X88711Y90386D02*
X88711Y85471D01*
X88711Y90386D02*
X92397Y90386D01*
X93626Y89157D01*
X93626Y85471D01*
X101110Y85471D02*
X101110Y92843D01*
X101110Y85471D02*
X97424Y85471D01*
X96195Y86700D01*
X96195Y89157D01*
X97424Y90386D01*
X101110Y90386D01*
X103679Y90386D02*
X104908Y90386D01*
X104908Y85471D01*
X106136Y85471D02*
X103679Y85471D01*
X104908Y92843D02*
X104908Y94072D01*
X109897Y90386D02*
X113583Y90386D01*
X109897Y90386D02*
X108669Y89157D01*
X108669Y86700D01*
X109897Y85471D01*
X113583Y85471D01*
X117381Y90386D02*
X119839Y90386D01*
X121068Y89157D01*
X121068Y85471D01*
X117381Y85471D01*
X116153Y86700D01*
X117381Y87928D01*
X121068Y87928D01*
X124866Y86700D02*
X124866Y91615D01*
X124866Y86700D02*
X126094Y85471D01*
X126094Y90386D02*
X123637Y90386D01*
X129855Y85471D02*
X132312Y85471D01*
X129855Y85471D02*
X128626Y86700D01*
X128626Y89157D01*
X129855Y90386D01*
X132312Y90386D01*
X133541Y89157D01*
X133541Y87928D01*
X128626Y87928D01*
X143595Y85471D02*
X143595Y92843D01*
X147281Y92843D01*
X148509Y91615D01*
X148509Y89157D01*
X147281Y87928D01*
X143595Y87928D01*
X154765Y92843D02*
X155994Y91615D01*
X154765Y92843D02*
X152307Y92843D01*
X151079Y91615D01*
X151079Y86700D01*
X152307Y85471D01*
X154765Y85471D01*
X155994Y86700D01*
X155994Y89157D01*
X153536Y89157D01*
X158563Y85471D02*
X158563Y92843D01*
X163478Y85471D01*
X163478Y92843D01*
X166047Y92843D02*
X166047Y85471D01*
X169733Y85471D01*
X170962Y86700D01*
X170962Y91615D01*
X169733Y92843D01*
X166047Y92843D01*
X92453Y192913D02*
X92453Y200285D01*
X96139Y200285D01*
X97368Y199057D01*
X97368Y197828D01*
X96139Y196599D01*
X97368Y195370D01*
X97368Y194142D01*
X96139Y192913D01*
X92453Y192913D01*
X92453Y196599D02*
X96139Y196599D01*
X99937Y200285D02*
X101166Y200285D01*
X101166Y192913D01*
X102394Y192913D02*
X99937Y192913D01*
X104926Y194142D02*
X104926Y197828D01*
X104926Y194142D02*
X106155Y192913D01*
X109841Y192913D01*
X109841Y197828D01*
X113639Y192913D02*
X116097Y192913D01*
X113639Y192913D02*
X112411Y194142D01*
X112411Y196599D01*
X113639Y197828D01*
X116097Y197828D01*
X117325Y196599D01*
X117325Y195370D01*
X112411Y195370D01*
X131065Y200285D02*
X132294Y199057D01*
X131065Y200285D02*
X128608Y200285D01*
X127379Y199057D01*
X127379Y194142D01*
X128608Y192913D01*
X131065Y192913D01*
X132294Y194142D01*
X136092Y197828D02*
X138549Y197828D01*
X139778Y196599D01*
X139778Y192913D01*
X136092Y192913D01*
X134863Y194142D01*
X136092Y195370D01*
X139778Y195370D01*
X142347Y192913D02*
X146033Y192913D01*
X147262Y194142D01*
X146033Y195370D01*
X143576Y195370D01*
X142347Y196599D01*
X143576Y197828D01*
X147262Y197828D01*
X149831Y197828D02*
X151060Y197828D01*
X151060Y192913D01*
X149831Y192913D02*
X152289Y192913D01*
X151060Y200285D02*
X151060Y201514D01*
X154821Y197828D02*
X154821Y192913D01*
X154821Y197828D02*
X158507Y197828D01*
X159736Y196599D01*
X159736Y192913D01*
X164762Y190456D02*
X165991Y190456D01*
X167220Y191684D01*
X167220Y197828D01*
X163534Y197828D01*
X162305Y196599D01*
X162305Y194142D01*
X163534Y192913D01*
X167220Y192913D01*
X178502Y194142D02*
X178502Y199057D01*
X178502Y194142D02*
X179731Y192913D01*
X179731Y197828D02*
X177273Y197828D01*
X183491Y192913D02*
X185949Y192913D01*
X187178Y194142D01*
X187178Y196599D01*
X185949Y197828D01*
X183491Y197828D01*
X182263Y196599D01*
X182263Y194142D01*
X183491Y192913D01*
X93682Y185636D02*
X92453Y185636D01*
X93682Y185636D02*
X93682Y180721D01*
X94910Y180721D02*
X92453Y180721D01*
X93682Y188093D02*
X93682Y189322D01*
X97442Y185636D02*
X97442Y180721D01*
X97442Y185636D02*
X101128Y185636D01*
X102357Y184407D01*
X102357Y180721D01*
X109841Y180721D02*
X109841Y188093D01*
X109841Y180721D02*
X106155Y180721D01*
X104926Y181950D01*
X104926Y184407D01*
X106155Y185636D01*
X109841Y185636D01*
X112411Y185636D02*
X113639Y185636D01*
X113639Y180721D01*
X112411Y180721D02*
X114868Y180721D01*
X113639Y188093D02*
X113639Y189322D01*
X118629Y185636D02*
X122315Y185636D01*
X118629Y185636D02*
X117400Y184407D01*
X117400Y181950D01*
X118629Y180721D01*
X122315Y180721D01*
X126113Y185636D02*
X128570Y185636D01*
X129799Y184407D01*
X129799Y180721D01*
X126113Y180721D01*
X124884Y181950D01*
X126113Y183178D01*
X129799Y183178D01*
X133597Y181950D02*
X133597Y186865D01*
X133597Y181950D02*
X134826Y180721D01*
X134826Y185636D02*
X132368Y185636D01*
X138586Y180721D02*
X141044Y180721D01*
X138586Y180721D02*
X137358Y181950D01*
X137358Y184407D01*
X138586Y185636D01*
X141044Y185636D01*
X142273Y184407D01*
X142273Y183178D01*
X137358Y183178D01*
X152326Y180721D02*
X152326Y188093D01*
X156012Y188093D01*
X157241Y186865D01*
X157241Y184407D01*
X156012Y183178D01*
X152326Y183178D01*
X154783Y183178D02*
X157241Y180721D01*
X159810Y188093D02*
X164725Y188093D01*
X159810Y188093D02*
X159810Y180721D01*
X164725Y180721D01*
X162268Y184407D02*
X159810Y184407D01*
X167294Y180721D02*
X167294Y188093D01*
X172209Y188093D01*
X169752Y184407D02*
X167294Y184407D01*
D10*
X492951Y388874D02*
X492951Y395484D01*
X492951Y388874D02*
X497358Y388874D01*
X499968Y388874D02*
X504374Y388874D01*
X499968Y388874D02*
X504374Y393280D01*
X504374Y394382D01*
X503272Y395484D01*
X501069Y395484D01*
X499968Y394382D01*
D15*
X540207Y375412D02*
X540817Y375412D01*
D10*
X537169Y357589D02*
X538303Y356520D01*
X537169Y357589D02*
X534967Y357523D01*
X533899Y356389D01*
X534029Y351985D01*
X535163Y350917D01*
X537365Y350982D01*
X538434Y352116D01*
X544379Y351190D02*
X544183Y357797D01*
X540977Y354395D01*
X545382Y354526D01*
D15*
X520497Y375412D02*
X519887Y375412D01*
D10*
X516576Y357892D02*
X517678Y356790D01*
X516576Y357892D02*
X514373Y357892D01*
X513271Y356790D01*
X513271Y352384D01*
X514373Y351282D01*
X516576Y351282D01*
X517678Y352384D01*
X520288Y357892D02*
X524694Y357892D01*
X520288Y357892D02*
X520288Y354587D01*
X522491Y355688D01*
X523592Y355688D01*
X524694Y354587D01*
X524694Y352384D01*
X523592Y351282D01*
X521389Y351282D01*
X520288Y352384D01*
D15*
X469189Y376174D02*
X468579Y376174D01*
D10*
X479292Y379670D02*
X480394Y380772D01*
X479292Y379670D02*
X479292Y377467D01*
X480394Y376365D01*
X484800Y376365D01*
X485902Y377467D01*
X485902Y379670D01*
X484800Y380772D01*
X480394Y385585D02*
X479292Y387788D01*
X480394Y385585D02*
X482597Y383382D01*
X484800Y383382D01*
X485902Y384483D01*
X485902Y386686D01*
X484800Y387788D01*
X483699Y387788D01*
X482597Y386686D01*
X482597Y383382D01*
D16*
X450134Y193546D02*
X450134Y161546D01*
X424134Y161546D02*
X424134Y193546D01*
D10*
X431803Y152914D02*
X432904Y151812D01*
X431803Y152914D02*
X429600Y152914D01*
X428498Y151812D01*
X428498Y147406D01*
X429600Y146304D01*
X431803Y146304D01*
X432904Y147406D01*
X435514Y150710D02*
X437718Y152914D01*
X437718Y146304D01*
X439921Y146304D02*
X435514Y146304D01*
X442531Y152914D02*
X446937Y152914D01*
X446937Y151812D01*
X442531Y147406D01*
X442531Y146304D01*
D15*
X464515Y184658D02*
X465125Y184658D01*
D10*
X465068Y204506D02*
X466170Y205607D01*
X465068Y204506D02*
X465068Y202302D01*
X466170Y201201D01*
X470576Y201201D01*
X471678Y202302D01*
X471678Y204506D01*
X470576Y205607D01*
X467272Y208217D02*
X465068Y210420D01*
X471678Y210420D01*
X471678Y208217D02*
X471678Y212624D01*
X466170Y215234D02*
X465068Y216335D01*
X465068Y218538D01*
X466170Y219640D01*
X467272Y219640D01*
X468373Y218538D01*
X469475Y219640D01*
X470576Y219640D01*
X471678Y218538D01*
X471678Y216335D01*
X470576Y215234D01*
X469475Y215234D01*
X468373Y216335D01*
X467272Y215234D01*
X466170Y215234D01*
X468373Y216335D02*
X468373Y218538D01*
D15*
X398018Y382219D02*
X398018Y382829D01*
D10*
X368134Y383968D02*
X367033Y385070D01*
X364830Y385070D01*
X363728Y383968D01*
X363728Y379562D01*
X364830Y378460D01*
X367033Y378460D01*
X368134Y379562D01*
X370744Y382866D02*
X372948Y385070D01*
X372948Y378460D01*
X375151Y378460D02*
X370744Y378460D01*
X377761Y379562D02*
X378862Y378460D01*
X381066Y378460D01*
X382167Y379562D01*
X382167Y383968D01*
X381066Y385070D01*
X378862Y385070D01*
X377761Y383968D01*
X377761Y382866D01*
X378862Y381765D01*
X382167Y381765D01*
D15*
X397764Y362509D02*
X397764Y361899D01*
D10*
X368134Y364664D02*
X367033Y365766D01*
X364830Y365766D01*
X363728Y364664D01*
X363728Y360258D01*
X364830Y359156D01*
X367033Y359156D01*
X368134Y360258D01*
X370744Y359156D02*
X375151Y359156D01*
X375151Y363562D02*
X370744Y359156D01*
X375151Y363562D02*
X375151Y364664D01*
X374049Y365766D01*
X371846Y365766D01*
X370744Y364664D01*
X377761Y364664D02*
X377761Y360258D01*
X377761Y364664D02*
X378862Y365766D01*
X381066Y365766D01*
X382167Y364664D01*
X382167Y360258D01*
X381066Y359156D01*
X378862Y359156D01*
X377761Y360258D01*
X382167Y364664D01*
D15*
X409204Y185105D02*
X409814Y185105D01*
D10*
X405671Y206005D02*
X404569Y207107D01*
X402366Y207107D01*
X401264Y206005D01*
X401264Y201599D01*
X402366Y200497D01*
X404569Y200497D01*
X405671Y201599D01*
X408281Y200497D02*
X412687Y200497D01*
X408281Y200497D02*
X412687Y204904D01*
X412687Y206005D01*
X411585Y207107D01*
X409382Y207107D01*
X408281Y206005D01*
X415297Y204904D02*
X417500Y207107D01*
X417500Y200497D01*
X415297Y200497D02*
X419703Y200497D01*
D15*
X383497Y171018D02*
X383497Y170408D01*
D10*
X402626Y169063D02*
X403727Y167961D01*
X402626Y169063D02*
X400423Y169063D01*
X399321Y167961D01*
X399321Y163555D01*
X400423Y162453D01*
X402626Y162453D01*
X403727Y163555D01*
X406337Y162453D02*
X410744Y162453D01*
X406337Y162453D02*
X410744Y166860D01*
X410744Y167961D01*
X409642Y169063D01*
X407439Y169063D01*
X406337Y167961D01*
X413354Y162453D02*
X417760Y162453D01*
X413354Y162453D02*
X417760Y166860D01*
X417760Y167961D01*
X416659Y169063D01*
X414455Y169063D01*
X413354Y167961D01*
D15*
X383677Y191178D02*
X383677Y191788D01*
D10*
X377992Y206051D02*
X376891Y207153D01*
X374687Y207153D01*
X373586Y206051D01*
X373586Y201645D01*
X374687Y200543D01*
X376891Y200543D01*
X377992Y201645D01*
X380602Y200543D02*
X385009Y200543D01*
X380602Y200543D02*
X385009Y204950D01*
X385009Y206051D01*
X383907Y207153D01*
X381704Y207153D01*
X380602Y206051D01*
X387619Y206051D02*
X388720Y207153D01*
X390923Y207153D01*
X392025Y206051D01*
X392025Y204950D01*
X390923Y203848D01*
X389822Y203848D01*
X390923Y203848D02*
X392025Y202746D01*
X392025Y201645D01*
X390923Y200543D01*
X388720Y200543D01*
X387619Y201645D01*
X491681Y432816D02*
X491681Y439426D01*
X491681Y432816D02*
X496088Y432816D01*
X498698Y438324D02*
X499799Y439426D01*
X502002Y439426D01*
X503104Y438324D01*
X503104Y437222D01*
X502002Y436121D01*
X500901Y436121D01*
X502002Y436121D02*
X503104Y435019D01*
X503104Y433918D01*
X502002Y432816D01*
X499799Y432816D01*
X498698Y433918D01*
D15*
X540207Y417322D02*
X540817Y417322D01*
D10*
X537585Y438070D02*
X536484Y439172D01*
X534280Y439172D01*
X533179Y438070D01*
X533179Y433664D01*
X534280Y432562D01*
X536484Y432562D01*
X537585Y433664D01*
X540195Y436968D02*
X542398Y439172D01*
X542398Y432562D01*
X540195Y432562D02*
X544602Y432562D01*
X547212Y439172D02*
X551618Y439172D01*
X547212Y439172D02*
X547212Y435867D01*
X549415Y436968D01*
X550516Y436968D01*
X551618Y435867D01*
X551618Y433664D01*
X550516Y432562D01*
X548313Y432562D01*
X547212Y433664D01*
D15*
X520497Y417322D02*
X519887Y417322D01*
D10*
X514471Y438578D02*
X513370Y439680D01*
X511166Y439680D01*
X510065Y438578D01*
X510065Y434172D01*
X511166Y433070D01*
X513370Y433070D01*
X514471Y434172D01*
X517081Y437476D02*
X519284Y439680D01*
X519284Y433070D01*
X517081Y433070D02*
X521488Y433070D01*
X526301Y438578D02*
X528504Y439680D01*
X526301Y438578D02*
X524098Y436375D01*
X524098Y434172D01*
X525199Y433070D01*
X527402Y433070D01*
X528504Y434172D01*
X528504Y435273D01*
X527402Y436375D01*
X524098Y436375D01*
D15*
X469443Y416814D02*
X468833Y416814D01*
D10*
X467227Y438832D02*
X466126Y439934D01*
X463922Y439934D01*
X462821Y438832D01*
X462821Y434426D01*
X463922Y433324D01*
X466126Y433324D01*
X467227Y434426D01*
X469837Y433324D02*
X474244Y433324D01*
X474244Y437730D02*
X469837Y433324D01*
X474244Y437730D02*
X474244Y438832D01*
X473142Y439934D01*
X470939Y439934D01*
X469837Y438832D01*
X480158Y439934D02*
X480158Y433324D01*
X476854Y436629D02*
X480158Y439934D01*
X481260Y436629D02*
X476854Y436629D01*
X671830Y307092D02*
X671830Y300482D01*
X676236Y300482D01*
X682151Y300482D02*
X682151Y307092D01*
X678846Y303787D01*
X683253Y303787D01*
D15*
X681787Y264160D02*
X681177Y264160D01*
D10*
X657219Y254936D02*
X656118Y256038D01*
X653914Y256038D01*
X652813Y254936D01*
X652813Y250530D01*
X653914Y249428D01*
X656118Y249428D01*
X657219Y250530D01*
X659829Y249428D02*
X664236Y249428D01*
X664236Y253834D02*
X659829Y249428D01*
X664236Y253834D02*
X664236Y254936D01*
X663134Y256038D01*
X660931Y256038D01*
X659829Y254936D01*
X666846Y256038D02*
X671252Y256038D01*
X671252Y254936D01*
X666846Y250530D01*
X666846Y249428D01*
D17*
X336286Y325606D02*
X334286Y323606D01*
X336286Y325606D02*
X430286Y325606D01*
X432286Y323606D01*
X432286Y229606D01*
X430286Y227606D01*
X336286Y227606D01*
X334286Y229606D01*
X334286Y323606D01*
D18*
X340786Y316606D02*
X340788Y316705D01*
X340794Y316805D01*
X340804Y316904D01*
X340818Y317002D01*
X340835Y317100D01*
X340857Y317197D01*
X340882Y317293D01*
X340911Y317388D01*
X340944Y317482D01*
X340981Y317574D01*
X341021Y317665D01*
X341065Y317754D01*
X341113Y317842D01*
X341164Y317927D01*
X341218Y318010D01*
X341275Y318092D01*
X341336Y318170D01*
X341400Y318247D01*
X341466Y318320D01*
X341536Y318391D01*
X341608Y318459D01*
X341683Y318525D01*
X341761Y318587D01*
X341841Y318646D01*
X341923Y318702D01*
X342007Y318754D01*
X342094Y318803D01*
X342182Y318849D01*
X342272Y318891D01*
X342364Y318930D01*
X342457Y318965D01*
X342551Y318996D01*
X342647Y319023D01*
X342744Y319046D01*
X342841Y319066D01*
X342939Y319082D01*
X343038Y319094D01*
X343137Y319102D01*
X343236Y319106D01*
X343336Y319106D01*
X343435Y319102D01*
X343534Y319094D01*
X343633Y319082D01*
X343731Y319066D01*
X343828Y319046D01*
X343925Y319023D01*
X344021Y318996D01*
X344115Y318965D01*
X344208Y318930D01*
X344300Y318891D01*
X344390Y318849D01*
X344478Y318803D01*
X344565Y318754D01*
X344649Y318702D01*
X344731Y318646D01*
X344811Y318587D01*
X344889Y318525D01*
X344964Y318459D01*
X345036Y318391D01*
X345106Y318320D01*
X345172Y318247D01*
X345236Y318170D01*
X345297Y318092D01*
X345354Y318010D01*
X345408Y317927D01*
X345459Y317842D01*
X345507Y317754D01*
X345551Y317665D01*
X345591Y317574D01*
X345628Y317482D01*
X345661Y317388D01*
X345690Y317293D01*
X345715Y317197D01*
X345737Y317100D01*
X345754Y317002D01*
X345768Y316904D01*
X345778Y316805D01*
X345784Y316705D01*
X345786Y316606D01*
X345784Y316507D01*
X345778Y316407D01*
X345768Y316308D01*
X345754Y316210D01*
X345737Y316112D01*
X345715Y316015D01*
X345690Y315919D01*
X345661Y315824D01*
X345628Y315730D01*
X345591Y315638D01*
X345551Y315547D01*
X345507Y315458D01*
X345459Y315370D01*
X345408Y315285D01*
X345354Y315202D01*
X345297Y315120D01*
X345236Y315042D01*
X345172Y314965D01*
X345106Y314892D01*
X345036Y314821D01*
X344964Y314753D01*
X344889Y314687D01*
X344811Y314625D01*
X344731Y314566D01*
X344649Y314510D01*
X344565Y314458D01*
X344478Y314409D01*
X344390Y314363D01*
X344300Y314321D01*
X344208Y314282D01*
X344115Y314247D01*
X344021Y314216D01*
X343925Y314189D01*
X343828Y314166D01*
X343731Y314146D01*
X343633Y314130D01*
X343534Y314118D01*
X343435Y314110D01*
X343336Y314106D01*
X343236Y314106D01*
X343137Y314110D01*
X343038Y314118D01*
X342939Y314130D01*
X342841Y314146D01*
X342744Y314166D01*
X342647Y314189D01*
X342551Y314216D01*
X342457Y314247D01*
X342364Y314282D01*
X342272Y314321D01*
X342182Y314363D01*
X342094Y314409D01*
X342007Y314458D01*
X341923Y314510D01*
X341841Y314566D01*
X341761Y314625D01*
X341683Y314687D01*
X341608Y314753D01*
X341536Y314821D01*
X341466Y314892D01*
X341400Y314965D01*
X341336Y315042D01*
X341275Y315120D01*
X341218Y315202D01*
X341164Y315285D01*
X341113Y315370D01*
X341065Y315458D01*
X341021Y315547D01*
X340981Y315638D01*
X340944Y315730D01*
X340911Y315824D01*
X340882Y315919D01*
X340857Y316015D01*
X340835Y316112D01*
X340818Y316210D01*
X340804Y316308D01*
X340794Y316407D01*
X340788Y316507D01*
X340786Y316606D01*
D13*
X328254Y334010D02*
X326390Y334010D01*
X327322Y334010D02*
X327322Y339603D01*
X326390Y339603D02*
X328254Y339603D01*
X332928Y339603D02*
X333861Y338671D01*
X332928Y339603D02*
X331064Y339603D01*
X330132Y338671D01*
X330132Y334942D01*
X331064Y334010D01*
X332928Y334010D01*
X333861Y334942D01*
X335745Y337739D02*
X337609Y339603D01*
X337609Y334010D01*
X335745Y334010D02*
X339474Y334010D01*
D15*
X441147Y376936D02*
X441757Y376936D01*
D10*
X426038Y366610D02*
X424936Y365509D01*
X424936Y363306D01*
X426038Y362204D01*
X430444Y362204D01*
X431546Y363306D01*
X431546Y365509D01*
X430444Y366610D01*
X426038Y369220D02*
X424936Y370322D01*
X424936Y372525D01*
X426038Y373627D01*
X427140Y373627D01*
X428241Y372525D01*
X428241Y371424D01*
X428241Y372525D02*
X429343Y373627D01*
X430444Y373627D01*
X431546Y372525D01*
X431546Y370322D01*
X430444Y369220D01*
X426038Y376237D02*
X424936Y377338D01*
X424936Y379542D01*
X426038Y380643D01*
X427140Y380643D01*
X428241Y379542D01*
X428241Y378440D01*
X428241Y379542D02*
X429343Y380643D01*
X430444Y380643D01*
X431546Y379542D01*
X431546Y377338D01*
X430444Y376237D01*
D15*
X271831Y225552D02*
X271221Y225552D01*
D10*
X278378Y220983D02*
X279480Y222084D01*
X278378Y220983D02*
X278378Y218780D01*
X279480Y217678D01*
X283886Y217678D01*
X284988Y218780D01*
X284988Y220983D01*
X283886Y222084D01*
X279480Y224694D02*
X278378Y225796D01*
X278378Y227999D01*
X279480Y229101D01*
X280582Y229101D01*
X281683Y227999D01*
X281683Y226898D01*
X281683Y227999D02*
X282785Y229101D01*
X283886Y229101D01*
X284988Y227999D01*
X284988Y225796D01*
X283886Y224694D01*
X284988Y235016D02*
X278378Y235016D01*
X281683Y231711D01*
X281683Y236117D01*
D15*
X271831Y267462D02*
X271221Y267462D01*
D10*
X278632Y260353D02*
X279734Y261454D01*
X278632Y260353D02*
X278632Y258150D01*
X279734Y257048D01*
X284140Y257048D01*
X285242Y258150D01*
X285242Y260353D01*
X284140Y261454D01*
X279734Y264064D02*
X278632Y265166D01*
X278632Y267369D01*
X279734Y268471D01*
X280836Y268471D01*
X281937Y267369D01*
X281937Y266268D01*
X281937Y267369D02*
X283039Y268471D01*
X284140Y268471D01*
X285242Y267369D01*
X285242Y265166D01*
X284140Y264064D01*
X279734Y273284D02*
X278632Y275487D01*
X279734Y273284D02*
X281937Y271081D01*
X284140Y271081D01*
X285242Y272182D01*
X285242Y274386D01*
X284140Y275487D01*
X283039Y275487D01*
X281937Y274386D01*
X281937Y271081D01*
D19*
X245872Y299974D03*
D10*
X236253Y307340D02*
X236253Y313950D01*
X239558Y313950D01*
X240659Y312848D01*
X240659Y310645D01*
X239558Y309543D01*
X236253Y309543D01*
X238456Y309543D02*
X240659Y307340D01*
X243269Y312848D02*
X244371Y313950D01*
X246574Y313950D01*
X247676Y312848D01*
X247676Y311746D01*
X246574Y310645D01*
X245472Y310645D01*
X246574Y310645D02*
X247676Y309543D01*
X247676Y308442D01*
X246574Y307340D01*
X244371Y307340D01*
X243269Y308442D01*
X250286Y312848D02*
X251387Y313950D01*
X253590Y313950D01*
X254692Y312848D01*
X254692Y311746D01*
X253590Y310645D01*
X254692Y309543D01*
X254692Y308442D01*
X253590Y307340D01*
X251387Y307340D01*
X250286Y308442D01*
X250286Y309543D01*
X251387Y310645D01*
X250286Y311746D01*
X250286Y312848D01*
X251387Y310645D02*
X253590Y310645D01*
D15*
X271221Y309372D02*
X271831Y309372D01*
D10*
X279226Y302856D02*
X278124Y301755D01*
X278124Y299552D01*
X279226Y298450D01*
X283632Y298450D01*
X284734Y299552D01*
X284734Y301755D01*
X283632Y302856D01*
X279226Y305466D02*
X278124Y306568D01*
X278124Y308771D01*
X279226Y309873D01*
X280328Y309873D01*
X281429Y308771D01*
X281429Y307670D01*
X281429Y308771D02*
X282531Y309873D01*
X283632Y309873D01*
X284734Y308771D01*
X284734Y306568D01*
X283632Y305466D01*
X279226Y312483D02*
X278124Y313584D01*
X278124Y315788D01*
X279226Y316889D01*
X280328Y316889D01*
X281429Y315788D01*
X282531Y316889D01*
X283632Y316889D01*
X284734Y315788D01*
X284734Y313584D01*
X283632Y312483D01*
X282531Y312483D01*
X281429Y313584D01*
X280328Y312483D01*
X279226Y312483D01*
X281429Y313584D02*
X281429Y315788D01*
D19*
X245872Y320294D03*
D10*
X236253Y327660D02*
X236253Y334270D01*
X239558Y334270D01*
X240659Y333168D01*
X240659Y330965D01*
X239558Y329863D01*
X236253Y329863D01*
X238456Y329863D02*
X240659Y327660D01*
X243269Y333168D02*
X244371Y334270D01*
X246574Y334270D01*
X247676Y333168D01*
X247676Y332066D01*
X246574Y330965D01*
X245472Y330965D01*
X246574Y330965D02*
X247676Y329863D01*
X247676Y328762D01*
X246574Y327660D01*
X244371Y327660D01*
X243269Y328762D01*
X250286Y328762D02*
X251387Y327660D01*
X253590Y327660D01*
X254692Y328762D01*
X254692Y333168D01*
X253590Y334270D01*
X251387Y334270D01*
X250286Y333168D01*
X250286Y332066D01*
X251387Y330965D01*
X254692Y330965D01*
D19*
X245872Y341884D03*
D10*
X236507Y347980D02*
X236507Y354590D01*
X239812Y354590D01*
X240913Y353488D01*
X240913Y351285D01*
X239812Y350183D01*
X236507Y350183D01*
X238710Y350183D02*
X240913Y347980D01*
X246828Y347980D02*
X246828Y354590D01*
X243523Y351285D01*
X247930Y351285D01*
X250540Y349082D02*
X250540Y353488D01*
X251641Y354590D01*
X253844Y354590D01*
X254946Y353488D01*
X254946Y349082D01*
X253844Y347980D01*
X251641Y347980D01*
X250540Y349082D01*
X254946Y353488D01*
D15*
X271221Y352552D02*
X271831Y352552D01*
D10*
X278632Y346205D02*
X279734Y347306D01*
X278632Y346205D02*
X278632Y344002D01*
X279734Y342900D01*
X284140Y342900D01*
X285242Y344002D01*
X285242Y346205D01*
X284140Y347306D01*
X285242Y353221D02*
X278632Y353221D01*
X281937Y349916D01*
X281937Y354323D01*
X284140Y356933D02*
X279734Y356933D01*
X278632Y358034D01*
X278632Y360238D01*
X279734Y361339D01*
X284140Y361339D01*
X285242Y360238D01*
X285242Y358034D01*
X284140Y356933D01*
X279734Y361339D01*
D19*
X245872Y362458D03*
D10*
X236982Y370332D02*
X236982Y376942D01*
X240287Y376942D01*
X241388Y375840D01*
X241388Y373637D01*
X240287Y372535D01*
X236982Y372535D01*
X239185Y372535D02*
X241388Y370332D01*
X247303Y370332D02*
X247303Y376942D01*
X243998Y373637D01*
X248405Y373637D01*
X251015Y374738D02*
X253218Y376942D01*
X253218Y370332D01*
X251015Y370332D02*
X255421Y370332D01*
D19*
X745236Y439928D03*
D10*
X735871Y449834D02*
X735871Y456444D01*
X739176Y456444D01*
X740277Y455342D01*
X740277Y453139D01*
X739176Y452037D01*
X735871Y452037D01*
X738074Y452037D02*
X740277Y449834D01*
X746192Y449834D02*
X746192Y456444D01*
X742887Y453139D01*
X747294Y453139D01*
X749904Y449834D02*
X754310Y449834D01*
X749904Y449834D02*
X754310Y454240D01*
X754310Y455342D01*
X753208Y456444D01*
X751005Y456444D01*
X749904Y455342D01*
D15*
X720903Y429768D02*
X720293Y429768D01*
D10*
X700866Y423031D02*
X699764Y421930D01*
X699764Y419726D01*
X700866Y418625D01*
X705272Y418625D01*
X706374Y419726D01*
X706374Y421930D01*
X705272Y423031D01*
X706374Y428946D02*
X699764Y428946D01*
X703069Y425641D01*
X703069Y430048D01*
X706374Y432658D02*
X706374Y437064D01*
X706374Y432658D02*
X701968Y437064D01*
X700866Y437064D01*
X699764Y435962D01*
X699764Y433759D01*
X700866Y432658D01*
D19*
X745236Y419862D03*
D10*
X737141Y409708D02*
X737141Y403098D01*
X737141Y409708D02*
X740446Y409708D01*
X741547Y408606D01*
X741547Y406403D01*
X740446Y405301D01*
X737141Y405301D01*
X739344Y405301D02*
X741547Y403098D01*
X747462Y403098D02*
X747462Y409708D01*
X744157Y406403D01*
X748564Y406403D01*
X751174Y408606D02*
X752275Y409708D01*
X754478Y409708D01*
X755580Y408606D01*
X755580Y407504D01*
X754478Y406403D01*
X753377Y406403D01*
X754478Y406403D02*
X755580Y405301D01*
X755580Y404200D01*
X754478Y403098D01*
X752275Y403098D01*
X751174Y404200D01*
D19*
X745490Y381254D03*
D10*
X735109Y391922D02*
X735109Y398532D01*
X738414Y398532D01*
X739515Y397430D01*
X739515Y395227D01*
X738414Y394125D01*
X735109Y394125D01*
X737312Y394125D02*
X739515Y391922D01*
X745430Y391922D02*
X745430Y398532D01*
X742125Y395227D01*
X746532Y395227D01*
X752446Y391922D02*
X752446Y398532D01*
X749142Y395227D01*
X753548Y395227D01*
D15*
X720903Y371094D02*
X720293Y371094D01*
D10*
X701882Y365627D02*
X700780Y364526D01*
X700780Y362322D01*
X701882Y361221D01*
X706288Y361221D01*
X707390Y362322D01*
X707390Y364526D01*
X706288Y365627D01*
X707390Y371542D02*
X700780Y371542D01*
X704085Y368237D01*
X704085Y372644D01*
X707390Y378558D02*
X700780Y378558D01*
X704085Y375254D01*
X704085Y379660D01*
D19*
X745490Y361950D03*
D10*
X735871Y352050D02*
X735871Y345440D01*
X735871Y352050D02*
X739176Y352050D01*
X740277Y350948D01*
X740277Y348745D01*
X739176Y347643D01*
X735871Y347643D01*
X738074Y347643D02*
X740277Y345440D01*
X746192Y345440D02*
X746192Y352050D01*
X742887Y348745D01*
X747294Y348745D01*
X749904Y352050D02*
X754310Y352050D01*
X749904Y352050D02*
X749904Y348745D01*
X752107Y349846D01*
X753208Y349846D01*
X754310Y348745D01*
X754310Y346542D01*
X753208Y345440D01*
X751005Y345440D01*
X749904Y346542D01*
D19*
X739140Y325374D03*
D10*
X731045Y334772D02*
X731045Y341382D01*
X734350Y341382D01*
X735451Y340280D01*
X735451Y338077D01*
X734350Y336975D01*
X731045Y336975D01*
X733248Y336975D02*
X735451Y334772D01*
X741366Y334772D02*
X741366Y341382D01*
X738061Y338077D01*
X742468Y338077D01*
X747281Y340280D02*
X749484Y341382D01*
X747281Y340280D02*
X745078Y338077D01*
X745078Y335874D01*
X746179Y334772D01*
X748382Y334772D01*
X749484Y335874D01*
X749484Y336975D01*
X748382Y338077D01*
X745078Y338077D01*
D15*
X714553Y315468D02*
X713943Y315468D01*
D10*
X698326Y314573D02*
X697224Y313472D01*
X697224Y311268D01*
X698326Y310167D01*
X702732Y310167D01*
X703834Y311268D01*
X703834Y313472D01*
X702732Y314573D01*
X703834Y320488D02*
X697224Y320488D01*
X700529Y317183D01*
X700529Y321590D01*
X698326Y326403D02*
X697224Y328606D01*
X698326Y326403D02*
X700529Y324200D01*
X702732Y324200D01*
X703834Y325301D01*
X703834Y327504D01*
X702732Y328606D01*
X701631Y328606D01*
X700529Y327504D01*
X700529Y324200D01*
D19*
X739140Y305816D03*
D10*
X729267Y312674D02*
X729267Y319284D01*
X732572Y319284D01*
X733673Y318182D01*
X733673Y315979D01*
X732572Y314877D01*
X729267Y314877D01*
X731470Y314877D02*
X733673Y312674D01*
X739588Y312674D02*
X739588Y319284D01*
X736283Y315979D01*
X740690Y315979D01*
X743300Y319284D02*
X747706Y319284D01*
X747706Y318182D01*
X743300Y313776D01*
X743300Y312674D01*
D19*
X739140Y283210D03*
D10*
X730029Y292862D02*
X730029Y299472D01*
X733334Y299472D01*
X734435Y298370D01*
X734435Y296167D01*
X733334Y295065D01*
X730029Y295065D01*
X732232Y295065D02*
X734435Y292862D01*
X740350Y292862D02*
X740350Y299472D01*
X737045Y296167D01*
X741452Y296167D01*
X744062Y298370D02*
X745163Y299472D01*
X747366Y299472D01*
X748468Y298370D01*
X748468Y297268D01*
X747366Y296167D01*
X748468Y295065D01*
X748468Y293964D01*
X747366Y292862D01*
X745163Y292862D01*
X744062Y293964D01*
X744062Y295065D01*
X745163Y296167D01*
X744062Y297268D01*
X744062Y298370D01*
X745163Y296167D02*
X747366Y296167D01*
D15*
X714553Y272796D02*
X713943Y272796D01*
D10*
X698072Y270885D02*
X696970Y269784D01*
X696970Y267580D01*
X698072Y266479D01*
X702478Y266479D01*
X703580Y267580D01*
X703580Y269784D01*
X702478Y270885D01*
X703580Y276800D02*
X696970Y276800D01*
X700275Y273495D01*
X700275Y277902D01*
X698072Y280512D02*
X696970Y281613D01*
X696970Y283816D01*
X698072Y284918D01*
X699174Y284918D01*
X700275Y283816D01*
X701377Y284918D01*
X702478Y284918D01*
X703580Y283816D01*
X703580Y281613D01*
X702478Y280512D01*
X701377Y280512D01*
X700275Y281613D01*
X699174Y280512D01*
X698072Y280512D01*
X700275Y281613D02*
X700275Y283816D01*
D19*
X739140Y263144D03*
D10*
X727997Y254514D02*
X727997Y247904D01*
X727997Y254514D02*
X731302Y254514D01*
X732403Y253412D01*
X732403Y251209D01*
X731302Y250107D01*
X727997Y250107D01*
X730200Y250107D02*
X732403Y247904D01*
X738318Y247904D02*
X738318Y254514D01*
X735013Y251209D01*
X739420Y251209D01*
X742030Y249006D02*
X743131Y247904D01*
X745334Y247904D01*
X746436Y249006D01*
X746436Y253412D01*
X745334Y254514D01*
X743131Y254514D01*
X742030Y253412D01*
X742030Y252310D01*
X743131Y251209D01*
X746436Y251209D01*
D19*
X429260Y127508D03*
D10*
X446565Y124460D02*
X446565Y131070D01*
X449870Y131070D01*
X450971Y129968D01*
X450971Y127765D01*
X449870Y126663D01*
X446565Y126663D01*
X448768Y126663D02*
X450971Y124460D01*
X453581Y128866D02*
X455784Y131070D01*
X455784Y124460D01*
X453581Y124460D02*
X457988Y124460D01*
X460598Y129968D02*
X461699Y131070D01*
X463902Y131070D01*
X465004Y129968D01*
X465004Y128866D01*
X463902Y127765D01*
X465004Y126663D01*
X465004Y125562D01*
X463902Y124460D01*
X461699Y124460D01*
X460598Y125562D01*
X460598Y126663D01*
X461699Y127765D01*
X460598Y128866D01*
X460598Y129968D01*
X461699Y127765D02*
X463902Y127765D01*
D16*
X418244Y112870D02*
X404244Y112870D01*
X404244Y92870D01*
X418244Y92870D01*
X438244Y112870D02*
X452244Y112870D01*
X452244Y92870D01*
X438244Y92870D01*
X431244Y102870D02*
X431244Y109870D01*
X431244Y102870D02*
X431244Y95870D01*
X431244Y102870D02*
X425244Y108870D01*
X425244Y96870D01*
X431244Y102870D01*
D10*
X454146Y100330D02*
X460756Y100330D01*
X460756Y103635D01*
X459654Y104736D01*
X455248Y104736D01*
X454146Y103635D01*
X454146Y100330D01*
X460756Y107346D02*
X460756Y111753D01*
X456350Y111753D02*
X460756Y107346D01*
X456350Y111753D02*
X455248Y111753D01*
X454146Y110651D01*
X454146Y108448D01*
X455248Y107346D01*
D15*
X337363Y185541D02*
X336753Y185541D01*
D10*
X324184Y177514D02*
X323082Y176412D01*
X323082Y174209D01*
X324184Y173107D01*
X328590Y173107D01*
X329692Y174209D01*
X329692Y176412D01*
X328590Y177514D01*
X323082Y180124D02*
X323082Y184530D01*
X323082Y180124D02*
X326387Y180124D01*
X325286Y182327D01*
X325286Y183429D01*
X326387Y184530D01*
X328590Y184530D01*
X329692Y183429D01*
X329692Y181225D01*
X328590Y180124D01*
X328590Y187140D02*
X324184Y187140D01*
X323082Y188242D01*
X323082Y190445D01*
X324184Y191547D01*
X328590Y191547D01*
X329692Y190445D01*
X329692Y188242D01*
X328590Y187140D01*
X324184Y191547D01*
D15*
X333959Y103886D02*
X334569Y103886D01*
D10*
X328933Y87382D02*
X330034Y86280D01*
X328933Y87382D02*
X326730Y87382D01*
X325628Y86280D01*
X325628Y81874D01*
X326730Y80772D01*
X328933Y80772D01*
X330034Y81874D01*
X334848Y86280D02*
X337051Y87382D01*
X334848Y86280D02*
X332644Y84077D01*
X332644Y81874D01*
X333746Y80772D01*
X335949Y80772D01*
X337051Y81874D01*
X337051Y82975D01*
X335949Y84077D01*
X332644Y84077D01*
X339661Y81874D02*
X339661Y86280D01*
X340762Y87382D01*
X342966Y87382D01*
X344067Y86280D01*
X344067Y81874D01*
X342966Y80772D01*
X340762Y80772D01*
X339661Y81874D01*
X344067Y86280D01*
D20*
X293116Y103759D03*
D10*
X281559Y88652D02*
X281559Y82042D01*
X281559Y88652D02*
X284864Y88652D01*
X285965Y87550D01*
X285965Y85347D01*
X284864Y84245D01*
X281559Y84245D01*
X283762Y84245D02*
X285965Y82042D01*
X288575Y82042D02*
X292982Y82042D01*
X292982Y86448D02*
X288575Y82042D01*
X292982Y86448D02*
X292982Y87550D01*
X291880Y88652D01*
X289677Y88652D01*
X288575Y87550D01*
X295592Y82042D02*
X299998Y82042D01*
X295592Y82042D02*
X299998Y86448D01*
X299998Y87550D01*
X298897Y88652D01*
X296693Y88652D01*
X295592Y87550D01*
D20*
X312928Y103759D03*
D10*
X304927Y87636D02*
X304927Y81026D01*
X304927Y87636D02*
X308232Y87636D01*
X309333Y86534D01*
X309333Y84331D01*
X308232Y83229D01*
X304927Y83229D01*
X307130Y83229D02*
X309333Y81026D01*
X311943Y81026D02*
X316350Y81026D01*
X316350Y85432D02*
X311943Y81026D01*
X316350Y85432D02*
X316350Y86534D01*
X315248Y87636D01*
X313045Y87636D01*
X311943Y86534D01*
X318960Y86534D02*
X320061Y87636D01*
X322265Y87636D01*
X323366Y86534D01*
X323366Y85432D01*
X322265Y84331D01*
X321163Y84331D01*
X322265Y84331D02*
X323366Y83229D01*
X323366Y82128D01*
X322265Y81026D01*
X320061Y81026D01*
X318960Y82128D01*
D20*
X441706Y416560D03*
D10*
X436055Y433832D02*
X436055Y440442D01*
X439360Y440442D01*
X440462Y439340D01*
X440462Y437137D01*
X439360Y436035D01*
X436055Y436035D01*
X438258Y436035D02*
X440462Y433832D01*
X443072Y438238D02*
X445275Y440442D01*
X445275Y433832D01*
X443072Y433832D02*
X447478Y433832D01*
D16*
X421764Y409862D02*
X407764Y409862D01*
X421764Y409862D02*
X421764Y429862D01*
X407764Y429862D01*
X387764Y409862D02*
X373764Y409862D01*
X373764Y429862D01*
X387764Y429862D01*
X394764Y419862D02*
X394764Y412862D01*
X394764Y419862D02*
X394764Y426862D01*
X394764Y419862D02*
X400764Y413862D01*
X400764Y425862D01*
X394764Y419862D01*
D10*
X408877Y404882D02*
X408877Y398272D01*
X412182Y398272D01*
X413284Y399374D01*
X413284Y403780D01*
X412182Y404882D01*
X408877Y404882D01*
X415894Y402678D02*
X418097Y404882D01*
X418097Y398272D01*
X415894Y398272D02*
X420300Y398272D01*
D12*
X603250Y520700D02*
X615950Y520700D01*
X622300Y514350D01*
X622300Y501650D01*
X615950Y495300D01*
X577850Y520700D02*
X571500Y514350D01*
X577850Y520700D02*
X590550Y520700D01*
X596900Y514350D01*
X596900Y501650D01*
X590550Y495300D01*
X577850Y495300D01*
X571500Y501650D01*
X596900Y514350D02*
X603250Y520700D01*
X596900Y501650D02*
X603250Y495300D01*
X615950Y495300D01*
X539750Y520700D02*
X527050Y520700D01*
X539750Y520700D02*
X546100Y514350D01*
X546100Y501650D01*
X539750Y495300D01*
X546100Y514350D02*
X552450Y520700D01*
X565150Y520700D01*
X571500Y514350D01*
X571500Y501650D01*
X565150Y495300D01*
X552450Y495300D01*
X546100Y501650D01*
X501650Y520700D02*
X495300Y514350D01*
X501650Y520700D02*
X514350Y520700D01*
X520700Y514350D01*
X520700Y501650D01*
X514350Y495300D01*
X501650Y495300D01*
X495300Y501650D01*
X520700Y514350D02*
X527050Y520700D01*
X520700Y501650D02*
X527050Y495300D01*
X539750Y495300D01*
X463550Y520700D02*
X450850Y520700D01*
X463550Y520700D02*
X469900Y514350D01*
X469900Y501650D01*
X463550Y495300D01*
X469900Y514350D02*
X476250Y520700D01*
X488950Y520700D01*
X495300Y514350D01*
X495300Y501650D01*
X488950Y495300D01*
X476250Y495300D01*
X469900Y501650D01*
X444500Y501650D02*
X444500Y514350D01*
X450850Y520700D01*
X444500Y501650D02*
X450850Y495300D01*
X463550Y495300D01*
X628650Y520700D02*
X641350Y520700D01*
X647700Y514350D01*
X647700Y501650D01*
X641350Y495300D01*
X622300Y514350D02*
X628650Y520700D01*
X622300Y501650D02*
X628650Y495300D01*
X641350Y495300D01*
D11*
X656547Y500436D02*
X657776Y501665D01*
X657776Y502893D01*
X656547Y504122D01*
X650404Y504122D01*
X650404Y502893D02*
X650404Y505351D01*
X650404Y507920D02*
X657776Y507920D01*
X650404Y507920D02*
X650404Y511606D01*
X651633Y512835D01*
X654090Y512835D01*
X655319Y511606D01*
X655319Y507920D01*
X657776Y515404D02*
X657776Y520319D01*
X657776Y515404D02*
X652861Y520319D01*
X651633Y520319D01*
X650404Y519090D01*
X650404Y516633D01*
X651633Y515404D01*
X652861Y522888D02*
X650404Y525346D01*
X657776Y525346D01*
X657776Y527803D02*
X657776Y522888D01*
D12*
X831850Y520700D02*
X844550Y520700D01*
X850900Y514350D01*
X850900Y501650D01*
X844550Y495300D01*
X806450Y520700D02*
X800100Y514350D01*
X806450Y520700D02*
X819150Y520700D01*
X825500Y514350D01*
X825500Y501650D01*
X819150Y495300D01*
X806450Y495300D01*
X800100Y501650D01*
X825500Y514350D02*
X831850Y520700D01*
X825500Y501650D02*
X831850Y495300D01*
X844550Y495300D01*
X768350Y520700D02*
X755650Y520700D01*
X768350Y520700D02*
X774700Y514350D01*
X774700Y501650D01*
X768350Y495300D01*
X774700Y514350D02*
X781050Y520700D01*
X793750Y520700D01*
X800100Y514350D01*
X800100Y501650D01*
X793750Y495300D01*
X781050Y495300D01*
X774700Y501650D01*
X730250Y520700D02*
X723900Y514350D01*
X730250Y520700D02*
X742950Y520700D01*
X749300Y514350D01*
X749300Y501650D01*
X742950Y495300D01*
X730250Y495300D01*
X723900Y501650D01*
X749300Y514350D02*
X755650Y520700D01*
X749300Y501650D02*
X755650Y495300D01*
X768350Y495300D01*
X692150Y520700D02*
X679450Y520700D01*
X692150Y520700D02*
X698500Y514350D01*
X698500Y501650D01*
X692150Y495300D01*
X698500Y514350D02*
X704850Y520700D01*
X717550Y520700D01*
X723900Y514350D01*
X723900Y501650D01*
X717550Y495300D01*
X704850Y495300D01*
X698500Y501650D01*
X673100Y501650D02*
X673100Y514350D01*
X679450Y520700D01*
X673100Y501650D02*
X679450Y495300D01*
X692150Y495300D01*
X857250Y520700D02*
X869950Y520700D01*
X876300Y514350D01*
X876300Y501650D01*
X869950Y495300D01*
X850900Y514350D02*
X857250Y520700D01*
X850900Y501650D02*
X857250Y495300D01*
X869950Y495300D01*
D11*
X884624Y499214D02*
X885853Y500443D01*
X885853Y501672D01*
X884624Y502900D01*
X878481Y502900D01*
X878481Y501672D02*
X878481Y504129D01*
X878481Y506698D02*
X885853Y506698D01*
X878481Y506698D02*
X878481Y510384D01*
X879709Y511613D01*
X882167Y511613D01*
X883396Y510384D01*
X883396Y506698D01*
X885853Y514182D02*
X885853Y519097D01*
X885853Y514182D02*
X880938Y519097D01*
X879709Y519097D01*
X878481Y517869D01*
X878481Y515411D01*
X879709Y514182D01*
X885853Y521667D02*
X885853Y526581D01*
X885853Y521667D02*
X880938Y526581D01*
X879709Y526581D01*
X878481Y525353D01*
X878481Y522895D01*
X879709Y521667D01*
D12*
X882650Y38100D02*
X895350Y38100D01*
X901700Y31750D01*
X901700Y19050D01*
X895350Y12700D01*
X857250Y38100D02*
X850900Y31750D01*
X857250Y38100D02*
X869950Y38100D01*
X876300Y31750D01*
X876300Y19050D01*
X869950Y12700D01*
X857250Y12700D01*
X850900Y19050D01*
X876300Y31750D02*
X882650Y38100D01*
X876300Y19050D02*
X882650Y12700D01*
X895350Y12700D01*
X819150Y38100D02*
X806450Y38100D01*
X819150Y38100D02*
X825500Y31750D01*
X825500Y19050D01*
X819150Y12700D01*
X825500Y31750D02*
X831850Y38100D01*
X844550Y38100D01*
X850900Y31750D01*
X850900Y19050D01*
X844550Y12700D01*
X831850Y12700D01*
X825500Y19050D01*
X781050Y38100D02*
X774700Y31750D01*
X781050Y38100D02*
X793750Y38100D01*
X800100Y31750D01*
X800100Y19050D01*
X793750Y12700D01*
X781050Y12700D01*
X774700Y19050D01*
X800100Y31750D02*
X806450Y38100D01*
X800100Y19050D02*
X806450Y12700D01*
X819150Y12700D01*
X742950Y38100D02*
X730250Y38100D01*
X742950Y38100D02*
X749300Y31750D01*
X749300Y19050D01*
X742950Y12700D01*
X749300Y31750D02*
X755650Y38100D01*
X768350Y38100D01*
X774700Y31750D01*
X774700Y19050D01*
X768350Y12700D01*
X755650Y12700D01*
X749300Y19050D01*
X723900Y19050D02*
X723900Y31750D01*
X730250Y38100D01*
X723900Y19050D02*
X730250Y12700D01*
X742950Y12700D01*
X908050Y38100D02*
X920750Y38100D01*
X927100Y31750D01*
X927100Y19050D01*
X920750Y12700D01*
X901700Y31750D02*
X908050Y38100D01*
X901700Y19050D02*
X908050Y12700D01*
X920750Y12700D01*
D11*
X935234Y15903D02*
X936462Y17132D01*
X936462Y18360D01*
X935234Y19589D01*
X929090Y19589D01*
X929090Y18360D02*
X929090Y20818D01*
X929090Y23387D02*
X936462Y23387D01*
X929090Y23387D02*
X929090Y27073D01*
X930319Y28302D01*
X932776Y28302D01*
X934005Y27073D01*
X934005Y23387D01*
X936462Y30871D02*
X936462Y35786D01*
X931548Y35786D02*
X936462Y30871D01*
X931548Y35786D02*
X930319Y35786D01*
X929090Y34557D01*
X929090Y32100D01*
X930319Y30871D01*
X929090Y42042D02*
X936462Y42042D01*
X932776Y38355D02*
X929090Y42042D01*
X932776Y43270D02*
X932776Y38355D01*
D12*
X666750Y38100D02*
X654050Y38100D01*
X666750Y38100D02*
X673100Y31750D01*
X673100Y19050D01*
X666750Y12700D01*
X628650Y38100D02*
X622300Y31750D01*
X628650Y38100D02*
X641350Y38100D01*
X647700Y31750D01*
X647700Y19050D01*
X641350Y12700D01*
X628650Y12700D01*
X622300Y19050D01*
X647700Y31750D02*
X654050Y38100D01*
X647700Y19050D02*
X654050Y12700D01*
X666750Y12700D01*
X590550Y38100D02*
X577850Y38100D01*
X590550Y38100D02*
X596900Y31750D01*
X596900Y19050D01*
X590550Y12700D01*
X596900Y31750D02*
X603250Y38100D01*
X615950Y38100D01*
X622300Y31750D01*
X622300Y19050D01*
X615950Y12700D01*
X603250Y12700D01*
X596900Y19050D01*
X552450Y38100D02*
X546100Y31750D01*
X552450Y38100D02*
X565150Y38100D01*
X571500Y31750D01*
X571500Y19050D01*
X565150Y12700D01*
X552450Y12700D01*
X546100Y19050D01*
X571500Y31750D02*
X577850Y38100D01*
X571500Y19050D02*
X577850Y12700D01*
X590550Y12700D01*
X514350Y38100D02*
X501650Y38100D01*
X514350Y38100D02*
X520700Y31750D01*
X520700Y19050D01*
X514350Y12700D01*
X520700Y31750D02*
X527050Y38100D01*
X539750Y38100D01*
X546100Y31750D01*
X546100Y19050D01*
X539750Y12700D01*
X527050Y12700D01*
X520700Y19050D01*
X495300Y19050D02*
X495300Y31750D01*
X501650Y38100D01*
X495300Y19050D02*
X501650Y12700D01*
X514350Y12700D01*
X679450Y38100D02*
X692150Y38100D01*
X698500Y31750D01*
X698500Y19050D01*
X692150Y12700D01*
X673100Y31750D02*
X679450Y38100D01*
X673100Y19050D02*
X679450Y12700D01*
X692150Y12700D01*
D11*
X707668Y17193D02*
X708896Y18422D01*
X708896Y19651D01*
X707668Y20879D01*
X701524Y20879D01*
X701524Y19651D02*
X701524Y22108D01*
X701524Y24677D02*
X708896Y24677D01*
X701524Y24677D02*
X701524Y28364D01*
X702753Y29592D01*
X705210Y29592D01*
X706439Y28364D01*
X706439Y24677D01*
X708896Y32162D02*
X708896Y37076D01*
X708896Y32162D02*
X703981Y37076D01*
X702753Y37076D01*
X701524Y35848D01*
X701524Y33390D01*
X702753Y32162D01*
X701524Y39646D02*
X701524Y44561D01*
X701524Y39646D02*
X705210Y39646D01*
X703981Y42103D01*
X703981Y43332D01*
X705210Y44561D01*
X707668Y44561D01*
X708896Y43332D01*
X708896Y40874D01*
X707668Y39646D01*
D12*
X378460Y514350D02*
X384810Y520700D01*
X397510Y520700D01*
X403860Y514350D01*
X403860Y501650D01*
X397510Y495300D01*
X384810Y495300D01*
X378460Y501650D01*
X346710Y520700D02*
X334010Y520700D01*
X346710Y520700D02*
X353060Y514350D01*
X353060Y501650D01*
X346710Y495300D01*
X353060Y514350D02*
X359410Y520700D01*
X372110Y520700D01*
X378460Y514350D01*
X378460Y501650D01*
X372110Y495300D01*
X359410Y495300D01*
X353060Y501650D01*
X308610Y520700D02*
X302260Y514350D01*
X308610Y520700D02*
X321310Y520700D01*
X327660Y514350D01*
X327660Y501650D01*
X321310Y495300D01*
X308610Y495300D01*
X302260Y501650D01*
X327660Y514350D02*
X334010Y520700D01*
X327660Y501650D02*
X334010Y495300D01*
X346710Y495300D01*
X270510Y520700D02*
X257810Y520700D01*
X270510Y520700D02*
X276860Y514350D01*
X276860Y501650D01*
X270510Y495300D01*
X276860Y514350D02*
X283210Y520700D01*
X295910Y520700D01*
X302260Y514350D01*
X302260Y501650D01*
X295910Y495300D01*
X283210Y495300D01*
X276860Y501650D01*
X232410Y520700D02*
X226060Y514350D01*
X232410Y520700D02*
X245110Y520700D01*
X251460Y514350D01*
X251460Y501650D01*
X245110Y495300D01*
X232410Y495300D01*
X226060Y501650D01*
X251460Y514350D02*
X257810Y520700D01*
X251460Y501650D02*
X257810Y495300D01*
X270510Y495300D01*
X194310Y520700D02*
X181610Y520700D01*
X194310Y520700D02*
X200660Y514350D01*
X200660Y501650D01*
X194310Y495300D01*
X200660Y514350D02*
X207010Y520700D01*
X219710Y520700D01*
X226060Y514350D01*
X226060Y501650D01*
X219710Y495300D01*
X207010Y495300D01*
X200660Y501650D01*
X175260Y501650D02*
X175260Y514350D01*
X181610Y520700D01*
X175260Y501650D02*
X181610Y495300D01*
X194310Y495300D01*
X410210Y520700D02*
X422910Y520700D01*
X429260Y514350D01*
X429260Y501650D01*
X422910Y495300D01*
X403860Y514350D02*
X410210Y520700D01*
X403860Y501650D02*
X410210Y495300D01*
X422910Y495300D01*
D11*
X437594Y500733D02*
X438823Y501962D01*
X438823Y503190D01*
X437594Y504419D01*
X431451Y504419D01*
X431451Y503190D02*
X431451Y505648D01*
X431451Y508217D02*
X438823Y508217D01*
X431451Y508217D02*
X431451Y511903D01*
X432680Y513132D01*
X435137Y513132D01*
X436366Y511903D01*
X436366Y508217D01*
X438823Y515701D02*
X438823Y520616D01*
X438823Y515701D02*
X433908Y520616D01*
X432680Y520616D01*
X431451Y519388D01*
X431451Y516930D01*
X432680Y515701D01*
X432680Y523186D02*
X437594Y523186D01*
X432680Y523186D02*
X431451Y524414D01*
X431451Y526872D01*
X432680Y528100D01*
X437594Y528100D01*
X438823Y526872D01*
X438823Y524414D01*
X437594Y523186D01*
X432680Y528100D01*
D12*
X438150Y38100D02*
X425450Y38100D01*
X438150Y38100D02*
X444500Y31750D01*
X444500Y19050D01*
X438150Y12700D01*
X400050Y38100D02*
X393700Y31750D01*
X400050Y38100D02*
X412750Y38100D01*
X419100Y31750D01*
X419100Y19050D01*
X412750Y12700D01*
X400050Y12700D01*
X393700Y19050D01*
X419100Y31750D02*
X425450Y38100D01*
X419100Y19050D02*
X425450Y12700D01*
X438150Y12700D01*
X361950Y38100D02*
X349250Y38100D01*
X361950Y38100D02*
X368300Y31750D01*
X368300Y19050D01*
X361950Y12700D01*
X368300Y31750D02*
X374650Y38100D01*
X387350Y38100D01*
X393700Y31750D01*
X393700Y19050D01*
X387350Y12700D01*
X374650Y12700D01*
X368300Y19050D01*
X323850Y38100D02*
X317500Y31750D01*
X323850Y38100D02*
X336550Y38100D01*
X342900Y31750D01*
X342900Y19050D01*
X336550Y12700D01*
X323850Y12700D01*
X317500Y19050D01*
X342900Y31750D02*
X349250Y38100D01*
X342900Y19050D02*
X349250Y12700D01*
X361950Y12700D01*
X285750Y38100D02*
X273050Y38100D01*
X285750Y38100D02*
X292100Y31750D01*
X292100Y19050D01*
X285750Y12700D01*
X292100Y31750D02*
X298450Y38100D01*
X311150Y38100D01*
X317500Y31750D01*
X317500Y19050D01*
X311150Y12700D01*
X298450Y12700D01*
X292100Y19050D01*
X266700Y19050D02*
X266700Y31750D01*
X273050Y38100D01*
X266700Y19050D02*
X273050Y12700D01*
X285750Y12700D01*
X450850Y38100D02*
X463550Y38100D01*
X469900Y31750D01*
X469900Y19050D01*
X463550Y12700D01*
X444500Y31750D02*
X450850Y38100D01*
X444500Y19050D02*
X450850Y12700D01*
X463550Y12700D01*
D11*
X478585Y17429D02*
X479814Y18658D01*
X479814Y19887D01*
X478585Y21116D01*
X472441Y21116D01*
X472441Y22344D02*
X472441Y19887D01*
X472441Y24914D02*
X479814Y24914D01*
X472441Y24914D02*
X472441Y28600D01*
X473670Y29828D01*
X476127Y29828D01*
X477356Y28600D01*
X477356Y24914D01*
X479814Y32398D02*
X479814Y37313D01*
X479814Y32398D02*
X474899Y37313D01*
X473670Y37313D01*
X472441Y36084D01*
X472441Y33626D01*
X473670Y32398D01*
X473670Y42339D02*
X472441Y44797D01*
X473670Y42339D02*
X476127Y39882D01*
X478585Y39882D01*
X479814Y41111D01*
X479814Y43568D01*
X478585Y44797D01*
X477356Y44797D01*
X476127Y43568D01*
X476127Y39882D01*
D12*
X391668Y130628D02*
X378968Y130628D01*
X391668Y130628D02*
X398018Y124278D01*
X398018Y111578D01*
X391668Y105228D01*
X372618Y111578D02*
X372618Y124278D01*
X378968Y130628D01*
X372618Y111578D02*
X378968Y105228D01*
X391668Y105228D01*
D10*
X404870Y120132D02*
X411480Y120132D01*
X404870Y117928D02*
X404870Y122335D01*
X404870Y124945D02*
X411480Y124945D01*
X404870Y124945D02*
X404870Y128250D01*
X405972Y129351D01*
X408175Y129351D01*
X409277Y128250D01*
X409277Y124945D01*
X407074Y131961D02*
X404870Y134164D01*
X411480Y134164D01*
X411480Y131961D02*
X411480Y136368D01*
D19*
X245872Y278384D03*
D10*
X236507Y284988D02*
X236507Y291598D01*
X239812Y291598D01*
X240913Y290496D01*
X240913Y288293D01*
X239812Y287191D01*
X236507Y287191D01*
X238710Y287191D02*
X240913Y284988D01*
X243523Y290496D02*
X244625Y291598D01*
X246828Y291598D01*
X247930Y290496D01*
X247930Y289394D01*
X246828Y288293D01*
X245726Y288293D01*
X246828Y288293D02*
X247930Y287191D01*
X247930Y286090D01*
X246828Y284988D01*
X244625Y284988D01*
X243523Y286090D01*
X250540Y291598D02*
X254946Y291598D01*
X254946Y290496D01*
X250540Y286090D01*
X250540Y284988D01*
D19*
X245872Y258064D03*
D10*
X235491Y264668D02*
X235491Y271278D01*
X238796Y271278D01*
X239897Y270176D01*
X239897Y267973D01*
X238796Y266871D01*
X235491Y266871D01*
X237694Y266871D02*
X239897Y264668D01*
X242507Y270176D02*
X243609Y271278D01*
X245812Y271278D01*
X246914Y270176D01*
X246914Y269074D01*
X245812Y267973D01*
X244710Y267973D01*
X245812Y267973D02*
X246914Y266871D01*
X246914Y265770D01*
X245812Y264668D01*
X243609Y264668D01*
X242507Y265770D01*
X251727Y270176D02*
X253930Y271278D01*
X251727Y270176D02*
X249524Y267973D01*
X249524Y265770D01*
X250625Y264668D01*
X252828Y264668D01*
X253930Y265770D01*
X253930Y266871D01*
X252828Y267973D01*
X249524Y267973D01*
D19*
X245872Y235204D03*
D10*
X235491Y242570D02*
X235491Y249180D01*
X238796Y249180D01*
X239897Y248078D01*
X239897Y245875D01*
X238796Y244773D01*
X235491Y244773D01*
X237694Y244773D02*
X239897Y242570D01*
X242507Y248078D02*
X243609Y249180D01*
X245812Y249180D01*
X246914Y248078D01*
X246914Y246976D01*
X245812Y245875D01*
X244710Y245875D01*
X245812Y245875D02*
X246914Y244773D01*
X246914Y243672D01*
X245812Y242570D01*
X243609Y242570D01*
X242507Y243672D01*
X249524Y249180D02*
X253930Y249180D01*
X249524Y249180D02*
X249524Y245875D01*
X251727Y246976D01*
X252828Y246976D01*
X253930Y245875D01*
X253930Y243672D01*
X252828Y242570D01*
X250625Y242570D01*
X249524Y243672D01*
D19*
X245872Y214884D03*
D10*
X237998Y221488D02*
X237998Y228098D01*
X241303Y228098D01*
X242404Y226996D01*
X242404Y224793D01*
X241303Y223691D01*
X237998Y223691D01*
X240201Y223691D02*
X242404Y221488D01*
X245014Y226996D02*
X246116Y228098D01*
X248319Y228098D01*
X249421Y226996D01*
X249421Y225894D01*
X248319Y224793D01*
X247218Y224793D01*
X248319Y224793D02*
X249421Y223691D01*
X249421Y222590D01*
X248319Y221488D01*
X246116Y221488D01*
X245014Y222590D01*
X255336Y221488D02*
X255336Y228098D01*
X252031Y224793D01*
X256437Y224793D01*
D12*
X378968Y104648D02*
X391668Y104648D01*
X398018Y98298D01*
X398018Y85598D01*
X391668Y79248D01*
X372618Y85598D02*
X372618Y98298D01*
X378968Y104648D01*
X372618Y85598D02*
X378968Y79248D01*
X391668Y79248D01*
D10*
X376599Y75698D02*
X376599Y69088D01*
X374396Y75698D02*
X378802Y75698D01*
X381412Y75698D02*
X381412Y69088D01*
X381412Y75698D02*
X384717Y75698D01*
X385819Y74596D01*
X385819Y72393D01*
X384717Y71291D01*
X381412Y71291D01*
X388429Y74596D02*
X389530Y75698D01*
X391734Y75698D01*
X392835Y74596D01*
X392835Y73494D01*
X391734Y72393D01*
X390632Y72393D01*
X391734Y72393D02*
X392835Y71291D01*
X392835Y70190D01*
X391734Y69088D01*
X389530Y69088D01*
X388429Y70190D01*
D16*
X458726Y329646D02*
X490726Y329646D01*
X490726Y355646D02*
X458726Y355646D01*
D10*
X463966Y323936D02*
X465067Y322834D01*
X463966Y323936D02*
X461762Y323936D01*
X460661Y322834D01*
X460661Y318428D01*
X461762Y317326D01*
X463966Y317326D01*
X465067Y318428D01*
X467677Y317326D02*
X472084Y317326D01*
X472084Y321732D02*
X467677Y317326D01*
X472084Y321732D02*
X472084Y322834D01*
X470982Y323936D01*
X468779Y323936D01*
X467677Y322834D01*
X474694Y323936D02*
X479100Y323936D01*
X474694Y323936D02*
X474694Y320631D01*
X476897Y321732D01*
X477998Y321732D01*
X479100Y320631D01*
X479100Y318428D01*
X477998Y317326D01*
X475795Y317326D01*
X474694Y318428D01*
D15*
X631393Y417322D02*
X632003Y417322D01*
D11*
X641725Y412499D02*
X642953Y413728D01*
X641725Y412499D02*
X641725Y410042D01*
X642953Y408813D01*
X647868Y408813D01*
X649097Y410042D01*
X649097Y412499D01*
X647868Y413728D01*
X642953Y418755D02*
X641725Y421212D01*
X642953Y418755D02*
X645411Y416297D01*
X647868Y416297D01*
X649097Y417526D01*
X649097Y419983D01*
X647868Y421212D01*
X646640Y421212D01*
X645411Y419983D01*
X645411Y416297D01*
X649097Y427467D02*
X641725Y427467D01*
X645411Y423781D01*
X645411Y428696D01*
D15*
X607365Y417322D02*
X606755Y417322D01*
D10*
X599561Y438578D02*
X598460Y439680D01*
X596256Y439680D01*
X595155Y438578D01*
X595155Y434172D01*
X596256Y433070D01*
X598460Y433070D01*
X599561Y434172D01*
X604374Y438578D02*
X606578Y439680D01*
X604374Y438578D02*
X602171Y436375D01*
X602171Y434172D01*
X603273Y433070D01*
X605476Y433070D01*
X606578Y434172D01*
X606578Y435273D01*
X605476Y436375D01*
X602171Y436375D01*
X609188Y439680D02*
X613594Y439680D01*
X609188Y439680D02*
X609188Y436375D01*
X611391Y437476D01*
X612492Y437476D01*
X613594Y436375D01*
X613594Y434172D01*
X612492Y433070D01*
X610289Y433070D01*
X609188Y434172D01*
D15*
X607365Y370078D02*
X606755Y370078D01*
D10*
X604133Y391334D02*
X603032Y392436D01*
X600828Y392436D01*
X599727Y391334D01*
X599727Y386928D01*
X600828Y385826D01*
X603032Y385826D01*
X604133Y386928D01*
X608946Y391334D02*
X611150Y392436D01*
X608946Y391334D02*
X606743Y389131D01*
X606743Y386928D01*
X607845Y385826D01*
X610048Y385826D01*
X611150Y386928D01*
X611150Y388029D01*
X610048Y389131D01*
X606743Y389131D01*
X613760Y391334D02*
X614861Y392436D01*
X617064Y392436D01*
X618166Y391334D01*
X618166Y390232D01*
X617064Y389131D01*
X618166Y388029D01*
X618166Y386928D01*
X617064Y385826D01*
X614861Y385826D01*
X613760Y386928D01*
X613760Y388029D01*
X614861Y389131D01*
X613760Y390232D01*
X613760Y391334D01*
X614861Y389131D02*
X617064Y389131D01*
D16*
X307062Y171196D02*
X298474Y171196D01*
X298474Y199644D02*
X307062Y199644D01*
X310872Y188104D02*
X310872Y182736D01*
D11*
X299510Y205105D02*
X297053Y205105D01*
X298282Y205105D02*
X298282Y212477D01*
X299510Y212477D02*
X297053Y212477D01*
X305729Y212477D02*
X306957Y211249D01*
X305729Y212477D02*
X303271Y212477D01*
X302042Y211249D01*
X302042Y206334D01*
X303271Y205105D01*
X305729Y205105D01*
X306957Y206334D01*
X309527Y211249D02*
X310755Y212477D01*
X313213Y212477D01*
X314441Y211249D01*
X314441Y210020D01*
X313213Y208791D01*
X314441Y207562D01*
X314441Y206334D01*
X313213Y205105D01*
X310755Y205105D01*
X309527Y206334D01*
X309527Y207562D01*
X310755Y208791D01*
X309527Y210020D01*
X309527Y211249D01*
X310755Y208791D02*
X313213Y208791D01*
D16*
X314452Y147042D02*
X314452Y138454D01*
X286004Y138454D02*
X286004Y147042D01*
X297544Y150852D02*
X302912Y150852D01*
D11*
X314579Y155829D02*
X317036Y155829D01*
X315808Y155829D02*
X315808Y163201D01*
X317036Y163201D02*
X314579Y163201D01*
X323255Y163201D02*
X324483Y161973D01*
X323255Y163201D02*
X320797Y163201D01*
X319568Y161973D01*
X319568Y157058D01*
X320797Y155829D01*
X323255Y155829D01*
X324483Y157058D01*
X327053Y163201D02*
X331967Y163201D01*
X331967Y161973D01*
X327053Y157058D01*
X327053Y155829D01*
D12*
X378968Y156609D02*
X391668Y156609D01*
X398018Y150259D01*
X398018Y137559D01*
X391668Y131209D01*
X372618Y137559D02*
X372618Y150259D01*
X378968Y156609D01*
X372618Y137559D02*
X378968Y131209D01*
X391668Y131209D01*
D11*
X402262Y142331D02*
X402262Y149195D01*
X399974Y149195D02*
X404550Y149195D01*
X406990Y149195D02*
X406990Y142331D01*
X406990Y149195D02*
X410422Y149195D01*
X411566Y148051D01*
X411566Y145763D01*
X410422Y144619D01*
X406990Y144619D01*
X417438Y142331D02*
X417438Y149195D01*
X414006Y145763D01*
X418582Y145763D01*
D12*
X564901Y432006D02*
X583189Y432006D01*
X564901Y419814D02*
X564901Y412702D01*
X564901Y400510D02*
X583189Y400510D01*
D11*
X586781Y400677D02*
X594746Y392712D01*
X594746Y400677D02*
X586781Y392712D01*
X586781Y396695D02*
X594746Y396695D01*
X590763Y400677D02*
X590763Y392712D01*
D12*
X583316Y392443D02*
X565028Y392443D01*
X565028Y380251D02*
X565028Y373139D01*
X565028Y360947D02*
X583316Y360947D01*
D11*
X586908Y361114D02*
X594873Y353149D01*
X594873Y361114D02*
X586908Y353149D01*
X586908Y357132D02*
X594873Y357132D01*
X590890Y361114D02*
X590890Y353149D01*
D15*
X645975Y325986D02*
X645975Y325376D01*
D11*
X636982Y315802D02*
X638211Y314573D01*
X636982Y315802D02*
X634524Y315802D01*
X633296Y314573D01*
X633296Y309658D01*
X634524Y308430D01*
X636982Y308430D01*
X638211Y309658D01*
X640780Y313345D02*
X643237Y315802D01*
X643237Y308430D01*
X640780Y308430D02*
X645695Y308430D01*
D21*
X588164Y140379D02*
X588166Y140456D01*
X588172Y140533D01*
X588182Y140610D01*
X588196Y140686D01*
X588213Y140761D01*
X588235Y140835D01*
X588260Y140908D01*
X588290Y140980D01*
X588322Y141050D01*
X588359Y141118D01*
X588398Y141184D01*
X588441Y141248D01*
X588488Y141310D01*
X588537Y141369D01*
X588590Y141426D01*
X588645Y141480D01*
X588703Y141531D01*
X588764Y141579D01*
X588827Y141624D01*
X588892Y141665D01*
X588959Y141703D01*
X589028Y141738D01*
X589099Y141768D01*
X589171Y141796D01*
X589245Y141819D01*
X589319Y141839D01*
X589395Y141855D01*
X589471Y141867D01*
X589548Y141875D01*
X589625Y141879D01*
X589703Y141879D01*
X589780Y141875D01*
X589857Y141867D01*
X589933Y141855D01*
X590009Y141839D01*
X590083Y141819D01*
X590157Y141796D01*
X590229Y141768D01*
X590300Y141738D01*
X590369Y141703D01*
X590436Y141665D01*
X590501Y141624D01*
X590564Y141579D01*
X590625Y141531D01*
X590683Y141480D01*
X590738Y141426D01*
X590791Y141369D01*
X590840Y141310D01*
X590887Y141248D01*
X590930Y141184D01*
X590969Y141118D01*
X591006Y141050D01*
X591038Y140980D01*
X591068Y140908D01*
X591093Y140835D01*
X591115Y140761D01*
X591132Y140686D01*
X591146Y140610D01*
X591156Y140533D01*
X591162Y140456D01*
X591164Y140379D01*
X591162Y140302D01*
X591156Y140225D01*
X591146Y140148D01*
X591132Y140072D01*
X591115Y139997D01*
X591093Y139923D01*
X591068Y139850D01*
X591038Y139778D01*
X591006Y139708D01*
X590969Y139640D01*
X590930Y139574D01*
X590887Y139510D01*
X590840Y139448D01*
X590791Y139389D01*
X590738Y139332D01*
X590683Y139278D01*
X590625Y139227D01*
X590564Y139179D01*
X590501Y139134D01*
X590436Y139093D01*
X590369Y139055D01*
X590300Y139020D01*
X590229Y138990D01*
X590157Y138962D01*
X590083Y138939D01*
X590009Y138919D01*
X589933Y138903D01*
X589857Y138891D01*
X589780Y138883D01*
X589703Y138879D01*
X589625Y138879D01*
X589548Y138883D01*
X589471Y138891D01*
X589395Y138903D01*
X589319Y138919D01*
X589245Y138939D01*
X589171Y138962D01*
X589099Y138990D01*
X589028Y139020D01*
X588959Y139055D01*
X588892Y139093D01*
X588827Y139134D01*
X588764Y139179D01*
X588703Y139227D01*
X588645Y139278D01*
X588590Y139332D01*
X588537Y139389D01*
X588488Y139448D01*
X588441Y139510D01*
X588398Y139574D01*
X588359Y139640D01*
X588322Y139708D01*
X588290Y139778D01*
X588260Y139850D01*
X588235Y139923D01*
X588213Y139997D01*
X588196Y140072D01*
X588182Y140148D01*
X588172Y140225D01*
X588166Y140302D01*
X588164Y140379D01*
D11*
X584178Y124065D02*
X584178Y121608D01*
X584178Y122836D02*
X576806Y122836D01*
X576806Y121608D02*
X576806Y124065D01*
X576806Y130283D02*
X578035Y131512D01*
X576806Y130283D02*
X576806Y127826D01*
X578035Y126597D01*
X579263Y126597D01*
X580492Y127826D01*
X580492Y130283D01*
X581721Y131512D01*
X582949Y131512D01*
X584178Y130283D01*
X584178Y127826D01*
X582949Y126597D01*
X576806Y135310D02*
X576806Y137767D01*
X576806Y135310D02*
X578035Y134081D01*
X582949Y134081D01*
X584178Y135310D01*
X584178Y137767D01*
X582949Y138996D01*
X578035Y138996D01*
X576806Y137767D01*
X579263Y141565D02*
X576806Y144023D01*
X584178Y144023D01*
X584178Y146480D02*
X584178Y141565D01*
D15*
X434465Y53861D02*
X433855Y53861D01*
D11*
X444694Y54390D02*
X445923Y55618D01*
X444694Y54390D02*
X444694Y51932D01*
X445923Y50703D01*
X450838Y50703D01*
X452067Y51932D01*
X452067Y54390D01*
X450838Y55618D01*
X452067Y58188D02*
X452067Y63102D01*
X452067Y58188D02*
X447152Y63102D01*
X445923Y63102D01*
X444694Y61874D01*
X444694Y59416D01*
X445923Y58188D01*
D15*
X598871Y84605D02*
X598871Y85215D01*
D11*
X617267Y79698D02*
X618496Y80927D01*
X617267Y79698D02*
X617267Y77241D01*
X618496Y76012D01*
X623411Y76012D01*
X624639Y77241D01*
X624639Y79698D01*
X623411Y80927D01*
X618496Y83496D02*
X617267Y84725D01*
X617267Y87182D01*
X618496Y88411D01*
X619725Y88411D01*
X620953Y87182D01*
X620953Y85954D01*
X620953Y87182D02*
X622182Y88411D01*
X623411Y88411D01*
X624639Y87182D01*
X624639Y84725D01*
X623411Y83496D01*
D15*
X580515Y187005D02*
X579905Y187005D01*
D11*
X564033Y178738D02*
X562804Y177510D01*
X562804Y175052D01*
X564033Y173824D01*
X568948Y173824D01*
X570177Y175052D01*
X570177Y177510D01*
X568948Y178738D01*
X570177Y181308D02*
X570177Y186223D01*
X570177Y181308D02*
X565262Y186223D01*
X564033Y186223D01*
X562804Y184994D01*
X562804Y182536D01*
X564033Y181308D01*
X564033Y188792D02*
X562804Y190021D01*
X562804Y192478D01*
X564033Y193707D01*
X565262Y193707D01*
X566491Y192478D01*
X567719Y193707D01*
X568948Y193707D01*
X570177Y192478D01*
X570177Y190021D01*
X568948Y188792D01*
X567719Y188792D01*
X566491Y190021D01*
X565262Y188792D01*
X564033Y188792D01*
X566491Y190021D02*
X566491Y192478D01*
X603433Y67547D02*
X603433Y60175D01*
X608348Y60175D01*
X610917Y65090D02*
X613374Y67547D01*
X613374Y60175D01*
X610917Y60175D02*
X615832Y60175D01*
D19*
X528127Y120830D03*
D11*
X497030Y118163D02*
X497030Y125536D01*
X500716Y125536D01*
X501945Y124307D01*
X501945Y121849D01*
X500716Y120621D01*
X497030Y120621D01*
X499487Y120621D02*
X501945Y118163D01*
X504514Y125536D02*
X509429Y125536D01*
X504514Y125536D02*
X504514Y121849D01*
X506971Y123078D01*
X508200Y123078D01*
X509429Y121849D01*
X509429Y119392D01*
X508200Y118163D01*
X505743Y118163D01*
X504514Y119392D01*
D16*
X511602Y151224D02*
X525602Y151224D01*
X511602Y151224D02*
X511602Y131224D01*
X525602Y131224D01*
X545602Y151224D02*
X559602Y151224D01*
X559602Y131224D01*
X545602Y131224D01*
X538602Y141224D02*
X538602Y148224D01*
X538602Y141224D02*
X538602Y134224D01*
X538602Y141224D02*
X532602Y147224D01*
X532602Y135224D01*
X538602Y141224D01*
D11*
X492803Y139065D02*
X492803Y146437D01*
X492803Y139065D02*
X496489Y139065D01*
X497718Y140294D01*
X497718Y145209D01*
X496489Y146437D01*
X492803Y146437D01*
X500287Y145209D02*
X501516Y146437D01*
X503973Y146437D01*
X505202Y145209D01*
X505202Y143980D01*
X503973Y142751D01*
X502745Y142751D01*
X503973Y142751D02*
X505202Y141522D01*
X505202Y140294D01*
X503973Y139065D01*
X501516Y139065D01*
X500287Y140294D01*
D16*
X556948Y64026D02*
X570948Y64026D01*
X570948Y84026D01*
X556948Y84026D01*
X536948Y64026D02*
X522948Y64026D01*
X522948Y84026D01*
X536948Y84026D01*
X543948Y74026D02*
X543948Y67026D01*
X543948Y74026D02*
X543948Y81026D01*
X543948Y74026D02*
X549948Y68026D01*
X549948Y80026D01*
X543948Y74026D01*
D11*
X501881Y77461D02*
X501881Y70089D01*
X505567Y70089D01*
X506796Y71317D01*
X506796Y76232D01*
X505567Y77461D01*
X501881Y77461D01*
X513051Y77461D02*
X513051Y70089D01*
X509365Y73775D02*
X513051Y77461D01*
X514280Y73775D02*
X509365Y73775D01*
D19*
X526499Y321473D03*
D11*
X498940Y320336D02*
X498940Y312964D01*
X498940Y320336D02*
X502626Y320336D01*
X503855Y319107D01*
X503855Y316650D01*
X502626Y315421D01*
X498940Y315421D01*
X501397Y315421D02*
X503855Y312964D01*
X506424Y319107D02*
X507653Y320336D01*
X510110Y320336D01*
X511339Y319107D01*
X511339Y317878D01*
X510110Y316650D01*
X508881Y316650D01*
X510110Y316650D02*
X511339Y315421D01*
X511339Y314192D01*
X510110Y312964D01*
X507653Y312964D01*
X506424Y314192D01*
D22*
X93119Y516623D02*
X27119Y516623D01*
X93119Y516623D02*
X93119Y456623D01*
X27119Y456623D01*
X27119Y516623D01*
X45086Y486623D02*
X45091Y486992D01*
X45104Y487361D01*
X45127Y487729D01*
X45158Y488096D01*
X45199Y488463D01*
X45249Y488829D01*
X45307Y489193D01*
X45375Y489556D01*
X45451Y489917D01*
X45537Y490276D01*
X45631Y490632D01*
X45733Y490987D01*
X45845Y491339D01*
X45965Y491687D01*
X46093Y492033D01*
X46230Y492376D01*
X46376Y492715D01*
X46529Y493050D01*
X46691Y493382D01*
X46861Y493710D01*
X47039Y494033D01*
X47225Y494352D01*
X47418Y494666D01*
X47620Y494975D01*
X47828Y495279D01*
X48044Y495578D01*
X48268Y495872D01*
X48498Y496160D01*
X48736Y496442D01*
X48980Y496719D01*
X49231Y496989D01*
X49489Y497253D01*
X49753Y497511D01*
X50023Y497762D01*
X50300Y498006D01*
X50582Y498244D01*
X50870Y498474D01*
X51164Y498698D01*
X51463Y498914D01*
X51767Y499122D01*
X52076Y499324D01*
X52390Y499517D01*
X52709Y499703D01*
X53032Y499881D01*
X53360Y500051D01*
X53692Y500213D01*
X54027Y500366D01*
X54366Y500512D01*
X54709Y500649D01*
X55055Y500777D01*
X55403Y500897D01*
X55755Y501009D01*
X56110Y501111D01*
X56466Y501205D01*
X56825Y501291D01*
X57186Y501367D01*
X57549Y501435D01*
X57913Y501493D01*
X58279Y501543D01*
X58646Y501584D01*
X59013Y501615D01*
X59381Y501638D01*
X59750Y501651D01*
X60119Y501656D01*
X60488Y501651D01*
X60857Y501638D01*
X61225Y501615D01*
X61592Y501584D01*
X61959Y501543D01*
X62325Y501493D01*
X62689Y501435D01*
X63052Y501367D01*
X63413Y501291D01*
X63772Y501205D01*
X64128Y501111D01*
X64483Y501009D01*
X64835Y500897D01*
X65183Y500777D01*
X65529Y500649D01*
X65872Y500512D01*
X66211Y500366D01*
X66546Y500213D01*
X66878Y500051D01*
X67206Y499881D01*
X67529Y499703D01*
X67848Y499517D01*
X68162Y499324D01*
X68471Y499122D01*
X68775Y498914D01*
X69074Y498698D01*
X69368Y498474D01*
X69656Y498244D01*
X69938Y498006D01*
X70215Y497762D01*
X70485Y497511D01*
X70749Y497253D01*
X71007Y496989D01*
X71258Y496719D01*
X71502Y496442D01*
X71740Y496160D01*
X71970Y495872D01*
X72194Y495578D01*
X72410Y495279D01*
X72618Y494975D01*
X72820Y494666D01*
X73013Y494352D01*
X73199Y494033D01*
X73377Y493710D01*
X73547Y493382D01*
X73709Y493050D01*
X73862Y492715D01*
X74008Y492376D01*
X74145Y492033D01*
X74273Y491687D01*
X74393Y491339D01*
X74505Y490987D01*
X74607Y490632D01*
X74701Y490276D01*
X74787Y489917D01*
X74863Y489556D01*
X74931Y489193D01*
X74989Y488829D01*
X75039Y488463D01*
X75080Y488096D01*
X75111Y487729D01*
X75134Y487361D01*
X75147Y486992D01*
X75152Y486623D01*
X75147Y486254D01*
X75134Y485885D01*
X75111Y485517D01*
X75080Y485150D01*
X75039Y484783D01*
X74989Y484417D01*
X74931Y484053D01*
X74863Y483690D01*
X74787Y483329D01*
X74701Y482970D01*
X74607Y482614D01*
X74505Y482259D01*
X74393Y481907D01*
X74273Y481559D01*
X74145Y481213D01*
X74008Y480870D01*
X73862Y480531D01*
X73709Y480196D01*
X73547Y479864D01*
X73377Y479536D01*
X73199Y479213D01*
X73013Y478894D01*
X72820Y478580D01*
X72618Y478271D01*
X72410Y477967D01*
X72194Y477668D01*
X71970Y477374D01*
X71740Y477086D01*
X71502Y476804D01*
X71258Y476527D01*
X71007Y476257D01*
X70749Y475993D01*
X70485Y475735D01*
X70215Y475484D01*
X69938Y475240D01*
X69656Y475002D01*
X69368Y474772D01*
X69074Y474548D01*
X68775Y474332D01*
X68471Y474124D01*
X68162Y473922D01*
X67848Y473729D01*
X67529Y473543D01*
X67206Y473365D01*
X66878Y473195D01*
X66546Y473033D01*
X66211Y472880D01*
X65872Y472734D01*
X65529Y472597D01*
X65183Y472469D01*
X64835Y472349D01*
X64483Y472237D01*
X64128Y472135D01*
X63772Y472041D01*
X63413Y471955D01*
X63052Y471879D01*
X62689Y471811D01*
X62325Y471753D01*
X61959Y471703D01*
X61592Y471662D01*
X61225Y471631D01*
X60857Y471608D01*
X60488Y471595D01*
X60119Y471590D01*
X59750Y471595D01*
X59381Y471608D01*
X59013Y471631D01*
X58646Y471662D01*
X58279Y471703D01*
X57913Y471753D01*
X57549Y471811D01*
X57186Y471879D01*
X56825Y471955D01*
X56466Y472041D01*
X56110Y472135D01*
X55755Y472237D01*
X55403Y472349D01*
X55055Y472469D01*
X54709Y472597D01*
X54366Y472734D01*
X54027Y472880D01*
X53692Y473033D01*
X53360Y473195D01*
X53032Y473365D01*
X52709Y473543D01*
X52390Y473729D01*
X52076Y473922D01*
X51767Y474124D01*
X51463Y474332D01*
X51164Y474548D01*
X50870Y474772D01*
X50582Y475002D01*
X50300Y475240D01*
X50023Y475484D01*
X49753Y475735D01*
X49489Y475993D01*
X49231Y476257D01*
X48980Y476527D01*
X48736Y476804D01*
X48498Y477086D01*
X48268Y477374D01*
X48044Y477668D01*
X47828Y477967D01*
X47620Y478271D01*
X47418Y478580D01*
X47225Y478894D01*
X47039Y479213D01*
X46861Y479536D01*
X46691Y479864D01*
X46529Y480196D01*
X46376Y480531D01*
X46230Y480870D01*
X46093Y481213D01*
X45965Y481559D01*
X45845Y481907D01*
X45733Y482259D01*
X45631Y482614D01*
X45537Y482970D01*
X45451Y483329D01*
X45375Y483690D01*
X45307Y484053D01*
X45249Y484417D01*
X45199Y484783D01*
X45158Y485150D01*
X45127Y485517D01*
X45104Y485885D01*
X45091Y486254D01*
X45086Y486623D01*
X50119Y486623D02*
X50122Y486868D01*
X50131Y487114D01*
X50146Y487359D01*
X50167Y487603D01*
X50194Y487847D01*
X50227Y488090D01*
X50266Y488333D01*
X50311Y488574D01*
X50362Y488814D01*
X50419Y489053D01*
X50481Y489290D01*
X50550Y489526D01*
X50624Y489760D01*
X50704Y489992D01*
X50789Y490222D01*
X50880Y490450D01*
X50977Y490675D01*
X51079Y490899D01*
X51187Y491119D01*
X51300Y491337D01*
X51418Y491552D01*
X51542Y491764D01*
X51670Y491973D01*
X51804Y492179D01*
X51943Y492381D01*
X52087Y492580D01*
X52236Y492775D01*
X52389Y492967D01*
X52547Y493155D01*
X52709Y493339D01*
X52877Y493518D01*
X53048Y493694D01*
X53224Y493865D01*
X53403Y494033D01*
X53587Y494195D01*
X53775Y494353D01*
X53967Y494506D01*
X54162Y494655D01*
X54361Y494799D01*
X54563Y494938D01*
X54769Y495072D01*
X54978Y495200D01*
X55190Y495324D01*
X55405Y495442D01*
X55623Y495555D01*
X55843Y495663D01*
X56067Y495765D01*
X56292Y495862D01*
X56520Y495953D01*
X56750Y496038D01*
X56982Y496118D01*
X57216Y496192D01*
X57452Y496261D01*
X57689Y496323D01*
X57928Y496380D01*
X58168Y496431D01*
X58409Y496476D01*
X58652Y496515D01*
X58895Y496548D01*
X59139Y496575D01*
X59383Y496596D01*
X59628Y496611D01*
X59874Y496620D01*
X60119Y496623D01*
X60364Y496620D01*
X60610Y496611D01*
X60855Y496596D01*
X61099Y496575D01*
X61343Y496548D01*
X61586Y496515D01*
X61829Y496476D01*
X62070Y496431D01*
X62310Y496380D01*
X62549Y496323D01*
X62786Y496261D01*
X63022Y496192D01*
X63256Y496118D01*
X63488Y496038D01*
X63718Y495953D01*
X63946Y495862D01*
X64171Y495765D01*
X64395Y495663D01*
X64615Y495555D01*
X64833Y495442D01*
X65048Y495324D01*
X65260Y495200D01*
X65469Y495072D01*
X65675Y494938D01*
X65877Y494799D01*
X66076Y494655D01*
X66271Y494506D01*
X66463Y494353D01*
X66651Y494195D01*
X66835Y494033D01*
X67014Y493865D01*
X67190Y493694D01*
X67361Y493518D01*
X67529Y493339D01*
X67691Y493155D01*
X67849Y492967D01*
X68002Y492775D01*
X68151Y492580D01*
X68295Y492381D01*
X68434Y492179D01*
X68568Y491973D01*
X68696Y491764D01*
X68820Y491552D01*
X68938Y491337D01*
X69051Y491119D01*
X69159Y490899D01*
X69261Y490675D01*
X69358Y490450D01*
X69449Y490222D01*
X69534Y489992D01*
X69614Y489760D01*
X69688Y489526D01*
X69757Y489290D01*
X69819Y489053D01*
X69876Y488814D01*
X69927Y488574D01*
X69972Y488333D01*
X70011Y488090D01*
X70044Y487847D01*
X70071Y487603D01*
X70092Y487359D01*
X70107Y487114D01*
X70116Y486868D01*
X70119Y486623D01*
X70116Y486378D01*
X70107Y486132D01*
X70092Y485887D01*
X70071Y485643D01*
X70044Y485399D01*
X70011Y485156D01*
X69972Y484913D01*
X69927Y484672D01*
X69876Y484432D01*
X69819Y484193D01*
X69757Y483956D01*
X69688Y483720D01*
X69614Y483486D01*
X69534Y483254D01*
X69449Y483024D01*
X69358Y482796D01*
X69261Y482571D01*
X69159Y482347D01*
X69051Y482127D01*
X68938Y481909D01*
X68820Y481694D01*
X68696Y481482D01*
X68568Y481273D01*
X68434Y481067D01*
X68295Y480865D01*
X68151Y480666D01*
X68002Y480471D01*
X67849Y480279D01*
X67691Y480091D01*
X67529Y479907D01*
X67361Y479728D01*
X67190Y479552D01*
X67014Y479381D01*
X66835Y479213D01*
X66651Y479051D01*
X66463Y478893D01*
X66271Y478740D01*
X66076Y478591D01*
X65877Y478447D01*
X65675Y478308D01*
X65469Y478174D01*
X65260Y478046D01*
X65048Y477922D01*
X64833Y477804D01*
X64615Y477691D01*
X64395Y477583D01*
X64171Y477481D01*
X63946Y477384D01*
X63718Y477293D01*
X63488Y477208D01*
X63256Y477128D01*
X63022Y477054D01*
X62786Y476985D01*
X62549Y476923D01*
X62310Y476866D01*
X62070Y476815D01*
X61829Y476770D01*
X61586Y476731D01*
X61343Y476698D01*
X61099Y476671D01*
X60855Y476650D01*
X60610Y476635D01*
X60364Y476626D01*
X60119Y476623D01*
X59874Y476626D01*
X59628Y476635D01*
X59383Y476650D01*
X59139Y476671D01*
X58895Y476698D01*
X58652Y476731D01*
X58409Y476770D01*
X58168Y476815D01*
X57928Y476866D01*
X57689Y476923D01*
X57452Y476985D01*
X57216Y477054D01*
X56982Y477128D01*
X56750Y477208D01*
X56520Y477293D01*
X56292Y477384D01*
X56067Y477481D01*
X55843Y477583D01*
X55623Y477691D01*
X55405Y477804D01*
X55190Y477922D01*
X54978Y478046D01*
X54769Y478174D01*
X54563Y478308D01*
X54361Y478447D01*
X54162Y478591D01*
X53967Y478740D01*
X53775Y478893D01*
X53587Y479051D01*
X53403Y479213D01*
X53224Y479381D01*
X53048Y479552D01*
X52877Y479728D01*
X52709Y479907D01*
X52547Y480091D01*
X52389Y480279D01*
X52236Y480471D01*
X52087Y480666D01*
X51943Y480865D01*
X51804Y481067D01*
X51670Y481273D01*
X51542Y481482D01*
X51418Y481694D01*
X51300Y481909D01*
X51187Y482127D01*
X51079Y482347D01*
X50977Y482571D01*
X50880Y482796D01*
X50789Y483024D01*
X50704Y483254D01*
X50624Y483486D01*
X50550Y483720D01*
X50481Y483956D01*
X50419Y484193D01*
X50362Y484432D01*
X50311Y484672D01*
X50266Y484913D01*
X50227Y485156D01*
X50194Y485399D01*
X50167Y485643D01*
X50146Y485887D01*
X50131Y486132D01*
X50122Y486378D01*
X50119Y486623D01*
D11*
X99273Y478686D02*
X100502Y479915D01*
X99273Y478686D02*
X99273Y476229D01*
X100502Y475000D01*
X101731Y475000D01*
X102960Y476229D01*
X102960Y478686D01*
X104188Y479915D01*
X105417Y479915D01*
X106646Y478686D01*
X106646Y476229D01*
X105417Y475000D01*
X106646Y482484D02*
X99273Y482484D01*
X104188Y484942D02*
X106646Y482484D01*
X104188Y484942D02*
X106646Y487399D01*
X99273Y487399D01*
X101731Y489969D02*
X99273Y492426D01*
X106646Y492426D01*
X106646Y489969D02*
X106646Y494883D01*
D19*
X125689Y490355D03*
D11*
X117533Y501388D02*
X117533Y508761D01*
X121219Y508761D01*
X122448Y507532D01*
X122448Y505075D01*
X121219Y503846D01*
X117533Y503846D01*
X119991Y503846D02*
X122448Y501388D01*
X128704Y501388D02*
X128704Y508761D01*
X125017Y505075D01*
X129932Y505075D01*
D12*
X577601Y314246D02*
X620781Y314246D01*
X623321Y332026D02*
X623319Y332126D01*
X623313Y332225D01*
X623303Y332325D01*
X623290Y332423D01*
X623272Y332522D01*
X623251Y332619D01*
X623226Y332715D01*
X623197Y332811D01*
X623164Y332905D01*
X623128Y332998D01*
X623088Y333089D01*
X623044Y333179D01*
X622997Y333267D01*
X622947Y333353D01*
X622893Y333437D01*
X622836Y333519D01*
X622776Y333598D01*
X622712Y333676D01*
X622646Y333750D01*
X622577Y333822D01*
X622505Y333891D01*
X622431Y333957D01*
X622353Y334021D01*
X622274Y334081D01*
X622192Y334138D01*
X622108Y334192D01*
X622022Y334242D01*
X621934Y334289D01*
X621844Y334333D01*
X621753Y334373D01*
X621660Y334409D01*
X621566Y334442D01*
X621470Y334471D01*
X621374Y334496D01*
X621277Y334517D01*
X621178Y334535D01*
X621080Y334548D01*
X620980Y334558D01*
X620881Y334564D01*
X620781Y334566D01*
X577601Y334566D02*
X577501Y334564D01*
X577402Y334558D01*
X577302Y334548D01*
X577204Y334535D01*
X577105Y334517D01*
X577008Y334496D01*
X576912Y334471D01*
X576816Y334442D01*
X576722Y334409D01*
X576629Y334373D01*
X576538Y334333D01*
X576448Y334289D01*
X576360Y334242D01*
X576274Y334192D01*
X576190Y334138D01*
X576108Y334081D01*
X576029Y334021D01*
X575951Y333957D01*
X575877Y333891D01*
X575805Y333822D01*
X575736Y333750D01*
X575670Y333676D01*
X575606Y333598D01*
X575546Y333519D01*
X575489Y333437D01*
X575435Y333353D01*
X575385Y333267D01*
X575338Y333179D01*
X575294Y333089D01*
X575254Y332998D01*
X575218Y332905D01*
X575185Y332811D01*
X575156Y332715D01*
X575131Y332619D01*
X575110Y332522D01*
X575092Y332423D01*
X575079Y332325D01*
X575069Y332225D01*
X575063Y332126D01*
X575061Y332026D01*
X575061Y316786D02*
X575063Y316686D01*
X575069Y316587D01*
X575079Y316487D01*
X575092Y316389D01*
X575110Y316290D01*
X575131Y316193D01*
X575156Y316097D01*
X575185Y316001D01*
X575218Y315907D01*
X575254Y315814D01*
X575294Y315723D01*
X575338Y315633D01*
X575385Y315545D01*
X575435Y315459D01*
X575489Y315375D01*
X575546Y315293D01*
X575606Y315214D01*
X575670Y315136D01*
X575736Y315062D01*
X575805Y314990D01*
X575877Y314921D01*
X575951Y314855D01*
X576029Y314791D01*
X576108Y314731D01*
X576190Y314674D01*
X576274Y314620D01*
X576360Y314570D01*
X576448Y314523D01*
X576538Y314479D01*
X576629Y314439D01*
X576722Y314403D01*
X576816Y314370D01*
X576912Y314341D01*
X577008Y314316D01*
X577105Y314295D01*
X577204Y314277D01*
X577302Y314264D01*
X577402Y314254D01*
X577501Y314248D01*
X577601Y314246D01*
X620781Y314246D02*
X620881Y314248D01*
X620980Y314254D01*
X621080Y314264D01*
X621178Y314277D01*
X621277Y314295D01*
X621374Y314316D01*
X621470Y314341D01*
X621566Y314370D01*
X621660Y314403D01*
X621753Y314439D01*
X621844Y314479D01*
X621934Y314523D01*
X622022Y314570D01*
X622108Y314620D01*
X622192Y314674D01*
X622274Y314731D01*
X622353Y314791D01*
X622431Y314855D01*
X622505Y314921D01*
X622577Y314990D01*
X622646Y315062D01*
X622712Y315136D01*
X622776Y315214D01*
X622836Y315293D01*
X622893Y315375D01*
X622947Y315459D01*
X622997Y315545D01*
X623044Y315633D01*
X623088Y315723D01*
X623128Y315814D01*
X623164Y315907D01*
X623197Y316001D01*
X623226Y316097D01*
X623251Y316193D01*
X623272Y316290D01*
X623290Y316389D01*
X623303Y316487D01*
X623313Y316587D01*
X623319Y316686D01*
X623321Y316786D01*
X623321Y332026D01*
X575061Y332026D02*
X575061Y316786D01*
X577601Y334566D02*
X620781Y334566D01*
D22*
X551573Y328224D02*
X549666Y330131D01*
X545853Y330131D01*
X543946Y328224D01*
X543946Y326318D01*
X545853Y324411D01*
X549666Y324411D01*
X551573Y322505D01*
X551573Y320598D01*
X549666Y318691D01*
X545853Y318691D01*
X543946Y320598D01*
X555640Y320598D02*
X557547Y318691D01*
X559453Y318691D01*
X561360Y320598D01*
X561360Y330131D01*
X559453Y330131D02*
X563267Y330131D01*
X573054Y330131D02*
X573054Y318691D01*
X567334Y324411D02*
X573054Y330131D01*
X574961Y324411D02*
X567334Y324411D01*
D12*
X665467Y264970D02*
X680707Y271320D01*
X680707Y258620D01*
X665467Y264970D01*
X486397Y261414D02*
X486397Y274368D01*
X486397Y261414D02*
X511289Y261414D01*
X662927Y261414D02*
X662927Y274368D01*
X642607Y303578D02*
X506717Y303578D01*
X638035Y261414D02*
X662927Y261414D01*
D19*
X246139Y115720D03*
D11*
X226607Y101375D02*
X226607Y94003D01*
X226607Y101375D02*
X230293Y101375D01*
X231522Y100146D01*
X231522Y97689D01*
X230293Y96460D01*
X226607Y96460D01*
X229065Y96460D02*
X231522Y94003D01*
X234091Y98918D02*
X236549Y101375D01*
X236549Y94003D01*
X239006Y94003D02*
X234091Y94003D01*
X241576Y95232D02*
X241576Y100146D01*
X242804Y101375D01*
X245262Y101375D01*
X246490Y100146D01*
X246490Y95232D01*
X245262Y94003D01*
X242804Y94003D01*
X241576Y95232D01*
X246490Y100146D01*
D19*
X246139Y135110D03*
D11*
X213907Y145143D02*
X213907Y152516D01*
X217593Y152516D01*
X218822Y151287D01*
X218822Y148829D01*
X217593Y147601D01*
X213907Y147601D01*
X216365Y147601D02*
X218822Y145143D01*
X221391Y150058D02*
X223849Y152516D01*
X223849Y145143D01*
X226306Y145143D02*
X221391Y145143D01*
X228876Y150058D02*
X231333Y152516D01*
X231333Y145143D01*
X228876Y145143D02*
X233790Y145143D01*
D19*
X244869Y185067D03*
D11*
X234227Y195100D02*
X234227Y202472D01*
X237913Y202472D01*
X239142Y201244D01*
X239142Y198786D01*
X237913Y197557D01*
X234227Y197557D01*
X236685Y197557D02*
X239142Y195100D01*
X241711Y195100D02*
X246626Y195100D01*
X241711Y195100D02*
X246626Y200015D01*
X246626Y201244D01*
X245398Y202472D01*
X242940Y202472D01*
X241711Y201244D01*
X249196Y202472D02*
X254110Y202472D01*
X249196Y202472D02*
X249196Y198786D01*
X251653Y200015D01*
X252882Y200015D01*
X254110Y198786D01*
X254110Y196329D01*
X252882Y195100D01*
X250424Y195100D01*
X249196Y196329D01*
D15*
X270782Y189471D02*
X271392Y189471D01*
D11*
X263313Y172922D02*
X264542Y171693D01*
X263313Y172922D02*
X260856Y172922D01*
X259627Y171693D01*
X259627Y166778D01*
X260856Y165550D01*
X263313Y165550D01*
X264542Y166778D01*
X269569Y171693D02*
X272026Y172922D01*
X269569Y171693D02*
X267111Y169236D01*
X267111Y166778D01*
X268340Y165550D01*
X270798Y165550D01*
X272026Y166778D01*
X272026Y168007D01*
X270798Y169236D01*
X267111Y169236D01*
X274596Y165550D02*
X279510Y165550D01*
X274596Y165550D02*
X279510Y170464D01*
X279510Y171693D01*
X278282Y172922D01*
X275824Y172922D01*
X274596Y171693D01*
D15*
X263131Y155258D02*
X263131Y154648D01*
D11*
X241113Y151587D02*
X239884Y150358D01*
X239884Y147901D01*
X241113Y146672D01*
X246028Y146672D01*
X247256Y147901D01*
X247256Y150358D01*
X246028Y151587D01*
X247256Y154156D02*
X247256Y159071D01*
X247256Y154156D02*
X242341Y159071D01*
X241113Y159071D01*
X239884Y157843D01*
X239884Y155385D01*
X241113Y154156D01*
X241113Y164098D02*
X239884Y166555D01*
X241113Y164098D02*
X243570Y161641D01*
X246028Y161641D01*
X247256Y162869D01*
X247256Y165327D01*
X246028Y166555D01*
X244799Y166555D01*
X243570Y165327D01*
X243570Y161641D01*
D15*
X263131Y96497D02*
X263131Y95887D01*
D11*
X253187Y84937D02*
X251958Y86166D01*
X249501Y86166D01*
X248272Y84937D01*
X248272Y80022D01*
X249501Y78793D01*
X251958Y78793D01*
X253187Y80022D01*
X255756Y84937D02*
X256985Y86166D01*
X259443Y86166D01*
X260671Y84937D01*
X260671Y83708D01*
X259443Y82479D01*
X258214Y82479D01*
X259443Y82479D02*
X260671Y81251D01*
X260671Y80022D01*
X259443Y78793D01*
X256985Y78793D01*
X255756Y80022D01*
X263241Y83708D02*
X265698Y86166D01*
X265698Y78793D01*
X263241Y78793D02*
X268155Y78793D01*
D15*
X221887Y125489D02*
X221277Y125489D01*
D11*
X212588Y109955D02*
X213817Y108727D01*
X212588Y109955D02*
X210131Y109955D01*
X208902Y108727D01*
X208902Y103812D01*
X210131Y102583D01*
X212588Y102583D01*
X213817Y103812D01*
X216386Y108727D02*
X217615Y109955D01*
X220073Y109955D01*
X221301Y108727D01*
X221301Y107498D01*
X220073Y106269D01*
X218844Y106269D01*
X220073Y106269D02*
X221301Y105040D01*
X221301Y103812D01*
X220073Y102583D01*
X217615Y102583D01*
X216386Y103812D01*
X223871Y102583D02*
X228785Y102583D01*
X223871Y102583D02*
X228785Y107498D01*
X228785Y108727D01*
X227557Y109955D01*
X225099Y109955D01*
X223871Y108727D01*
D15*
X219753Y189471D02*
X219143Y189471D01*
D11*
X207433Y173354D02*
X208662Y172125D01*
X207433Y173354D02*
X204976Y173354D01*
X203747Y172125D01*
X203747Y167210D01*
X204976Y165981D01*
X207433Y165981D01*
X208662Y167210D01*
X211231Y172125D02*
X212460Y173354D01*
X214918Y173354D01*
X216146Y172125D01*
X216146Y170896D01*
X214918Y169668D01*
X213689Y169668D01*
X214918Y169668D02*
X216146Y168439D01*
X216146Y167210D01*
X214918Y165981D01*
X212460Y165981D01*
X211231Y167210D01*
X218716Y173354D02*
X223630Y173354D01*
X218716Y173354D02*
X218716Y169668D01*
X221173Y170896D01*
X222402Y170896D01*
X223630Y169668D01*
X223630Y167210D01*
X222402Y165981D01*
X219944Y165981D01*
X218716Y167210D01*
D15*
X271554Y125971D02*
X272164Y125971D01*
D11*
X267123Y110194D02*
X268352Y108965D01*
X267123Y110194D02*
X264666Y110194D01*
X263437Y108965D01*
X263437Y104050D01*
X264666Y102822D01*
X267123Y102822D01*
X268352Y104050D01*
X270921Y108965D02*
X272150Y110194D01*
X274608Y110194D01*
X275836Y108965D01*
X275836Y107737D01*
X274608Y106508D01*
X273379Y106508D01*
X274608Y106508D02*
X275836Y105279D01*
X275836Y104050D01*
X274608Y102822D01*
X272150Y102822D01*
X270921Y104050D01*
X278406Y110194D02*
X283320Y110194D01*
X283320Y108965D01*
X278406Y104050D01*
X278406Y102822D01*
D23*
X222407Y218793D02*
X214407Y218793D01*
X214407Y230793D01*
X222407Y230793D01*
X222407Y218793D01*
D13*
X203537Y215498D02*
X199809Y215498D01*
X199809Y209905D01*
X203537Y209905D01*
X201673Y212701D02*
X199809Y212701D01*
X208218Y215498D02*
X209151Y214566D01*
X208218Y215498D02*
X206354Y215498D01*
X205422Y214566D01*
X205422Y213633D01*
X206354Y212701D01*
X208218Y212701D01*
X209151Y211769D01*
X209151Y210837D01*
X208218Y209905D01*
X206354Y209905D01*
X205422Y210837D01*
X211035Y209905D02*
X211035Y215498D01*
X211035Y209905D02*
X213832Y209905D01*
X214764Y210837D01*
X214764Y214566D01*
X213832Y215498D01*
X211035Y215498D01*
X216648Y213633D02*
X218513Y215498D01*
X218513Y209905D01*
X220377Y209905D02*
X216648Y209905D01*
D23*
X214407Y261973D02*
X222407Y261973D01*
X214407Y261973D02*
X214407Y273973D01*
X222407Y273973D01*
X222407Y261973D01*
D13*
X203537Y259948D02*
X199809Y259948D01*
X199809Y254355D01*
X203537Y254355D01*
X201673Y257151D02*
X199809Y257151D01*
X208218Y259948D02*
X209151Y259016D01*
X208218Y259948D02*
X206354Y259948D01*
X205422Y259016D01*
X205422Y258083D01*
X206354Y257151D01*
X208218Y257151D01*
X209151Y256219D01*
X209151Y255287D01*
X208218Y254355D01*
X206354Y254355D01*
X205422Y255287D01*
X211035Y254355D02*
X211035Y259948D01*
X211035Y254355D02*
X213832Y254355D01*
X214764Y255287D01*
X214764Y259016D01*
X213832Y259948D01*
X211035Y259948D01*
X216648Y254355D02*
X220377Y254355D01*
X220377Y258083D02*
X216648Y254355D01*
X220377Y258083D02*
X220377Y259016D01*
X219445Y259948D01*
X217580Y259948D01*
X216648Y259016D01*
D23*
X214407Y303883D02*
X222407Y303883D01*
X214407Y303883D02*
X214407Y315883D01*
X222407Y315883D01*
X222407Y303883D01*
D13*
X202267Y301858D02*
X198539Y301858D01*
X198539Y296265D01*
X202267Y296265D01*
X200403Y299061D02*
X198539Y299061D01*
X206948Y301858D02*
X207881Y300926D01*
X206948Y301858D02*
X205084Y301858D01*
X204152Y300926D01*
X204152Y299993D01*
X205084Y299061D01*
X206948Y299061D01*
X207881Y298129D01*
X207881Y297197D01*
X206948Y296265D01*
X205084Y296265D01*
X204152Y297197D01*
X209765Y296265D02*
X209765Y301858D01*
X209765Y296265D02*
X212562Y296265D01*
X213494Y297197D01*
X213494Y300926D01*
X212562Y301858D01*
X209765Y301858D01*
X215378Y300926D02*
X216310Y301858D01*
X218175Y301858D01*
X219107Y300926D01*
X219107Y299993D01*
X218175Y299061D01*
X217243Y299061D01*
X218175Y299061D02*
X219107Y298129D01*
X219107Y297197D01*
X218175Y296265D01*
X216310Y296265D01*
X215378Y297197D01*
D23*
X214407Y345793D02*
X222407Y345793D01*
X214407Y345793D02*
X214407Y357793D01*
X222407Y357793D01*
X222407Y345793D01*
D13*
X203537Y343768D02*
X199809Y343768D01*
X199809Y338175D01*
X203537Y338175D01*
X201673Y340971D02*
X199809Y340971D01*
X208218Y343768D02*
X209151Y342836D01*
X208218Y343768D02*
X206354Y343768D01*
X205422Y342836D01*
X205422Y341903D01*
X206354Y340971D01*
X208218Y340971D01*
X209151Y340039D01*
X209151Y339107D01*
X208218Y338175D01*
X206354Y338175D01*
X205422Y339107D01*
X211035Y338175D02*
X211035Y343768D01*
X211035Y338175D02*
X213832Y338175D01*
X214764Y339107D01*
X214764Y342836D01*
X213832Y343768D01*
X211035Y343768D01*
X219445Y343768D02*
X219445Y338175D01*
X216648Y340971D02*
X219445Y343768D01*
X220377Y340971D02*
X216648Y340971D01*
D23*
X769463Y436527D02*
X777463Y436527D01*
X777463Y424527D01*
X769463Y424527D01*
X769463Y436527D01*
D13*
X766225Y417480D02*
X762497Y417480D01*
X762497Y411887D01*
X766225Y411887D01*
X764361Y414683D02*
X762497Y414683D01*
X770906Y417480D02*
X771838Y416548D01*
X770906Y417480D02*
X769042Y417480D01*
X768110Y416548D01*
X768110Y415616D01*
X769042Y414683D01*
X770906Y414683D01*
X771838Y413751D01*
X771838Y412819D01*
X770906Y411887D01*
X769042Y411887D01*
X768110Y412819D01*
X773723Y411887D02*
X773723Y417480D01*
X773723Y411887D02*
X776519Y411887D01*
X777451Y412819D01*
X777451Y416548D01*
X776519Y417480D01*
X773723Y417480D01*
X779336Y417480D02*
X783064Y417480D01*
X779336Y417480D02*
X779336Y414683D01*
X781200Y415616D01*
X782132Y415616D01*
X783064Y414683D01*
X783064Y412819D01*
X782132Y411887D01*
X780268Y411887D01*
X779336Y412819D01*
D23*
X777463Y376837D02*
X769463Y376837D01*
X777463Y376837D02*
X777463Y364837D01*
X769463Y364837D01*
X769463Y376837D01*
D13*
X768765Y360330D02*
X765037Y360330D01*
X765037Y354737D01*
X768765Y354737D01*
X766901Y357533D02*
X765037Y357533D01*
X773446Y360330D02*
X774378Y359398D01*
X773446Y360330D02*
X771582Y360330D01*
X770650Y359398D01*
X770650Y358466D01*
X771582Y357533D01*
X773446Y357533D01*
X774378Y356601D01*
X774378Y355669D01*
X773446Y354737D01*
X771582Y354737D01*
X770650Y355669D01*
X776263Y354737D02*
X776263Y360330D01*
X776263Y354737D02*
X779059Y354737D01*
X779991Y355669D01*
X779991Y359398D01*
X779059Y360330D01*
X776263Y360330D01*
X783740Y359398D02*
X785604Y360330D01*
X783740Y359398D02*
X781876Y357533D01*
X781876Y355669D01*
X782808Y354737D01*
X784672Y354737D01*
X785604Y355669D01*
X785604Y356601D01*
X784672Y357533D01*
X781876Y357533D01*
D23*
X771113Y320957D02*
X763113Y320957D01*
X771113Y320957D02*
X771113Y308957D01*
X763113Y308957D01*
X763113Y320957D01*
D13*
X762415Y303180D02*
X758687Y303180D01*
X758687Y297587D01*
X762415Y297587D01*
X760551Y300383D02*
X758687Y300383D01*
X767096Y303180D02*
X768028Y302248D01*
X767096Y303180D02*
X765232Y303180D01*
X764300Y302248D01*
X764300Y301316D01*
X765232Y300383D01*
X767096Y300383D01*
X768028Y299451D01*
X768028Y298519D01*
X767096Y297587D01*
X765232Y297587D01*
X764300Y298519D01*
X769913Y297587D02*
X769913Y303180D01*
X769913Y297587D02*
X772709Y297587D01*
X773641Y298519D01*
X773641Y302248D01*
X772709Y303180D01*
X769913Y303180D01*
X775526Y303180D02*
X779254Y303180D01*
X779254Y302248D01*
X775526Y298519D01*
X775526Y297587D01*
D23*
X771113Y279047D02*
X763113Y279047D01*
X771113Y279047D02*
X771113Y267047D01*
X763113Y267047D01*
X763113Y279047D01*
D13*
X763685Y290480D02*
X759957Y290480D01*
X759957Y284887D01*
X763685Y284887D01*
X761821Y287683D02*
X759957Y287683D01*
X768366Y290480D02*
X769298Y289548D01*
X768366Y290480D02*
X766502Y290480D01*
X765570Y289548D01*
X765570Y288616D01*
X766502Y287683D01*
X768366Y287683D01*
X769298Y286751D01*
X769298Y285819D01*
X768366Y284887D01*
X766502Y284887D01*
X765570Y285819D01*
X771183Y284887D02*
X771183Y290480D01*
X771183Y284887D02*
X773979Y284887D01*
X774911Y285819D01*
X774911Y289548D01*
X773979Y290480D01*
X771183Y290480D01*
X776796Y289548D02*
X777728Y290480D01*
X779592Y290480D01*
X780524Y289548D01*
X780524Y288616D01*
X779592Y287683D01*
X780524Y286751D01*
X780524Y285819D01*
X779592Y284887D01*
X777728Y284887D01*
X776796Y285819D01*
X776796Y286751D01*
X777728Y287683D01*
X776796Y288616D01*
X776796Y289548D01*
X777728Y287683D02*
X779592Y287683D01*
D15*
X336548Y136919D02*
X335938Y136919D01*
D11*
X320066Y131192D02*
X318837Y129963D01*
X318837Y127506D01*
X320066Y126277D01*
X324981Y126277D01*
X326210Y127506D01*
X326210Y129963D01*
X324981Y131192D01*
X326210Y133761D02*
X326210Y138676D01*
X326210Y133761D02*
X321295Y138676D01*
X320066Y138676D01*
X318837Y137448D01*
X318837Y134990D01*
X320066Y133761D01*
X324981Y141246D02*
X326210Y142474D01*
X326210Y144932D01*
X324981Y146160D01*
X320066Y146160D01*
X318837Y144932D01*
X318837Y142474D01*
X320066Y141246D01*
X321295Y141246D01*
X322524Y142474D01*
X322524Y146160D01*
D15*
X357213Y185541D02*
X357823Y185541D01*
D11*
X352168Y163316D02*
X353397Y162087D01*
X352168Y163316D02*
X349710Y163316D01*
X348482Y162087D01*
X348482Y157172D01*
X349710Y155943D01*
X352168Y155943D01*
X353397Y157172D01*
X355966Y162087D02*
X357195Y163316D01*
X359652Y163316D01*
X360881Y162087D01*
X360881Y160858D01*
X359652Y159629D01*
X358423Y159629D01*
X359652Y159629D02*
X360881Y158401D01*
X360881Y157172D01*
X359652Y155943D01*
X357195Y155943D01*
X355966Y157172D01*
X363450Y157172D02*
X363450Y162087D01*
X364679Y163316D01*
X367136Y163316D01*
X368365Y162087D01*
X368365Y157172D01*
X367136Y155943D01*
X364679Y155943D01*
X363450Y157172D01*
X368365Y162087D01*
D15*
X125971Y466997D02*
X125971Y467607D01*
D11*
X146548Y469975D02*
X147777Y468746D01*
X146548Y469975D02*
X144091Y469975D01*
X142862Y468746D01*
X142862Y463831D01*
X144091Y462603D01*
X146548Y462603D01*
X147777Y463831D01*
X154033Y462603D02*
X154033Y469975D01*
X150346Y466289D01*
X155261Y466289D01*
X157831Y467517D02*
X160288Y469975D01*
X160288Y462603D01*
X157831Y462603D02*
X162745Y462603D01*
D22*
X197850Y163650D02*
X57850Y163650D01*
X197850Y163650D02*
X197850Y81650D01*
X57850Y81650D01*
D24*
X49350Y115150D02*
X49352Y115227D01*
X49358Y115304D01*
X49368Y115381D01*
X49382Y115457D01*
X49399Y115532D01*
X49421Y115606D01*
X49446Y115679D01*
X49476Y115751D01*
X49508Y115821D01*
X49545Y115889D01*
X49584Y115955D01*
X49627Y116019D01*
X49674Y116081D01*
X49723Y116140D01*
X49776Y116197D01*
X49831Y116251D01*
X49889Y116302D01*
X49950Y116350D01*
X50013Y116395D01*
X50078Y116436D01*
X50145Y116474D01*
X50214Y116509D01*
X50285Y116539D01*
X50357Y116567D01*
X50431Y116590D01*
X50505Y116610D01*
X50581Y116626D01*
X50657Y116638D01*
X50734Y116646D01*
X50811Y116650D01*
X50889Y116650D01*
X50966Y116646D01*
X51043Y116638D01*
X51119Y116626D01*
X51195Y116610D01*
X51269Y116590D01*
X51343Y116567D01*
X51415Y116539D01*
X51486Y116509D01*
X51555Y116474D01*
X51622Y116436D01*
X51687Y116395D01*
X51750Y116350D01*
X51811Y116302D01*
X51869Y116251D01*
X51924Y116197D01*
X51977Y116140D01*
X52026Y116081D01*
X52073Y116019D01*
X52116Y115955D01*
X52155Y115889D01*
X52192Y115821D01*
X52224Y115751D01*
X52254Y115679D01*
X52279Y115606D01*
X52301Y115532D01*
X52318Y115457D01*
X52332Y115381D01*
X52342Y115304D01*
X52348Y115227D01*
X52350Y115150D01*
X52348Y115073D01*
X52342Y114996D01*
X52332Y114919D01*
X52318Y114843D01*
X52301Y114768D01*
X52279Y114694D01*
X52254Y114621D01*
X52224Y114549D01*
X52192Y114479D01*
X52155Y114411D01*
X52116Y114345D01*
X52073Y114281D01*
X52026Y114219D01*
X51977Y114160D01*
X51924Y114103D01*
X51869Y114049D01*
X51811Y113998D01*
X51750Y113950D01*
X51687Y113905D01*
X51622Y113864D01*
X51555Y113826D01*
X51486Y113791D01*
X51415Y113761D01*
X51343Y113733D01*
X51269Y113710D01*
X51195Y113690D01*
X51119Y113674D01*
X51043Y113662D01*
X50966Y113654D01*
X50889Y113650D01*
X50811Y113650D01*
X50734Y113654D01*
X50657Y113662D01*
X50581Y113674D01*
X50505Y113690D01*
X50431Y113710D01*
X50357Y113733D01*
X50285Y113761D01*
X50214Y113791D01*
X50145Y113826D01*
X50078Y113864D01*
X50013Y113905D01*
X49950Y113950D01*
X49889Y113998D01*
X49831Y114049D01*
X49776Y114103D01*
X49723Y114160D01*
X49674Y114219D01*
X49627Y114281D01*
X49584Y114345D01*
X49545Y114411D01*
X49508Y114479D01*
X49476Y114549D01*
X49446Y114621D01*
X49421Y114694D01*
X49399Y114768D01*
X49382Y114843D01*
X49368Y114919D01*
X49358Y114996D01*
X49352Y115073D01*
X49350Y115150D01*
D10*
X204963Y82534D02*
X206915Y80582D01*
X208866Y80582D01*
X210818Y82534D01*
X210818Y92293D01*
X208866Y92293D02*
X212770Y92293D01*
X216672Y80582D02*
X224480Y80582D01*
X216672Y80582D02*
X224480Y88390D01*
X224480Y90341D01*
X222528Y92293D01*
X218624Y92293D01*
X216672Y90341D01*
D22*
X197850Y258900D02*
X57850Y258900D01*
X197850Y258900D02*
X197850Y176900D01*
X57850Y176900D01*
D24*
X49350Y210400D02*
X49352Y210477D01*
X49358Y210554D01*
X49368Y210631D01*
X49382Y210707D01*
X49399Y210782D01*
X49421Y210856D01*
X49446Y210929D01*
X49476Y211001D01*
X49508Y211071D01*
X49545Y211139D01*
X49584Y211205D01*
X49627Y211269D01*
X49674Y211331D01*
X49723Y211390D01*
X49776Y211447D01*
X49831Y211501D01*
X49889Y211552D01*
X49950Y211600D01*
X50013Y211645D01*
X50078Y211686D01*
X50145Y211724D01*
X50214Y211759D01*
X50285Y211789D01*
X50357Y211817D01*
X50431Y211840D01*
X50505Y211860D01*
X50581Y211876D01*
X50657Y211888D01*
X50734Y211896D01*
X50811Y211900D01*
X50889Y211900D01*
X50966Y211896D01*
X51043Y211888D01*
X51119Y211876D01*
X51195Y211860D01*
X51269Y211840D01*
X51343Y211817D01*
X51415Y211789D01*
X51486Y211759D01*
X51555Y211724D01*
X51622Y211686D01*
X51687Y211645D01*
X51750Y211600D01*
X51811Y211552D01*
X51869Y211501D01*
X51924Y211447D01*
X51977Y211390D01*
X52026Y211331D01*
X52073Y211269D01*
X52116Y211205D01*
X52155Y211139D01*
X52192Y211071D01*
X52224Y211001D01*
X52254Y210929D01*
X52279Y210856D01*
X52301Y210782D01*
X52318Y210707D01*
X52332Y210631D01*
X52342Y210554D01*
X52348Y210477D01*
X52350Y210400D01*
X52348Y210323D01*
X52342Y210246D01*
X52332Y210169D01*
X52318Y210093D01*
X52301Y210018D01*
X52279Y209944D01*
X52254Y209871D01*
X52224Y209799D01*
X52192Y209729D01*
X52155Y209661D01*
X52116Y209595D01*
X52073Y209531D01*
X52026Y209469D01*
X51977Y209410D01*
X51924Y209353D01*
X51869Y209299D01*
X51811Y209248D01*
X51750Y209200D01*
X51687Y209155D01*
X51622Y209114D01*
X51555Y209076D01*
X51486Y209041D01*
X51415Y209011D01*
X51343Y208983D01*
X51269Y208960D01*
X51195Y208940D01*
X51119Y208924D01*
X51043Y208912D01*
X50966Y208904D01*
X50889Y208900D01*
X50811Y208900D01*
X50734Y208904D01*
X50657Y208912D01*
X50581Y208924D01*
X50505Y208940D01*
X50431Y208960D01*
X50357Y208983D01*
X50285Y209011D01*
X50214Y209041D01*
X50145Y209076D01*
X50078Y209114D01*
X50013Y209155D01*
X49950Y209200D01*
X49889Y209248D01*
X49831Y209299D01*
X49776Y209353D01*
X49723Y209410D01*
X49674Y209469D01*
X49627Y209531D01*
X49584Y209595D01*
X49545Y209661D01*
X49508Y209729D01*
X49476Y209799D01*
X49446Y209871D01*
X49421Y209944D01*
X49399Y210018D01*
X49382Y210093D01*
X49368Y210169D01*
X49358Y210246D01*
X49352Y210323D01*
X49350Y210400D01*
D10*
X202423Y238744D02*
X204375Y236792D01*
X206326Y236792D01*
X208278Y238744D01*
X208278Y248503D01*
X206326Y248503D02*
X210230Y248503D01*
X214132Y246551D02*
X216084Y248503D01*
X219988Y248503D01*
X221940Y246551D01*
X221940Y244600D01*
X219988Y242648D01*
X218036Y242648D01*
X219988Y242648D02*
X221940Y240696D01*
X221940Y238744D01*
X219988Y236792D01*
X216084Y236792D01*
X214132Y238744D01*
D22*
X197850Y354150D02*
X57850Y354150D01*
X197850Y354150D02*
X197850Y272150D01*
X57850Y272150D01*
D24*
X49350Y305650D02*
X49352Y305727D01*
X49358Y305804D01*
X49368Y305881D01*
X49382Y305957D01*
X49399Y306032D01*
X49421Y306106D01*
X49446Y306179D01*
X49476Y306251D01*
X49508Y306321D01*
X49545Y306389D01*
X49584Y306455D01*
X49627Y306519D01*
X49674Y306581D01*
X49723Y306640D01*
X49776Y306697D01*
X49831Y306751D01*
X49889Y306802D01*
X49950Y306850D01*
X50013Y306895D01*
X50078Y306936D01*
X50145Y306974D01*
X50214Y307009D01*
X50285Y307039D01*
X50357Y307067D01*
X50431Y307090D01*
X50505Y307110D01*
X50581Y307126D01*
X50657Y307138D01*
X50734Y307146D01*
X50811Y307150D01*
X50889Y307150D01*
X50966Y307146D01*
X51043Y307138D01*
X51119Y307126D01*
X51195Y307110D01*
X51269Y307090D01*
X51343Y307067D01*
X51415Y307039D01*
X51486Y307009D01*
X51555Y306974D01*
X51622Y306936D01*
X51687Y306895D01*
X51750Y306850D01*
X51811Y306802D01*
X51869Y306751D01*
X51924Y306697D01*
X51977Y306640D01*
X52026Y306581D01*
X52073Y306519D01*
X52116Y306455D01*
X52155Y306389D01*
X52192Y306321D01*
X52224Y306251D01*
X52254Y306179D01*
X52279Y306106D01*
X52301Y306032D01*
X52318Y305957D01*
X52332Y305881D01*
X52342Y305804D01*
X52348Y305727D01*
X52350Y305650D01*
X52348Y305573D01*
X52342Y305496D01*
X52332Y305419D01*
X52318Y305343D01*
X52301Y305268D01*
X52279Y305194D01*
X52254Y305121D01*
X52224Y305049D01*
X52192Y304979D01*
X52155Y304911D01*
X52116Y304845D01*
X52073Y304781D01*
X52026Y304719D01*
X51977Y304660D01*
X51924Y304603D01*
X51869Y304549D01*
X51811Y304498D01*
X51750Y304450D01*
X51687Y304405D01*
X51622Y304364D01*
X51555Y304326D01*
X51486Y304291D01*
X51415Y304261D01*
X51343Y304233D01*
X51269Y304210D01*
X51195Y304190D01*
X51119Y304174D01*
X51043Y304162D01*
X50966Y304154D01*
X50889Y304150D01*
X50811Y304150D01*
X50734Y304154D01*
X50657Y304162D01*
X50581Y304174D01*
X50505Y304190D01*
X50431Y304210D01*
X50357Y304233D01*
X50285Y304261D01*
X50214Y304291D01*
X50145Y304326D01*
X50078Y304364D01*
X50013Y304405D01*
X49950Y304450D01*
X49889Y304498D01*
X49831Y304549D01*
X49776Y304603D01*
X49723Y304660D01*
X49674Y304719D01*
X49627Y304781D01*
X49584Y304845D01*
X49545Y304911D01*
X49508Y304979D01*
X49476Y305049D01*
X49446Y305121D01*
X49421Y305194D01*
X49399Y305268D01*
X49382Y305343D01*
X49368Y305419D01*
X49358Y305496D01*
X49352Y305573D01*
X49350Y305650D01*
D10*
X202423Y323834D02*
X204375Y321882D01*
X206326Y321882D01*
X208278Y323834D01*
X208278Y333593D01*
X206326Y333593D02*
X210230Y333593D01*
X219988Y333593D02*
X219988Y321882D01*
X214132Y327738D02*
X219988Y333593D01*
X221940Y327738D02*
X214132Y327738D01*
D22*
X197850Y449400D02*
X57850Y449400D01*
X197850Y449400D02*
X197850Y367400D01*
X57850Y367400D01*
D24*
X49350Y400900D02*
X49352Y400977D01*
X49358Y401054D01*
X49368Y401131D01*
X49382Y401207D01*
X49399Y401282D01*
X49421Y401356D01*
X49446Y401429D01*
X49476Y401501D01*
X49508Y401571D01*
X49545Y401639D01*
X49584Y401705D01*
X49627Y401769D01*
X49674Y401831D01*
X49723Y401890D01*
X49776Y401947D01*
X49831Y402001D01*
X49889Y402052D01*
X49950Y402100D01*
X50013Y402145D01*
X50078Y402186D01*
X50145Y402224D01*
X50214Y402259D01*
X50285Y402289D01*
X50357Y402317D01*
X50431Y402340D01*
X50505Y402360D01*
X50581Y402376D01*
X50657Y402388D01*
X50734Y402396D01*
X50811Y402400D01*
X50889Y402400D01*
X50966Y402396D01*
X51043Y402388D01*
X51119Y402376D01*
X51195Y402360D01*
X51269Y402340D01*
X51343Y402317D01*
X51415Y402289D01*
X51486Y402259D01*
X51555Y402224D01*
X51622Y402186D01*
X51687Y402145D01*
X51750Y402100D01*
X51811Y402052D01*
X51869Y402001D01*
X51924Y401947D01*
X51977Y401890D01*
X52026Y401831D01*
X52073Y401769D01*
X52116Y401705D01*
X52155Y401639D01*
X52192Y401571D01*
X52224Y401501D01*
X52254Y401429D01*
X52279Y401356D01*
X52301Y401282D01*
X52318Y401207D01*
X52332Y401131D01*
X52342Y401054D01*
X52348Y400977D01*
X52350Y400900D01*
X52348Y400823D01*
X52342Y400746D01*
X52332Y400669D01*
X52318Y400593D01*
X52301Y400518D01*
X52279Y400444D01*
X52254Y400371D01*
X52224Y400299D01*
X52192Y400229D01*
X52155Y400161D01*
X52116Y400095D01*
X52073Y400031D01*
X52026Y399969D01*
X51977Y399910D01*
X51924Y399853D01*
X51869Y399799D01*
X51811Y399748D01*
X51750Y399700D01*
X51687Y399655D01*
X51622Y399614D01*
X51555Y399576D01*
X51486Y399541D01*
X51415Y399511D01*
X51343Y399483D01*
X51269Y399460D01*
X51195Y399440D01*
X51119Y399424D01*
X51043Y399412D01*
X50966Y399404D01*
X50889Y399400D01*
X50811Y399400D01*
X50734Y399404D01*
X50657Y399412D01*
X50581Y399424D01*
X50505Y399440D01*
X50431Y399460D01*
X50357Y399483D01*
X50285Y399511D01*
X50214Y399541D01*
X50145Y399576D01*
X50078Y399614D01*
X50013Y399655D01*
X49950Y399700D01*
X49889Y399748D01*
X49831Y399799D01*
X49776Y399853D01*
X49723Y399910D01*
X49674Y399969D01*
X49627Y400031D01*
X49584Y400095D01*
X49545Y400161D01*
X49508Y400229D01*
X49476Y400299D01*
X49446Y400371D01*
X49421Y400444D01*
X49399Y400518D01*
X49382Y400593D01*
X49368Y400669D01*
X49358Y400746D01*
X49352Y400823D01*
X49350Y400900D01*
D10*
X204963Y406384D02*
X206915Y404432D01*
X208866Y404432D01*
X210818Y406384D01*
X210818Y416143D01*
X208866Y416143D02*
X212770Y416143D01*
X216672Y416143D02*
X224480Y416143D01*
X216672Y416143D02*
X216672Y410288D01*
X220576Y412240D01*
X222528Y412240D01*
X224480Y410288D01*
X224480Y406384D01*
X222528Y404432D01*
X218624Y404432D01*
X216672Y406384D01*
D22*
X818150Y382450D02*
X958150Y382450D01*
X818150Y382450D02*
X818150Y464450D01*
X958150Y464450D01*
D24*
X963650Y430950D02*
X963652Y431027D01*
X963658Y431104D01*
X963668Y431181D01*
X963682Y431257D01*
X963699Y431332D01*
X963721Y431406D01*
X963746Y431479D01*
X963776Y431551D01*
X963808Y431621D01*
X963845Y431689D01*
X963884Y431755D01*
X963927Y431819D01*
X963974Y431881D01*
X964023Y431940D01*
X964076Y431997D01*
X964131Y432051D01*
X964189Y432102D01*
X964250Y432150D01*
X964313Y432195D01*
X964378Y432236D01*
X964445Y432274D01*
X964514Y432309D01*
X964585Y432339D01*
X964657Y432367D01*
X964731Y432390D01*
X964805Y432410D01*
X964881Y432426D01*
X964957Y432438D01*
X965034Y432446D01*
X965111Y432450D01*
X965189Y432450D01*
X965266Y432446D01*
X965343Y432438D01*
X965419Y432426D01*
X965495Y432410D01*
X965569Y432390D01*
X965643Y432367D01*
X965715Y432339D01*
X965786Y432309D01*
X965855Y432274D01*
X965922Y432236D01*
X965987Y432195D01*
X966050Y432150D01*
X966111Y432102D01*
X966169Y432051D01*
X966224Y431997D01*
X966277Y431940D01*
X966326Y431881D01*
X966373Y431819D01*
X966416Y431755D01*
X966455Y431689D01*
X966492Y431621D01*
X966524Y431551D01*
X966554Y431479D01*
X966579Y431406D01*
X966601Y431332D01*
X966618Y431257D01*
X966632Y431181D01*
X966642Y431104D01*
X966648Y431027D01*
X966650Y430950D01*
X966648Y430873D01*
X966642Y430796D01*
X966632Y430719D01*
X966618Y430643D01*
X966601Y430568D01*
X966579Y430494D01*
X966554Y430421D01*
X966524Y430349D01*
X966492Y430279D01*
X966455Y430211D01*
X966416Y430145D01*
X966373Y430081D01*
X966326Y430019D01*
X966277Y429960D01*
X966224Y429903D01*
X966169Y429849D01*
X966111Y429798D01*
X966050Y429750D01*
X965987Y429705D01*
X965922Y429664D01*
X965855Y429626D01*
X965786Y429591D01*
X965715Y429561D01*
X965643Y429533D01*
X965569Y429510D01*
X965495Y429490D01*
X965419Y429474D01*
X965343Y429462D01*
X965266Y429454D01*
X965189Y429450D01*
X965111Y429450D01*
X965034Y429454D01*
X964957Y429462D01*
X964881Y429474D01*
X964805Y429490D01*
X964731Y429510D01*
X964657Y429533D01*
X964585Y429561D01*
X964514Y429591D01*
X964445Y429626D01*
X964378Y429664D01*
X964313Y429705D01*
X964250Y429750D01*
X964189Y429798D01*
X964131Y429849D01*
X964076Y429903D01*
X964023Y429960D01*
X963974Y430019D01*
X963927Y430081D01*
X963884Y430145D01*
X963845Y430211D01*
X963808Y430279D01*
X963776Y430349D01*
X963746Y430421D01*
X963721Y430494D01*
X963699Y430568D01*
X963682Y430643D01*
X963668Y430719D01*
X963658Y430796D01*
X963652Y430873D01*
X963650Y430950D01*
D10*
X790586Y447467D02*
X788634Y449419D01*
X790586Y447467D02*
X792538Y447467D01*
X794490Y449419D01*
X794490Y459178D01*
X796441Y459178D02*
X792538Y459178D01*
X804247Y457226D02*
X808151Y459178D01*
X804247Y457226D02*
X800344Y453322D01*
X800344Y449419D01*
X802295Y447467D01*
X806199Y447467D01*
X808151Y449419D01*
X808151Y451370D01*
X806199Y453322D01*
X800344Y453322D01*
D22*
X818150Y287200D02*
X958150Y287200D01*
X818150Y287200D02*
X818150Y369200D01*
X958150Y369200D01*
D24*
X963650Y335700D02*
X963652Y335777D01*
X963658Y335854D01*
X963668Y335931D01*
X963682Y336007D01*
X963699Y336082D01*
X963721Y336156D01*
X963746Y336229D01*
X963776Y336301D01*
X963808Y336371D01*
X963845Y336439D01*
X963884Y336505D01*
X963927Y336569D01*
X963974Y336631D01*
X964023Y336690D01*
X964076Y336747D01*
X964131Y336801D01*
X964189Y336852D01*
X964250Y336900D01*
X964313Y336945D01*
X964378Y336986D01*
X964445Y337024D01*
X964514Y337059D01*
X964585Y337089D01*
X964657Y337117D01*
X964731Y337140D01*
X964805Y337160D01*
X964881Y337176D01*
X964957Y337188D01*
X965034Y337196D01*
X965111Y337200D01*
X965189Y337200D01*
X965266Y337196D01*
X965343Y337188D01*
X965419Y337176D01*
X965495Y337160D01*
X965569Y337140D01*
X965643Y337117D01*
X965715Y337089D01*
X965786Y337059D01*
X965855Y337024D01*
X965922Y336986D01*
X965987Y336945D01*
X966050Y336900D01*
X966111Y336852D01*
X966169Y336801D01*
X966224Y336747D01*
X966277Y336690D01*
X966326Y336631D01*
X966373Y336569D01*
X966416Y336505D01*
X966455Y336439D01*
X966492Y336371D01*
X966524Y336301D01*
X966554Y336229D01*
X966579Y336156D01*
X966601Y336082D01*
X966618Y336007D01*
X966632Y335931D01*
X966642Y335854D01*
X966648Y335777D01*
X966650Y335700D01*
X966648Y335623D01*
X966642Y335546D01*
X966632Y335469D01*
X966618Y335393D01*
X966601Y335318D01*
X966579Y335244D01*
X966554Y335171D01*
X966524Y335099D01*
X966492Y335029D01*
X966455Y334961D01*
X966416Y334895D01*
X966373Y334831D01*
X966326Y334769D01*
X966277Y334710D01*
X966224Y334653D01*
X966169Y334599D01*
X966111Y334548D01*
X966050Y334500D01*
X965987Y334455D01*
X965922Y334414D01*
X965855Y334376D01*
X965786Y334341D01*
X965715Y334311D01*
X965643Y334283D01*
X965569Y334260D01*
X965495Y334240D01*
X965419Y334224D01*
X965343Y334212D01*
X965266Y334204D01*
X965189Y334200D01*
X965111Y334200D01*
X965034Y334204D01*
X964957Y334212D01*
X964881Y334224D01*
X964805Y334240D01*
X964731Y334260D01*
X964657Y334283D01*
X964585Y334311D01*
X964514Y334341D01*
X964445Y334376D01*
X964378Y334414D01*
X964313Y334455D01*
X964250Y334500D01*
X964189Y334548D01*
X964131Y334599D01*
X964076Y334653D01*
X964023Y334710D01*
X963974Y334769D01*
X963927Y334831D01*
X963884Y334895D01*
X963845Y334961D01*
X963808Y335029D01*
X963776Y335099D01*
X963746Y335171D01*
X963721Y335244D01*
X963699Y335318D01*
X963682Y335393D01*
X963668Y335469D01*
X963658Y335546D01*
X963652Y335623D01*
X963650Y335700D01*
D10*
X771536Y339517D02*
X769584Y341469D01*
X771536Y339517D02*
X773488Y339517D01*
X775440Y341469D01*
X775440Y351228D01*
X777391Y351228D02*
X773488Y351228D01*
X781294Y351228D02*
X789101Y351228D01*
X789101Y349276D01*
X781294Y341469D01*
X781294Y339517D01*
D22*
X818150Y191950D02*
X958150Y191950D01*
X818150Y191950D02*
X818150Y273950D01*
X958150Y273950D01*
D24*
X963650Y240450D02*
X963652Y240527D01*
X963658Y240604D01*
X963668Y240681D01*
X963682Y240757D01*
X963699Y240832D01*
X963721Y240906D01*
X963746Y240979D01*
X963776Y241051D01*
X963808Y241121D01*
X963845Y241189D01*
X963884Y241255D01*
X963927Y241319D01*
X963974Y241381D01*
X964023Y241440D01*
X964076Y241497D01*
X964131Y241551D01*
X964189Y241602D01*
X964250Y241650D01*
X964313Y241695D01*
X964378Y241736D01*
X964445Y241774D01*
X964514Y241809D01*
X964585Y241839D01*
X964657Y241867D01*
X964731Y241890D01*
X964805Y241910D01*
X964881Y241926D01*
X964957Y241938D01*
X965034Y241946D01*
X965111Y241950D01*
X965189Y241950D01*
X965266Y241946D01*
X965343Y241938D01*
X965419Y241926D01*
X965495Y241910D01*
X965569Y241890D01*
X965643Y241867D01*
X965715Y241839D01*
X965786Y241809D01*
X965855Y241774D01*
X965922Y241736D01*
X965987Y241695D01*
X966050Y241650D01*
X966111Y241602D01*
X966169Y241551D01*
X966224Y241497D01*
X966277Y241440D01*
X966326Y241381D01*
X966373Y241319D01*
X966416Y241255D01*
X966455Y241189D01*
X966492Y241121D01*
X966524Y241051D01*
X966554Y240979D01*
X966579Y240906D01*
X966601Y240832D01*
X966618Y240757D01*
X966632Y240681D01*
X966642Y240604D01*
X966648Y240527D01*
X966650Y240450D01*
X966648Y240373D01*
X966642Y240296D01*
X966632Y240219D01*
X966618Y240143D01*
X966601Y240068D01*
X966579Y239994D01*
X966554Y239921D01*
X966524Y239849D01*
X966492Y239779D01*
X966455Y239711D01*
X966416Y239645D01*
X966373Y239581D01*
X966326Y239519D01*
X966277Y239460D01*
X966224Y239403D01*
X966169Y239349D01*
X966111Y239298D01*
X966050Y239250D01*
X965987Y239205D01*
X965922Y239164D01*
X965855Y239126D01*
X965786Y239091D01*
X965715Y239061D01*
X965643Y239033D01*
X965569Y239010D01*
X965495Y238990D01*
X965419Y238974D01*
X965343Y238962D01*
X965266Y238954D01*
X965189Y238950D01*
X965111Y238950D01*
X965034Y238954D01*
X964957Y238962D01*
X964881Y238974D01*
X964805Y238990D01*
X964731Y239010D01*
X964657Y239033D01*
X964585Y239061D01*
X964514Y239091D01*
X964445Y239126D01*
X964378Y239164D01*
X964313Y239205D01*
X964250Y239250D01*
X964189Y239298D01*
X964131Y239349D01*
X964076Y239403D01*
X964023Y239460D01*
X963974Y239519D01*
X963927Y239581D01*
X963884Y239645D01*
X963845Y239711D01*
X963808Y239779D01*
X963776Y239849D01*
X963746Y239921D01*
X963721Y239994D01*
X963699Y240068D01*
X963682Y240143D01*
X963668Y240219D01*
X963658Y240296D01*
X963652Y240373D01*
X963650Y240450D01*
D10*
X771536Y250617D02*
X769584Y252569D01*
X771536Y250617D02*
X773488Y250617D01*
X775440Y252569D01*
X775440Y262328D01*
X777391Y262328D02*
X773488Y262328D01*
X781294Y260376D02*
X783245Y262328D01*
X787149Y262328D01*
X789101Y260376D01*
X789101Y258424D01*
X787149Y256472D01*
X789101Y254520D01*
X789101Y252569D01*
X787149Y250617D01*
X783245Y250617D01*
X781294Y252569D01*
X781294Y254520D01*
X783245Y256472D01*
X781294Y258424D01*
X781294Y260376D01*
X783245Y256472D02*
X787149Y256472D01*
D22*
X818150Y96700D02*
X958150Y96700D01*
X818150Y96700D02*
X818150Y178700D01*
X958150Y178700D01*
D24*
X963650Y145200D02*
X963652Y145277D01*
X963658Y145354D01*
X963668Y145431D01*
X963682Y145507D01*
X963699Y145582D01*
X963721Y145656D01*
X963746Y145729D01*
X963776Y145801D01*
X963808Y145871D01*
X963845Y145939D01*
X963884Y146005D01*
X963927Y146069D01*
X963974Y146131D01*
X964023Y146190D01*
X964076Y146247D01*
X964131Y146301D01*
X964189Y146352D01*
X964250Y146400D01*
X964313Y146445D01*
X964378Y146486D01*
X964445Y146524D01*
X964514Y146559D01*
X964585Y146589D01*
X964657Y146617D01*
X964731Y146640D01*
X964805Y146660D01*
X964881Y146676D01*
X964957Y146688D01*
X965034Y146696D01*
X965111Y146700D01*
X965189Y146700D01*
X965266Y146696D01*
X965343Y146688D01*
X965419Y146676D01*
X965495Y146660D01*
X965569Y146640D01*
X965643Y146617D01*
X965715Y146589D01*
X965786Y146559D01*
X965855Y146524D01*
X965922Y146486D01*
X965987Y146445D01*
X966050Y146400D01*
X966111Y146352D01*
X966169Y146301D01*
X966224Y146247D01*
X966277Y146190D01*
X966326Y146131D01*
X966373Y146069D01*
X966416Y146005D01*
X966455Y145939D01*
X966492Y145871D01*
X966524Y145801D01*
X966554Y145729D01*
X966579Y145656D01*
X966601Y145582D01*
X966618Y145507D01*
X966632Y145431D01*
X966642Y145354D01*
X966648Y145277D01*
X966650Y145200D01*
X966648Y145123D01*
X966642Y145046D01*
X966632Y144969D01*
X966618Y144893D01*
X966601Y144818D01*
X966579Y144744D01*
X966554Y144671D01*
X966524Y144599D01*
X966492Y144529D01*
X966455Y144461D01*
X966416Y144395D01*
X966373Y144331D01*
X966326Y144269D01*
X966277Y144210D01*
X966224Y144153D01*
X966169Y144099D01*
X966111Y144048D01*
X966050Y144000D01*
X965987Y143955D01*
X965922Y143914D01*
X965855Y143876D01*
X965786Y143841D01*
X965715Y143811D01*
X965643Y143783D01*
X965569Y143760D01*
X965495Y143740D01*
X965419Y143724D01*
X965343Y143712D01*
X965266Y143704D01*
X965189Y143700D01*
X965111Y143700D01*
X965034Y143704D01*
X964957Y143712D01*
X964881Y143724D01*
X964805Y143740D01*
X964731Y143760D01*
X964657Y143783D01*
X964585Y143811D01*
X964514Y143841D01*
X964445Y143876D01*
X964378Y143914D01*
X964313Y143955D01*
X964250Y144000D01*
X964189Y144048D01*
X964131Y144099D01*
X964076Y144153D01*
X964023Y144210D01*
X963974Y144269D01*
X963927Y144331D01*
X963884Y144395D01*
X963845Y144461D01*
X963808Y144529D01*
X963776Y144599D01*
X963746Y144671D01*
X963721Y144744D01*
X963699Y144818D01*
X963682Y144893D01*
X963668Y144969D01*
X963658Y145046D01*
X963652Y145123D01*
X963650Y145200D01*
D10*
X790586Y98217D02*
X788634Y100169D01*
X790586Y98217D02*
X792538Y98217D01*
X794490Y100169D01*
X794490Y109928D01*
X796441Y109928D02*
X792538Y109928D01*
X800344Y100169D02*
X802295Y98217D01*
X806199Y98217D01*
X808151Y100169D01*
X808151Y107976D01*
X806199Y109928D01*
X802295Y109928D01*
X800344Y107976D01*
X800344Y106024D01*
X802295Y104072D01*
X808151Y104072D01*
D12*
X750824Y119380D02*
X750824Y231140D01*
X726440Y231140D01*
X618236Y231140D02*
X618236Y119380D01*
X639572Y119380D01*
X650240Y119380D02*
X664972Y119380D01*
X675640Y119380D02*
X715772Y119380D01*
X726440Y119380D02*
X750824Y119380D01*
X715772Y231140D02*
X650240Y231140D01*
X639572Y231140D02*
X618236Y231140D01*
X805180Y194056D02*
X811530Y178816D01*
X798830Y178816D01*
X805180Y194056D01*
X801624Y373126D02*
X814578Y373126D01*
X801624Y373126D02*
X801624Y348234D01*
X801624Y196596D02*
X814578Y196596D01*
X843788Y216916D02*
X843788Y352806D01*
X801624Y221488D02*
X801624Y196596D01*
D19*
X774700Y241300D03*
D11*
X767733Y233305D02*
X767733Y225933D01*
X767733Y233305D02*
X771419Y233305D01*
X772648Y232077D01*
X772648Y229619D01*
X771419Y228390D01*
X767733Y228390D01*
X770190Y228390D02*
X772648Y225933D01*
X777674Y232077D02*
X780132Y233305D01*
X777674Y232077D02*
X775217Y229619D01*
X775217Y227162D01*
X776446Y225933D01*
X778903Y225933D01*
X780132Y227162D01*
X780132Y228390D01*
X778903Y229619D01*
X775217Y229619D01*
D12*
X50800Y345694D02*
X44450Y360934D01*
X57150Y360934D01*
X50800Y345694D01*
X54356Y166624D02*
X41402Y166624D01*
X54356Y166624D02*
X54356Y191516D01*
X54356Y343154D02*
X41402Y343154D01*
X12192Y322834D02*
X12192Y186944D01*
X54356Y318262D02*
X54356Y343154D01*
M02*
