G04 EAGLE Gerber RS-274X export*
G75*
%MOMM*%
%FSLAX34Y34*%
%LPD*%
%INMilling*%
%IPPOS*%
%AMOC8*
5,1,8,0,0,1.08239X$1,22.5*%
G01*

G36*
X153855Y416399D02*
X153855Y416399D01*
X153855Y416400D01*
X153855Y436400D01*
X153851Y436405D01*
X153850Y436405D01*
X143850Y436405D01*
X143845Y436401D01*
X143845Y436400D01*
X143845Y416400D01*
X143849Y416395D01*
X143850Y416395D01*
X153850Y416395D01*
X153855Y416399D01*
G37*
G36*
X98855Y416399D02*
X98855Y416399D01*
X98855Y416400D01*
X98855Y436400D01*
X98851Y436405D01*
X98850Y436405D01*
X88850Y436405D01*
X88845Y436401D01*
X88845Y436400D01*
X88845Y416400D01*
X88849Y416395D01*
X88850Y416395D01*
X98850Y416395D01*
X98855Y416399D01*
G37*
G36*
X890155Y415449D02*
X890155Y415449D01*
X890155Y415450D01*
X890155Y435450D01*
X890151Y435455D01*
X890150Y435455D01*
X880150Y435455D01*
X880145Y435451D01*
X880145Y435450D01*
X880145Y415450D01*
X880149Y415445D01*
X880150Y415445D01*
X890150Y415445D01*
X890155Y415449D01*
G37*
G36*
X951155Y415449D02*
X951155Y415449D01*
X951155Y415450D01*
X951155Y435450D01*
X951151Y435455D01*
X951150Y435455D01*
X941150Y435455D01*
X941145Y435451D01*
X941145Y435450D01*
X941145Y415450D01*
X941149Y415445D01*
X941150Y415445D01*
X951150Y415445D01*
X951155Y415449D01*
G37*
G36*
X835155Y415449D02*
X835155Y415449D01*
X835155Y415450D01*
X835155Y435450D01*
X835151Y435455D01*
X835150Y435455D01*
X825150Y435455D01*
X825145Y435451D01*
X825145Y435450D01*
X825145Y415450D01*
X825149Y415445D01*
X825150Y415445D01*
X835150Y415445D01*
X835155Y415449D01*
G37*
G36*
X190855Y396399D02*
X190855Y396399D01*
X190855Y396400D01*
X190855Y416400D01*
X190851Y416405D01*
X190850Y416405D01*
X180850Y416405D01*
X180845Y416401D01*
X180845Y416400D01*
X180845Y396400D01*
X180849Y396395D01*
X180850Y396395D01*
X190850Y396395D01*
X190855Y396399D01*
G37*
G36*
X74855Y396399D02*
X74855Y396399D01*
X74855Y396400D01*
X74855Y416400D01*
X74851Y416405D01*
X74850Y416405D01*
X64850Y416405D01*
X64845Y416401D01*
X64845Y416400D01*
X64845Y396400D01*
X64849Y396395D01*
X64850Y396395D01*
X74850Y396395D01*
X74855Y396399D01*
G37*
G36*
X135855Y396399D02*
X135855Y396399D01*
X135855Y396400D01*
X135855Y416400D01*
X135851Y416405D01*
X135850Y416405D01*
X125850Y416405D01*
X125845Y416401D01*
X125845Y416400D01*
X125845Y396400D01*
X125849Y396395D01*
X125850Y396395D01*
X135850Y396395D01*
X135855Y396399D01*
G37*
G36*
X872155Y395449D02*
X872155Y395449D01*
X872155Y395450D01*
X872155Y415450D01*
X872151Y415455D01*
X872150Y415455D01*
X862150Y415455D01*
X862145Y415451D01*
X862145Y415450D01*
X862145Y395450D01*
X862149Y395445D01*
X862150Y395445D01*
X872150Y395445D01*
X872155Y395449D01*
G37*
G36*
X927155Y395449D02*
X927155Y395449D01*
X927155Y395450D01*
X927155Y415450D01*
X927151Y415455D01*
X927150Y415455D01*
X917150Y415455D01*
X917145Y415451D01*
X917145Y415450D01*
X917145Y395450D01*
X917149Y395445D01*
X917150Y395445D01*
X927150Y395445D01*
X927155Y395449D01*
G37*
G36*
X98855Y321149D02*
X98855Y321149D01*
X98855Y321150D01*
X98855Y341150D01*
X98851Y341155D01*
X98850Y341155D01*
X88850Y341155D01*
X88845Y341151D01*
X88845Y341150D01*
X88845Y321150D01*
X88849Y321145D01*
X88850Y321145D01*
X98850Y321145D01*
X98855Y321149D01*
G37*
G36*
X153855Y321149D02*
X153855Y321149D01*
X153855Y321150D01*
X153855Y341150D01*
X153851Y341155D01*
X153850Y341155D01*
X143850Y341155D01*
X143845Y341151D01*
X143845Y341150D01*
X143845Y321150D01*
X143849Y321145D01*
X143850Y321145D01*
X153850Y321145D01*
X153855Y321149D01*
G37*
G36*
X951155Y320199D02*
X951155Y320199D01*
X951155Y320200D01*
X951155Y340200D01*
X951151Y340205D01*
X951150Y340205D01*
X941150Y340205D01*
X941145Y340201D01*
X941145Y340200D01*
X941145Y320200D01*
X941149Y320195D01*
X941150Y320195D01*
X951150Y320195D01*
X951155Y320199D01*
G37*
G36*
X835155Y320199D02*
X835155Y320199D01*
X835155Y320200D01*
X835155Y340200D01*
X835151Y340205D01*
X835150Y340205D01*
X825150Y340205D01*
X825145Y340201D01*
X825145Y340200D01*
X825145Y320200D01*
X825149Y320195D01*
X825150Y320195D01*
X835150Y320195D01*
X835155Y320199D01*
G37*
G36*
X890155Y320199D02*
X890155Y320199D01*
X890155Y320200D01*
X890155Y340200D01*
X890151Y340205D01*
X890150Y340205D01*
X880150Y340205D01*
X880145Y340201D01*
X880145Y340200D01*
X880145Y320200D01*
X880149Y320195D01*
X880150Y320195D01*
X890150Y320195D01*
X890155Y320199D01*
G37*
G36*
X190855Y301149D02*
X190855Y301149D01*
X190855Y301150D01*
X190855Y321150D01*
X190851Y321155D01*
X190850Y321155D01*
X180850Y321155D01*
X180845Y321151D01*
X180845Y321150D01*
X180845Y301150D01*
X180849Y301145D01*
X180850Y301145D01*
X190850Y301145D01*
X190855Y301149D01*
G37*
G36*
X135855Y301149D02*
X135855Y301149D01*
X135855Y301150D01*
X135855Y321150D01*
X135851Y321155D01*
X135850Y321155D01*
X125850Y321155D01*
X125845Y321151D01*
X125845Y321150D01*
X125845Y301150D01*
X125849Y301145D01*
X125850Y301145D01*
X135850Y301145D01*
X135855Y301149D01*
G37*
G36*
X74855Y301149D02*
X74855Y301149D01*
X74855Y301150D01*
X74855Y321150D01*
X74851Y321155D01*
X74850Y321155D01*
X64850Y321155D01*
X64845Y321151D01*
X64845Y321150D01*
X64845Y301150D01*
X64849Y301145D01*
X64850Y301145D01*
X74850Y301145D01*
X74855Y301149D01*
G37*
G36*
X927155Y300199D02*
X927155Y300199D01*
X927155Y300200D01*
X927155Y320200D01*
X927151Y320205D01*
X927150Y320205D01*
X917150Y320205D01*
X917145Y320201D01*
X917145Y320200D01*
X917145Y300200D01*
X917149Y300195D01*
X917150Y300195D01*
X927150Y300195D01*
X927155Y300199D01*
G37*
G36*
X872155Y300199D02*
X872155Y300199D01*
X872155Y300200D01*
X872155Y320200D01*
X872151Y320205D01*
X872150Y320205D01*
X862150Y320205D01*
X862145Y320201D01*
X862145Y320200D01*
X862145Y300200D01*
X862149Y300195D01*
X862150Y300195D01*
X872150Y300195D01*
X872155Y300199D01*
G37*
G36*
X98855Y225899D02*
X98855Y225899D01*
X98855Y225900D01*
X98855Y245900D01*
X98851Y245905D01*
X98850Y245905D01*
X88850Y245905D01*
X88845Y245901D01*
X88845Y245900D01*
X88845Y225900D01*
X88849Y225895D01*
X88850Y225895D01*
X98850Y225895D01*
X98855Y225899D01*
G37*
G36*
X153855Y225899D02*
X153855Y225899D01*
X153855Y225900D01*
X153855Y245900D01*
X153851Y245905D01*
X153850Y245905D01*
X143850Y245905D01*
X143845Y245901D01*
X143845Y245900D01*
X143845Y225900D01*
X143849Y225895D01*
X143850Y225895D01*
X153850Y225895D01*
X153855Y225899D01*
G37*
G36*
X951155Y224949D02*
X951155Y224949D01*
X951155Y224950D01*
X951155Y244950D01*
X951151Y244955D01*
X951150Y244955D01*
X941150Y244955D01*
X941145Y244951D01*
X941145Y244950D01*
X941145Y224950D01*
X941149Y224945D01*
X941150Y224945D01*
X951150Y224945D01*
X951155Y224949D01*
G37*
G36*
X835155Y224949D02*
X835155Y224949D01*
X835155Y224950D01*
X835155Y244950D01*
X835151Y244955D01*
X835150Y244955D01*
X825150Y244955D01*
X825145Y244951D01*
X825145Y244950D01*
X825145Y224950D01*
X825149Y224945D01*
X825150Y224945D01*
X835150Y224945D01*
X835155Y224949D01*
G37*
G36*
X890155Y224949D02*
X890155Y224949D01*
X890155Y224950D01*
X890155Y244950D01*
X890151Y244955D01*
X890150Y244955D01*
X880150Y244955D01*
X880145Y244951D01*
X880145Y244950D01*
X880145Y224950D01*
X880149Y224945D01*
X880150Y224945D01*
X890150Y224945D01*
X890155Y224949D01*
G37*
G36*
X135855Y205899D02*
X135855Y205899D01*
X135855Y205900D01*
X135855Y225900D01*
X135851Y225905D01*
X135850Y225905D01*
X125850Y225905D01*
X125845Y225901D01*
X125845Y225900D01*
X125845Y205900D01*
X125849Y205895D01*
X125850Y205895D01*
X135850Y205895D01*
X135855Y205899D01*
G37*
G36*
X190855Y205899D02*
X190855Y205899D01*
X190855Y205900D01*
X190855Y225900D01*
X190851Y225905D01*
X190850Y225905D01*
X180850Y225905D01*
X180845Y225901D01*
X180845Y225900D01*
X180845Y205900D01*
X180849Y205895D01*
X180850Y205895D01*
X190850Y205895D01*
X190855Y205899D01*
G37*
G36*
X74855Y205899D02*
X74855Y205899D01*
X74855Y205900D01*
X74855Y225900D01*
X74851Y225905D01*
X74850Y225905D01*
X64850Y225905D01*
X64845Y225901D01*
X64845Y225900D01*
X64845Y205900D01*
X64849Y205895D01*
X64850Y205895D01*
X74850Y205895D01*
X74855Y205899D01*
G37*
G36*
X872155Y204949D02*
X872155Y204949D01*
X872155Y204950D01*
X872155Y224950D01*
X872151Y224955D01*
X872150Y224955D01*
X862150Y224955D01*
X862145Y224951D01*
X862145Y224950D01*
X862145Y204950D01*
X862149Y204945D01*
X862150Y204945D01*
X872150Y204945D01*
X872155Y204949D01*
G37*
G36*
X927155Y204949D02*
X927155Y204949D01*
X927155Y204950D01*
X927155Y224950D01*
X927151Y224955D01*
X927150Y224955D01*
X917150Y224955D01*
X917145Y224951D01*
X917145Y224950D01*
X917145Y204950D01*
X917149Y204945D01*
X917150Y204945D01*
X927150Y204945D01*
X927155Y204949D01*
G37*
G36*
X153855Y130649D02*
X153855Y130649D01*
X153855Y130650D01*
X153855Y150650D01*
X153851Y150655D01*
X153850Y150655D01*
X143850Y150655D01*
X143845Y150651D01*
X143845Y150650D01*
X143845Y130650D01*
X143849Y130645D01*
X143850Y130645D01*
X153850Y130645D01*
X153855Y130649D01*
G37*
G36*
X98855Y130649D02*
X98855Y130649D01*
X98855Y130650D01*
X98855Y150650D01*
X98851Y150655D01*
X98850Y150655D01*
X88850Y150655D01*
X88845Y150651D01*
X88845Y150650D01*
X88845Y130650D01*
X88849Y130645D01*
X88850Y130645D01*
X98850Y130645D01*
X98855Y130649D01*
G37*
G36*
X951155Y129699D02*
X951155Y129699D01*
X951155Y129700D01*
X951155Y149700D01*
X951151Y149705D01*
X951150Y149705D01*
X941150Y149705D01*
X941145Y149701D01*
X941145Y149700D01*
X941145Y129700D01*
X941149Y129695D01*
X941150Y129695D01*
X951150Y129695D01*
X951155Y129699D01*
G37*
G36*
X835155Y129699D02*
X835155Y129699D01*
X835155Y129700D01*
X835155Y149700D01*
X835151Y149705D01*
X835150Y149705D01*
X825150Y149705D01*
X825145Y149701D01*
X825145Y149700D01*
X825145Y129700D01*
X825149Y129695D01*
X825150Y129695D01*
X835150Y129695D01*
X835155Y129699D01*
G37*
G36*
X890155Y129699D02*
X890155Y129699D01*
X890155Y129700D01*
X890155Y149700D01*
X890151Y149705D01*
X890150Y149705D01*
X880150Y149705D01*
X880145Y149701D01*
X880145Y149700D01*
X880145Y129700D01*
X880149Y129695D01*
X880150Y129695D01*
X890150Y129695D01*
X890155Y129699D01*
G37*
G36*
X190855Y110649D02*
X190855Y110649D01*
X190855Y110650D01*
X190855Y130650D01*
X190851Y130655D01*
X190850Y130655D01*
X180850Y130655D01*
X180845Y130651D01*
X180845Y130650D01*
X180845Y110650D01*
X180849Y110645D01*
X180850Y110645D01*
X190850Y110645D01*
X190855Y110649D01*
G37*
G36*
X135855Y110649D02*
X135855Y110649D01*
X135855Y110650D01*
X135855Y130650D01*
X135851Y130655D01*
X135850Y130655D01*
X125850Y130655D01*
X125845Y130651D01*
X125845Y130650D01*
X125845Y110650D01*
X125849Y110645D01*
X125850Y110645D01*
X135850Y110645D01*
X135855Y110649D01*
G37*
G36*
X74855Y110649D02*
X74855Y110649D01*
X74855Y110650D01*
X74855Y130650D01*
X74851Y130655D01*
X74850Y130655D01*
X64850Y130655D01*
X64845Y130651D01*
X64845Y130650D01*
X64845Y110650D01*
X64849Y110645D01*
X64850Y110645D01*
X74850Y110645D01*
X74855Y110649D01*
G37*
G36*
X872155Y109699D02*
X872155Y109699D01*
X872155Y109700D01*
X872155Y129700D01*
X872151Y129705D01*
X872150Y129705D01*
X862150Y129705D01*
X862145Y129701D01*
X862145Y129700D01*
X862145Y109700D01*
X862149Y109695D01*
X862150Y109695D01*
X872150Y109695D01*
X872155Y109699D01*
G37*
G36*
X927155Y109699D02*
X927155Y109699D01*
X927155Y109700D01*
X927155Y129700D01*
X927151Y129705D01*
X927150Y129705D01*
X917150Y129705D01*
X917145Y129701D01*
X917145Y129700D01*
X917145Y109700D01*
X917149Y109695D01*
X917150Y109695D01*
X927150Y109695D01*
X927155Y109699D01*
G37*
M02*
