G04 EAGLE Gerber RS-274X export*
G75*
%MOMM*%
%FSLAX34Y34*%
%LPD*%
%IN*%
%IPPOS*%
%AMOC8*
5,1,8,0,0,1.08239X$1,22.5*%
G01*
%ADD10C,0.254000*%


D10*
X1270Y11270D02*
X1308Y10398D01*
X1422Y9534D01*
X1611Y8682D01*
X1873Y7850D01*
X2207Y7044D01*
X2610Y6270D01*
X3078Y5534D01*
X3610Y4842D01*
X4199Y4199D01*
X4842Y3610D01*
X5534Y3078D01*
X6270Y2610D01*
X7044Y2207D01*
X7850Y1873D01*
X8682Y1611D01*
X9534Y1422D01*
X10398Y1308D01*
X11270Y1270D01*
X981870Y1270D01*
X982742Y1308D01*
X983606Y1422D01*
X984458Y1611D01*
X985290Y1873D01*
X986096Y2207D01*
X986870Y2610D01*
X987606Y3078D01*
X988298Y3610D01*
X988941Y4199D01*
X989530Y4842D01*
X990062Y5534D01*
X990530Y6270D01*
X990933Y7044D01*
X991267Y7850D01*
X991529Y8682D01*
X991718Y9534D01*
X991832Y10398D01*
X991870Y11270D01*
X991870Y26670D01*
X1017270Y52070D01*
X1017270Y379730D01*
X991870Y405130D01*
X991870Y519430D01*
X976630Y534670D01*
X11270Y534670D01*
X10398Y534632D01*
X9534Y534518D01*
X8682Y534329D01*
X7850Y534067D01*
X7044Y533733D01*
X6270Y533330D01*
X5534Y532862D01*
X4842Y532330D01*
X4199Y531741D01*
X3610Y531098D01*
X3078Y530406D01*
X2610Y529670D01*
X2207Y528896D01*
X1873Y528090D01*
X1611Y527258D01*
X1422Y526406D01*
X1308Y525542D01*
X1270Y524670D01*
X1270Y11270D01*
X982470Y26146D02*
X982402Y25101D01*
X982265Y24062D01*
X982060Y23035D01*
X981789Y22023D01*
X981453Y21031D01*
X981052Y20063D01*
X980588Y19124D01*
X980065Y18216D01*
X979483Y17345D01*
X978845Y16514D01*
X978154Y15727D01*
X977413Y14986D01*
X976626Y14295D01*
X975795Y13658D01*
X974924Y13076D01*
X974016Y12552D01*
X973077Y12088D01*
X972109Y11687D01*
X971117Y11351D01*
X970105Y11080D01*
X969078Y10875D01*
X968039Y10739D01*
X966994Y10670D01*
X965946Y10670D01*
X964901Y10739D01*
X963862Y10875D01*
X962835Y11080D01*
X961823Y11351D01*
X960831Y11687D01*
X959863Y12088D01*
X958924Y12552D01*
X958016Y13076D01*
X957145Y13658D01*
X956314Y14295D01*
X955527Y14986D01*
X954786Y15727D01*
X954095Y16514D01*
X953458Y17345D01*
X952876Y18216D01*
X952352Y19124D01*
X951888Y20063D01*
X951487Y21031D01*
X951151Y22023D01*
X950880Y23035D01*
X950675Y24062D01*
X950539Y25101D01*
X950470Y26146D01*
X950470Y27194D01*
X950539Y28239D01*
X950675Y29278D01*
X950880Y30305D01*
X951151Y31317D01*
X951487Y32309D01*
X951888Y33277D01*
X952352Y34216D01*
X952876Y35124D01*
X953458Y35995D01*
X954095Y36826D01*
X954786Y37613D01*
X955527Y38354D01*
X956314Y39045D01*
X957145Y39683D01*
X958016Y40265D01*
X958924Y40788D01*
X959863Y41252D01*
X960831Y41653D01*
X961823Y41989D01*
X962835Y42260D01*
X963862Y42465D01*
X964901Y42602D01*
X965946Y42670D01*
X966994Y42670D01*
X968039Y42602D01*
X969078Y42465D01*
X970105Y42260D01*
X971117Y41989D01*
X972109Y41653D01*
X973077Y41252D01*
X974016Y40788D01*
X974924Y40265D01*
X975795Y39683D01*
X976626Y39045D01*
X977413Y38354D01*
X978154Y37613D01*
X978845Y36826D01*
X979483Y35995D01*
X980065Y35124D01*
X980588Y34216D01*
X981052Y33277D01*
X981453Y32309D01*
X981789Y31317D01*
X982060Y30305D01*
X982265Y29278D01*
X982402Y28239D01*
X982470Y27194D01*
X982470Y26146D01*
X169670Y508746D02*
X169602Y507701D01*
X169465Y506662D01*
X169260Y505635D01*
X168989Y504623D01*
X168653Y503631D01*
X168252Y502663D01*
X167788Y501724D01*
X167265Y500816D01*
X166683Y499945D01*
X166045Y499114D01*
X165354Y498327D01*
X164613Y497586D01*
X163826Y496895D01*
X162995Y496258D01*
X162124Y495676D01*
X161216Y495152D01*
X160277Y494688D01*
X159309Y494287D01*
X158317Y493951D01*
X157305Y493680D01*
X156278Y493475D01*
X155239Y493339D01*
X154194Y493270D01*
X153146Y493270D01*
X152101Y493339D01*
X151062Y493475D01*
X150035Y493680D01*
X149023Y493951D01*
X148031Y494287D01*
X147063Y494688D01*
X146124Y495152D01*
X145216Y495676D01*
X144345Y496258D01*
X143514Y496895D01*
X142727Y497586D01*
X141986Y498327D01*
X141295Y499114D01*
X140658Y499945D01*
X140076Y500816D01*
X139552Y501724D01*
X139088Y502663D01*
X138687Y503631D01*
X138351Y504623D01*
X138080Y505635D01*
X137875Y506662D01*
X137739Y507701D01*
X137670Y508746D01*
X137670Y509794D01*
X137739Y510839D01*
X137875Y511878D01*
X138080Y512905D01*
X138351Y513917D01*
X138687Y514909D01*
X139088Y515877D01*
X139552Y516816D01*
X140076Y517724D01*
X140658Y518595D01*
X141295Y519426D01*
X141986Y520213D01*
X142727Y520954D01*
X143514Y521645D01*
X144345Y522283D01*
X145216Y522865D01*
X146124Y523388D01*
X147063Y523852D01*
X148031Y524253D01*
X149023Y524589D01*
X150035Y524860D01*
X151062Y525065D01*
X152101Y525202D01*
X153146Y525270D01*
X154194Y525270D01*
X155239Y525202D01*
X156278Y525065D01*
X157305Y524860D01*
X158317Y524589D01*
X159309Y524253D01*
X160277Y523852D01*
X161216Y523388D01*
X162124Y522865D01*
X162995Y522283D01*
X163826Y521645D01*
X164613Y520954D01*
X165354Y520213D01*
X166045Y519426D01*
X166683Y518595D01*
X167265Y517724D01*
X167788Y516816D01*
X168252Y515877D01*
X168653Y514909D01*
X168989Y513917D01*
X169260Y512905D01*
X169465Y511878D01*
X169602Y510839D01*
X169670Y509794D01*
X169670Y508746D01*
X918970Y508746D02*
X918902Y507701D01*
X918765Y506662D01*
X918560Y505635D01*
X918289Y504623D01*
X917953Y503631D01*
X917552Y502663D01*
X917088Y501724D01*
X916565Y500816D01*
X915983Y499945D01*
X915345Y499114D01*
X914654Y498327D01*
X913913Y497586D01*
X913126Y496895D01*
X912295Y496258D01*
X911424Y495676D01*
X910516Y495152D01*
X909577Y494688D01*
X908609Y494287D01*
X907617Y493951D01*
X906605Y493680D01*
X905578Y493475D01*
X904539Y493339D01*
X903494Y493270D01*
X902446Y493270D01*
X901401Y493339D01*
X900362Y493475D01*
X899335Y493680D01*
X898323Y493951D01*
X897331Y494287D01*
X896363Y494688D01*
X895424Y495152D01*
X894516Y495676D01*
X893645Y496258D01*
X892814Y496895D01*
X892027Y497586D01*
X891286Y498327D01*
X890595Y499114D01*
X889958Y499945D01*
X889376Y500816D01*
X888852Y501724D01*
X888388Y502663D01*
X887987Y503631D01*
X887651Y504623D01*
X887380Y505635D01*
X887175Y506662D01*
X887039Y507701D01*
X886970Y508746D01*
X886970Y509794D01*
X887039Y510839D01*
X887175Y511878D01*
X887380Y512905D01*
X887651Y513917D01*
X887987Y514909D01*
X888388Y515877D01*
X888852Y516816D01*
X889376Y517724D01*
X889958Y518595D01*
X890595Y519426D01*
X891286Y520213D01*
X892027Y520954D01*
X892814Y521645D01*
X893645Y522283D01*
X894516Y522865D01*
X895424Y523388D01*
X896363Y523852D01*
X897331Y524253D01*
X898323Y524589D01*
X899335Y524860D01*
X900362Y525065D01*
X901401Y525202D01*
X902446Y525270D01*
X903494Y525270D01*
X904539Y525202D01*
X905578Y525065D01*
X906605Y524860D01*
X907617Y524589D01*
X908609Y524253D01*
X909577Y523852D01*
X910516Y523388D01*
X911424Y522865D01*
X912295Y522283D01*
X913126Y521645D01*
X913913Y520954D01*
X914654Y520213D01*
X915345Y519426D01*
X915983Y518595D01*
X916565Y517724D01*
X917088Y516816D01*
X917552Y515877D01*
X917953Y514909D01*
X918289Y513917D01*
X918560Y512905D01*
X918765Y511878D01*
X918902Y510839D01*
X918970Y509794D01*
X918970Y508746D01*
X156970Y26146D02*
X156902Y25101D01*
X156765Y24062D01*
X156560Y23035D01*
X156289Y22023D01*
X155953Y21031D01*
X155552Y20063D01*
X155088Y19124D01*
X154565Y18216D01*
X153983Y17345D01*
X153345Y16514D01*
X152654Y15727D01*
X151913Y14986D01*
X151126Y14295D01*
X150295Y13658D01*
X149424Y13076D01*
X148516Y12552D01*
X147577Y12088D01*
X146609Y11687D01*
X145617Y11351D01*
X144605Y11080D01*
X143578Y10875D01*
X142539Y10739D01*
X141494Y10670D01*
X140446Y10670D01*
X139401Y10739D01*
X138362Y10875D01*
X137335Y11080D01*
X136323Y11351D01*
X135331Y11687D01*
X134363Y12088D01*
X133424Y12552D01*
X132516Y13076D01*
X131645Y13658D01*
X130814Y14295D01*
X130027Y14986D01*
X129286Y15727D01*
X128595Y16514D01*
X127958Y17345D01*
X127376Y18216D01*
X126852Y19124D01*
X126388Y20063D01*
X125987Y21031D01*
X125651Y22023D01*
X125380Y23035D01*
X125175Y24062D01*
X125039Y25101D01*
X124970Y26146D01*
X124970Y27194D01*
X125039Y28239D01*
X125175Y29278D01*
X125380Y30305D01*
X125651Y31317D01*
X125987Y32309D01*
X126388Y33277D01*
X126852Y34216D01*
X127376Y35124D01*
X127958Y35995D01*
X128595Y36826D01*
X129286Y37613D01*
X130027Y38354D01*
X130814Y39045D01*
X131645Y39683D01*
X132516Y40265D01*
X133424Y40788D01*
X134363Y41252D01*
X135331Y41653D01*
X136323Y41989D01*
X137335Y42260D01*
X138362Y42465D01*
X139401Y42602D01*
X140446Y42670D01*
X141494Y42670D01*
X142539Y42602D01*
X143578Y42465D01*
X144605Y42260D01*
X145617Y41989D01*
X146609Y41653D01*
X147577Y41252D01*
X148516Y40788D01*
X149424Y40265D01*
X150295Y39683D01*
X151126Y39045D01*
X151913Y38354D01*
X152654Y37613D01*
X153345Y36826D01*
X153983Y35995D01*
X154565Y35124D01*
X155088Y34216D01*
X155552Y33277D01*
X155953Y32309D01*
X156289Y31317D01*
X156560Y30305D01*
X156765Y29278D01*
X156902Y28239D01*
X156970Y27194D01*
X156970Y26146D01*
X677670Y356346D02*
X677602Y355301D01*
X677465Y354262D01*
X677260Y353235D01*
X676989Y352223D01*
X676653Y351231D01*
X676252Y350263D01*
X675788Y349324D01*
X675265Y348416D01*
X674683Y347545D01*
X674045Y346714D01*
X673354Y345927D01*
X672613Y345186D01*
X671826Y344495D01*
X670995Y343858D01*
X670124Y343276D01*
X669216Y342752D01*
X668277Y342288D01*
X667309Y341887D01*
X666317Y341551D01*
X665305Y341280D01*
X664278Y341075D01*
X663239Y340939D01*
X662194Y340870D01*
X661146Y340870D01*
X660101Y340939D01*
X659062Y341075D01*
X658035Y341280D01*
X657023Y341551D01*
X656031Y341887D01*
X655063Y342288D01*
X654124Y342752D01*
X653216Y343276D01*
X652345Y343858D01*
X651514Y344495D01*
X650727Y345186D01*
X649986Y345927D01*
X649295Y346714D01*
X648658Y347545D01*
X648076Y348416D01*
X647552Y349324D01*
X647088Y350263D01*
X646687Y351231D01*
X646351Y352223D01*
X646080Y353235D01*
X645875Y354262D01*
X645739Y355301D01*
X645670Y356346D01*
X645670Y357394D01*
X645739Y358439D01*
X645875Y359478D01*
X646080Y360505D01*
X646351Y361517D01*
X646687Y362509D01*
X647088Y363477D01*
X647552Y364416D01*
X648076Y365324D01*
X648658Y366195D01*
X649295Y367026D01*
X649986Y367813D01*
X650727Y368554D01*
X651514Y369245D01*
X652345Y369883D01*
X653216Y370465D01*
X654124Y370988D01*
X655063Y371452D01*
X656031Y371853D01*
X657023Y372189D01*
X658035Y372460D01*
X659062Y372665D01*
X660101Y372802D01*
X661146Y372870D01*
X662194Y372870D01*
X663239Y372802D01*
X664278Y372665D01*
X665305Y372460D01*
X666317Y372189D01*
X667309Y371853D01*
X668277Y371452D01*
X669216Y370988D01*
X670124Y370465D01*
X670995Y369883D01*
X671826Y369245D01*
X672613Y368554D01*
X673354Y367813D01*
X674045Y367026D01*
X674683Y366195D01*
X675265Y365324D01*
X675788Y364416D01*
X676252Y363477D01*
X676653Y362509D01*
X676989Y361517D01*
X677260Y360505D01*
X677465Y359478D01*
X677602Y358439D01*
X677670Y357394D01*
X677670Y356346D01*
X677670Y76946D02*
X677602Y75901D01*
X677465Y74862D01*
X677260Y73835D01*
X676989Y72823D01*
X676653Y71831D01*
X676252Y70863D01*
X675788Y69924D01*
X675265Y69016D01*
X674683Y68145D01*
X674045Y67314D01*
X673354Y66527D01*
X672613Y65786D01*
X671826Y65095D01*
X670995Y64458D01*
X670124Y63876D01*
X669216Y63352D01*
X668277Y62888D01*
X667309Y62487D01*
X666317Y62151D01*
X665305Y61880D01*
X664278Y61675D01*
X663239Y61539D01*
X662194Y61470D01*
X661146Y61470D01*
X660101Y61539D01*
X659062Y61675D01*
X658035Y61880D01*
X657023Y62151D01*
X656031Y62487D01*
X655063Y62888D01*
X654124Y63352D01*
X653216Y63876D01*
X652345Y64458D01*
X651514Y65095D01*
X650727Y65786D01*
X649986Y66527D01*
X649295Y67314D01*
X648658Y68145D01*
X648076Y69016D01*
X647552Y69924D01*
X647088Y70863D01*
X646687Y71831D01*
X646351Y72823D01*
X646080Y73835D01*
X645875Y74862D01*
X645739Y75901D01*
X645670Y76946D01*
X645670Y77994D01*
X645739Y79039D01*
X645875Y80078D01*
X646080Y81105D01*
X646351Y82117D01*
X646687Y83109D01*
X647088Y84077D01*
X647552Y85016D01*
X648076Y85924D01*
X648658Y86795D01*
X649295Y87626D01*
X649986Y88413D01*
X650727Y89154D01*
X651514Y89845D01*
X652345Y90483D01*
X653216Y91065D01*
X654124Y91588D01*
X655063Y92052D01*
X656031Y92453D01*
X657023Y92789D01*
X658035Y93060D01*
X659062Y93265D01*
X660101Y93402D01*
X661146Y93470D01*
X662194Y93470D01*
X663239Y93402D01*
X664278Y93265D01*
X665305Y93060D01*
X666317Y92789D01*
X667309Y92453D01*
X668277Y92052D01*
X669216Y91588D01*
X670124Y91065D01*
X670995Y90483D01*
X671826Y89845D01*
X672613Y89154D01*
X673354Y88413D01*
X674045Y87626D01*
X674683Y86795D01*
X675265Y85924D01*
X675788Y85016D01*
X676252Y84077D01*
X676653Y83109D01*
X676989Y82117D01*
X677260Y81105D01*
X677465Y80078D01*
X677602Y79039D01*
X677670Y77994D01*
X677670Y76946D01*
M02*
