G04 EAGLE Gerber RS-274X export*
G75*
%MOMM*%
%FSLAX34Y34*%
%LPD*%
%INSolderpaste Top*%
%IPPOS*%
%AMOC8*
5,1,8,0,0,1.08239X$1,22.5*%
G01*
%ADD10R,1.800000X0.800000*%
%ADD11R,1.000000X1.100000*%
%ADD12R,2.000000X1.200000*%
%ADD13R,1.100000X1.000000*%
%ADD14R,1.500000X0.285000*%
%ADD15R,0.285000X1.500000*%
%ADD16R,1.200000X1.400000*%
%ADD17R,1.200000X2.000000*%
%ADD18R,1.200000X0.550000*%
%ADD19R,0.550000X1.200000*%
%ADD20R,0.952500X0.508000*%
%ADD21R,0.800000X1.800000*%
%ADD22R,3.200000X1.200000*%
%ADD23R,1.168400X1.600200*%
%ADD24R,0.800000X1.300000*%
%ADD25R,2.100000X3.000000*%
%ADD26R,0.400000X0.400000*%
%ADD27R,0.965200X1.930400*%
%ADD28R,0.914400X1.778000*%
%ADD29R,1.300000X0.800000*%
%ADD30R,3.000000X2.100000*%


D10*
X496824Y365888D03*
X496824Y381888D03*
D11*
X540512Y366912D03*
X540512Y383912D03*
X520192Y366912D03*
X520192Y383912D03*
X468884Y367674D03*
X468884Y384674D03*
D12*
X437134Y193546D03*
X437134Y161546D03*
D11*
X464820Y193158D03*
X464820Y176158D03*
D13*
X389518Y382524D03*
X406518Y382524D03*
X389264Y362204D03*
X406264Y362204D03*
D11*
X409509Y193605D03*
X409509Y176605D03*
D13*
X374997Y170713D03*
X391997Y170713D03*
X375177Y191483D03*
X392177Y191483D03*
D10*
X497078Y407798D03*
X497078Y423798D03*
D11*
X540512Y408822D03*
X540512Y425822D03*
X520192Y408822D03*
X520192Y425822D03*
X469138Y408314D03*
X469138Y425314D03*
D10*
X678434Y314834D03*
X678434Y330834D03*
D11*
X681482Y272660D03*
X681482Y255660D03*
D14*
X324786Y314106D03*
X324786Y309106D03*
X324786Y304106D03*
X324786Y299106D03*
X324786Y294106D03*
X324786Y289106D03*
X324786Y284106D03*
X324786Y279106D03*
X324786Y274106D03*
X324786Y269106D03*
X324786Y264106D03*
X324786Y259106D03*
X324786Y254106D03*
X324786Y249106D03*
X324786Y244106D03*
X324786Y239106D03*
D15*
X345786Y218106D03*
X350786Y218106D03*
X355786Y218106D03*
X360786Y218106D03*
X365786Y218106D03*
X370786Y218106D03*
X375786Y218106D03*
X380786Y218106D03*
X385786Y218106D03*
X390786Y218106D03*
X395786Y218106D03*
X400786Y218106D03*
X405786Y218106D03*
X410786Y218106D03*
X415786Y218106D03*
X420786Y218106D03*
D14*
X441786Y239106D03*
X441786Y244106D03*
X441786Y249106D03*
X441786Y254106D03*
X441786Y259106D03*
X441786Y264106D03*
X441786Y269106D03*
X441786Y274106D03*
X441786Y279106D03*
X441786Y284106D03*
X441786Y289106D03*
X441786Y294106D03*
X441786Y299106D03*
X441786Y304106D03*
X441786Y309106D03*
X441786Y314106D03*
D15*
X420786Y335106D03*
X415786Y335106D03*
X410786Y335106D03*
X405786Y335106D03*
X400786Y335106D03*
X395786Y335106D03*
X390786Y335106D03*
X385786Y335106D03*
X380786Y335106D03*
X375786Y335106D03*
X370786Y335106D03*
X365786Y335106D03*
X360786Y335106D03*
X355786Y335106D03*
X350786Y335106D03*
X345786Y335106D03*
D11*
X441452Y368436D03*
X441452Y385436D03*
X271526Y217052D03*
X271526Y234052D03*
X271526Y258962D03*
X271526Y275962D03*
D13*
X237372Y299974D03*
X254372Y299974D03*
D11*
X271526Y300872D03*
X271526Y317872D03*
D13*
X237372Y320294D03*
X254372Y320294D03*
X237372Y341884D03*
X254372Y341884D03*
D11*
X271526Y344052D03*
X271526Y361052D03*
D13*
X237372Y362458D03*
X254372Y362458D03*
X753736Y439928D03*
X736736Y439928D03*
D11*
X720598Y438268D03*
X720598Y421268D03*
D13*
X753736Y419862D03*
X736736Y419862D03*
X753990Y381254D03*
X736990Y381254D03*
D11*
X720598Y379594D03*
X720598Y362594D03*
D13*
X753990Y361950D03*
X736990Y361950D03*
X747640Y325374D03*
X730640Y325374D03*
D11*
X714248Y323968D03*
X714248Y306968D03*
D13*
X747640Y305816D03*
X730640Y305816D03*
X747640Y283210D03*
X730640Y283210D03*
D11*
X714248Y281296D03*
X714248Y264296D03*
D13*
X747640Y263144D03*
X730640Y263144D03*
X437760Y127508D03*
X420760Y127508D03*
D16*
X413244Y102870D03*
X443244Y102870D03*
D11*
X337058Y194041D03*
X337058Y177041D03*
X334264Y112386D03*
X334264Y95386D03*
X293116Y112259D03*
X293116Y95259D03*
X312928Y112259D03*
X312928Y95259D03*
X441706Y408060D03*
X441706Y425060D03*
D16*
X412764Y419862D03*
X382764Y419862D03*
D13*
X237372Y278384D03*
X254372Y278384D03*
X237372Y258064D03*
X254372Y258064D03*
X237372Y235204D03*
X254372Y235204D03*
X237372Y214884D03*
X254372Y214884D03*
D17*
X490726Y342646D03*
X458726Y342646D03*
D11*
X631698Y408822D03*
X631698Y425822D03*
X607060Y408822D03*
X607060Y425822D03*
X607060Y361578D03*
X607060Y378578D03*
D18*
X289767Y194920D03*
X289767Y185420D03*
X289767Y175920D03*
X315769Y175920D03*
X315769Y194920D03*
D19*
X290728Y129747D03*
X300228Y129747D03*
X309728Y129747D03*
X309728Y155749D03*
X290728Y155749D03*
D20*
X586809Y406758D03*
X586809Y416258D03*
X586809Y425758D03*
X561282Y425758D03*
X561282Y406758D03*
X586936Y367195D03*
X586936Y376695D03*
X586936Y386195D03*
X561409Y386195D03*
X561409Y367195D03*
D13*
X654475Y325681D03*
X637475Y325681D03*
D11*
X434160Y62361D03*
X434160Y45361D03*
D13*
X590371Y84910D03*
X607371Y84910D03*
D11*
X580210Y195505D03*
X580210Y178505D03*
D21*
X579210Y55903D03*
X595210Y55903D03*
D13*
X536627Y120830D03*
X519627Y120830D03*
D16*
X520602Y141224D03*
X550602Y141224D03*
X561948Y74026D03*
X531948Y74026D03*
D13*
X517999Y321473D03*
X534999Y321473D03*
D22*
X26119Y506623D03*
X94119Y506623D03*
X94119Y466623D03*
X26119Y466623D03*
D13*
X117189Y490355D03*
X134189Y490355D03*
D23*
X583951Y324406D03*
X599191Y324406D03*
X614431Y324406D03*
D24*
X630923Y264970D03*
X618423Y264970D03*
X605923Y264970D03*
X593423Y264970D03*
X580923Y264970D03*
X568423Y264970D03*
X555923Y264970D03*
X543423Y264970D03*
X530923Y264970D03*
X518423Y264970D03*
D25*
X656423Y292470D03*
X492923Y292470D03*
D13*
X254639Y115720D03*
X237639Y115720D03*
X254639Y135110D03*
X237639Y135110D03*
X253369Y185067D03*
X236369Y185067D03*
D11*
X271087Y180971D03*
X271087Y197971D03*
D13*
X254631Y154953D03*
X271631Y154953D03*
X254631Y96192D03*
X271631Y96192D03*
D11*
X221582Y133989D03*
X221582Y116989D03*
X219448Y180971D03*
X219448Y197971D03*
X271859Y117471D03*
X271859Y134471D03*
D26*
X213407Y224793D03*
X223407Y220793D03*
X223407Y228793D03*
X213407Y267973D03*
X223407Y263973D03*
X223407Y271973D03*
X213407Y309883D03*
X223407Y305883D03*
X223407Y313883D03*
X213407Y351793D03*
X223407Y347793D03*
X223407Y355793D03*
X778463Y430527D03*
X768463Y434527D03*
X768463Y426527D03*
X778463Y370837D03*
X768463Y374837D03*
X768463Y366837D03*
X772113Y314957D03*
X762113Y318957D03*
X762113Y310957D03*
X772113Y273047D03*
X762113Y277047D03*
X762113Y269047D03*
D11*
X336243Y145419D03*
X336243Y128419D03*
X357518Y177041D03*
X357518Y194041D03*
D13*
X117471Y467302D03*
X134471Y467302D03*
D27*
X644906Y123444D03*
X670306Y123444D03*
X721106Y123444D03*
X721106Y227076D03*
D28*
X644906Y227076D03*
D29*
X805180Y228600D03*
X805180Y241100D03*
X805180Y253600D03*
X805180Y266100D03*
X805180Y278600D03*
X805180Y291100D03*
X805180Y303600D03*
X805180Y316100D03*
X805180Y328600D03*
X805180Y341100D03*
D30*
X832680Y203100D03*
X832680Y366600D03*
D13*
X783200Y241300D03*
X766200Y241300D03*
D29*
X50800Y311150D03*
X50800Y298650D03*
X50800Y286150D03*
X50800Y273650D03*
X50800Y261150D03*
X50800Y248650D03*
X50800Y236150D03*
X50800Y223650D03*
X50800Y211150D03*
X50800Y198650D03*
D30*
X23300Y336650D03*
X23300Y173150D03*
M02*
