G04 EAGLE Gerber RS-274X export*
G75*
%MOMM*%
%FSLAX34Y34*%
%LPD*%
%INSolderpaste Bottom*%
%IPPOS*%
%AMOC8*
5,1,8,0,0,1.08239X$1,22.5*%
G01*
%ADD10R,1.100000X1.000000*%
%ADD11R,1.000000X1.100000*%
%ADD12R,0.431800X1.612900*%


D10*
X366640Y266954D03*
X349640Y266954D03*
X366640Y246126D03*
X349640Y246126D03*
X349894Y290322D03*
X366894Y290322D03*
X349894Y310642D03*
X366894Y310642D03*
X381644Y288798D03*
X398644Y288798D03*
X381644Y309118D03*
X398644Y309118D03*
X426330Y267716D03*
X409330Y267716D03*
D11*
X415544Y305426D03*
X415544Y288426D03*
D10*
X441062Y336296D03*
X424062Y336296D03*
D11*
X482780Y39016D03*
X482780Y22016D03*
X480240Y141403D03*
X480240Y124403D03*
D10*
X594790Y49350D03*
X577790Y49350D03*
X601146Y76060D03*
X584146Y76060D03*
X562083Y144328D03*
X545083Y144328D03*
X491880Y181404D03*
X474880Y181404D03*
X492129Y160302D03*
X475129Y160302D03*
D12*
X497800Y123889D03*
X504300Y123889D03*
X510800Y123889D03*
X517300Y123889D03*
X523800Y123889D03*
X530300Y123889D03*
X536800Y123889D03*
X543300Y123889D03*
X549800Y123889D03*
X556300Y123889D03*
X556300Y53912D03*
X549800Y53912D03*
X543300Y53912D03*
X536800Y53912D03*
X530300Y53912D03*
X523800Y53912D03*
X517300Y53912D03*
X510800Y53912D03*
X504300Y53912D03*
X497800Y53912D03*
D11*
X800100Y65650D03*
X800100Y48650D03*
D10*
X840350Y50800D03*
X823350Y50800D03*
X713350Y50800D03*
X696350Y50800D03*
D11*
X762000Y48650D03*
X762000Y65650D03*
D10*
X647310Y44450D03*
X630310Y44450D03*
X745100Y50800D03*
X728100Y50800D03*
M02*
