G04 EAGLE Gerber RS-274X export*
G75*
%MOMM*%
%FSLAX34Y34*%
%LPD*%
%INSoldermask Bottom*%
%IPPOS*%
%AMOC8*
5,1,8,0,0,1.08239X$1,22.5*%
G01*
%ADD10C,3.200000*%
%ADD11R,1.100000X1.000000*%
%ADD12R,1.000000X1.100000*%
%ADD13P,1.814519X8X22.500000*%
%ADD14P,2.089446X8X22.500000*%
%ADD15R,1.160000X1.160000*%
%ADD16C,1.160000*%
%ADD17R,0.431800X1.612900*%
%ADD18C,1.500000*%


D10*
X966470Y26670D03*
X153670Y509270D03*
X902970Y509270D03*
X140970Y26670D03*
X661670Y356870D03*
X661670Y77470D03*
D11*
X366640Y266954D03*
X349640Y266954D03*
X366640Y246126D03*
X349640Y246126D03*
X349894Y290322D03*
X366894Y290322D03*
X349894Y310642D03*
X366894Y310642D03*
X381644Y288798D03*
X398644Y288798D03*
X381644Y309118D03*
X398644Y309118D03*
X426330Y267716D03*
X409330Y267716D03*
D12*
X415544Y305426D03*
X415544Y288426D03*
D13*
X457200Y508000D03*
X482600Y508000D03*
X508000Y508000D03*
X533400Y508000D03*
X558800Y508000D03*
X584200Y508000D03*
X609600Y508000D03*
X635000Y508000D03*
X685800Y508000D03*
X711200Y508000D03*
X736600Y508000D03*
X762000Y508000D03*
X787400Y508000D03*
X812800Y508000D03*
X838200Y508000D03*
X863600Y508000D03*
X736600Y25400D03*
X762000Y25400D03*
X787400Y25400D03*
X812800Y25400D03*
X838200Y25400D03*
X863600Y25400D03*
X889000Y25400D03*
X914400Y25400D03*
X508000Y25400D03*
X533400Y25400D03*
X558800Y25400D03*
X584200Y25400D03*
X609600Y25400D03*
X635000Y25400D03*
X660400Y25400D03*
X685800Y25400D03*
X187960Y508000D03*
X213360Y508000D03*
X238760Y508000D03*
X264160Y508000D03*
X289560Y508000D03*
X314960Y508000D03*
X340360Y508000D03*
X365760Y508000D03*
X391160Y508000D03*
X416560Y508000D03*
X279400Y25400D03*
X304800Y25400D03*
X330200Y25400D03*
X355600Y25400D03*
X381000Y25400D03*
X406400Y25400D03*
X431800Y25400D03*
X457200Y25400D03*
D14*
X385318Y117928D03*
X385318Y91948D03*
D11*
X441062Y336296D03*
X424062Y336296D03*
D14*
X385318Y143909D03*
D12*
X482780Y39016D03*
X482780Y22016D03*
X480240Y141403D03*
X480240Y124403D03*
D15*
X618564Y140379D03*
D16*
X643964Y140379D03*
X720164Y140379D03*
X745564Y140379D03*
X770964Y140379D03*
D11*
X594790Y49350D03*
X577790Y49350D03*
X601146Y76060D03*
X584146Y76060D03*
X562083Y144328D03*
X545083Y144328D03*
X491880Y181404D03*
X474880Y181404D03*
X492129Y160302D03*
X475129Y160302D03*
D17*
X497800Y123889D03*
X504300Y123889D03*
X510800Y123889D03*
X517300Y123889D03*
X523800Y123889D03*
X530300Y123889D03*
X536800Y123889D03*
X543300Y123889D03*
X549800Y123889D03*
X556300Y123889D03*
X556300Y53912D03*
X549800Y53912D03*
X543300Y53912D03*
X536800Y53912D03*
X530300Y53912D03*
X523800Y53912D03*
X517300Y53912D03*
X510800Y53912D03*
X504300Y53912D03*
X497800Y53912D03*
D12*
X800100Y65650D03*
X800100Y48650D03*
D11*
X840350Y50800D03*
X823350Y50800D03*
X713350Y50800D03*
X696350Y50800D03*
D12*
X762000Y48650D03*
X762000Y65650D03*
D11*
X647310Y44450D03*
X630310Y44450D03*
X745100Y50800D03*
X728100Y50800D03*
D18*
X69850Y113150D02*
X69850Y128150D01*
X93850Y133150D02*
X93850Y148150D01*
X130850Y128150D02*
X130850Y113150D01*
X148850Y133150D02*
X148850Y148150D01*
X185850Y128150D02*
X185850Y113150D01*
X69850Y208400D02*
X69850Y223400D01*
X93850Y228400D02*
X93850Y243400D01*
X130850Y223400D02*
X130850Y208400D01*
X148850Y228400D02*
X148850Y243400D01*
X185850Y223400D02*
X185850Y208400D01*
X69850Y303650D02*
X69850Y318650D01*
X93850Y323650D02*
X93850Y338650D01*
X130850Y318650D02*
X130850Y303650D01*
X148850Y323650D02*
X148850Y338650D01*
X185850Y318650D02*
X185850Y303650D01*
X69850Y398900D02*
X69850Y413900D01*
X93850Y418900D02*
X93850Y433900D01*
X130850Y413900D02*
X130850Y398900D01*
X148850Y418900D02*
X148850Y433900D01*
X185850Y413900D02*
X185850Y398900D01*
X946150Y417950D02*
X946150Y432950D01*
X922150Y412950D02*
X922150Y397950D01*
X885150Y417950D02*
X885150Y432950D01*
X867150Y412950D02*
X867150Y397950D01*
X830150Y417950D02*
X830150Y432950D01*
X946150Y337700D02*
X946150Y322700D01*
X922150Y317700D02*
X922150Y302700D01*
X885150Y322700D02*
X885150Y337700D01*
X867150Y317700D02*
X867150Y302700D01*
X830150Y322700D02*
X830150Y337700D01*
X946150Y242450D02*
X946150Y227450D01*
X922150Y222450D02*
X922150Y207450D01*
X885150Y227450D02*
X885150Y242450D01*
X867150Y222450D02*
X867150Y207450D01*
X830150Y227450D02*
X830150Y242450D01*
X946150Y147200D02*
X946150Y132200D01*
X922150Y127200D02*
X922150Y112200D01*
X885150Y132200D02*
X885150Y147200D01*
X867150Y127200D02*
X867150Y112200D01*
X830150Y132200D02*
X830150Y147200D01*
M02*
